<?xml version="1.0" encoding="utf-8"?>
<!-- Generator: Adobe Illustrator 17.0.2, SVG Export Plug-In . SVG Version: 6.00 Build 0)  -->
<!DOCTYPE svg PUBLIC "-//W3C//DTD SVG 1.1//EN" "http://www.w3.org/Graphics/SVG/1.1/DTD/svg11.dtd" [
	<!ENTITY ns_extend "http://ns.adobe.com/Extensibility/1.0/">
	<!ENTITY ns_ai "http://ns.adobe.com/AdobeIllustrator/10.0/">
	<!ENTITY ns_graphs "http://ns.adobe.com/Graphs/1.0/">
	<!ENTITY ns_vars "http://ns.adobe.com/Variables/1.0/">
	<!ENTITY ns_imrep "http://ns.adobe.com/ImageReplacement/1.0/">
	<!ENTITY ns_sfw "http://ns.adobe.com/SaveForWeb/1.0/">
	<!ENTITY ns_custom "http://ns.adobe.com/GenericCustomNamespace/1.0/">
	<!ENTITY ns_adobe_xpath "http://ns.adobe.com/XPath/1.0/">
]>
<svg version="1.1" id="Layer_1" xmlns:x="&ns_extend;" xmlns:i="&ns_ai;" xmlns:graph="&ns_graphs;"
	 xmlns="http://www.w3.org/2000/svg" xmlns:xlink="http://www.w3.org/1999/xlink" x="0px" y="0px" width="176.767px"
	 height="127.778px" viewBox="0 0 176.767 127.778" enable-background="new 0 0 176.767 127.778" xml:space="preserve">
<metadata>
	<sfw  xmlns="&ns_sfw;">
		<slices></slices>
		<sliceSourceBounds  y="-354.075" x="339.343" width="158.809" height="116.21" bottomLeftOrigin="true"></sliceSourceBounds>
	</sfw>
</metadata>
<g>
	<path fill="#1676BB" d="M167.819,16.22V46c0,3.76-3.09,6.85-6.85,6.85H56.859c-3.77,0-6.85-3.09-6.85-6.85V16.22
		c0-3.77,3.08-6.85,6.85-6.85h104.11C164.729,9.37,167.819,12.45,167.819,16.22"/>
	<path fill="#2FA2CD" d="M167.819,16.22V46c0,3.76-3.09,6.85-6.85,6.85H56.859c-3.77,0-6.85-3.09-6.85-6.85V16.22
		c0-3.77,3.08-6.85,6.85-6.85h104.11C164.729,9.37,167.819,12.45,167.819,16.22"/>
	<polyline fill="#EBEBEC" points="158.009,112.5 26.982,112.5 26.982,16.785 158.009,16.785 158.009,112.5 	"/>
	<path fill="#1676BB" d="M167.819,26.96v88.78c0,3.76-3.09,6.84-6.85,6.84H15.859c-3.77,0-6.85-3.08-6.85-6.84V13.22
		c0-3.77,3.08-6.85,6.85-6.85h47.11c0.36,0,1.99,1.25,4.11,3c2.64,2.19,6.02,5.15,8.56,7.41c2.17,1.92,3.74,3.331,3.74,3.331h81.59
		C164.729,20.11,167.819,23.19,167.819,26.96"/>
	<path fill="#F4F4F4" d="M114.715,60.872h-8.258h-0.002c-0.449,0.002-0.816,0.593-0.816,1.317v13.142H71.18V62.189
		c0-0.726-0.368-1.317-0.818-1.317h-8.258h-0.001c-0.45,0.002-0.817,0.593-0.817,1.317v21.718c0,0.725,0.368,1.317,0.817,1.318
		h0.001h5.446h2.812h36.094h0.002h2.811h5.447c0.45,0,0.818-0.592,0.818-1.318V62.189C115.534,61.463,115.165,60.872,114.715,60.872
		"/>
	<path fill="#1676BB" d="M114.715,60.872v-0.125h-8.258h-0.002c-0.284,0.002-0.522,0.186-0.683,0.447
		c-0.162,0.263-0.258,0.612-0.259,0.996v13.017h-34.21l0-13.017c0-0.384-0.096-0.734-0.259-0.997
		c-0.161-0.261-0.4-0.445-0.684-0.446h-8.258h-0.001c-0.284,0.002-0.522,0.186-0.684,0.447c-0.163,0.263-0.259,0.612-0.259,0.996
		v21.718c0,0.384,0.096,0.733,0.259,0.996c0.161,0.261,0.399,0.445,0.683,0.447h0.002h5.446h2.812h36.094h0.002h2.811h5.447
		c0.284-0.001,0.523-0.185,0.684-0.446c0.163-0.263,0.259-0.613,0.259-0.998V62.189c0-0.384-0.096-0.734-0.259-0.997
		c-0.161-0.261-0.4-0.445-0.684-0.446V60.872v0.125c0.167-0.001,0.337,0.111,0.472,0.328c0.134,0.214,0.222,0.523,0.221,0.865
		v21.718c0,0.342-0.088,0.651-0.221,0.866c-0.135,0.217-0.305,0.329-0.472,0.328h-5.447h-2.811h-0.002H70.361H67.55h-5.446h-0.001
		c-0.166,0-0.336-0.112-0.471-0.329c-0.134-0.215-0.222-0.523-0.221-0.864V62.189c0-0.341,0.088-0.649,0.221-0.864
		c0.135-0.216,0.305-0.329,0.472-0.329h0h8.258c0.166-0.001,0.337,0.111,0.472,0.328c0.134,0.214,0.222,0.523,0.221,0.865v13.267
		h34.71V62.189c0-0.341,0.088-0.649,0.221-0.864c0.135-0.216,0.305-0.329,0.471-0.329h0.001h8.258V60.872"/>
	<path fill="#F4F4F4" d="M77.535,54.815v13.309c0,0.55,0.45,1,1,1h19.75c0.55,0,1-0.45,1-1V54.815h2.416
		c0.55,0,0.696-0.332,0.323-0.736L89.086,40.005c-0.372-0.405-0.981-0.405-1.354,0L74.795,54.079
		c-0.373,0.405-0.227,0.736,0.323,0.736H77.535"/>
	<path fill="#1676BB" d="M77.535,54.815H77.41v13.309c0,0.619,0.505,1.124,1.125,1.125h19.75c0.619,0,1.124-0.506,1.125-1.125V54.94
		h2.291c0.187,0,0.342-0.034,0.461-0.109c0.119-0.073,0.196-0.203,0.194-0.342c-0.001-0.166-0.088-0.33-0.24-0.495L89.178,39.92
		c-0.209-0.228-0.489-0.345-0.769-0.344c-0.28,0-0.56,0.116-0.769,0.344L74.703,53.994c-0.151,0.165-0.238,0.329-0.24,0.495
		c-0.002,0.139,0.074,0.269,0.194,0.342c0.119,0.075,0.274,0.108,0.461,0.109h2.416V54.815H77.41H77.535V54.69h-2.416
		c-0.157,0-0.267-0.031-0.327-0.07l-0.078-0.131c-0.001-0.069,0.045-0.188,0.174-0.326L87.825,40.09
		c0.163-0.177,0.374-0.263,0.585-0.264c0.211,0,0.421,0.086,0.585,0.264l12.937,14.074c0.128,0.138,0.175,0.257,0.174,0.326
		l-0.078,0.131c-0.06,0.039-0.17,0.07-0.327,0.07H99.16v13.434c-0.001,0.48-0.395,0.874-0.875,0.875h-19.75
		c-0.481-0.001-0.874-0.395-0.875-0.875V54.69h-0.125V54.815"/>
	<path fill="#F4F4F4" d="M114.221,92.329H62.722c-0.723,0-1.312,0.368-1.312,0.818v8.258v0.002c0.001,0.449,0.59,0.816,1.312,0.816
		h51.499c0.721,0,1.311-0.367,1.313-0.816v-0.002v-8.258C115.534,92.697,114.944,92.329,114.221,92.329"/>
	<path fill="#1676BB" d="M114.221,92.329v-0.125H62.722c-0.383,0-0.731,0.096-0.993,0.259c-0.26,0.161-0.443,0.401-0.443,0.684
		v8.258v0.002c0.002,0.283,0.185,0.522,0.444,0.683c0.262,0.163,0.61,0.258,0.992,0.259h51.499c0.382,0,0.73-0.096,0.992-0.259
		c0.26-0.161,0.443-0.399,0.446-0.682v-0.002v-8.258c-0.001-0.283-0.184-0.523-0.444-0.684c-0.262-0.163-0.611-0.259-0.993-0.259
		V92.329v0.125c0.34,0,0.647,0.088,0.861,0.221c0.216,0.135,0.327,0.305,0.326,0.472v8.258v0.002c0,0.166-0.112,0.336-0.328,0.471
		c-0.214,0.134-0.521,0.221-0.86,0.221H62.722c-0.34,0-0.646-0.088-0.86-0.221c-0.215-0.135-0.327-0.305-0.327-0.471v-0.001v-8.258
		c-0.001-0.167,0.111-0.337,0.326-0.472c0.213-0.134,0.521-0.222,0.861-0.221h51.499V92.329"/>
	<path fill="#2D97BF" d="M88.409,9.37h-21.33c2.64,2.19,6.02,5.15,8.56,7.41c0.002,0.002,0.004,0.003,0.006,0.005h12.764V9.37"/>
	<path fill="#D9DBDC" d="M88.409,16.785H75.645c2.167,1.918,3.735,3.326,3.735,3.326h9.03V16.785"/>
	<path fill="#166CAD" d="M62.969,6.37h-47.11c-3.77,0-6.85,3.08-6.85,6.85v102.52c0,3.76,3.08,6.84,6.85,6.84h72.55v-20.232H62.722
		c-0.382,0-0.73-0.096-0.992-0.259c-0.26-0.161-0.443-0.4-0.444-0.683v-0.002v-8.258c0.001-0.283,0.184-0.523,0.443-0.684
		c0.262-0.163,0.61-0.259,0.993-0.259h25.687v-6.854H70.361H67.55h-5.446h-0.002c-0.283-0.002-0.521-0.186-0.683-0.447
		c-0.163-0.263-0.258-0.613-0.259-0.996V62.189c0-0.384,0.096-0.733,0.259-0.996c0.161-0.261,0.4-0.445,0.684-0.447h0.001h8.258
		c0.284,0.001,0.523,0.185,0.684,0.446c0.163,0.263,0.259,0.613,0.259,0.997l0,13.017h17.105v-5.957h-9.874
		c-0.62,0-1.125-0.506-1.125-1.125V54.94h-2.291c-0.187,0-0.342-0.034-0.461-0.109c-0.119-0.073-0.196-0.203-0.194-0.342
		c0.001-0.166,0.088-0.33,0.24-0.495L87.641,39.92c0.209-0.228,0.489-0.345,0.768-0.344V20.11h-9.03c0,0-1.568-1.408-3.735-3.326
		c-0.002-0.002-0.004-0.003-0.006-0.005c-2.54-2.26-5.92-5.22-8.56-7.41l0,0C64.959,7.62,63.329,6.37,62.969,6.37"/>
	<path fill="#DFE0E1" d="M70.363,60.997c-0.001,0-0.001,0-0.002,0h-8.258h0c-0.167,0-0.337,0.112-0.472,0.329
		c-0.134,0.214-0.222,0.523-0.221,0.864v21.718c0,0.341,0.088,0.65,0.221,0.864c0.135,0.216,0.305,0.329,0.47,0.329c0,0,0,0,0.001,0
		h0.001h5.446h2.812h18.048v-9.645H71.055V62.189c0-0.342-0.088-0.65-0.221-0.865C70.698,61.109,70.529,60.997,70.363,60.997"/>
	<path fill="#166CAD" d="M70.361,60.747h-8.258h-0.001c-0.284,0.002-0.522,0.186-0.684,0.447c-0.163,0.263-0.259,0.612-0.259,0.996
		v21.718c0,0.384,0.096,0.733,0.259,0.996c0.161,0.261,0.399,0.445,0.683,0.447h0.002h5.446h2.812h18.048v-0.25H70.361H67.55h-5.446
		h-0.001c0,0,0,0-0.001,0c-0.165,0-0.335-0.113-0.47-0.329c-0.134-0.215-0.222-0.523-0.221-0.864V62.189
		c0-0.341,0.088-0.649,0.221-0.864c0.135-0.216,0.305-0.329,0.472-0.329h0h8.258c0.001,0,0.001,0,0.002,0
		c0.166,0,0.335,0.112,0.47,0.328c0.134,0.214,0.222,0.523,0.221,0.865v13.267h17.355v-0.25H71.305l0-13.017
		c0-0.384-0.096-0.734-0.259-0.997C70.884,60.931,70.645,60.748,70.361,60.747"/>
	<path fill="#DFE0E1" d="M88.409,39.826c-0.211,0-0.421,0.086-0.584,0.264L74.887,54.163c-0.128,0.138-0.175,0.257-0.174,0.326
		l0.078,0.131c0.06,0.039,0.169,0.07,0.324,0.07c0.001,0,0.002,0,0.003,0h2.416h0.125v13.434c0.001,0.48,0.394,0.874,0.875,0.875
		h9.874V39.826"/>
	<path fill="#166CAD" d="M77.41,54.815h0.125H77.41 M88.409,39.576c-0.28,0-0.559,0.116-0.768,0.344L74.703,53.994
		c-0.151,0.165-0.238,0.329-0.24,0.495c-0.002,0.139,0.074,0.269,0.194,0.342c0.119,0.075,0.274,0.108,0.461,0.109h2.291v13.184
		c0,0.619,0.505,1.124,1.125,1.125h9.874v-0.25h-9.874c-0.481-0.001-0.874-0.395-0.875-0.875V54.69h-0.125h-2.416
		c-0.001,0-0.002,0-0.003,0c-0.155,0-0.265-0.031-0.324-0.07l-0.078-0.131c-0.001-0.069,0.045-0.188,0.174-0.326L87.825,40.09
		c0.163-0.177,0.374-0.263,0.584-0.264V39.576"/>
	<path fill="#DFE0E1" d="M62.72,92.454c-0.339,0-0.646,0.088-0.858,0.221c-0.215,0.135-0.327,0.305-0.326,0.472v8.258v0.001
		c0,0.166,0.111,0.336,0.327,0.471c0.213,0.133,0.519,0.221,0.858,0.221c0,0,0.001,0,0.001,0h25.687v-9.645H62.722
		C62.721,92.454,62.72,92.454,62.72,92.454"/>
	<path fill="#166CAD" d="M88.409,92.204H62.722c-0.383,0-0.731,0.096-0.993,0.259c-0.26,0.161-0.443,0.401-0.443,0.684v8.258v0.002
		c0.002,0.283,0.185,0.522,0.444,0.683c0.262,0.163,0.61,0.258,0.992,0.259h25.687v-0.25H62.722c0,0-0.001,0-0.001,0
		c-0.339,0-0.645-0.088-0.858-0.221c-0.215-0.135-0.327-0.305-0.327-0.471v-0.001v-8.258c-0.001-0.167,0.111-0.337,0.326-0.472
		c0.213-0.133,0.519-0.221,0.858-0.221c0.001,0,0.001,0,0.002,0h25.687V92.204"/>
</g>
</svg>
