<?xml version="1.0" encoding="utf-8"?>
<!-- Generator: Adobe Illustrator 17.0.2, SVG Export Plug-In . SVG Version: 6.00 Build 0)  -->
<!DOCTYPE svg PUBLIC "-//W3C//DTD SVG 1.1//EN" "http://www.w3.org/Graphics/SVG/1.1/DTD/svg11.dtd" [
	<!ENTITY ns_extend "http://ns.adobe.com/Extensibility/1.0/">
	<!ENTITY ns_ai "http://ns.adobe.com/AdobeIllustrator/10.0/">
	<!ENTITY ns_graphs "http://ns.adobe.com/Graphs/1.0/">
	<!ENTITY ns_vars "http://ns.adobe.com/Variables/1.0/">
	<!ENTITY ns_imrep "http://ns.adobe.com/ImageReplacement/1.0/">
	<!ENTITY ns_sfw "http://ns.adobe.com/SaveForWeb/1.0/">
	<!ENTITY ns_custom "http://ns.adobe.com/GenericCustomNamespace/1.0/">
	<!ENTITY ns_adobe_xpath "http://ns.adobe.com/XPath/1.0/">
]>
<svg version="1.1" id="Layer_1" xmlns:x="&ns_extend;" xmlns:i="&ns_ai;" xmlns:graph="&ns_graphs;"
	 xmlns="http://www.w3.org/2000/svg" xmlns:xlink="http://www.w3.org/1999/xlink" x="0px" y="0px" width="324.243px"
	 height="196.969px" viewBox="0 0 324.243 196.969" enable-background="new 0 0 324.243 196.969" xml:space="preserve">
<metadata>
	<sfw  xmlns="&ns_sfw;">
		<slices></slices>
		<sliceSourceBounds  y="-366.627" x="290.31" width="262.049" height="137.327" bottomLeftOrigin="true"></sliceSourceBounds>
	</sfw>
</metadata>
<g>
	<path fill="#1676BB" d="M115.324,141.455v19.391c-0.01,0.619-0.51,1.131-1.13,1.131h-35.66c-0.62,0-1.12-0.512-1.13-1.131v-19.391
		c0-0.619,0.51-1.129,1.13-1.129h35.66C114.813,140.326,115.324,140.835,115.324,141.455"/>
	<polyline fill="#13619C" points="115.324,145.884 96.363,145.884 96.363,160.326 115.324,160.326 115.324,145.884 	"/>
	<path fill="#1676BB" d="M162.034,64.385v77.531v0.01c0,2.18-1.79,3.959-3.97,3.959H34.653c-2.18,0-3.96-1.779-3.97-3.959v-0.01
		V64.385c0-2.18,1.79-3.97,3.97-3.97h123.41C160.253,60.415,162.034,62.205,162.034,64.385"/>
	<path fill="#F4F4F4" d="M150.734,69.507c1.65,0,3,1.35,3,3v61.087c0,1.65-1.35,3-3,3H41.991c-1.65,0-3-1.35-3-3V72.507
		c0-1.65,1.35-3,3-3H150.734"/>
	<path fill="#1676BB" d="M121.733,161.685v2.391c-0.01,1.07-1.34,1.359-2.41,1.359h-45.92c-1.08,0-2.4-0.289-2.41-1.359v-2.391
		c0-1.07,1.33-1.359,2.41-1.359h45.92C120.394,160.326,121.733,160.615,121.733,161.685"/>
	<rect x="139.952" y="97.565" fill="#1676BB" width="119.318" height="12.001"/>
	<path fill="#1676BB" d="M197.311,105.144l-11.576-3.158l14.158-51.901c1.438-5.271,6.642-9.245,12.105-9.245h31.65v12h-31.65
		c-0.115,0.034-0.465,0.301-0.555,0.48L197.311,105.144z"/>
	<circle fill="#F4F4F4" cx="274.002" cy="103.564" r="14.732"/>
	<path fill="#2FA2CD" d="M274.002,122.296c-10.329,0-18.732-8.404-18.732-18.732c0-10.329,8.403-18.732,18.732-18.732
		c10.328,0,18.73,8.403,18.73,18.732C292.733,113.892,284.33,122.296,274.002,122.296z M274.002,92.832
		c-5.918,0-10.732,4.815-10.732,10.732c0,5.918,4.814,10.732,10.732,10.732c5.917,0,10.73-4.815,10.73-10.732
		C284.733,97.647,279.919,92.832,274.002,92.832z"/>
	<circle fill="#F4F4F4" cx="254.426" cy="46.84" r="14.731"/>
	<path fill="#2FA2CD" d="M254.426,65.571c-10.328,0-18.731-8.403-18.731-18.732c0-10.328,8.403-18.731,18.731-18.731
		c10.329,0,18.732,8.403,18.732,18.731C273.159,57.168,264.755,65.571,254.426,65.571z M254.426,36.108
		c-5.917,0-10.731,4.814-10.731,10.731c0,5.917,4.814,10.732,10.731,10.732c5.918,0,10.732-4.815,10.732-10.732
		C265.159,40.923,260.344,36.108,254.426,36.108z"/>
	<polyline fill="#125C95" points="96.363,145.884 77.403,145.884 77.403,160.326 96.363,160.326 96.363,145.884 	"/>
	<path fill="#176FB0" d="M96.363,60.415h-61.71c-2.18,0-3.97,1.79-3.97,3.97v77.531v0.01c0.01,2.18,1.79,3.959,3.97,3.959h42.75
		h18.96v-9.291H41.991c-1.65,0-3-1.35-3-3V72.507c0-1.65,1.35-3,3-3h54.372V60.415"/>
	<path fill="#E4E5E6" d="M96.363,69.507H41.991c-1.65,0-3,1.35-3,3v61.087c0,1.65,1.35,3,3,3h54.372V69.507"/>
	<path fill="#176FB0" d="M96.363,160.326h-18.96h-4c-1.08,0-2.41,0.289-2.41,1.359v2.391c0.01,1.07,1.33,1.359,2.41,1.359h22.96
		V160.326"/>
	<circle fill="#F4F4F4" cx="123.049" cy="103.564" r="14.732"/>
	<path fill="#2FA2CD" d="M123.054,84.835c-10.33,0-18.74,8.4-18.74,18.731c0,10.33,8.41,18.728,18.74,18.728
		c10.32,0,18.73-8.398,18.73-18.728C141.784,93.235,133.374,84.835,123.054,84.835z M123.054,114.294
		c-5.92,0-10.74-4.809-10.74-10.728c0-5.92,4.82-10.731,10.74-10.731c5.91,0,10.73,4.811,10.73,10.731
		C133.784,109.486,128.963,114.294,123.054,114.294z"/>
</g>
</svg>
