<?xml version="1.0" encoding="utf-8"?>
<!-- Generator: Adobe Illustrator 17.0.2, SVG Export Plug-In . SVG Version: 6.00 Build 0)  -->
<!DOCTYPE svg PUBLIC "-//W3C//DTD SVG 1.1//EN" "http://www.w3.org/Graphics/SVG/1.1/DTD/svg11.dtd" [
	<!ENTITY ns_extend "http://ns.adobe.com/Extensibility/1.0/">
	<!ENTITY ns_ai "http://ns.adobe.com/AdobeIllustrator/10.0/">
	<!ENTITY ns_graphs "http://ns.adobe.com/Graphs/1.0/">
	<!ENTITY ns_vars "http://ns.adobe.com/Variables/1.0/">
	<!ENTITY ns_imrep "http://ns.adobe.com/ImageReplacement/1.0/">
	<!ENTITY ns_sfw "http://ns.adobe.com/SaveForWeb/1.0/">
	<!ENTITY ns_custom "http://ns.adobe.com/GenericCustomNamespace/1.0/">
	<!ENTITY ns_adobe_xpath "http://ns.adobe.com/XPath/1.0/">
]>
<svg version="1.1" id="Layer_1" xmlns:x="&ns_extend;" xmlns:i="&ns_ai;" xmlns:graph="&ns_graphs;"
	 xmlns="http://www.w3.org/2000/svg" xmlns:xlink="http://www.w3.org/1999/xlink" x="0px" y="0px" width="176.767px"
	 height="127.778px" viewBox="0 0 176.767 127.778" enable-background="new 0 0 176.767 127.778" xml:space="preserve">
<metadata>
	<sfw  xmlns="&ns_sfw;">
		<slices></slices>
		<sliceSourceBounds  y="-354.075" x="339.834" width="158.81" height="116.21" bottomLeftOrigin="true"></sliceSourceBounds>
	</sfw>
</metadata>
<g>
	<path fill="#1676BB" d="M168.31,16.22V46c0,3.76-3.09,6.85-6.851,6.85H57.35c-3.77,0-6.85-3.09-6.85-6.85V16.22
		c0-3.77,3.08-6.85,6.85-6.85h104.109C165.22,9.37,168.31,12.45,168.31,16.22"/>
	<path fill="#2FA2CD" d="M168.31,16.22V46c0,3.76-3.09,6.85-6.851,6.85H57.35c-3.77,0-6.85-3.09-6.85-6.85V16.22
		c0-3.77,3.08-6.85,6.85-6.85h104.109C165.22,9.37,168.31,12.45,168.31,16.22"/>
	<polyline fill="#EBEBEC" points="158.501,112.5 27.473,112.5 27.473,16.785 158.501,16.785 158.501,112.5 	"/>
	<path fill="#1676BB" d="M168.31,26.96v88.78c0,3.76-3.09,6.84-6.851,6.84H16.35c-3.77,0-6.85-3.08-6.85-6.84V13.22
		c0-3.77,3.08-6.85,6.85-6.85h47.11c0.36,0,1.99,1.25,4.11,3c2.64,2.19,6.02,5.15,8.56,7.41c2.17,1.92,3.74,3.331,3.74,3.331h81.589
		C165.22,20.11,168.31,23.19,168.31,26.96"/>
	<path fill="#F4F4F4" d="M117.516,57.77v9.56c0,0.45-0.64,0.819-1.399,0.819h-54.27c-0.76,0-1.4-0.369-1.4-0.819v-9.56
		c0-0.44,0.64-0.82,1.4-0.82h54.27C116.877,56.95,117.516,57.33,117.516,57.77"/>
	<path fill="#F4F4F4" d="M117.516,42.01v9.55c0,0.45-0.64,0.82-1.399,0.82h-54.27c-0.76,0-1.4-0.37-1.4-0.82v-9.55
		c0-0.45,0.64-0.83,1.4-0.83h54.27C116.877,41.18,117.516,41.56,117.516,42.01"/>
	<path fill="#F4F4F4" d="M115.737,72.86c-6.49,0.699-12,4.99-14.28,11.199h-39.61c-0.76,0-1.4-0.369-1.4-0.819v-9.56
		c0-0.44,0.64-0.82,1.4-0.82H115.737"/>
	<path fill="#F4F4F4" d="M103.537,99.87h-41.69c-0.76,0-1.4-0.38-1.4-0.82v-9.56c0-0.45,0.64-0.82,1.4-0.82h38.61
		c-0.04,0.431-0.059,0.87-0.059,1.32C100.397,93.56,101.487,96.97,103.537,99.87"/>
	<path fill="#F4F4F4" d="M117.647,77.62c-4.561,0-8.73,2.5-10.9,6.52l-0.051,0.11c-0.709,1.351-1.149,2.8-1.319,4.3
		c-0.06,0.43-0.09,0.891-0.09,1.441c0,3.92,1.81,7.53,4.97,9.909c2.15,1.601,4.71,2.451,7.391,2.451
		c6.81,0,12.359-5.551,12.359-12.36C130.006,83.17,124.457,77.62,117.647,77.62z M124.926,87.2l-5.279,7.8
		c-0.49,0.72-1.17,1.25-1.961,1.54c-0.209,0.08-0.439,0.15-0.72,0.2c-0.27,0.04-0.5,0.059-0.71,0.059c-0.88,0-1.71-0.279-2.41-0.8
		l-3.029-2.21c-0.4-0.29-0.66-0.73-0.74-1.221c-0.07-0.489,0.05-0.98,0.34-1.369c0.35-0.48,0.92-0.77,1.51-0.77
		c0.4,0,0.77,0.119,1.09,0.359l3.021,2.21c0.09,0.069,0.18,0.09,0.271,0.069c0.09-0.01,0.18-0.039,0.25-0.15l5.279-7.81
		c0.35-0.51,0.93-0.82,1.551-0.82c0.369,0,0.729,0.109,1.039,0.32C125.266,85.19,125.487,86.351,124.926,87.2z"/>
	<path fill="#2D97BF" d="M88.9,9.37H67.57c2.64,2.19,6.02,5.15,8.56,7.41c0.002,0.002,0.004,0.003,0.005,0.005H88.9V9.37"/>
	<path fill="#D9DBDC" d="M88.9,16.785H76.135c2.167,1.918,3.735,3.326,3.735,3.326h9.03V16.785"/>
	<path fill="#166CAD" d="M63.46,6.37H16.35c-3.77,0-6.85,3.08-6.85,6.85v102.52c0,3.76,3.08,6.84,6.85,6.84H88.9V99.87H61.847
		c-0.76,0-1.4-0.38-1.4-0.82v-9.56c0-0.45,0.64-0.82,1.4-0.82H88.9v-4.61H61.847c-0.76,0-1.4-0.369-1.4-0.819v-9.56
		c0-0.44,0.64-0.82,1.4-0.82H88.9v-4.711H61.847c-0.76,0-1.4-0.369-1.4-0.819v-9.56c0-0.44,0.64-0.82,1.4-0.82H88.9v-4.57H61.847
		c-0.76,0-1.4-0.37-1.4-0.82v-9.55c0-0.45,0.64-0.83,1.4-0.83H88.9V20.11h-9.03c0,0-1.568-1.408-3.735-3.326
		c-0.002-0.002-0.004-0.003-0.005-0.005c-2.54-2.26-5.92-5.22-8.56-7.41l0,0C65.45,7.62,63.82,6.37,63.46,6.37"/>
	<path fill="#DFE0E1" d="M88.9,56.95H61.847c-0.76,0-1.4,0.38-1.4,0.82v9.56c0,0.45,0.64,0.819,1.4,0.819H88.9V56.95"/>
	<path fill="#DFE0E1" d="M88.9,41.18H61.847c-0.76,0-1.4,0.38-1.4,0.83v9.55c0,0.45,0.64,0.82,1.4,0.82H88.9V41.18"/>
	<path fill="#DFE0E1" d="M88.9,72.86H61.847c-0.76,0-1.4,0.38-1.4,0.82v9.56c0,0.45,0.64,0.819,1.4,0.819H88.9V72.86"/>
	<path fill="#DFE0E1" d="M88.9,88.67H61.847c-0.76,0-1.4,0.37-1.4,0.82v9.56c0,0.441,0.64,0.82,1.4,0.82H88.9V88.67"/>
</g>
</svg>
