<?xml version="1.0" encoding="utf-8"?>
<!-- Generator: Adobe Illustrator 17.0.2, SVG Export Plug-In . SVG Version: 6.00 Build 0)  -->
<!DOCTYPE svg PUBLIC "-//W3C//DTD SVG 1.1//EN" "http://www.w3.org/Graphics/SVG/1.1/DTD/svg11.dtd" [
	<!ENTITY ns_extend "http://ns.adobe.com/Extensibility/1.0/">
	<!ENTITY ns_ai "http://ns.adobe.com/AdobeIllustrator/10.0/">
	<!ENTITY ns_graphs "http://ns.adobe.com/Graphs/1.0/">
	<!ENTITY ns_vars "http://ns.adobe.com/Variables/1.0/">
	<!ENTITY ns_imrep "http://ns.adobe.com/ImageReplacement/1.0/">
	<!ENTITY ns_sfw "http://ns.adobe.com/SaveForWeb/1.0/">
	<!ENTITY ns_custom "http://ns.adobe.com/GenericCustomNamespace/1.0/">
	<!ENTITY ns_adobe_xpath "http://ns.adobe.com/XPath/1.0/">
]>
<svg version="1.1" id="Layer_1" xmlns:x="&ns_extend;" xmlns:i="&ns_ai;" xmlns:graph="&ns_graphs;"
	 xmlns="http://www.w3.org/2000/svg" xmlns:xlink="http://www.w3.org/1999/xlink" x="0px" y="0px" width="176.767px"
	 height="127.778px" viewBox="0 0 176.767 127.778" enable-background="new 0 0 176.767 127.778" xml:space="preserve">
<metadata>
	<sfw  xmlns="&ns_sfw;">
		<slices></slices>
		<sliceSourceBounds  y="-354.075" x="339.573" width="158.81" height="116.21" bottomLeftOrigin="true"></sliceSourceBounds>
	</sfw>
</metadata>
<g>
	<path fill="#1676BB" d="M168.049,16.22V46c0,3.76-3.09,6.85-6.85,6.85H57.09c-3.77,0-6.85-3.09-6.85-6.85V16.22
		c0-3.77,3.08-6.85,6.85-6.85H161.2C164.96,9.37,168.049,12.45,168.049,16.22"/>
	<path fill="#2FA2CD" d="M168.049,16.22V46c0,3.76-3.09,6.85-6.85,6.85H57.09c-3.77,0-6.85-3.09-6.85-6.85V16.22
		c0-3.77,3.08-6.85,6.85-6.85H161.2C164.96,9.37,168.049,12.45,168.049,16.22"/>
	<polyline fill="#EBEBEC" points="158.24,112.5 27.212,112.5 27.212,16.785 158.24,16.785 158.24,112.5 	"/>
	<path fill="#1676BB" d="M168.049,26.96v88.78c0,3.76-3.09,6.84-6.85,6.84H16.09c-3.77,0-6.85-3.08-6.85-6.84V13.22
		c0-3.77,3.08-6.85,6.85-6.85H63.2c0.36,0,1.99,1.25,4.11,3c2.64,2.19,6.02,5.15,8.56,7.41c2.17,1.92,3.74,3.331,3.74,3.331h81.59
		C164.96,20.11,168.049,23.19,168.049,26.96"/>
	<path fill="#F4F4F4" d="M55.936,79.489V44.214c0-0.855,0.784-1.558,1.714-1.558h61.978c0.931,0,1.715,0.704,1.715,1.558v35.275
		c0,0.854-0.784,1.576-1.715,1.576H57.65C56.72,81.065,55.936,80.343,55.936,79.489"/>
	<path fill="#F4F4F4" d="M55.936,79.489h0.5V44.214c0-0.271,0.123-0.527,0.344-0.729c0.22-0.2,0.532-0.33,0.87-0.329h61.978
		c0.339,0,0.651,0.129,0.871,0.329c0.221,0.202,0.344,0.458,0.344,0.729v35.275c0,0.27-0.124,0.534-0.347,0.74
		c-0.222,0.204-0.533,0.336-0.868,0.336H57.65c-0.334,0.001-0.645-0.131-0.867-0.336c-0.223-0.206-0.347-0.47-0.347-0.74H55.936
		h-0.5c0,0.583,0.268,1.107,0.67,1.476c0.403,0.37,0.949,0.6,1.544,0.6h61.978c0.596,0,1.142-0.23,1.545-0.6
		c0.402-0.369,0.67-0.893,0.67-1.476V44.214c0-0.583-0.269-1.106-0.673-1.47c-0.404-0.366-0.95-0.587-1.542-0.588H57.65
		c-0.592,0-1.137,0.222-1.541,0.588c-0.404,0.364-0.673,0.887-0.673,1.47v35.275H55.936"/>
	<path fill="#1676BB" d="M60.313,69.78c4.051,0,7.344,3.292,7.344,7.344h35.059h6.907c0-4.052,3.292-7.344,7.344-7.344
		c0.196,0,0.38,0.012,0.564,0.023v-7.906v-0.074v-7.907c-0.184,0.013-0.367,0.025-0.564,0.025c-4.052,0-7.344-3.293-7.344-7.344
		h-6.907H67.657c0,4.051-3.292,7.344-7.344,7.344c-0.197,0-0.38-0.013-0.564-0.025v7.907v0.074v7.906
		C59.933,69.792,60.116,69.78,60.313,69.78"/>
	<path fill="#F4F4F4" d="M79.306,61.86c0-5.156,4.179-9.334,9.333-9.334c5.156,0,9.333,4.177,9.333,9.334
		c0,5.154-4.177,9.332-9.333,9.332C83.485,71.192,79.306,67.015,79.306,61.86"/>
	<path fill="#1676BB" d="M79.306,61.86h0.25c0-2.51,1.016-4.779,2.66-6.424c1.645-1.644,3.914-2.66,6.423-2.66
		c2.51,0,4.779,1.016,6.423,2.66c1.644,1.644,2.66,3.914,2.66,6.424c0,2.509-1.016,4.778-2.66,6.422
		c-1.644,1.644-3.913,2.66-6.423,2.66c-2.509,0-4.778-1.016-6.423-2.66c-1.644-1.644-2.66-3.913-2.66-6.422H79.306h-0.25
		c0,5.292,4.291,9.582,9.583,9.582c5.294,0,9.583-4.29,9.583-9.582c0-5.294-4.289-9.583-9.583-9.584
		c-5.292,0-9.583,4.289-9.583,9.584H79.306"/>
	<path fill="#F4F4F4" d="M55.936,89.489V54.214c0-0.854,0.784-1.558,1.714-1.558h61.978c0.931,0,1.715,0.704,1.715,1.558v35.275
		c0,0.853-0.784,1.576-1.715,1.576H57.65C56.72,91.065,55.936,90.343,55.936,89.489"/>
	<path fill="#F4F4F4" d="M55.936,89.489h0.5V54.214c0-0.271,0.123-0.527,0.344-0.729c0.22-0.2,0.532-0.33,0.87-0.329h61.978
		c0.339,0,0.651,0.129,0.871,0.329c0.221,0.202,0.344,0.458,0.344,0.729v35.275c0,0.27-0.124,0.534-0.347,0.74
		c-0.222,0.205-0.533,0.336-0.868,0.336H57.65c-0.334,0.001-0.645-0.131-0.867-0.336c-0.223-0.206-0.347-0.47-0.347-0.74H55.936
		h-0.5c0,0.583,0.268,1.107,0.67,1.476c0.403,0.37,0.949,0.599,1.544,0.6h61.978c0.596,0,1.142-0.23,1.545-0.6
		c0.402-0.369,0.67-0.893,0.67-1.476V54.214c0-0.584-0.269-1.106-0.673-1.47c-0.404-0.366-0.95-0.587-1.542-0.588H57.65
		c-0.592,0-1.137,0.222-1.541,0.588c-0.404,0.364-0.673,0.887-0.673,1.47v35.275H55.936"/>
	<path fill="#1676BB" d="M60.313,79.78c4.051,0,7.344,3.292,7.344,7.344h35.059h6.907c0-4.052,3.292-7.344,7.344-7.344
		c0.196,0,0.38,0.012,0.564,0.023v-7.906v-0.074v-7.907c-0.184,0.013-0.367,0.025-0.564,0.025c-4.052,0-7.344-3.293-7.344-7.344
		h-6.907H67.657c0,4.051-3.292,7.344-7.344,7.344c-0.197,0-0.38-0.013-0.564-0.025v7.907v0.074v7.906
		C59.933,79.792,60.116,79.78,60.313,79.78"/>
	<path fill="#F4F4F4" d="M79.306,71.86c0-5.156,4.179-9.334,9.333-9.334c5.156,0,9.333,4.177,9.333,9.334
		c0,5.154-4.177,9.332-9.333,9.332C83.485,81.192,79.306,77.015,79.306,71.86"/>
	<path fill="#1676BB" d="M79.306,71.86h0.25c0-2.51,1.016-4.779,2.66-6.424c1.645-1.644,3.914-2.66,6.423-2.66
		c2.51,0,4.779,1.016,6.423,2.66c1.644,1.644,2.66,3.914,2.66,6.424c0,2.509-1.016,4.778-2.66,6.422
		c-1.644,1.644-3.913,2.66-6.423,2.66c-2.509,0-4.778-1.016-6.423-2.66c-1.644-1.644-2.66-3.913-2.66-6.422H79.306h-0.25
		c0,5.292,4.291,9.582,9.583,9.582c5.294,0,9.583-4.29,9.583-9.582c0-5.294-4.289-9.583-9.583-9.584
		c-5.292,0-9.583,4.289-9.583,9.584H79.306"/>
	<path fill="#F4F4F4" d="M55.936,99.489V64.214c0-0.854,0.784-1.558,1.714-1.558h61.978c0.931,0,1.715,0.704,1.715,1.558v35.275
		c0,0.854-0.784,1.576-1.715,1.576H57.65C56.72,101.065,55.936,100.343,55.936,99.489"/>
	<path fill="#F4F4F4" d="M55.936,99.489h0.5V64.214c0-0.271,0.123-0.527,0.344-0.729c0.22-0.2,0.532-0.33,0.87-0.329h61.978
		c0.339,0,0.651,0.13,0.871,0.329c0.221,0.201,0.344,0.458,0.344,0.729v35.275c0,0.271-0.124,0.534-0.347,0.74
		c-0.222,0.204-0.533,0.336-0.868,0.336H57.65c-0.334,0-0.645-0.131-0.867-0.336c-0.223-0.206-0.347-0.47-0.347-0.74H55.936h-0.5
		c0,0.583,0.268,1.107,0.67,1.476c0.403,0.37,0.949,0.599,1.544,0.6h61.978c0.596,0,1.142-0.23,1.545-0.6
		c0.402-0.369,0.67-0.893,0.67-1.476V64.214c0-0.583-0.269-1.106-0.673-1.47c-0.404-0.365-0.95-0.587-1.542-0.588H57.65
		c-0.592,0-1.137,0.222-1.541,0.588c-0.404,0.364-0.673,0.887-0.673,1.47v35.275H55.936"/>
	<path fill="#1676BB" d="M60.313,89.78c4.051,0,7.344,3.292,7.344,7.344h35.059h6.907c0-4.052,3.292-7.344,7.344-7.344
		c0.196,0,0.38,0.012,0.564,0.023v-7.906v-0.074v-7.907c-0.184,0.013-0.367,0.025-0.564,0.025c-4.052,0-7.344-3.293-7.344-7.345
		h-6.907H67.657c0,4.052-3.292,7.345-7.344,7.345c-0.197,0-0.38-0.013-0.564-0.025v7.907v0.074v7.906
		C59.933,89.792,60.116,89.78,60.313,89.78"/>
	<path fill="#F4F4F4" d="M79.306,81.86c0-5.156,4.179-9.334,9.333-9.334c5.156,0,9.333,4.178,9.333,9.334
		c0,5.154-4.177,9.332-9.333,9.332C83.485,91.192,79.306,87.015,79.306,81.86"/>
	<path fill="#1676BB" d="M79.306,81.86h0.25c0-2.51,1.016-4.779,2.66-6.424c1.645-1.644,3.914-2.66,6.423-2.66
		c2.51,0,4.779,1.016,6.423,2.66c1.644,1.644,2.66,3.914,2.66,6.424c0,2.509-1.016,4.778-2.66,6.422
		c-1.644,1.644-3.913,2.66-6.423,2.66c-2.509,0-4.778-1.016-6.423-2.66c-1.644-1.644-2.66-3.913-2.66-6.422H79.306h-0.25
		c0,5.293,4.291,9.582,9.583,9.582c5.294,0,9.583-4.29,9.583-9.582c0-5.294-4.289-9.584-9.583-9.584
		c-5.293,0-9.583,4.29-9.583,9.584H79.306"/>
	<path fill="#2D97BF" d="M88.64,9.37H67.31c2.64,2.19,6.02,5.15,8.56,7.41c0.002,0.002,0.004,0.003,0.005,0.005H88.64V9.37"/>
	<path fill="#D9DBDC" d="M88.64,16.785H75.875c2.167,1.918,3.735,3.326,3.735,3.326h9.03V16.785"/>
	<path fill="#166CAD" d="M63.2,6.37H16.09c-3.77,0-6.85,3.08-6.85,6.85v102.52c0,3.76,3.08,6.84,6.85,6.84h72.55v-21.015H57.65
		c-0.596,0-1.141-0.23-1.544-0.6c-0.402-0.369-0.669-0.893-0.67-1.476h0.5h-0.5v-10l0,0v-10l0,0V44.214
		c0-0.583,0.269-1.106,0.673-1.47c0.404-0.365,0.949-0.587,1.541-0.588h30.99V20.11h-9.03c0,0-1.568-1.408-3.735-3.326
		c-0.002-0.002-0.004-0.003-0.005-0.005c-2.54-2.26-5.92-5.22-8.56-7.41l0,0C65.19,7.62,63.56,6.37,63.2,6.37"/>
	<path fill="#DFE0E1" d="M57.648,43.156c-0.337,0-0.648,0.13-0.868,0.329c-0.221,0.202-0.344,0.458-0.344,0.729v8.284
		c0.352-0.217,0.77-0.342,1.214-0.342h7.459c1.559-1.347,2.548-3.339,2.548-5.559H88.64v-3.441H57.65
		C57.649,43.156,57.649,43.156,57.648,43.156"/>
	<path fill="#DFE0E1" d="M88.64,42.156H57.65c-0.592,0-1.137,0.222-1.541,0.588c-0.404,0.364-0.673,0.887-0.673,1.47v35.275V54.214
		c0-0.584,0.269-1.106,0.673-1.47c0.101-0.091,0.21-0.173,0.327-0.245v-8.284c0-0.271,0.123-0.527,0.344-0.729
		c0.22-0.199,0.531-0.329,0.868-0.329c0.001,0,0.001,0,0.002,0h30.99V42.156"/>
	<path fill="#166CAD" d="M88.64,46.597H67.657c0,2.219-0.988,4.211-2.548,5.559H88.64V46.597"/>
	<path fill="#DFE0E1" d="M57.648,53.156c-0.337,0-0.648,0.13-0.868,0.329c-0.221,0.202-0.344,0.458-0.344,0.729v8.284
		c0.352-0.217,0.77-0.342,1.214-0.342h7.459c1.56-1.348,2.548-3.339,2.548-5.559H88.64v-3.441H57.65
		C57.649,53.156,57.649,53.156,57.648,53.156"/>
	<path fill="#DFE0E1" d="M88.64,52.156H65.109H57.65c-0.444,0-0.862,0.126-1.214,0.342c-0.117,0.072-0.226,0.154-0.327,0.245
		c-0.404,0.364-0.673,0.887-0.673,1.47v25.275v10V64.214c0-0.583,0.269-1.106,0.673-1.47c0.101-0.091,0.21-0.173,0.327-0.245v-8.284
		c0-0.271,0.123-0.527,0.344-0.729c0.22-0.2,0.531-0.329,0.868-0.329c0.001,0,0.001,0,0.002,0h30.99V52.156"/>
	<path fill="#166CAD" d="M88.64,56.597H67.657c0,2.219-0.988,4.211-2.548,5.559H88.64V56.597"/>
	<path fill="#DFE0E1" d="M57.648,63.156c-0.337,0-0.648,0.13-0.868,0.329c-0.221,0.201-0.344,0.458-0.344,0.729v35.275h-0.5h0.5
		c0,0.271,0.124,0.534,0.347,0.74c0.221,0.204,0.532,0.336,0.865,0.336c0.001,0,0.001,0,0.002,0h30.99v-3.441H67.657
		c0-4.052-3.292-7.344-7.344-7.344c-0.197,0-0.38,0.012-0.564,0.023v-7.906v-0.074v-7.907c0.184,0.013,0.367,0.025,0.564,0.025
		c4.051,0,7.344-3.293,7.344-7.345H88.64v-3.441H57.65C57.649,63.156,57.649,63.156,57.648,63.156"/>
	<path fill="#DFE0E1" d="M56.436,99.489h-0.5h-0.5c0,0.583,0.268,1.107,0.67,1.476c0.403,0.37,0.949,0.599,1.544,0.6h30.99v-1H57.65
		c-0.001,0-0.001,0-0.002,0c-0.334,0-0.644-0.132-0.865-0.336C56.56,100.024,56.436,99.76,56.436,99.489 M88.64,62.156H65.109H57.65
		c-0.444,0-0.862,0.125-1.214,0.342c-0.117,0.072-0.226,0.154-0.327,0.245c-0.404,0.364-0.673,0.887-0.673,1.47v25.276v10h0.5h0.5
		V64.214c0-0.271,0.123-0.527,0.344-0.729c0.22-0.2,0.531-0.329,0.868-0.329c0.001,0,0.001,0,0.002,0h30.99V62.156"/>
	<path fill="#166CAD" d="M88.64,66.597H67.657c0,4.052-3.292,7.345-7.344,7.345c-0.197,0-0.38-0.013-0.564-0.025v7.907v0.074v7.906
		c0.184-0.012,0.367-0.023,0.564-0.023c4.051,0,7.344,3.292,7.344,7.344H88.64v-5.682c0,0,0,0,0,0c-5.293,0-9.583-4.289-9.583-9.582
		h0.25l0,0h-0.25c0-5.294,4.291-9.584,9.583-9.584l0,0L88.64,66.597"/>
	<path fill="#DFE0E1" d="M88.639,72.776c-2.509,0-4.778,1.016-6.423,2.66c-1.644,1.644-2.66,3.914-2.66,6.424h-0.25l0,0h0.25
		c0,2.509,1.016,4.778,2.66,6.422c1.645,1.644,3.914,2.66,6.423,2.66c0,0,0,0,0,0L88.639,72.776
		C88.639,72.776,88.639,72.776,88.639,72.776"/>
	<path fill="#166CAD" d="M79.556,81.86h-0.25h-0.25c0,5.293,4.291,9.582,9.583,9.582l0,0l0-0.5c0,0,0,0,0,0
		c-2.509,0-4.778-1.016-6.423-2.66C80.572,86.638,79.556,84.369,79.556,81.86 M88.639,72.276c-5.293,0-9.583,4.29-9.583,9.584h0.25
		h0.25c0-2.51,1.016-4.779,2.66-6.424c1.645-1.644,3.914-2.66,6.423-2.66c0,0,0,0,0,0L88.639,72.276
		C88.639,72.276,88.639,72.276,88.639,72.276"/>
</g>
</svg>
