<?xml version="1.0" encoding="utf-8"?>
<!-- Generator: Adobe Illustrator 17.0.2, SVG Export Plug-In . SVG Version: 6.00 Build 0)  -->

<svg version="1.1" id="Layer_1" xmlns:x="&ns_extend;" xmlns:i="&ns_ai;" xmlns:graph="&ns_graphs;"
	 xmlns="http://www.w3.org/2000/svg" xmlns:xlink="http://www.w3.org/1999/xlink" x="0px" y="0px" width="102px" height="107.875px"
	 viewBox="0 0 102 107.875" enable-background="new 0 0 102 107.875" xml:space="preserve">
<metadata>
	<sfw  xmlns="&ns_sfw;">
		<slices></slices>
		<sliceSourceBounds  x="429.77" y="-334.438" width="100.504" height="104.75" bottomLeftOrigin="true"></sliceSourceBounds>
	</sfw>
</metadata>
<g id="lines">
	<path id="l" fill="none" stroke="#FFFFFF" stroke-miterlimit="10" d="M95.588,24.36L55.991,3.158c-1.327-0.712-3.095-1.095-4.998-1.095
		c-1.89,0-3.657,0.383-4.985,1.095L6.412,24.36c-2.945,1.576-5.164,5.273-5.164,8.615V74.9c0,3.342,2.219,7.04,5.164,8.615
		l39.596,21.188c2.753,1.479,7.231,1.479,9.983,0l39.596-21.188c2.945-1.575,5.164-5.273,5.164-8.615V32.975
		C100.752,29.633,98.533,25.936,95.588,24.36z M75.442,44.124v10.067L53.91,65.737V55.341l0.369-0.11
		c0.7-0.205,1.247-0.424,1.712-0.671L75.442,44.124z M48.747,8.294c0.534-0.287,1.383-0.424,2.246-0.424v0.479V8.87v39.952v0.548
		v0.507c-0.89,0-1.698-0.164-2.232-0.452L10.37,28.839L48.747,8.294z M48.09,55.328v10.409L25.792,53.78V43.713l20.216,10.847
		c0.465,0.247,1.027,0.466,1.712,0.657L48.09,55.328z M7.069,33.674l12.902,6.916v10.067L7.069,43.741V33.674z M7.069,50.342
		l22.037,11.82v10.697L7.069,61.039V50.342z M19.971,84.172L9.164,78.379C8.11,77.817,7.069,76.091,7.069,74.9v-7.245l12.902,6.916
		V84.172z M48.09,99.224l-22.298-11.93v-9.601l20.216,10.833c0.465,0.247,1.027,0.466,1.712,0.671l0.37,0.11V99.224z M50.993,83.857
		c-0.89,0-1.698-0.164-2.232-0.452l-13.833-7.423V65.285l11.081,5.944c2.739,1.465,7.244,1.465,9.983,0l10.781-5.78v10.697
		l-13.533,7.259C52.705,83.693,51.897,83.857,50.993,83.857z M76.25,87.268L53.91,99.224v-9.916l0.369-0.11
		c0.7-0.205,1.247-0.411,1.712-0.671L76.25,77.667V87.268z M94.931,74.9c0,1.191-1.041,2.917-2.096,3.479l-10.764,5.766v-9.601
		l12.86-6.889V74.9z M94.931,61.039L72.593,73.023V62.326l22.338-11.984V61.039z M94.931,43.741l-13.668,7.327V41.002l13.668-7.328
		V43.741z"/>
</g>
<g id="filled">
	<path id="f" fill="#F1F1F2" d="M95.588,24.36L55.991,3.158c-1.327-0.712-3.095-1.095-4.998-1.095c-1.89,0-3.657,0.383-4.985,1.095
		L6.412,24.36c-2.945,1.576-5.164,5.273-5.164,8.615V74.9c0,3.342,2.219,7.04,5.164,8.615l39.596,21.188
		c2.753,1.479,7.231,1.479,9.983,0l39.596-21.188c2.945-1.575,5.164-5.273,5.164-8.615V32.975
		C100.752,29.633,98.533,25.936,95.588,24.36z M75.442,44.124v10.067L53.91,65.737V55.341l0.369-0.11
		c0.7-0.205,1.247-0.424,1.712-0.671L75.442,44.124z M48.747,8.294c0.534-0.287,1.383-0.424,2.246-0.424v0.479V8.87v39.952v0.548
		v0.507c-0.89,0-1.698-0.164-2.232-0.452L10.37,28.839L48.747,8.294z M48.09,55.328v10.409L25.792,53.78V43.713l20.216,10.847
		c0.465,0.247,1.027,0.466,1.712,0.657L48.09,55.328z M7.069,33.674l12.902,6.916v10.067L7.069,43.741V33.674z M7.069,50.342
		l22.037,11.82v10.697L7.069,61.039V50.342z M19.971,84.172L9.164,78.379C8.11,77.817,7.069,76.091,7.069,74.9v-7.245l12.902,6.916
		V84.172z M48.09,99.224l-22.298-11.93v-9.601l20.216,10.833c0.465,0.247,1.027,0.466,1.712,0.671l0.37,0.11V99.224z M50.993,83.857
		c-0.89,0-1.698-0.164-2.232-0.452l-13.833-7.423V65.285l11.081,5.944c2.739,1.465,7.244,1.465,9.983,0l10.781-5.78v10.697
		l-13.533,7.259C52.705,83.693,51.897,83.857,50.993,83.857z M76.25,87.268L53.91,99.224v-9.916l0.369-0.11
		c0.7-0.205,1.247-0.411,1.712-0.671L76.25,77.667V87.268z M94.931,74.9c0,1.191-1.041,2.917-2.096,3.479l-10.764,5.766v-9.601
		l12.86-6.889V74.9z M94.931,61.039L72.593,73.023V62.326l22.338-11.984V61.039z M94.931,43.741l-13.668,7.327V41.002l13.668-7.328
		V43.741z"/>
</g>
</svg>
