<svg xmlns="http://www.w3.org/2000/svg" width="176.767" height="127.778" viewBox="0 0 176.767 127.778"><path fill="#1676BB" d="M168.609 15.557v29.78c0 3.76-3.09 6.85-6.851 6.85h-104.109c-3.77 0-6.85-3.09-6.85-6.85v-29.78c0-3.77 3.08-6.85 6.85-6.85h104.109c3.761 0 6.851 3.08 6.851 6.85"/><path fill="#2FA2CD" d="M168.609 15.557v29.78c0 3.76-3.09 6.85-6.851 6.85h-104.109c-3.77 0-6.85-3.09-6.85-6.85v-29.78c0-3.77 3.08-6.85 6.85-6.85h104.109c3.761 0 6.851 3.08 6.851 6.85"/><path fill="#F4F4F4" d="M69.165 44.432h9.415c.228 0 .415.221.415.482v17.46c0 .262-.187.482-.415.482h-9.415c-.228 0-.42-.221-.42-.482v-17.46c0-.261.193-.482.42-.482"/><path fill="#EBEBEC" d="M158.799 111.837h-131.028v-95.715h131.028v95.715"/><path fill="#1676BB" d="M168.609 26.297v88.78c0 3.76-3.09 6.84-6.851 6.84h-145.109c-3.77 0-6.85-3.08-6.85-6.84v-102.52c0-3.77 3.08-6.85 6.85-6.85h47.11c.36 0 1.99 1.25 4.11 3 2.64 2.19 6.02 5.15 8.56 7.41 2.17 1.92 3.74 3.331 3.74 3.331h81.589c3.761-.001 6.851 3.079 6.851 6.849"/><path fill="#F4F4F4" d="M115.184 66.513v31.969c0 .551-.449 1-1 1h-11.209l-12.711-12.54c-.039-.1-.02-.25.051-.32l11.64-11.32c.431-.42.64-.979.55-1.539-.08-.551-.439-1.041-1.01-1.33l-12.98-6.41 2.81-2.82c.189-.19.779-.77.49-1.49l-.34-.66h-.681c-.229 0-.489.06-.8.2l-8.65 3.87c-.6.28-.97.76-1.02 1.33-.05.561.23 1.1.78 1.471l9.39 6.369-13.23 11.45c-.77.681-1.08 1.899-.73 2.86l5.8 10.879h-18.12c-.55 0-1-.449-1-1v-31.969c0-.811.55-2.031 1.16-2.561l23.96-20.7c.44-.38 1.29-.39 1.73-.01l23.949 20.71c.612.53 1.171 1.75 1.171 2.561"/><path fill="#F4F4F4" d="M97.281 51.557h12.011c.291 0 .529.147.529.322v11.656c0 .175-.238.322-.529.322h-12.011c-.29 0-.536-.147-.536-.322v-11.656c0-.174.246-.322.536-.322z"/><circle fill="#F4F4F4" cx="120.887" cy="80.636" r="12.833"/><path fill="#1676BB" d="M133.72 80.636h-2c-.001 2.998-1.209 5.694-3.173 7.661-1.967 1.963-4.662 3.172-7.66 3.173-2.998-.001-5.693-1.21-7.661-3.173-1.963-1.968-3.172-4.663-3.173-7.661.001-2.997 1.209-5.692 3.173-7.659 1.967-1.964 4.663-3.172 7.661-3.173 2.998.001 5.693 1.209 7.66 3.173 1.964 1.967 3.172 4.662 3.173 7.659h4c-.001-8.192-6.64-14.831-14.833-14.832-8.193.001-14.833 6.64-14.834 14.832.001 8.193 6.641 14.833 14.834 14.834 8.193-.001 14.832-6.641 14.833-14.834h-2zM119.202 82.397l4.311 4.311c.781.781 2.047.781 2.828 0s.781-2.047 0-2.828l-4.311-4.311c-.781-.781-2.047-.781-2.828 0s-.782 2.047 0 2.828M122.616 80.983v-5.682c0-1.104-.896-2-2-2s-2 .896-2 2v5.682c0 1.104.896 2 2 2s2-.895 2-2"/><path fill="#2D97BF" d="M89.199 8.707h-21.33c2.64 2.19 6.02 5.15 8.56 7.41l.005.005h12.765v-7.415"/><path fill="#D9DBDC" d="M89.199 16.122h-12.765c2.167 1.918 3.735 3.326 3.735 3.326h9.03v-3.326"/><path fill="#166CAD" d="M89.199 61.608l-7.854 3.514c-.6.28-.97.76-1.02 1.33-.05.561.23 1.1.78 1.471l8.094 5.49v-7.053l-.684-.338.684-.687v-3.727m-25.44-55.901h-47.11c-3.77 0-6.85 3.08-6.85 6.85v102.52c0 3.76 3.08 6.84 6.85 6.84h72.55v-46.504l-11.934 10.329c-.77.681-1.08 1.899-.73 2.86l5.8 10.879h-18.12c-.55 0-1-.449-1-1v-31.968c0-.811.55-2.031 1.16-2.561l23.96-20.7c.22-.19.542-.287.864-.29v-23.515h-9.03s-1.568-1.408-3.735-3.326l-.005-.005c-2.54-2.26-5.92-5.22-8.56-7.41-2.12-1.749-3.75-2.999-4.11-2.999"/><path fill="#DFE0E1" d="M89.199 65.336l-.684.687.684.338v-1.025m0-22.374c-.322.002-.645.1-.864.29l-23.96 20.7c-.61.53-1.16 1.75-1.16 2.561v31.969c0 .551.45 1 1 1h18.12l-5.8-10.879c-.35-.961-.04-2.18.73-2.86l11.934-10.329v-2l-8.094-5.49c-.55-.371-.83-.91-.78-1.471.05-.57.42-1.05 1.02-1.33l7.854-3.514v-18.647"/></svg>