<?xml version="1.0" encoding="utf-8"?>
<!-- Generator: Adobe Illustrator 16.0.0, SVG Export Plug-In . SVG Version: 6.00 Build 0)  -->
<!DOCTYPE svg PUBLIC "-//W3C//DTD SVG 1.1//EN" "http://www.w3.org/Graphics/SVG/1.1/DTD/svg11.dtd">
<svg version="1.1" id="Layer_1" xmlns="http://www.w3.org/2000/svg" xmlns:xlink="http://www.w3.org/1999/xlink" x="0px" y="0px"
	 width="176.767px" height="127.778px" viewBox="0 0 176.767 127.778" enable-background="new 0 0 176.767 127.778"
	 xml:space="preserve">
<g>
	<path fill="#1676BB" d="M168.609,15.557v29.78c0,3.76-3.09,6.85-6.851,6.85H57.649c-3.77,0-6.85-3.09-6.85-6.85v-29.78
		c0-3.77,3.08-6.85,6.85-6.85h104.109C165.519,8.707,168.609,11.787,168.609,15.557"/>
	<path fill="#2FA2CD" d="M168.609,15.557v29.78c0,3.76-3.09,6.85-6.851,6.85H57.649c-3.77,0-6.85-3.09-6.85-6.85v-29.78
		c0-3.77,3.08-6.85,6.85-6.85h104.109C165.519,8.707,168.609,11.787,168.609,15.557"/>
	<path fill="#F4F4F4" d="M69.165,44.432h9.415c0.228,0,0.415,0.221,0.415,0.482v17.46c0,0.262-0.187,0.482-0.415,0.482h-9.415
		c-0.228,0-0.42-0.221-0.42-0.482v-17.46C68.745,44.653,68.938,44.432,69.165,44.432"/>
	<polyline fill="#EBEBEC" points="158.799,111.837 27.771,111.837 27.771,16.122 158.799,16.122 158.799,111.837 	"/>
	<path fill="#1676BB" d="M168.609,26.297v88.78c0,3.76-3.09,6.84-6.851,6.84H16.649c-3.77,0-6.85-3.08-6.85-6.84V12.557
		c0-3.77,3.08-6.85,6.85-6.85h47.11c0.36,0,1.99,1.25,4.11,3c2.64,2.19,6.02,5.15,8.56,7.41c2.17,1.92,3.74,3.331,3.74,3.331h81.589
		C165.519,19.447,168.609,22.527,168.609,26.297"/>
	<path fill="#F4F4F4" d="M115.184,66.513v31.969c0,0.551-0.449,1-1,1h-11.209L90.264,86.942c-0.039-0.1-0.02-0.25,0.051-0.32
		l11.64-11.32c0.431-0.42,0.64-0.979,0.55-1.539c-0.08-0.551-0.439-1.041-1.01-1.33l-12.98-6.41l2.81-2.82
		c0.189-0.19,0.779-0.77,0.49-1.49l-0.34-0.66h-0.681c-0.229,0-0.489,0.06-0.8,0.2l-8.65,3.87c-0.6,0.28-0.97,0.76-1.02,1.33
		c-0.05,0.561,0.23,1.1,0.78,1.471l9.39,6.369l-13.23,11.45c-0.77,0.681-1.08,1.899-0.73,2.86l5.8,10.879h-18.12
		c-0.55,0-1-0.449-1-1V66.513c0-0.811,0.55-2.031,1.16-2.561l23.96-20.7c0.44-0.38,1.29-0.39,1.73-0.01l23.949,20.71
		C114.625,64.482,115.184,65.702,115.184,66.513"/>
	<path fill="#F4F4F4" d="M97.281,51.557h12.011c0.291,0,0.529,0.147,0.529,0.322v11.656c0,0.175-0.238,0.322-0.529,0.322H97.281
		c-0.29,0-0.536-0.147-0.536-0.322V51.879C96.745,51.705,96.991,51.557,97.281,51.557z"/>
	<circle fill="#F4F4F4" cx="120.887" cy="80.636" r="12.833"/>
	<path fill="#1676BB" d="M133.72,80.636h-2c-0.001,2.998-1.209,5.694-3.173,7.661c-1.967,1.963-4.662,3.172-7.66,3.173
		c-2.998-0.001-5.693-1.21-7.661-3.173c-1.963-1.968-3.172-4.663-3.173-7.661c0.001-2.997,1.209-5.692,3.173-7.659
		c1.967-1.964,4.663-3.172,7.661-3.173c2.998,0.001,5.693,1.209,7.66,3.173c1.964,1.967,3.172,4.662,3.173,7.659H133.72h2
		c-0.001-8.192-6.64-14.831-14.833-14.832c-8.193,0.001-14.833,6.64-14.834,14.832c0.001,8.193,6.641,14.833,14.834,14.834
		c8.193-0.001,14.832-6.641,14.833-14.834H133.72z"/>
	<path fill="#1676BB" d="M119.202,82.397l4.311,4.311c0.781,0.781,2.047,0.781,2.828,0s0.781-2.047,0-2.828l-4.311-4.311
		c-0.781-0.781-2.047-0.781-2.828,0S118.42,81.616,119.202,82.397"/>
	<path fill="#1676BB" d="M122.616,80.983v-5.682c0-1.104-0.896-2-2-2s-2,0.896-2,2v5.682c0,1.104,0.896,2,2,2
		S122.616,82.088,122.616,80.983"/>
	<path fill="#2D97BF" d="M89.199,8.707h-21.33c2.64,2.19,6.02,5.15,8.56,7.41c0.002,0.001,0.003,0.003,0.005,0.005h12.765V8.707"/>
	<path fill="#D9DBDC" d="M89.199,16.122H76.434c2.167,1.918,3.735,3.326,3.735,3.326h9.03V16.122"/>
	<path fill="#166CAD" d="M89.199,61.608l-7.854,3.514c-0.6,0.28-0.97,0.76-1.02,1.33c-0.05,0.561,0.23,1.1,0.78,1.471l8.094,5.49
		V66.36l-0.684-0.338l0.684-0.687V61.608 M63.759,5.707h-47.11c-3.77,0-6.85,3.08-6.85,6.85v102.52c0,3.76,3.08,6.84,6.85,6.84
		h72.55V75.413L77.265,85.742c-0.77,0.681-1.08,1.899-0.73,2.86l5.8,10.879h-18.12c-0.55,0-1-0.449-1-1V66.513
		c0-0.811,0.55-2.031,1.16-2.561l23.96-20.7c0.22-0.19,0.542-0.287,0.864-0.29V19.447h-9.03c0,0-1.568-1.408-3.735-3.326
		c-0.002-0.001-0.003-0.003-0.005-0.005c-2.54-2.26-5.92-5.22-8.56-7.41l0,0C65.749,6.957,64.119,5.707,63.759,5.707"/>
	<path fill="#DFE0E1" d="M89.199,65.336l-0.684,0.687l0.684,0.338V65.336 M89.199,42.962c-0.322,0.002-0.645,0.1-0.864,0.29
		l-23.96,20.7c-0.61,0.53-1.16,1.75-1.16,2.561v31.969c0,0.551,0.45,1,1,1h18.12l-5.8-10.879c-0.35-0.961-0.04-2.18,0.73-2.86
		l11.934-10.329v-2l-8.094-5.49c-0.55-0.371-0.83-0.91-0.78-1.471c0.05-0.57,0.42-1.05,1.02-1.33l7.854-3.514V42.962"/>
</g>
</svg>
