<?xml version="1.0" encoding="utf-8"?>
<!-- Generator: Adobe Illustrator 17.0.2, SVG Export Plug-In . SVG Version: 6.00 Build 0)  -->
<!DOCTYPE svg PUBLIC "-//W3C//DTD SVG 1.1//EN" "http://www.w3.org/Graphics/SVG/1.1/DTD/svg11.dtd" [
	<!ENTITY ns_extend "http://ns.adobe.com/Extensibility/1.0/">
	<!ENTITY ns_ai "http://ns.adobe.com/AdobeIllustrator/10.0/">
	<!ENTITY ns_graphs "http://ns.adobe.com/Graphs/1.0/">
	<!ENTITY ns_vars "http://ns.adobe.com/Variables/1.0/">
	<!ENTITY ns_imrep "http://ns.adobe.com/ImageReplacement/1.0/">
	<!ENTITY ns_sfw "http://ns.adobe.com/SaveForWeb/1.0/">
	<!ENTITY ns_custom "http://ns.adobe.com/GenericCustomNamespace/1.0/">
	<!ENTITY ns_adobe_xpath "http://ns.adobe.com/XPath/1.0/">
]>
<svg version="1.1" id="Layer_1" xmlns:x="&ns_extend;" xmlns:i="&ns_ai;" xmlns:graph="&ns_graphs;"
	 xmlns="http://www.w3.org/2000/svg" xmlns:xlink="http://www.w3.org/1999/xlink" x="0px" y="0px" width="176.767px"
	 height="127.778px" viewBox="0 0 176.767 127.778" enable-background="new 0 0 176.767 127.778" xml:space="preserve">
<metadata>
	<sfw  xmlns="&ns_sfw;">
		<slices></slices>
		<sliceSourceBounds  width="121.895" height="95.02" x="462.636" y="331.657" bottomLeftOrigin="true"></sliceSourceBounds>
	</sfw>
</metadata>
<g>
	<path fill="#1676BB" d="M126.89,61.305v53.745c0,0.926-0.755,1.681-1.681,1.681h-18.844L84.995,95.65
		c-0.066-0.168-0.034-0.42,0.086-0.538l19.569-19.031c0.725-0.706,1.076-1.646,0.925-2.587c-0.134-0.926-0.738-1.75-1.698-2.236
		L82.055,60.482l4.724-4.741c0.318-0.319,1.31-1.295,0.824-2.505l-0.572-1.11h-1.145c-0.385,0-0.822,0.101-1.345,0.336
		l-14.542,6.506c-1.009,0.471-1.631,1.278-1.715,2.236c-0.084,0.943,0.387,1.849,1.311,2.473l15.786,10.707L63.14,93.634
		c-1.294,1.145-1.816,3.193-1.227,4.808l9.751,18.289H41.201c-0.925,0-1.681-0.755-1.681-1.681V61.305
		c0-1.363,0.925-3.414,1.95-4.305L81.75,22.2c0.74-0.639,2.169-0.656,2.908-0.017L124.921,57
		C125.95,57.891,126.89,59.942,126.89,61.305"/>
	<path fill="#1676BB" d="M96.792,36.162h20.193c0.489,0,0.889,0.247,0.889,0.541v19.596c0,0.294-0.4,0.541-0.889,0.541H96.792
		c-0.488,0-0.901-0.247-0.901-0.541V36.703C95.891,36.411,96.304,36.162,96.792,36.162z"/>
	<circle fill="#1676BB" cx="136.478" cy="85.049" r="21.575"/>
	<path fill="#FFFFFF" d="M158.052,85.049h-3.362c-0.002,5.04-2.033,9.573-5.334,12.879c-3.307,3.3-7.838,5.333-12.878,5.334
		c-5.04-0.002-9.571-2.034-12.879-5.334c-3.3-3.309-5.333-7.839-5.334-12.879c0.002-5.038,2.033-9.569,5.334-12.876
		c3.307-3.302,7.839-5.333,12.879-5.334c5.04,0.002,9.571,2.033,12.878,5.334c3.302,3.307,5.333,7.838,5.334,12.876H158.052h3.362
		c-0.002-13.772-11.163-24.933-24.937-24.935c-13.774,0.002-24.937,11.163-24.939,24.935c0.002,13.774,11.165,24.937,24.939,24.939
		c13.774-0.002,24.935-11.165,24.937-24.939H158.052z"/>
	<path fill="#FFFFFF" d="M133.645,88.009l7.248,7.248c1.313,1.313,3.441,1.313,4.754,0c1.313-1.313,1.313-3.441,0-4.754
		l-7.248-7.248c-1.313-1.313-3.441-1.313-4.754,0C132.332,84.568,132.33,86.696,133.645,88.009"/>
	<path fill="#FFFFFF" d="M139.385,85.632V76.08c0-1.856-1.506-3.362-3.362-3.362c-1.856,0-3.362,1.506-3.362,3.362v9.552
		c0,1.856,1.506,3.362,3.362,3.362C137.878,88.994,139.385,87.49,139.385,85.632"/>
	<path fill="#166CAD" d="M83.205,59.327l-1.15,1.155l1.15,0.568V59.327 M83.205,21.712c-0.541,0.003-1.084,0.168-1.453,0.488
		L41.471,57c-1.026,0.891-1.95,2.942-1.95,4.305v53.745c0,0.926,0.757,1.681,1.681,1.681h30.463l-9.751-18.289
		c-0.588-1.616-0.067-3.665,1.227-4.808L83.205,76.27v-3.362l-13.607-9.23c-0.925-0.624-1.395-1.53-1.311-2.473
		c0.084-0.958,0.706-1.765,1.715-2.236l13.204-5.908L83.205,21.712"/>
</g>
</svg>
