<svg xmlns="http://www.w3.org/2000/svg" width="257.576" height="260.606" viewBox="0 0 257.576 260.606"><path fill="#1676BB" d="M44.309 122.507v-.023l-17.171-30.834c-1.935-3.483-.676-7.908 2.829-9.843l70.061-38.597c3.506-1.935 8.005-.677 10.036 2.757l16.784 28.706-82.539 47.834"/><path fill="#1566A3" d="M26.231 88.147c-.001 1.189.292 2.394.907 3.502l3.862 6.935.006.003-3.868-6.938c-.616-1.108-.908-2.313-.907-3.502"/><path fill="#1676BB" d="M126.847 74.673l16.79-28.702c2.015-3.444 6.522-4.686 10.019-2.761l70.076 38.603c3.494 1.925 4.768 6.354 2.827 9.839l-17.169 30.858-82.543-47.837M209.531 124.178v74.023c0 3.992-2.878 8.805-6.384 10.688l-19.686 10.546-7.304 3.895-42.927 22.975c-.82.434-1.741.771-2.757 1.015-1.136.266-2.394.411-3.627.411-1.258 0-2.491-.146-3.651-.411-1.017-.243-1.936-.581-2.757-1.015l-42.999-23.023-7.302-3.893-19.589-10.499c-3.531-1.884-6.409-6.696-6.409-10.688v-74.023c0-.558.048-1.139.169-1.694.653-3.581 3.192-7.375 6.24-8.995l69.89-37.413c1.765-.943 4.087-1.403 6.409-1.403 2.321 0 4.643.46 6.384 1.403l69.916 37.413c3.506 1.882 6.384 6.696 6.384 10.688"/><path fill="#2FA2CD" d="M54.103 122.507c0 .146 0 .291.025.411-.025.121-.025.267-.025.411v-.822"/><path fill="#D1D3D4" d="M209.375 122.5l.004.023.009-.016-.013-.007m-38.452-69.784v.006l52.809 29.09c1.578.869 2.703 2.249 3.283 3.822-.579-1.573-1.704-2.955-3.287-3.828l-52.805-29.09"/><path fill="#14629D" d="M170.923 52.722v23.771c0 5.41-4.404 9.815-9.815 9.815h-8.756l50.795 27.181c3.025 1.625 5.584 5.433 6.228 9.012l.013.008v-.001l13.301-23.917 3.87-6.941c1.061-1.911 1.161-4.104.457-6.015-.58-1.573-1.705-2.953-3.283-3.822l-52.81-29.091M181.553 136.437m-29.201-50.129h-13.081l-.203.378 52.689 28.207 2.225 1.182c2.973 1.572 5.389 3.579 5.586 6.837.022-.119.022-.26.022-.403v.822c0-.141 0-.284-.022-.403-.197 3.262-2.613 5.268-5.586 6.859l-12.429 6.651c.027-.013 27.271-13.281 27.825-13.913l-.004-.023c-.644-3.579-3.202-7.386-6.228-9.012l-50.794-27.182"/><path fill="#E9E8E9" d="M199.566 122.918c-.192 3.267-2.636 5.274-5.61 6.867l-61.498 32.916c-1.548.822-3.58 1.232-5.61 1.232-2.056 0-4.087-.41-5.635-1.232l-61.498-32.916c-2.975-1.593-5.393-3.6-5.586-6.867.193-3.263 2.612-5.271 5.586-6.845l61.498-32.913c1.548-.847 3.579-1.258 5.635-1.258 2.03 0 4.063.411 5.61 1.258l61.498 32.913c2.974 1.574 5.418 3.582 5.61 6.845"/><path fill="#2FA2CD" d="M199.59 122.507v.822c0-.144 0-.291-.024-.411.024-.12.024-.264.024-.411"/><path fill="#14629D" d="M95.288 193.848v17.025l26.457 14.196c1.329.702 3.217 1.065 5.103 1.065v-18.017h-.023c-3.072 0-6.144-.63-8.538-1.91l-22.999-12.359m-16.349-32.864v15.816l42.806 22.974c.411.219.918.411 1.451.556v-16.663c-1.791-.29-3.482-.819-4.91-1.57l-39.347-21.113m-34.777-37.456c-.016.218-.022.436-.022.649v74.023c0 3.992 2.878 8.805 6.409 10.688l19.589 10.499 7.302 3.893 42.999 23.023c.822.434 1.741.771 2.757 1.015 1.161.266 2.393.411 3.651.411-1.258 0-2.491-.146-3.651-.411v-14.218c-1.791-.315-3.482-.824-4.91-1.598l-40.846-21.911v13.689l-7.302-3.893v-13.714l-25.998-13.952v-8.271l43.845 23.507v-17.025l-43.845-23.529v-8.271l27.496 14.751v-15.816l-27.496-14.752v-8.271l77.605 41.596c1.329.726 3.217 1.088 5.103 1.088v-12.794c-1.113 0-2.219-.12-3.244-.36l3.232 4.53-61.549-33.185-21.124-11.371.001-.018-.002-.002"/><path fill="#1676BB" d="M126.847 74.673v7.23c-2.056 0-4.087.411-5.635 1.258l-59.273 31.731-2.225 1.182c-2.975 1.573-5.393 3.582-5.586 6.845.193 3.267 2.612 5.274 5.586 6.867l12.43 6.651-1.475 1.378-26.505-14.268c.024-.338.072-.702.146-1.04v-.023l-13.302-23.893-3.87-6.941c-1.935-3.483-.676-7.908 2.829-9.843l70.061-38.597c3.506-1.935 8.005-.677 10.036 2.757l16.783 28.706"/><path fill="#CACACB" d="M139.063 86.696c-1.078 2.004-3.179 5.881-7.331 13.545-1.406 3.191-3.66 3.535-4.564 3.535l-.32-.021v60.178c2.03 0 4.063-.41 5.61-1.232l61.498-32.916c2.975-1.593 5.418-3.6 5.61-6.867-.192-3.263-2.636-5.271-5.61-6.845l-54.893-29.377"/><path fill="#EBEBEC" d="M199.59 122.507v.822c0-.144 0-.291-.024-.411.024-.12.024-.264.024-.411z"/><path fill="#1566A3" d="M130.474 200.33v-16.663c1.791-.29 3.482-.819 4.91-1.57l40.773-21.887v15.841l-44.232 23.724c-.411.218-.918.41-1.451.555m79.057-66.287l-77.605 41.62c-1.329.701-3.191 1.063-5.078 1.063v31.392c3.097 0 6.142-.63 8.537-1.91l23.554-12.65v17.003l-27.013 14.509c-1.329.702-3.216 1.065-5.078 1.065v21.595c1.233 0 2.491-.146 3.627-.411v-14.219c1.791-.315 3.482-.824 4.91-1.598l40.773-21.86v13.688l7.304-3.895v-13.712l26.069-13.978v-8.296l-43.289 23.192v-17.001l43.289-23.216v-8.294l-26.069 14.002v-15.843l26.069-13.976v-8.27"/><path fill="#0E558A" d="M123.196 200.33c-.533-.145-1.04-.337-1.451-.556l-42.806-22.974v-15.816l39.347 21.112c1.428.751 3.12 1.28 4.91 1.57v16.664m-79.056-66.287v8.271l27.496 14.751v15.816l-27.496-14.75v8.271l43.845 23.528v17.025l-43.845-23.505v8.271l25.998 13.953v13.714l7.302 3.893v-13.689l40.846 21.911c1.428.773 3.12 1.282 4.91 1.598v14.219c1.161.266 2.393.411 3.651.411v-21.595c-1.886 0-3.773-.363-5.103-1.065l-26.457-14.196v-17.025l22.998 12.36c2.395 1.28 5.466 1.91 8.538 1.91h.023v-31.392c-1.886 0-3.773-.362-5.103-1.088l-77.603-41.597"/><path fill="#1676BB" d="M110.337 144.978c-1.941-3.53-6.445-7.961-10.008-9.84l-75.869-40.002c-3.565-1.881-4.6-.704-2.303 2.6l1.627 2.343-.023-.011 20.378 23.449 82.696 44.587-16.498-23.126"/><path fill="#14629D" d="M21.822 94.239c-.583 0-.887.275-.888.795-.001.595.394 1.509 1.223 2.701l1.627 2.343-.023-.011 20.378 23.449 82.696 44.587-3.232-4.53-13.266-18.595c-1.941-3.53-6.445-7.961-10.008-9.84l-38.395-20.244-30.928-16.307-.006-.003-6.539-3.448c-1.154-.608-2.043-.897-2.639-.897"/><path fill="#1676BB" d="M143.345 144.978c1.941-3.53 6.444-7.961 10.008-9.84l75.868-40.002c3.566-1.881 4.601-.704 2.304 2.6l-1.628 2.343.023-.011-20.379 23.449-82.694 44.587 16.498-23.126zM161.103 11.947h-68.199c-3.828 0-6.956 3.128-6.956 6.955v57.593c0 3.818 3.127 6.957 6.956 6.957h23.878l8.395 15.537c1.096 2.571 2.888 2.571 3.984 0l8.395-15.537h23.547c3.818 0 6.957-3.138 6.957-6.957v-57.593c0-3.827-3.139-6.955-6.957-6.955"/><path fill="#F4F4F4" d="M161.108 9.091h-68.202c-5.411 0-9.815 4.393-9.815 9.815v57.586c0 5.41 4.404 9.815 9.815 9.815h22.17c.995 1.865 3.088 5.742 7.527 13.933 1.27 2.86 3.203 3.432 4.232 3.512l.332.022c.904 0 3.158-.343 4.564-3.535 4.438-8.191 6.532-12.057 7.539-13.933h21.837c5.411 0 9.815-4.405 9.815-9.815v-57.585c.001-5.422-4.403-9.815-9.814-9.815m4.096 67.402c0 2.22-1.875 4.095-4.096 4.095h-25.555l-.618 1.705c-.629 1.166-4.725 8.761-7.768 14.367l-.332-.606c-2.998-5.559-6.864-12.686-7.436-13.785l-.641-1.681h-25.852c-2.265 0-4.095-1.831-4.095-4.095v-57.587c0-2.265 1.83-4.095 4.095-4.095h68.202c2.254 0 4.096 1.83 4.096 4.095v57.587M127.007 39.028l-.171.011c-2.54.081-4.576 2.163-4.576 4.724v20.923c0 2.563 2.036 4.645 4.576 4.725l.171.012c2.619 0 4.736-2.117 4.736-4.737v-20.922c.001-2.62-2.117-4.736-4.736-4.736M131.743 29.444c0 2.618-2.121 4.739-4.739 4.739s-4.739-2.121-4.739-4.739c0-2.617 2.121-4.739 4.739-4.739s4.739 2.122 4.739 4.739"/><path fill="#1566A3" d="M126.836 14.811h-33.93c-2.265 0-4.095 1.83-4.095 4.095v57.586c0 2.264 1.83 4.095 4.095 4.095h25.853l.641 1.681c.572 1.099 4.438 8.226 7.436 13.785v-26.642c-2.54-.08-4.576-2.162-4.576-4.725v-20.922c0-2.562 2.036-4.644 4.576-4.724v-4.86c-2.54-.088-4.571-2.174-4.571-4.736 0-2.561 2.031-4.647 4.571-4.736v-9.897"/><path fill="#D0D2D3" d="M126.836 39.04c-2.54.081-4.576 2.163-4.576 4.724v20.923c0 2.563 2.036 4.645 4.576 4.725v-30.372M126.836 24.708c-2.54.088-4.571 2.175-4.571 4.736 0 2.562 2.031 4.647 4.571 4.736v-9.472"/></svg>