<svg xmlns="http://www.w3.org/2000/svg" width="321.211" height="260.606" viewBox="0 0 321.211 260.606"><path fill="#1676BB" d="M26.222 218.255l-1.346-.988 1.187-1.595c-.036.851.017 1.719.159 2.583M295.664 217.211l-15.471 11.416-3.398-4.599-8.901-12.074v-.017l-3.983-5.381v-.016l-3.753-5.063-27.487-37.259-12.408-16.797v-.017l-9.998-13.54-1.383-1.858-.565-.761v-.02l-4.797-6.495-16.267-22.054-12.142-16.46h-.017l-3.54-4.779v-.017l-3.559-4.833h-.017l-6.425-8.724-.603-.798v-.017l-.654-.886-.018.018-3.345 4.532-1.434 1.963-3.08 4.143-3.593 4.885-3.558 4.814-33.009 44.708-11.947 16.18-4.797 6.512-35.451 48.001-3.736 5.063-4.053 5.505c-.513-1.894-1.467-3.683-2.849-5.237-2.55-2.87-6.195-4.516-10.036-4.516-1.487 0-2.955.248-4.337.744l4.868-6.585 4.019-5.449 39.629-53.702 4.796-6.515h.019l11.929-16.175 30.55-41.382 3.805-5.167 4.035-5.452 16.78-22.746 4.814-6.513.654.886 4.549 6.16 1.364 1.859v.017l14.459 19.559 4.09 5.539 3.858 5.24 20.284 27.488 5.91 8.001v.017l4.796 6.497 11.948 16.175 23.877 32.374 19.877 26.922 3.857 5.22 4.215 5.72 11.629 15.746"/><path fill="#2FA2CD" d="M295.664 45.261l-10.78 14.603-4.229 5.734-3.86 5.221-44.585 60.407-11.948 16.18v.017l-4.796 6.495-25.594 34.675-3.875 5.256-4.144 5.594v.021l-20.902 28.318-.195.264-.459.62-.46-.638h-.019l-4.335-5.876-2.266-3.081-2.442-3.309-12.054-16.319-4.143-5.609v-.021l-3.875-5.236-30.391-41.17-11.929-16.18h-.019l-4.796-6.495-39.611-53.684h-.018l-3.823-5.202h-.018l-4.23-5.752c.477.054.938.071 1.417.071 3.752 0 7.363-1.363 10.177-3.86 2.158-1.893 3.646-4.264 4.46-6.813l3.999 5.433 3.753 5.081 35.841 48.549 4.797 6.497 11.947 16.175 32.479 44.004 3.522 4.778 3.558 4.83h.017l3.665 4.959 4.797 6.494.654-.867v-.018l7.806-10.568 3.558-4.813 3.54-4.796 27.664-37.489 4.797-6.495v-.02l11.946-16.175 19.665-26.637 20.851-28.266h.018l.921-1.26 2.743-3.733 2.55-3.434 1.325-1.788v-.017l8.461-11.47 3.398-4.603 15.47 11.418"/><path fill="#D1D3D4" d="M175.094 86.217c-2.409 1.222-4.956 2.125-7.577 2.744l-.004.001 31.2 42.272 4.802-6.506-4.947-6.708-23.474-31.803"/><path fill="#14629D" d="M198.568 118.019l4.947 6.709.002-.003-4.949-6.706"/><path fill="#D1D3D4" d="M220.261 147.422l-4.796 6.495-.005.007 55.133 74.698 6.206-4.588-.005-.006-8.901-12.074v-.015l-.573-.775-3.41-4.607v-.014l-.382-.517-3.371-4.549-26.508-35.931-1.62-2.195-11.768-15.929m-11.946-16.181l-4.799 6.501.001.001.001-.001 4.797-6.495v-.006"/><path fill="#14629D" d="M267.893 211.94v.015l8.901 12.074.005.006.014-.01-8.92-12.085m-3.983-5.397v.014l3.41 4.607-3.41-4.621m-30.261-40.996l26.508 35.931 3.371 4.549-29.879-40.48m-13.388-18.137v.013l11.768 15.93-11.768-15.943"/><path fill="#288AAE" d="M208.321 131.233l-.006.008v.005l-4.797 6.495-.001.002 11.943 16.181.005-.007 4.796-6.495v-.012l-11.94-16.177"/><path fill="#D1D3D4" d="M270.593 33.843l-55.128 74.694v.017l4.796 6.497 19.665-26.637 20.851-28.267h.014l.375-.507.549-.752 2.743-3.733 2.55-3.434.508-.684.817-1.108v-.012l8.461-11.471.009-.012-6.21-4.591"/><path fill="#14629D" d="M215.465 108.537l-11.948 16.188 4.799 6.501 11.945-16.175-4.796-6.497v-.017"/><path fill="#288AAE" d="M260.791 60.147h-.014l-20.851 28.266-19.665 26.637-11.945 16.175.005.007 52.47-71.085m6.725-9.11l-.508.685-2.55 3.434-2.743 3.733-.55.752 6.351-8.604m9.287-12.603l-.009.012-8.461 11.47v.012l8.479-11.488-.009-.006"/><path fill="#D1D3D4" d="M198.713 131.234l-30.406 41.197.007.002c2.618.637 5.132 1.575 7.521 2.797h.011l27.671-37.488-4.804-6.508"/><path fill="#AFB1B4" d="M203.515 124.728l-4.802 6.506 4.803 6.508 4.799-6.501v-.015l-4.797-6.495-.003-.003"/><path fill="#0C5286" d="M203.517 124.725l-.002.003.003.003 4.797 6.495v.015-.015h.001l-4.799-6.501"/><path fill="#1E7494" d="M208.316 131.226h-.001v.015l.006-.008-.005-.007"/><path fill="#fff" d="M53.195 30.71c-7.788-8.796-21.205-9.61-30-1.84-4.708 4.161-7.133 9.967-7.169 15.771 0 .567.019 1.115.072 1.665v.017c.3 4.496 2.053 8.904 5.257 12.532 2.318 2.62 5.151 4.531 8.212 5.717 3.345 1.309 6.992 1.734 10.531 1.275h.018c4.035-.551 7.946-2.249 11.221-5.151 1.912-1.682 3.452-3.645 4.583-5.771 4.16-7.63 3.347-17.328-2.725-24.215m-5.734 25.595c-2.814 2.497-6.425 3.86-10.177 3.86-.479 0-.94-.017-1.417-.071-3.876-.355-7.522-2.179-10.124-5.117-2.726-3.078-4.088-7.043-3.823-11.15.088-1.432.371-2.814.85-4.142v-.017c.833-2.461 2.318-4.654 4.318-6.424 2.815-2.478 6.426-3.859 10.177-3.859 4.407 0 8.62 1.894 11.54 5.205 3.717 4.195 4.726 9.894 3.116 14.885v.018c-.814 2.548-2.301 4.919-4.46 6.812"/><path fill="#2FA2CD" d="M57.567 26.836c-5.132-5.806-12.531-9.151-20.301-9.151-6.62 0-12.974 2.406-17.93 6.796-5.433 4.797-8.655 11.417-9.097 18.639-.46 7.221 1.947 14.178 6.744 19.611 4.601 5.203 11.008 8.425 17.876 9.026.796.088 1.611.125 2.425.125 2.264 0 4.496-.284 6.655-.834h.018c4.142-1.06 8-3.097 11.257-5.964 1.734-1.539 3.221-3.237 4.46-5.078l.017-.02c6.779-9.982 6.23-23.682-2.124-33.15m-21.7 33.258c-3.876-.355-7.522-2.179-10.124-5.117-2.726-3.078-4.088-7.043-3.823-11.15.088-1.432.371-2.814.85-4.142v-.017c.833-2.461 2.318-4.654 4.318-6.424 2.815-2.478 6.426-3.859 10.177-3.859 4.407 0 8.62 1.894 11.54 5.205 3.717 4.195 4.726 9.894 3.116 14.885v.018c-.814 2.55-2.302 4.921-4.46 6.813-2.814 2.497-6.425 3.86-10.177 3.86-.479-.001-.94-.019-1.417-.072"/><path fill="#fff" d="M179.016 226.808c-11.707 10.35-29.583 9.247-39.929-2.46-10.345-11.7-9.247-29.578 2.458-39.926 11.704-10.348 29.584-9.241 39.93 2.457 10.343 11.704 9.244 29.582-2.459 39.929"/><path fill="#2FA2CD" d="M189.872 188.592c-1.115-1.962-2.459-3.842-4.018-5.594-2.85-3.22-6.248-5.84-10-7.769h-.02c-2.389-1.222-4.902-2.16-7.521-2.797-2.391-.585-4.867-.901-7.363-.938-.23-.02-.442-.02-.672-.02-5.451 0-10.779 1.311-15.541 3.754-2.531 1.292-4.902 2.9-7.062 4.813-2.814 2.479-5.168 5.362-6.973 8.533-1.522 2.601-2.673 5.414-3.451 8.354-.549 2.123-.904 4.336-1.045 6.584-.548 9.099 2.46 17.876 8.496 24.711 6.478 7.325 15.788 11.537 25.576 11.537h.018c.212 0 .442 0 .654-.017 8.105-.141 15.858-3.168 21.948-8.55 12.353-10.901 14.903-28.83 6.974-42.601m-14.725 33.825c-3.948 3.488-8.958 5.471-14.196 5.628h-.672c-.141 0-.302 0-.442-.018h-.019c-2.619-.036-5.167-.55-7.575-1.468-1.858-.728-3.593-1.683-5.204-2.851h-.018l-.017-.017c-1.275-.94-2.46-2.02-3.523-3.224-1.982-2.23-3.451-4.776-4.407-7.522v-.017c-.956-2.761-1.38-5.698-1.187-8.691.106-1.645.372-3.257.833-4.796 1.15-4.088 3.451-7.77 6.708-10.636 1.911-1.701 4.07-3.027 6.389-3.968h.017c2.655-1.095 5.524-1.662 8.444-1.662h.106c.196 0 .371 0 .566.018 2.709.071 5.329.639 7.788 1.645h.018c3.167 1.294 6.036 3.294 8.337 5.914 2.282 2.586 3.874 5.572 4.76 8.689v.021c2.302 8.05-.019 17.061-6.706 22.955"/><path fill="#fff" d="M298.32 60.181c-9.259 8.187-23.396 7.313-31.578-1.943-8.182-9.255-7.314-23.394 1.942-31.578 9.259-8.185 23.396-7.309 31.581 1.944 8.181 9.255 7.312 23.395-1.945 31.577z"/><path fill="#2FA2CD" d="M304.655 24.729c-5.364-6.053-13.063-9.522-21.153-9.522-6.885 0-13.522 2.513-18.688 7.062-5.647 4.992-9.01 11.895-9.471 19.417-.229 3.753.267 7.417 1.452 10.868.919 2.707 2.265 5.257 3.982 7.594h.018v.017c.497.672 1.009 1.328 1.575 1.946 3.842 4.337 8.884 7.363 14.425 8.708 2.178.549 4.424.833 6.728.833 6.885 0 13.521-2.515 18.672-7.08 11.664-10.301 12.762-28.179 2.46-39.843zm-10.213 31.062c-2.674 2.374-6.037 3.79-9.559 4.073-.461.052-.903.07-1.361.07-4.745 0-9.258-2.019-12.392-5.575-1.185-1.345-2.123-2.832-2.797-4.425v-.017c-1.024-2.337-1.485-4.886-1.309-7.505.106-1.894.548-3.716 1.256-5.416v-.019c.957-2.246 2.408-4.264 4.284-5.929 3.027-2.671 6.902-4.14 10.937-4.14 4.726 0 9.241 2.034 12.393 5.574 6.018 6.814 5.379 17.293-1.452 23.309z"/><path fill="#fff" d="M296.758 232.936c-8.846 7.819-22.356 6.985-30.173-1.86-7.818-8.842-6.987-22.351 1.857-30.17 8.844-7.82 22.354-6.984 30.174 1.858 7.815 8.842 6.985 22.354-1.858 30.172z"/><path fill="#1676BB" d="M303.009 198.895c-5.17-5.841-12.603-9.204-20.409-9.204-2.265 0-4.478.283-6.637.831-4.195 1.044-8.106 3.097-11.398 6-1.682 1.485-3.149 3.15-4.408 4.956-1.661 2.426-2.92 5.097-3.734 7.946-.531 1.876-.867 3.824-.991 5.824-.44 7.255 1.965 14.247 6.778 19.7 5.169 5.841 12.603 9.204 20.408 9.204 6.638 0 13.046-2.426 18.019-6.834 11.256-9.945 12.301-27.187 2.372-38.423zm-10.126 29.662c-2.83 2.497-6.479 3.878-10.266 3.878-4.142 0-8.087-1.628-10.991-4.568-.229-.194-.443-.44-.656-.671-2.742-3.098-4.122-7.098-3.856-11.224.089-1.396.353-2.724.779-4.018v-.017c.848-2.55 2.369-4.833 4.425-6.655 2.849-2.496 6.495-3.895 10.282-3.895.479 0 .955.021 1.436.073 3.911.351 7.572 2.213 10.193 5.183 5.683 6.409 5.062 16.233-1.346 21.914z"/><path fill="#fff" d="M178.615 76.867c-11.707 10.346-29.583 9.243-39.928-2.462-10.347-11.701-9.248-29.58 2.456-39.927 11.706-10.349 29.582-9.241 39.929 2.459 10.344 11.704 9.246 29.582-2.457 39.93"/><path fill="#1676BB" d="M159.499 78.094c-2.442-.037-4.832-.46-7.08-1.275-3.557-1.238-6.779-3.397-9.346-6.284-1.964-2.23-3.433-4.761-4.372-7.486l-4.035 5.452.035.07c.248.494.531.991.814 1.47l.053.105c.3.479.584.938.903 1.398.335.496.689.992 1.062 1.469l.336.443c.265.317.531.637.814.955 2.885 3.274 6.371 5.699 10.142 7.292.566.249 1.15.477 1.735.672l.071.019c.283.107.566.195.85.284.584.195 1.186.354 1.787.496l.371.07c.195.052.372.088.567.123.92.195 1.841.337 2.762.426 1.096.124 2.212.159 3.309.142v-4.779l-.778-1.062m-16.425-7.558c-1.964-2.23-3.433-4.761-4.372-7.486l-4.035 5.452.035.07c.248.494.531.991.814 1.47l.053.105c.3.479.584.938.903 1.398.335.496.689.992 1.062 1.469l.336.443c.265.317.531.637.814.955 2.885 3.274 6.371 5.699 10.142 7.292l3.593-4.885c-3.556-1.238-6.778-3.397-9.345-6.283m0 0c-1.964-2.23-3.433-4.761-4.372-7.486l-4.035 5.452.035.07c.248.494.531.991.814 1.47l.053.105c.3.479.584.938.903 1.398.335.496.689.992 1.062 1.469l.336.443c.265.317.531.637.814.955 2.885 3.274 6.371 5.699 10.142 7.292l3.593-4.885c-3.556-1.238-6.778-3.397-9.345-6.283m0 0c-1.964-2.23-3.433-4.761-4.372-7.486l-4.035 5.452.035.07c.248.494.531.991.814 1.47l.053.105c.3.479.584.938.903 1.398.335.496.689.992 1.062 1.469l.336.443c.265.317.531.637.814.955 2.885 3.274 6.371 5.699 10.142 7.292l3.593-4.885c-3.556-1.238-6.778-3.397-9.345-6.283m0 0c-1.964-2.23-3.433-4.761-4.372-7.486l-4.035 5.452.035.07c.248.494.531.991.814 1.47l.053.105c.3.479.584.938.903 1.398.335.496.689.992 1.062 1.469l.336.443c.265.317.531.637.814.955 2.885 3.274 6.371 5.699 10.142 7.292l3.593-4.885c-3.556-1.238-6.778-3.397-9.345-6.283m0 0c-1.964-2.23-3.433-4.761-4.372-7.486l-4.035 5.452.035.07c.248.494.531.991.814 1.47l.053.105c.3.479.584.938.903 1.398.335.496.689.992 1.062 1.469l.336.443c.265.317.531.637.814.955 2.885 3.274 6.371 5.699 10.142 7.292l3.593-4.885c-3.556-1.238-6.778-3.397-9.345-6.283m42.39-37.471c-6.247-7.044-15.116-11.22-24.514-11.504-.23-.019-.442-.019-.672-.019l-.407-.017c-8.336 0-16.354 3.044-22.603 8.567-6.832 6.036-10.903 14.373-11.451 23.485-.266 4.125.229 8.196 1.398 12.038.85 2.832 2.071 5.54 3.646 8.053 1.008 1.628 2.158 3.168 3.451 4.621 3.08 3.486 6.814 6.283 10.956 8.229 4.514 2.143 9.504 3.293 14.621 3.293h.389c.23 0 .442 0 .672-.018 2.23-.07 4.425-.354 6.566-.833 2.621-.619 5.168-1.522 7.576-2.744h.017c2.638-1.31 5.116-2.992 7.383-4.972 2.743-2.425 5.009-5.188 6.778-8.197 7.326-12.389 6.231-28.618-3.806-39.982m-4.141 29.205c-1.169 3.823-3.382 7.381-6.583 10.212-2.003 1.788-4.302 3.152-6.745 4.105h-.017c-2.229.886-4.585 1.381-7.027 1.506l-.672.017h-.389l-.391-.017c-2.442-.037-4.832-.46-7.08-1.275-3.557-1.238-6.779-3.397-9.346-6.284-1.964-2.23-3.433-4.761-4.372-7.486-.973-2.78-1.398-5.735-1.204-8.762.072-1.079.212-2.141.425-3.186.955-4.726 3.433-8.991 7.098-12.248 1.238-1.097 2.584-2.036 4.018-2.833l.017-.017h.019c.779-.406 1.575-.796 2.389-1.132h.019c2.637-1.063 5.487-1.628 8.389-1.628l.407.017c.23 0 .442.018.672.035 6.036.267 11.717 2.992 15.735 7.523 5.364 6.056 6.851 14.231 4.638 21.453m-38.249 8.266c-1.964-2.23-3.433-4.761-4.372-7.486l-4.035 5.452.035.07c.248.494.531.991.814 1.47l.053.105c.3.479.584.938.903 1.398.335.496.689.992 1.062 1.469l.336.443c.265.317.531.637.814.955 2.885 3.274 6.371 5.699 10.142 7.292l3.593-4.885c-3.556-1.238-6.778-3.397-9.345-6.283m0 0c-1.964-2.23-3.433-4.761-4.372-7.486l-4.035 5.452.035.07c.248.494.531.991.814 1.47l.053.105c.3.479.584.938.903 1.398.335.496.689.992 1.062 1.469l.336.443c.265.317.531.637.814.955 2.885 3.274 6.371 5.699 10.142 7.292l3.593-4.885c-3.556-1.238-6.778-3.397-9.345-6.283m0 0c-1.964-2.23-3.433-4.761-4.372-7.486l-4.035 5.452.035.07c.248.494.531.991.814 1.47l.053.105c.3.479.584.938.903 1.398.335.496.689.992 1.062 1.469l.336.443c.265.317.531.637.814.955 2.885 3.274 6.371 5.699 10.142 7.292l3.593-4.885c-3.556-1.238-6.778-3.397-9.345-6.283m0 0c-1.964-2.23-3.433-4.761-4.372-7.486l-4.035 5.452.035.07c.248.494.531.991.814 1.47l.053.105c.3.479.584.938.903 1.398.335.496.689.992 1.062 1.469l.336.443c.265.317.531.637.814.955 2.885 3.274 6.371 5.699 10.142 7.292l3.593-4.885c-3.556-1.238-6.778-3.397-9.345-6.283m16.425 7.558c-2.442-.037-4.832-.46-7.08-1.275-3.557-1.238-6.779-3.397-9.346-6.284-1.964-2.23-3.433-4.761-4.372-7.486l-4.035 5.452.035.07c.248.494.531.991.814 1.47l.053.105c.3.479.584.938.903 1.398.335.496.689.992 1.062 1.469l.336.443c.265.317.531.637.814.955 2.885 3.274 6.371 5.699 10.142 7.292.566.249 1.15.477 1.735.672l.071.019c.283.107.566.195.85.284.584.195 1.186.354 1.787.496l.371.07c.195.052.372.088.567.123.92.195 1.841.337 2.762.426 1.096.124 2.212.159 3.309.142v-4.779l-.778-1.062"/><path fill="#1676BB" d="M256.09 163.593l-23.423.626-45.422-61.543 22.302-2.146z"/><path fill="#fff" d="M56.328 206.981c-.69-1.274-1.521-2.477-2.53-3.607-3.681-4.162-8.743-6.357-13.877-6.481-4.584-.14-9.239 1.362-12.992 4.569l-.017.017-.247.214c-2.196 1.945-3.841 4.265-4.922 6.795l-.017.017c-1.734 4.091-2.018 8.69-.778 12.958.76 2.654 2.106 5.167 4.053 7.363 7.025 7.946 19.168 8.69 27.133 1.663 6.813-6.019 8.336-15.825 4.194-23.508m-8.071 19.117c-2.442 2.177-5.593 3.361-8.851 3.361-2.707 0-5.345-.832-7.539-2.354-.921-.581-1.753-1.328-2.478-2.159-1.734-1.946-2.78-4.281-3.168-6.691-.142-.864-.195-1.732-.16-2.583v-.018c.105-3.557 1.629-7.045 4.495-9.574 1.327-1.171 2.851-2.056 4.496-2.604 1.382-.496 2.85-.744 4.337-.744 3.841 0 7.486 1.646 10.036 4.516 1.381 1.555 2.336 3.344 2.849 5.237v.019c1.328 4.78-.07 10.107-4.017 13.594"/><path fill="#1676BB" d="M60.08 201.939l-.017-.021c-.567-.847-1.187-1.645-1.876-2.423-3.735-4.229-8.779-7.045-14.248-8.053-1.487-.284-3.009-.427-4.549-.427-1.752 0-3.487.196-5.167.567-4.213.867-8.143 2.832-11.417 5.717-10.354 9.17-11.327 25.046-2.177 35.398 4.743 5.381 11.594 8.461 18.779 8.461 6.125 0 12.019-2.229 16.604-6.281 9.573-8.461 11.132-22.672 4.068-32.938m-11.823 24.159c-2.442 2.177-5.593 3.361-8.851 3.361-2.707 0-5.345-.832-7.539-2.354-.921-.581-1.753-1.328-2.478-2.159-1.734-1.946-2.78-4.281-3.168-6.691-.142-.864-.195-1.732-.16-2.583v-.018c.105-3.557 1.629-7.045 4.495-9.574 1.327-1.171 2.851-2.056 4.496-2.604 1.382-.496 2.85-.744 4.337-.744 3.841 0 7.486 1.646 10.036 4.516 1.381 1.555 2.336 3.344 2.849 5.237v.019c1.328 4.78-.07 10.107-4.017 13.594"/><path fill="#2FA2CD" d="M175.386 197.54c-1.11.49-2.304.822-3.556.974 1.28-.767 2.261-1.979 2.721-3.424-1.196.712-2.517 1.225-3.929 1.5-1.125-1.202-2.734-1.954-4.515-1.954-3.417 0-6.185 2.771-6.185 6.188 0 .485.052.958.159 1.407-5.143-.256-9.699-2.718-12.752-6.465-.533.919-.837 1.98-.837 3.115 0 2.142 1.092 4.037 2.752 5.146-1.014-.031-1.969-.312-2.804-.772v.076c0 2.999 2.133 5.501 4.964 6.068-.519.146-1.065.219-1.63.219-.4 0-.789-.039-1.164-.112.787 2.459 3.071 4.248 5.778 4.293-2.117 1.662-4.786 2.651-7.683 2.651-.499 0-.994-.029-1.476-.085 2.738 1.752 5.989 2.776 9.482 2.776 11.381 0 17.603-9.426 17.603-17.6 0-.27-.005-.539-.016-.803 1.211-.868 2.259-1.961 3.088-3.198"/><path fill="#1676BB" d="M152.611 50.571h3.111v-3.024c0-1.333.035-3.39 1.002-4.665 1.022-1.348 2.422-2.264 4.831-2.264 3.926 0 5.581.56 5.581.56l-.778 4.609s-1.297-.375-2.508-.375-2.294.434-2.294 1.644v3.516h4.965l-.348 4.503h-4.618v15.647h-5.833v-15.648h-3.111v-4.503"/><path fill="#1566A3" d="M83.568 137.741l-39.629 53.702c5.469 1.008 10.513 3.824 14.248 8.053.69.778 1.31 1.576 1.876 2.423l35.451-48.001-11.946-16.177m47.294-64.072l-30.55 41.382 11.947 16.175 33.009-44.708c-4.142-1.946-7.876-4.743-10.956-8.229-1.292-1.452-2.442-2.992-3.45-4.62"/><path fill="#B6B8BA" d="M78.771 131.246l-44.549 60.337c1.681-.371 3.415-.567 5.167-.567 1.541 0 3.062.143 4.549.427l39.629-53.702-4.796-6.495m48.444-65.63l-31.701 42.938 4.797 6.497 30.55-41.382c-1.574-2.513-2.796-5.222-3.646-8.053"/><path fill="#2A8FB5" d="M59.674 60.005c-1.239 1.841-2.726 3.54-4.46 5.078-3.256 2.867-7.115 4.904-11.257 5.964h-.018.018l39.612 53.683 4.796 6.495h.019l11.929 16.18 30.391 41.17c1.805-3.171 4.159-6.054 6.973-8.533 2.16-1.912 4.531-3.521 7.062-4.813l-32.479-44.004-11.947-16.175-4.797-6.497-35.842-48.548"/><path fill="#B6B8BA" d="M100.312 147.406l-4.797 6.512 31.737 43.012c.778-2.939 1.929-5.753 3.451-8.354l-30.391-41.17m-56.355-76.358h-.018c-2.159.55-4.391.834-6.655.834-.814 0-1.629-.037-2.425-.125l43.912 59.489 4.797-6.515-39.611-53.683"/><path fill="#0E558A" d="M88.383 131.226h-.019l-4.796 6.515 11.947 16.176 4.797-6.511-11.929-16.18"/><path fill="#9B9D9F" d="M83.568 124.731l-4.797 6.515 4.797 6.495 4.796-6.515h.019-.019l-4.796-6.495"/><path fill="#2A8FB5" d="M22.77 39.667c.833-2.461 2.318-4.654 4.318-6.424 2.815-2.478 6.426-3.859 10.177-3.859 4.407 0 8.62 1.894 11.54 5.205 2.577 2.909 3.853 6.54 3.855 10.158.001 1.6-.246 3.197-.74 4.727v.018c-.814 2.55-2.302 4.921-4.46 6.813-2.814 2.497-6.425 3.86-10.177 3.86-.479 0-.94-.017-1.417-.071-3.876-.355-7.522-2.179-10.124-5.117-2.502-2.825-3.855-6.399-3.855-10.143 0-.334.011-.67.033-1.007.088-1.432.371-2.814.85-4.142v-.018m14.496-21.982c-6.62 0-12.974 2.406-17.93 6.796-5.433 4.797-8.655 11.417-9.097 18.639-.037.578-.055 1.155-.056 1.729-.003 6.597 2.387 12.884 6.8 17.882 4.601 5.203 11.008 8.425 17.876 9.026.796.088 1.611.125 2.425.125 2.264 0 4.496-.284 6.655-.834h.018c4.142-1.06 8-3.097 11.257-5.964 1.734-1.539 3.221-3.237 4.46-5.078l.017-.02c3.091-4.552 4.659-9.878 4.657-15.223-.002-6.375-2.237-12.777-6.781-17.927-5.132-5.806-12.531-9.151-20.301-9.151"/><path fill="#D9DBDC" d="M160.384 183.176h-.106c-2.92 0-5.789.567-8.444 1.662h-.017c-2.319.94-4.479 2.267-6.389 3.968-3.257 2.866-5.559 6.548-6.708 10.636-.46 1.539-.726 3.151-.833 4.796-.194 2.993.23 5.931 1.187 8.691v.017c.956 2.746 2.424 5.292 4.407 7.522 1.063 1.204 2.248 2.283 3.523 3.224l.017.017h.018c1.61 1.168 3.346 2.123 5.204 2.851 2.408.918 4.957 1.432 7.575 1.468h.019c.141.018.301.018.442.018h.672v-9.961c-1.864.677-3.947 1.059-6.238 1.059-3.493 0-6.745-1.024-9.482-2.776.482.056.978.085 1.476.085 2.897 0 5.566-.989 7.683-2.651-2.708-.045-4.992-1.834-5.778-4.293.375.073.764.112 1.164.112.564 0 1.111-.073 1.63-.219-2.832-.567-4.964-3.069-4.964-6.068v-.076c.834.461 1.79.741 2.804.772-1.66-1.109-2.752-3.005-2.752-5.146 0-1.135.304-2.196.837-3.115 3.053 3.747 7.609 6.209 12.752 6.465-.106-.449-.159-.922-.159-1.407 0-1.264.378-2.438 1.028-3.418v-14.212c-.197-.021-.372-.021-.568-.021"/><path fill="#2A8FB5" d="M160.278 171.476c-5.451 0-10.779 1.311-15.541 3.754-2.531 1.292-4.902 2.9-7.062 4.813-2.814 2.479-5.168 5.362-6.973 8.533-1.522 2.601-2.673 5.414-3.451 8.354-.549 2.123-.904 4.336-1.045 6.584-.043.711-.064 1.42-.063 2.126.003 8.332 2.995 16.284 8.559 22.585 6.478 7.325 15.788 11.537 25.576 11.537h.018c.212 0 .442 0 .654-.017v-11.7h-.672c-.141 0-.302 0-.442-.018h-.019c-2.619-.036-5.167-.55-7.575-1.468-1.858-.728-3.593-1.683-5.204-2.851h-.018l-.017-.017c-1.275-.94-2.46-2.02-3.523-3.224-1.982-2.23-3.451-4.776-4.407-7.522v-.017c-.956-2.761-1.38-5.698-1.187-8.691.106-1.645.372-3.257.833-4.796 1.15-4.088 3.451-7.77 6.708-10.636 1.911-1.701 4.07-3.027 6.389-3.968h.017c2.655-1.095 5.524-1.662 8.444-1.662h.106c.196 0 .371 0 .566.018v-11.698c-.228-.019-.441-.019-.671-.019"/><path fill="#D9DBDC" d="M159.871 33.243c-2.902 0-5.752.566-8.389 1.628h-.019c-.813.336-1.609.726-2.389 1.132h-.019l-.017.017c-1.434.798-2.78 1.737-4.018 2.833-3.665 3.257-6.143 7.522-7.098 12.248-.213 1.044-.353 2.106-.425 3.186-.195 3.027.23 5.982 1.204 8.762.938 2.725 2.407 5.256 4.372 7.486 2.567 2.886 5.789 5.045 9.346 6.284 2.248.814 4.637 1.238 7.08 1.275l.391.017h.389l.672-.017v-7.374h-5.229v-15.646h-3.111v-4.503h3.111v-3.024c0-1.333.035-3.39 1.002-4.665.933-1.231 2.182-2.102 4.226-2.244v-7.343c-.23-.017-.442-.035-.672-.035l-.407-.017"/><path fill="#1566A3" d="M159.871 21.526c-8.336 0-16.354 3.044-22.603 8.567-6.832 6.036-10.903 14.373-11.451 23.485-.047.725-.07 1.449-.07 2.169-.001 3.38.505 6.702 1.468 9.868.85 2.832 2.071 5.54 3.646 8.053 1.008 1.628 2.158 3.168 3.451 4.621 3.08 3.486 6.814 6.283 10.956 8.229 4.514 2.143 9.504 3.293 14.621 3.293h.389c.23 0 .442 0 .672-.018v-11.699l-.672.017h-.389l-.391-.017c-2.442-.037-4.832-.46-7.08-1.275-3.557-1.238-6.779-3.397-9.346-6.284-1.964-2.23-3.433-4.761-4.372-7.486-.973-2.78-1.398-5.735-1.204-8.762.072-1.079.212-2.141.425-3.186.955-4.726 3.433-8.991 7.098-12.248 1.238-1.097 2.584-2.036 4.018-2.833l.017-.017h.019c.779-.406 1.575-.796 2.389-1.132h.019c2.637-1.063 5.487-1.628 8.389-1.628l.407.017c.23 0 .442.018.672.035v-11.734c-.23-.019-.442-.019-.672-.019l-.406-.016M26.062 215.655c.105-3.557 1.629-7.045 4.495-9.574 1.327-1.171 2.851-2.056 4.496-2.604 1.382-.496 2.85-.744 4.337-.744 3.841 0 7.486 1.646 10.036 4.516 1.381 1.555 2.336 3.344 2.849 5.237v.019c.327 1.176.488 2.386.488 3.593-.002 3.697-1.529 7.372-4.505 10.001-2.442 2.177-5.593 3.361-8.851 3.361-2.707 0-5.345-.832-7.539-2.354-.921-.581-1.753-1.328-2.478-2.159-1.734-1.946-2.78-4.281-3.168-6.691-.113-.688-.17-1.38-.17-2.063l.011-.521v-.017m13.327-24.639c-1.752 0-3.487.196-5.167.567-4.213.867-8.143 2.832-11.417 5.717-5.591 4.952-8.447 11.86-8.45 18.798-.002 5.908 2.064 11.839 6.273 16.601 4.743 5.381 11.594 8.461 18.779 8.461 6.125 0 12.019-2.229 16.604-6.281 5.591-4.942 8.449-11.845 8.452-18.777.002-4.938-1.444-9.892-4.382-14.162l-.017-.021c-.567-.847-1.187-1.645-1.876-2.423-3.735-4.229-8.779-7.045-14.248-8.053-1.489-.284-3.011-.427-4.551-.427"/><path fill="#2A8FB5" d="M147.33 195.766c-.533.919-.837 1.98-.837 3.115 0 2.142 1.092 4.037 2.752 5.146-1.014-.031-1.969-.312-2.804-.772v.076c0 2.999 2.133 5.501 4.964 6.068-.519.146-1.065.219-1.63.219-.4 0-.789-.039-1.164-.112.787 2.459 3.071 4.248 5.778 4.293-2.117 1.662-4.786 2.651-7.683 2.651-.499 0-.994-.029-1.476-.085 2.738 1.752 5.989 2.776 9.482 2.776 2.291 0 4.374-.382 6.238-1.059v-20.678c-.649.979-1.028 2.154-1.028 3.418 0 .485.052.958.159 1.407-5.142-.254-9.698-2.716-12.751-6.463"/><path fill="#1566A3" d="M160.951 40.638c-2.044.142-3.293 1.013-4.226 2.244-.967 1.275-1.002 3.332-1.002 4.665v3.024h-3.111v4.503h3.111v15.647h5.229v-30.083"/></svg>