<svg xmlns="http://www.w3.org/2000/svg" width="324.243" height="196.969" viewBox="0 0 324.243 196.969"><path fill="#1676BB" d="M115.324 141.455v19.391c-.01.619-.51 1.131-1.13 1.131h-35.66c-.62 0-1.12-.512-1.13-1.131v-19.391c0-.619.51-1.129 1.13-1.129h35.66c.619 0 1.13.509 1.13 1.129"/><path fill="#13619C" d="M115.324 145.884h-18.961v14.442h18.961v-14.442"/><path fill="#1676BB" d="M162.034 64.385v77.54100000000001c0 2.18-1.79 3.959-3.97 3.959h-123.411c-2.18 0-3.96-1.779-3.97-3.959v-77.54100000000001c0-2.18 1.79-3.97 3.97-3.97h123.41c2.19 0 3.971 1.79 3.971 3.97"/><path fill="#F4F4F4" d="M150.734 69.507c1.65 0 3 1.35 3 3v61.086c0 1.65-1.35 3-3 3h-108.743c-1.65 0-3-1.35-3-3v-61.086c0-1.65 1.35-3 3-3h108.743"/><path fill="#1676BB" d="M121.733 161.685v2.391c-.01 1.07-1.34 1.359-2.41 1.359h-45.92c-1.08 0-2.4-.289-2.41-1.359v-2.391c0-1.07 1.33-1.359 2.41-1.359h45.92c1.071 0 2.41.289 2.41 1.359"/><path fill="#1676BB" d="M139.952 97.565h119.318v12h-119.318zM197.311 105.144l-11.576-3.158 14.158-51.901c1.438-5.271 6.642-9.245 12.105-9.245h31.65v12h-31.65c-.115.034-.465.301-.555.479l-14.132 51.825z"/><circle fill="#F4F4F4" cx="274.002" cy="103.564" r="14.732"/><path fill="#2FA2CD" d="M274.002 122.296c-10.329 0-18.732-8.404-18.732-18.732 0-10.329 8.403-18.732 18.732-18.732 10.328 0 18.73 8.403 18.73 18.732.001 10.328-8.401 18.732-18.73 18.732zm0-29.464c-5.918 0-10.732 4.814-10.732 10.732 0 5.918 4.814 10.732 10.732 10.732 5.917 0 10.73-4.814 10.73-10.732.001-5.918-4.813-10.732-10.73-10.732z"/><circle fill="#F4F4F4" cx="254.426" cy="46.84" r="14.731"/><path fill="#2FA2CD" d="M254.426 65.571c-10.328 0-18.731-8.403-18.731-18.731s8.403-18.731 18.731-18.731c10.329 0 18.732 8.403 18.732 18.731s-8.403 18.731-18.732 18.731zm0-29.463c-5.917 0-10.731 4.814-10.731 10.731s4.814 10.731 10.731 10.731c5.918 0 10.732-4.814 10.732-10.731s-4.814-10.731-10.732-10.731z"/><path fill="#125C95" d="M96.363 145.884h-18.96v14.442h18.96v-14.442"/><path fill="#176FB0" d="M96.363 60.415h-61.71c-2.18 0-3.97 1.79-3.97 3.97v77.54100000000001c.01 2.18 1.79 3.959 3.97 3.959h61.71v-9.291h-54.372c-1.65 0-3-1.35-3-3v-61.087c0-1.65 1.35-3 3-3h54.373v-9.092"/><path fill="#E4E5E6" d="M96.363 69.507h-54.372c-1.65 0-3 1.35-3 3v61.086c0 1.65 1.35 3 3 3h54.373v-67.086"/><path fill="#176FB0" d="M96.363 160.326h-22.96c-1.08 0-2.41.289-2.41 1.359v2.391c.01 1.07 1.33 1.359 2.41 1.359h22.96v-5.109"/><circle fill="#F4F4F4" cx="123.049" cy="103.564" r="14.732"/><path fill="#2FA2CD" d="M123.054 84.835c-10.33 0-18.74 8.4-18.74 18.731 0 10.33 8.41 18.729 18.74 18.729 10.32 0 18.73-8.398 18.73-18.729s-8.41-18.731-18.73-18.731zm0 29.459c-5.92 0-10.74-4.809-10.74-10.729 0-5.92 4.82-10.731 10.74-10.731 5.91 0 10.73 4.811 10.73 10.731 0 5.921-4.821 10.729-10.73 10.729z"/></svg>