<svg xmlns="http://www.w3.org/2000/svg" width="176.767" height="127.778" viewBox="0 0 176.767 127.778"><path fill="#1676BB" d="M168.469 15.905v29.78c0 3.76-3.09 6.85-6.85 6.85h-104.109c-3.77 0-6.85-3.09-6.85-6.85v-29.78c0-3.77 3.08-6.85 6.85-6.85h104.11c3.759 0 6.849 3.08 6.849 6.85"/><path fill="#2FA2CD" d="M168.469 15.905v29.78c0 3.76-3.09 6.85-6.85 6.85h-104.109c-3.77 0-6.85-3.09-6.85-6.85v-29.78c0-3.77 3.08-6.85 6.85-6.85h104.11c3.759 0 6.849 3.08 6.849 6.85"/><path fill="#EBEBEC" d="M158.66 112.185h-131.028v-95.715h131.028v95.715"/><path fill="#1676BB" d="M168.469 26.645v88.78c0 3.76-3.09 6.84-6.85 6.84h-145.109c-3.77 0-6.85-3.08-6.85-6.84v-102.52c0-3.77 3.08-6.85 6.85-6.85h47.11c.36 0 1.99 1.25 4.11 3 2.64 2.19 6.02 5.15 8.56 7.41 2.17 1.92 3.74 3.331 3.74 3.331h81.59c3.759-.001 6.849 3.079 6.849 6.849"/><path fill="#F4F4F4" d="M110.583 55h-13.87c-.69 0-1.27-.51-1.27-1.14v-13.99l15.14 15.13z"/><path fill="#1676BB" d="M111.187 55.25h-14.474c-.838 0-1.52-.624-1.52-1.39v-14.594l15.994 15.984zm-15.493-14.777v13.386c0 .482.467.89 1.02.89h13.266l-14.286-14.276z"/><path fill="#F4F4F4" d="M110.704 58.55v35.869c0 .631-.58 1.141-1.26 1.141h-40.191c-.68 0-1.26-.51-1.26-1.141v-53.46c0-.63.58-1.16 1.26-1.16h22.691v17.33c0 .78.709 1.42 1.559 1.42h17.201"/><path fill="#1676BB" d="M109.444 95.81h-40.191c-.833 0-1.51-.623-1.51-1.391v-53.46c0-.764.691-1.41 1.51-1.41h22.941v17.58c0 .634.6 1.17 1.309 1.17h17.451v36.119c0 .769-.678 1.392-1.51 1.392m-40.191-55.76c-.547 0-1.01.417-1.01.91v53.459c0 .482.462.891 1.01.891h40.191c.547 0 1.01-.408 1.01-.891v-35.619h-16.952c-.998 0-1.809-.75-1.809-1.67v-17.08h-22.44"/><path fill="#F4F4F4" d="M103.034 98.56v2.79c0 .63-.57 1.14-1.261 1.14h-40.18c-.69 0-1.27-.51-1.27-1.14v-53.45c0-.63.58-1.17 1.27-1.17h3.4v50.689c0 .631.58 1.141 1.26 1.141h36.781"/><path fill="#1676BB" d="M101.773 102.739h-40.18c-.838 0-1.52-.623-1.52-1.39v-53.45c0-.77.696-1.42 1.52-1.42h3.65v50.939c0 .482.462.891 1.01.891h37.031v3.04c0 .767-.678 1.39-1.511 1.39m-40.18-55.76c-.543 0-1.02.43-1.02.92v53.45c0 .482.467.89 1.02.89h40.18c.558 0 1.011-.398 1.011-.89v-2.54h-36.531c-.833 0-1.51-.623-1.51-1.391v-50.439h-3.15"/><circle fill="#F4F4F4" cx="115.136" cy="77.514" r="12.833"/><path fill="#1676BB" d="M115.135 92.347c-8.179 0-14.833-6.654-14.833-14.833s6.654-14.833 14.833-14.833c8.18 0 14.834 6.654 14.834 14.833s-6.654 14.833-14.834 14.833zm0-25.666c-5.973 0-10.833 4.859-10.833 10.833s4.86 10.833 10.833 10.833c5.974 0 10.834-4.859 10.834-10.833s-4.86-10.833-10.834-10.833zM121.34 79.514h-12.394c-1.104 0-2-.896-2-2s.896-2 2-2h12.394c1.105 0 2 .896 2 2s-.894 2-2 2zM115.144 85.711c-1.104 0-2-.896-2-2v-12.395c0-1.104.896-2 2-2s2 .896 2 2v12.395c0 1.104-.895 2-2 2z"/><path fill="#2D97BF" d="M89.06 9.055h-21.33c2.64 2.19 6.02 5.15 8.56 7.41l.005.005h12.765v-7.415"/><path fill="#D9DBDC" d="M89.06 16.47h-12.765c2.167 1.918 3.735 3.326 3.735 3.326h9.03v-3.326"/><path fill="#166CAD" d="M63.62 6.055h-47.11c-3.77 0-6.85 3.08-6.85 6.85v102.52c0 3.76 3.08 6.84 6.85 6.84h72.55v-19.525h-27.467c-.838 0-1.52-.623-1.52-1.39v-53.45c0-.77.696-1.42 1.52-1.42h3.65v50.939c0 .482.462.891 1.01.891h22.807v-2.5h-19.807c-.833 0-1.51-.623-1.51-1.391v-53.46c0-.764.691-1.41 1.51-1.41h19.807v-19.754h-9.03s-1.568-1.408-3.735-3.326l-.005-.005c-2.54-2.26-5.92-5.22-8.56-7.41-2.12-1.749-3.751-2.999-4.11-2.999"/><path fill="#DFE0E1" d="M89.06 40.05h-19.807c-.547 0-1.01.417-1.01.91v53.459c0 .482.462.891 1.01.891h19.807v-55.26"/><path fill="#166CAD" d="M89.06 39.55h-19.807c-.818 0-1.51.646-1.51 1.41v53.459c0 .768.677 1.391 1.51 1.391h19.807v-.5h-19.807c-.547 0-1.01-.408-1.01-.891v-53.46c0-.493.462-.91 1.01-.91h19.807v-.499"/><path fill="#DFE0E1" d="M64.743 46.979h-3.15c-.543 0-1.02.43-1.02.92v53.45c0 .482.467.89 1.02.89h27.467v-3.43h-22.807c-.833 0-1.51-.623-1.51-1.391v-50.439"/><path fill="#166CAD" d="M65.243 46.479h-3.65c-.824 0-1.52.65-1.52 1.42v53.45c0 .767.682 1.39 1.52 1.39h27.467v-.5h-27.467c-.553 0-1.02-.407-1.02-.89v-53.45c0-.49.477-.92 1.02-.92h3.15v50.439c0 .768.677 1.391 1.51 1.391h22.807v-.5h-22.807c-.547 0-1.01-.408-1.01-.891v-50.939"/></svg>