<?xml version="1.0" encoding="utf-8"?>
<!-- Generator: Adobe Illustrator 16.0.0, SVG Export Plug-In . SVG Version: 6.00 Build 0)  -->
<!DOCTYPE svg PUBLIC "-//W3C//DTD SVG 1.1//EN" "http://www.w3.org/Graphics/SVG/1.1/DTD/svg11.dtd">
<svg version="1.1" id="Layer_1" xmlns="http://www.w3.org/2000/svg" xmlns:xlink="http://www.w3.org/1999/xlink" x="0px" y="0px"
	 width="176.767px" height="127.778px" viewBox="0 0 176.767 127.778" enable-background="new 0 0 176.767 127.778"
	 xml:space="preserve">
<g>
	<path fill="#1676BB" d="M168.469,15.905v29.78c0,3.76-3.09,6.85-6.85,6.85H57.51c-3.77,0-6.85-3.09-6.85-6.85v-29.78
		c0-3.77,3.08-6.85,6.85-6.85h104.11C165.379,9.055,168.469,12.135,168.469,15.905"/>
	<path fill="#2FA2CD" d="M168.469,15.905v29.78c0,3.76-3.09,6.85-6.85,6.85H57.51c-3.77,0-6.85-3.09-6.85-6.85v-29.78
		c0-3.77,3.08-6.85,6.85-6.85h104.11C165.379,9.055,168.469,12.135,168.469,15.905"/>
	<polyline fill="#EBEBEC" points="158.66,112.185 27.632,112.185 27.632,16.47 158.66,16.47 158.66,112.185 	"/>
	<path fill="#1676BB" d="M168.469,26.645v88.78c0,3.76-3.09,6.84-6.85,6.84H16.51c-3.77,0-6.85-3.08-6.85-6.84V12.905
		c0-3.77,3.08-6.85,6.85-6.85h47.11c0.36,0,1.99,1.25,4.11,3c2.64,2.19,6.02,5.15,8.56,7.41c2.17,1.92,3.74,3.331,3.74,3.331h81.59
		C165.379,19.795,168.469,22.875,168.469,26.645"/>
	<path fill="#F4F4F4" d="M110.583,55H96.713c-0.69,0-1.27-0.51-1.27-1.14V39.87L110.583,55z"/>
	<path fill="#1676BB" d="M111.187,55.25H96.713c-0.838,0-1.52-0.624-1.52-1.39V39.266L111.187,55.25z M95.694,40.473v13.386
		c0,0.482,0.467,0.89,1.02,0.89h13.266L95.694,40.473z"/>
	<path fill="#F4F4F4" d="M110.704,58.55v35.869c0,0.631-0.58,1.141-1.26,1.141H69.253c-0.68,0-1.26-0.51-1.26-1.141V40.959
		c0-0.63,0.58-1.16,1.26-1.16h22.691v17.33c0,0.78,0.709,1.42,1.559,1.42H110.704"/>
	<path fill="#1676BB" d="M109.444,95.81H69.253c-0.833,0-1.51-0.623-1.51-1.391V40.959c0-0.764,0.691-1.41,1.51-1.41h22.941v17.58
		c0,0.634,0.6,1.17,1.309,1.17h17.451v36.119C110.954,95.187,110.276,95.81,109.444,95.81 M69.253,40.05
		c-0.547,0-1.01,0.417-1.01,0.91v53.459c0,0.482,0.462,0.891,1.01,0.891h40.191c0.547,0,1.01-0.408,1.01-0.891V58.8H93.502
		c-0.998,0-1.809-0.75-1.809-1.67V40.05H69.253"/>
	<path fill="#F4F4F4" d="M103.034,98.56v2.79c0,0.63-0.57,1.14-1.261,1.14h-40.18c-0.69,0-1.27-0.51-1.27-1.14v-53.45
		c0-0.63,0.58-1.17,1.27-1.17h3.4v50.689c0,0.631,0.58,1.141,1.26,1.141H103.034"/>
	<path fill="#1676BB" d="M101.773,102.739h-40.18c-0.838,0-1.52-0.623-1.52-1.39v-53.45c0-0.77,0.696-1.42,1.52-1.42h3.65v50.939
		c0,0.482,0.462,0.891,1.01,0.891h37.031v3.04C103.284,102.116,102.606,102.739,101.773,102.739 M61.593,46.979
		c-0.543,0-1.02,0.43-1.02,0.92v53.45c0,0.482,0.467,0.89,1.02,0.89h40.18c0.558,0,1.011-0.398,1.011-0.89v-2.54H66.253
		c-0.833,0-1.51-0.623-1.51-1.391V46.979H61.593"/>
	<circle fill="#F4F4F4" cx="115.136" cy="77.514" r="12.833"/>
	<path fill="#1676BB" d="M115.135,92.347c-8.179,0-14.833-6.654-14.833-14.833s6.654-14.833,14.833-14.833
		c8.18,0,14.834,6.654,14.834,14.833S123.315,92.347,115.135,92.347z M115.135,66.681c-5.973,0-10.833,4.859-10.833,10.833
		s4.86,10.833,10.833,10.833c5.974,0,10.834-4.859,10.834-10.833S121.109,66.681,115.135,66.681z"/>
	<path fill="#1676BB" d="M121.34,79.514h-12.394c-1.104,0-2-0.896-2-2s0.896-2,2-2h12.394c1.105,0,2,0.896,2,2
		S122.446,79.514,121.34,79.514z"/>
	<path fill="#1676BB" d="M115.144,85.711c-1.104,0-2-0.896-2-2V71.316c0-1.104,0.896-2,2-2s2,0.896,2,2v12.395
		C117.144,84.815,116.249,85.711,115.144,85.711z"/>
	<path fill="#2D97BF" d="M89.06,9.055h-21.33c2.64,2.19,6.02,5.15,8.56,7.41c0.002,0.001,0.003,0.003,0.005,0.005H89.06V9.055"/>
	<path fill="#D9DBDC" d="M89.06,16.47H76.295c2.167,1.918,3.735,3.326,3.735,3.326h9.03V16.47"/>
	<path fill="#166CAD" d="M63.62,6.055H16.51c-3.77,0-6.85,3.08-6.85,6.85v102.52c0,3.76,3.08,6.84,6.85,6.84h72.55v-19.525H61.593
		c-0.838,0-1.52-0.623-1.52-1.39v-53.45c0-0.77,0.696-1.42,1.52-1.42h3.65v50.939c0,0.482,0.462,0.891,1.01,0.891H89.06v-2.5H69.253
		c-0.833,0-1.51-0.623-1.51-1.391V40.959c0-0.764,0.691-1.41,1.51-1.41H89.06V19.795h-9.03c0,0-1.568-1.408-3.735-3.326
		c-0.002-0.001-0.003-0.003-0.005-0.005c-2.54-2.26-5.92-5.22-8.56-7.41l0,0C65.61,7.305,63.979,6.055,63.62,6.055"/>
	<path fill="#DFE0E1" d="M89.06,40.05H69.253c-0.547,0-1.01,0.417-1.01,0.91v53.459c0,0.482,0.462,0.891,1.01,0.891H89.06V40.05"/>
	<path fill="#166CAD" d="M89.06,39.55H69.253c-0.818,0-1.51,0.646-1.51,1.41v53.459c0,0.768,0.677,1.391,1.51,1.391H89.06v-0.5
		H69.253c-0.547,0-1.01-0.408-1.01-0.891V40.959c0-0.493,0.462-0.91,1.01-0.91H89.06V39.55"/>
	<path fill="#DFE0E1" d="M64.743,46.979h-3.15c-0.543,0-1.02,0.43-1.02,0.92v53.45c0,0.482,0.467,0.89,1.02,0.89H89.06v-3.43H66.253
		c-0.833,0-1.51-0.623-1.51-1.391V46.979"/>
	<path fill="#166CAD" d="M65.243,46.479h-3.65c-0.824,0-1.52,0.65-1.52,1.42v53.45c0,0.767,0.682,1.39,1.52,1.39H89.06v-0.5H61.593
		c-0.553,0-1.02-0.407-1.02-0.89v-53.45c0-0.49,0.477-0.92,1.02-0.92h3.15v50.439c0,0.768,0.677,1.391,1.51,1.391H89.06v-0.5H66.253
		c-0.547,0-1.01-0.408-1.01-0.891V46.479"/>
</g>
</svg>
