<?xml version="1.0" encoding="utf-8"?>
<!-- Generator: Adobe Illustrator 17.0.2, SVG Export Plug-In . SVG Version: 6.00 Build 0)  -->
<!DOCTYPE svg PUBLIC "-//W3C//DTD SVG 1.1//EN" "http://www.w3.org/Graphics/SVG/1.1/DTD/svg11.dtd" [
	<!ENTITY ns_extend "http://ns.adobe.com/Extensibility/1.0/">
	<!ENTITY ns_ai "http://ns.adobe.com/AdobeIllustrator/10.0/">
	<!ENTITY ns_graphs "http://ns.adobe.com/Graphs/1.0/">
	<!ENTITY ns_vars "http://ns.adobe.com/Variables/1.0/">
	<!ENTITY ns_imrep "http://ns.adobe.com/ImageReplacement/1.0/">
	<!ENTITY ns_sfw "http://ns.adobe.com/SaveForWeb/1.0/">
	<!ENTITY ns_custom "http://ns.adobe.com/GenericCustomNamespace/1.0/">
	<!ENTITY ns_adobe_xpath "http://ns.adobe.com/XPath/1.0/">
]>
<svg version="1.1" id="Layer_1" xmlns:x="&ns_extend;" xmlns:i="&ns_ai;" xmlns:graph="&ns_graphs;"
	 xmlns="http://www.w3.org/2000/svg" xmlns:xlink="http://www.w3.org/1999/xlink" x="0px" y="0px" width="176.767px"
	 height="127.778px" viewBox="0 0 176.767 127.778" enable-background="new 0 0 176.767 127.778" xml:space="preserve">
<metadata>
	<sfw  xmlns="&ns_sfw;">
		<slices></slices>
		<sliceSourceBounds  y="-355.075" x="339.611" width="158.81" height="116.21" bottomLeftOrigin="true"></sliceSourceBounds>
	</sfw>
</metadata>
<g>
	<path fill="#1676BB" d="M168.087,17.22V47c0,3.76-3.09,6.85-6.851,6.85H57.127c-3.77,0-6.85-3.09-6.85-6.85V17.22
		c0-3.77,3.08-6.85,6.85-6.85h104.109C164.998,10.37,168.087,13.45,168.087,17.22"/>
	<path fill="#2FA2CD" d="M168.087,17.22V47c0,3.76-3.09,6.85-6.851,6.85H57.127c-3.77,0-6.85-3.09-6.85-6.85V17.22
		c0-3.77,3.08-6.85,6.85-6.85h104.109C164.998,10.37,168.087,13.45,168.087,17.22"/>
	<polyline fill="#EBEBEC" points="158.278,113.5 27.25,113.5 27.25,17.785 158.278,17.785 158.278,113.5 	"/>
	<path fill="#1676BB" d="M168.087,27.96v88.78c0,3.76-3.09,6.84-6.851,6.84H16.127c-3.77,0-6.85-3.08-6.85-6.84V14.22
		c0-3.77,3.08-6.85,6.85-6.85h47.11c0.36,0,1.99,1.25,4.11,3c2.64,2.19,6.02,5.15,8.56,7.41c2.17,1.92,3.74,3.331,3.74,3.331h81.589
		C164.998,21.11,168.087,24.19,168.087,27.96"/>
	<path fill="#F4F4F4" d="M101.147,43.013c-3.33-3.33-7.76-5.16-12.46-5.16c-4.709,0-9.14,1.83-12.47,5.16
		c-0.08,0.09-0.16,0.17-0.24,0.26c-1.88,1.96-3.27,4.28-4.07,6.8c-0.56,1.721-0.85,3.53-0.85,5.4c0,1.54,0.2,3.04,0.58,4.49
		c0.77,2.99,2.34,5.74,4.58,7.98c2.62,2.61,5.92,4.3,9.49,4.899v4.891h-1.04c-0.43,0-0.79,0.44-0.79,0.981v26.899
		c0,0.54,0.36,0.979,0.79,0.99h8.031c0.439,0,0.799-0.45,0.799-0.99V78.714c0-0.541-0.359-0.981-0.799-0.981h-1.041v-4.891
		c3.471-0.58,6.66-2.18,9.24-4.66l0.25-0.239c3.33-3.33,5.16-7.76,5.16-12.46C106.307,50.773,104.477,46.343,101.147,43.013
		 M96.936,63.733l-0.259,0.24c-2.171,2.05-4.991,3.18-7.991,3.18c-3.12,0-6.049-1.22-8.25-3.42c-1.089-1.09-1.95-2.38-2.529-3.77
		c-0.59-1.4-0.9-2.919-0.9-4.49c0.01-1.91,0.46-3.75,1.33-5.4c0.48-0.93,1.099-1.8,1.85-2.59l0.25-0.26
		c2.201-2.21,5.13-3.42,8.25-3.42c3.111,0,6.05,1.22,8.25,3.42c2.211,2.2,3.421,5.14,3.421,8.26
		C100.357,58.593,99.147,61.524,96.936,63.733"/>
	<path fill="#1676BB" d="M101.147,43.013l0.088-0.088c-3.353-3.353-7.816-5.197-12.549-5.196c-4.742,0-9.205,1.843-12.558,5.196
		l-0.003,0.002l-0.003,0.003c-0.076,0.086-0.156,0.166-0.24,0.26l0.094,0.083l-0.09-0.087c-1.893,1.973-3.293,4.31-4.099,6.848
		c-0.564,1.732-0.856,3.555-0.856,5.438c0,1.551,0.201,3.062,0.584,4.522c0.775,3.011,2.357,5.781,4.612,8.037
		c2.638,2.629,5.963,4.331,9.558,4.934l0.021-0.123h-0.125v4.766l-0.915,0c-0.522,0.006-0.915,0.513-0.915,1.105v26.899
		c0,0.592,0.393,1.097,0.912,1.115h0.001h8.033c0.532-0.006,0.924-0.524,0.924-1.115V78.714c-0.001-0.592-0.394-1.1-0.924-1.105
		h-0.916v-4.766h-0.125l0.021,0.123c3.495-0.584,6.709-2.196,9.306-4.693l0.25-0.239l0.002-0.002
		c3.353-3.353,5.197-7.816,5.197-12.548c0-4.742-1.843-9.206-5.197-12.559L101.147,43.013l-0.088,0.088
		c3.307,3.307,5.123,7.704,5.123,12.382c0,4.667-1.817,9.064-5.123,12.372l0.088,0.088l-0.086-0.09l-0.25,0.239
		c-2.563,2.464-5.728,4.051-9.175,4.627l-0.104,0.017v5.121h1.166c0.177,0,0.341,0.088,0.467,0.241
		c0.125,0.153,0.207,0.371,0.207,0.614v26.899c0,0.242-0.081,0.463-0.207,0.619c-0.127,0.157-0.291,0.246-0.467,0.246h-8.031v0.125
		l0.003-0.125c-0.341-0.003-0.669-0.377-0.668-0.865V78.714c0-0.243,0.081-0.461,0.206-0.615c0.125-0.154,0.288-0.241,0.459-0.241
		h1.04h0.125v-5.121l-0.104-0.017c-3.544-0.595-6.821-2.273-9.423-4.865c-2.224-2.225-3.782-4.955-4.547-7.923
		c-0.378-1.441-0.576-2.93-0.576-4.459c0-1.857,0.288-3.653,0.844-5.361c0.794-2.502,2.174-4.805,4.041-6.752l0.001-0.001
		l0.002-0.003c0.077-0.087,0.157-0.166,0.24-0.261l-0.094-0.083l0.088,0.088c3.307-3.307,7.704-5.123,12.381-5.123
		c4.668,0,9.065,1.816,12.372,5.123L101.147,43.013 M96.936,63.733l-0.085-0.092l-0.259,0.24c-2.149,2.03-4.938,3.147-7.906,3.147
		c-3.087,0-5.984-1.207-8.162-3.383c-1.078-1.078-1.929-2.355-2.502-3.73c-0.584-1.385-0.891-2.888-0.891-4.442
		c0.01-1.89,0.455-3.71,1.316-5.342c0.475-0.92,1.088-1.78,1.83-2.562l0.249-0.26l-0.09-0.087l0.089,0.088
		c2.178-2.187,5.074-3.383,8.161-3.383c3.078,0,5.985,1.207,8.161,3.383c2.188,2.177,3.384,5.084,3.384,8.172
		c0,3.077-1.196,5.974-3.384,8.161L96.936,63.733l-0.085-0.092L96.936,63.733l0.088,0.088c2.234-2.233,3.458-5.196,3.457-8.338
		c0-3.152-1.223-6.126-3.458-8.349c-2.222-2.223-5.194-3.457-8.338-3.456c-3.152,0-6.115,1.223-8.339,3.457l-0.001,0.001
		l-0.25,0.261c-0.759,0.799-1.385,1.679-1.871,2.619c-0.879,1.667-1.334,3.528-1.344,5.457c0,1.588,0.313,3.124,0.91,4.54
		c0.586,1.405,1.455,2.708,2.556,3.81c2.224,2.223,5.186,3.457,8.338,3.456c3.031,0,5.883-1.142,8.077-3.214l0.258-0.239
		l0.002-0.002l0.002-0.001L96.936,63.733"/>
	<path fill="#2D97BF" d="M89.977,10.37h-22.63c2.64,2.19,6.02,5.15,8.56,7.41c0.002,0.002,0.004,0.003,0.005,0.005h14.064V10.37"/>
	<path fill="#D9DBDC" d="M89.977,17.785H75.913c2.167,1.918,3.735,3.326,3.735,3.326h10.33V17.785"/>
	<path fill="#166CAD" d="M88.686,43.928c-3.087,0-5.984,1.197-8.161,3.383l0,0l-0.248,0.258c-0.742,0.782-1.355,1.642-1.83,2.562
		c-0.86,1.632-1.306,3.452-1.316,5.342c0,1.554,0.307,3.057,0.891,4.442c0.573,1.375,1.425,2.652,2.502,3.73
		c2.178,2.177,5.075,3.383,8.162,3.383c0.435,0,0.865-0.024,1.291-0.071V44C89.551,43.952,89.121,43.928,88.686,43.928 M63.237,7.37
		h-47.11c-3.77,0-6.85,3.08-6.85,6.85v102.52c0,3.76,3.08,6.84,6.85,6.84h73.85v-16.852h-5.312h-0.001
		c-0.519-0.018-0.912-0.523-0.912-1.115V78.714c0-0.592,0.393-1.1,0.915-1.105l0.915,0v-4.66c-3.555-0.619-6.841-2.313-9.454-4.917
		c-2.255-2.256-3.837-5.026-4.612-8.037c-0.383-1.46-0.584-2.971-0.584-4.522c0-1.883,0.292-3.705,0.856-5.438
		c0.805-2.538,2.205-4.873,4.097-6.846c0.083-0.093,0.163-0.173,0.238-0.259l0.003-0.003l0.003-0.002
		c3.353-3.353,7.816-5.197,12.558-5.196c0.001,0,0,0,0.001,0c0.432,0,0.862,0.015,1.29,0.046V21.11h-10.33
		c0,0-1.568-1.408-3.735-3.326c-0.002-0.002-0.004-0.003-0.005-0.005c-2.54-2.26-5.92-5.22-8.56-7.41l0,0
		C65.228,8.62,63.597,7.37,63.237,7.37"/>
	<path fill="#DFE0E1" d="M88.686,37.978c-4.676,0-9.072,1.815-12.379,5.121c-0.082,0.093-0.161,0.172-0.237,0.257l-0.002,0.003
		l-0.001,0.001c-1.867,1.947-3.247,4.25-4.041,6.752c-0.556,1.708-0.844,3.504-0.844,5.361c0,1.529,0.198,3.018,0.576,4.459
		c0.764,2.968,2.323,5.698,4.547,7.923c2.602,2.592,5.878,4.269,9.423,4.865l0.104,0.017v5.121h-0.125h-1.04
		c-0.171,0-0.334,0.087-0.459,0.241c-0.125,0.154-0.206,0.372-0.206,0.615v26.899c0,0.488,0.327,0.862,0.668,0.865l0,0h5.307v-39.27
		c-0.426,0.046-0.856,0.07-1.291,0.07c0,0-0.001,0-0.001,0c-3.152,0-6.114-1.234-8.337-3.456c-1.101-1.101-1.97-2.405-2.556-3.81
		c-0.597-1.415-0.91-2.952-0.91-4.54c0.01-1.929,0.465-3.789,1.344-5.457c0.486-0.94,1.112-1.82,1.871-2.619l0.25-0.261l0.001-0.001
		c2.224-2.233,5.187-3.457,8.339-3.457c0,0,0.001,0,0.001,0c0.434,0,0.864,0.023,1.29,0.07v-5.723
		C89.55,37.994,89.119,37.978,88.686,37.978"/>
	<path fill="#166CAD" d="M88.687,43.678C88.687,43.678,88.687,43.678,88.687,43.678c-3.153,0-6.116,1.223-8.34,3.457l-0.001,0.001
		l-0.25,0.261c-0.759,0.799-1.385,1.679-1.871,2.619c-0.879,1.667-1.334,3.528-1.344,5.457c0,1.588,0.313,3.124,0.91,4.54
		c0.586,1.405,1.455,2.708,2.556,3.81c2.223,2.223,5.186,3.456,8.337,3.456c0,0,0.001,0,0.001,0c0.434,0,0.865-0.023,1.291-0.07
		v-0.252c-0.425,0.047-0.856,0.071-1.291,0.071c-3.087,0-5.984-1.207-8.162-3.383c-1.078-1.078-1.929-2.355-2.502-3.73
		c-0.584-1.385-0.891-2.888-0.891-4.442c0.01-1.89,0.455-3.71,1.316-5.342c0.475-0.92,1.088-1.78,1.83-2.562l0.248-0.258l0,0
		c2.178-2.187,5.074-3.383,8.161-3.383c0.434,0,0.865,0.024,1.291,0.071v-0.251C89.551,43.702,89.121,43.678,88.687,43.678
		 M88.687,37.729C88.687,37.729,88.687,37.729,88.687,37.729c-4.743,0-9.206,1.843-12.559,5.196l-0.003,0.002l-0.003,0.003
		c-0.076,0.086-0.155,0.165-0.238,0.259c-1.892,1.973-3.291,4.308-4.097,6.846c-0.564,1.732-0.856,3.555-0.856,5.438
		c0,1.551,0.201,3.062,0.584,4.522c0.775,3.011,2.357,5.781,4.612,8.037c2.613,2.603,5.898,4.297,9.454,4.917v4.66l-0.915,0
		c-0.522,0.006-0.915,0.513-0.915,1.105v26.899c0,0.592,0.393,1.097,0.912,1.115h0.001h5.312v-0.25H84.67
		c-0.341-0.003-0.669-0.377-0.668-0.865V78.714c0-0.243,0.081-0.461,0.206-0.615c0.125-0.154,0.288-0.241,0.459-0.241h1.04h0.125
		v-5.121l-0.104-0.017c-3.544-0.595-6.821-2.273-9.423-4.865c-2.224-2.225-3.782-4.955-4.547-7.923
		c-0.378-1.441-0.576-2.93-0.576-4.459c0-1.857,0.288-3.653,0.844-5.361c0.794-2.502,2.174-4.805,4.041-6.752l0.001-0.001
		l0.002-0.003c0.076-0.086,0.155-0.164,0.237-0.257c3.307-3.305,7.703-5.12,12.379-5.121c0.433,0,0.863,0.016,1.291,0.047v-0.251
		C89.55,37.744,89.12,37.729,88.687,37.729"/>
</g>
</svg>
