<?xml version="1.0" encoding="utf-8"?>
<!-- Generator: Adobe Illustrator 16.0.0, SVG Export Plug-In . SVG Version: 6.00 Build 0)  -->
<!DOCTYPE svg PUBLIC "-//W3C//DTD SVG 1.1//EN" "http://www.w3.org/Graphics/SVG/1.1/DTD/svg11.dtd">
<svg version="1.1" id="Layer_1" xmlns="http://www.w3.org/2000/svg" xmlns:xlink="http://www.w3.org/1999/xlink" x="0px" y="0px"
	 width="176.767px" height="127.778px" viewBox="0 0 176.767 127.778" enable-background="new 0 0 176.767 127.778"
	 xml:space="preserve">
<g>
	<path fill="#1676BB" d="M167.943,16.072v29.78c0,3.76-3.09,6.85-6.851,6.85H56.983c-3.77,0-6.85-3.09-6.85-6.85v-29.78
		c0-3.77,3.08-6.85,6.85-6.85h104.109C164.853,9.222,167.943,12.302,167.943,16.072"/>
	<path fill="#2FA2CD" d="M167.943,16.072v29.78c0,3.76-3.09,6.85-6.851,6.85H56.983c-3.77,0-6.85-3.09-6.85-6.85v-29.78
		c0-3.77,3.08-6.85,6.85-6.85h104.109C164.853,9.222,167.943,12.302,167.943,16.072"/>
	<polyline fill="#EBEBEC" points="158.133,112.353 27.105,112.353 27.105,16.637 158.133,16.637 158.133,112.353 	"/>
	<path fill="#1676BB" d="M167.943,26.812v88.781c0,3.76-3.09,6.84-6.851,6.84H15.983c-3.77,0-6.85-3.08-6.85-6.84V13.072
		c0-3.77,3.08-6.85,6.85-6.85h47.11c0.36,0,1.99,1.25,4.11,3c2.64,2.19,6.02,5.15,8.56,7.41c2.17,1.92,3.74,3.331,3.74,3.331h81.589
		C164.853,19.962,167.943,23.042,167.943,26.812"/>
	<path fill="#F4F4F4" d="M116.73,45.17v8.33l-1.46,1c0.79,0,1.46,0.6,1.46,1.32v8.86h-3.25v0.03h1.79c0.79,0,1.46,0.6,1.46,1.33
		v9.22c0,0.73-0.67,1.351-1.46,1.351H62.4c-0.79,0-1.46-0.62-1.46-1.351v-9.22c0-0.73,0.67-1.33,1.46-1.33h1.79v-0.03h-3.25v-8.86
		c0-0.72,0.67-1.32,1.46-1.32l-1.46-1v-8.33c0-0.73,0.67-1.33,1.46-1.33h52.87C116.06,43.84,116.73,44.44,116.73,45.17"/>
	<path fill="#1676BB" d="M113.48,53.45V67c-0.16-0.01-0.319-0.021-0.479-0.021c-2.541,0-4.721,1.511-5.711,3.681
		c-0.359,0.79-0.56,1.659-0.56,2.58h-35.8c0-0.921-0.2-1.79-0.56-2.58c-0.98-2.17-3.16-3.681-5.7-3.681
		c-0.17,0-0.32,0.011-0.48,0.021V53.45c0.16,0.01,0.31,0.02,0.48,0.02c1.89,0,3.58-0.84,4.72-2.16c0.96-1.1,1.54-2.53,1.54-4.1h35.8
		c0,1.57,0.58,3,1.54,4.1c1.15,1.32,2.84,2.16,4.73,2.16C113.161,53.47,113.32,53.46,113.48,53.45"/>
	<path fill="#F4F4F4" d="M80.871,60.226c0-4.398,3.564-7.962,7.962-7.962c4.398,0,7.961,3.563,7.961,7.962
		c0,4.397-3.563,7.96-7.961,7.96C84.435,68.186,80.871,64.623,80.871,60.226"/>
	<path fill="#F4F4F4" d="M116.73,55.82v8.86h-3.25v0.03h1.79c0.79,0,1.46,0.6,1.46,1.33v19.87c0,0.729-0.67,1.35-1.46,1.35H62.4
		c-0.79,0-1.46-0.62-1.46-1.35V66.04c0-0.73,0.67-1.33,1.46-1.33h1.79v-0.03h-3.25v-8.86c0-0.72,0.67-1.32,1.46-1.32h52.87
		C116.06,54.5,116.73,55.1,116.73,55.82"/>
	<path fill="#1676BB" d="M113.48,64.1v13.549c-0.16-0.01-0.319-0.02-0.479-0.02c-3.461,0-6.271,2.811-6.271,6.27h-35.8
		c0-3.459-2.8-6.27-6.26-6.27c-0.17,0-0.32,0.01-0.48,0.02V64.1c0.16,0.01,0.31,0.02,0.48,0.02c2.07,0,3.91-1.01,5.04-2.56
		c0.77-1.04,1.22-2.32,1.22-3.7h35.8c0,1.38,0.45,2.66,1.22,3.7c1.141,1.55,2.98,2.56,5.051,2.56
		C113.161,64.12,113.32,64.11,113.48,64.1"/>
	<path fill="#F4F4F4" d="M80.871,70.877c0-4.398,3.564-7.962,7.962-7.962c4.398,0,7.961,3.563,7.961,7.962
		c0,4.397-3.563,7.96-7.961,7.96C84.435,78.837,80.871,75.274,80.871,70.877"/>
	<path fill="#F4F4F4" d="M116.73,66.04v30.09c0,0.73-0.67,1.35-1.46,1.35H62.4c-0.79,0-1.46-0.619-1.46-1.35V66.04
		c0-0.73,0.67-1.33,1.46-1.33h52.87C116.06,64.71,116.73,65.31,116.73,66.04"/>
	<path fill="#1676BB" d="M64.67,87.849c3.456,0,6.264,2.809,6.264,6.265h29.905h5.892c0-3.456,2.809-6.265,6.265-6.265
		c0.168,0,0.323,0.011,0.48,0.021v-6.744v-0.063v-6.744c-0.157,0.01-0.313,0.021-0.48,0.021c-3.456,0-6.265-2.809-6.265-6.264
		h-5.892H70.934c0,3.455-2.808,6.264-6.264,6.264c-0.168,0-0.324-0.011-0.48-0.021v6.744v0.063v6.744
		C64.346,87.859,64.502,87.849,64.67,87.849"/>
	<path fill="#F4F4F4" d="M80.871,81.095c0-4.398,3.564-7.962,7.962-7.962c4.398,0,7.961,3.563,7.961,7.962
		c0,4.396-3.563,7.959-7.961,7.959C84.435,89.054,80.871,85.491,80.871,81.095"/>
	<polyline fill="#1676BB" points="117.69,61.56 117.69,64.68 60.19,64.68 60.19,61.56 117.69,61.56 	"/>
	<polyline fill="#1676BB" points="117.69,51.31 117.69,54.5 60.19,54.5 60.19,51.31 117.69,51.31 	"/>
	<path fill="#2D97BF" d="M88.533,9.222h-21.33c2.64,2.19,6.02,5.15,8.56,7.41c0.002,0.001,0.004,0.003,0.005,0.005h12.765V9.222"/>
	<path fill="#D9DBDC" d="M88.533,16.637H75.768c2.167,1.918,3.735,3.326,3.735,3.326h9.03V16.637"/>
	<path fill="#166CAD" d="M63.093,6.222h-47.11c-3.77,0-6.85,3.08-6.85,6.85v102.521c0,3.76,3.08,6.84,6.85,6.84h72.55V97.479H62.4
		c-0.79,0-1.46-0.619-1.46-1.35V85.91l0,0V75.26l0,0v-9.22l0,0l0,0c0-0.73,0.67-1.33,1.46-1.33h1.79v-0.03h-3.25h-0.75v-3.12h0.75
		v-5.74l0,0c0-0.72,0.67-1.32,1.46-1.32l-0.001,0H60.19v-3.19h0.75v-6.14c0-0.73,0.67-1.33,1.46-1.33h26.133V19.962h-9.03
		c0,0-1.568-1.408-3.735-3.326c-0.001-0.002-0.003-0.003-0.005-0.005c-2.54-2.26-5.92-5.22-8.56-7.41l0,0
		C65.083,7.472,63.453,6.222,63.093,6.222"/>
	<path fill="#DFE0E1" d="M64.19,54.5h-1.791l0.001,0l0,0L64.19,54.5L64.19,54.5 M88.533,43.84H62.4c-0.79,0-1.46,0.6-1.46,1.33v6.14
		h8.451c0.959-1.1,1.54-2.53,1.54-4.1h17.603V43.84"/>
	<path fill="#166CAD" d="M83.3,54.5H64.19v0L83.3,54.5C83.3,54.5,83.3,54.5,83.3,54.5 M88.533,47.21H70.93c0,1.57-0.58,3-1.54,4.1
		h19.142V47.21"/>
	<polyline fill="#DFE0E1" points="88.533,54.5 83.3,54.5 83.299,54.5 88.533,54.5 88.533,54.5 	"/>
	<path fill="#DFE0E1" d="M88.533,54.5h-5.233H64.19H62.4l0,0c-0.79,0-1.46,0.6-1.46,1.32l0,0v5.74h8.77
		c0.77-1.04,1.22-2.32,1.22-3.7h17.603V54.5"/>
	<path fill="#166CAD" d="M83.833,64.68H64.19v0.03h19.606C83.808,64.7,83.82,64.69,83.833,64.68 M88.533,57.86H70.93
		c0,1.38-0.45,2.66-1.22,3.7h18.823V57.86"/>
	<path fill="#DFE0E1" d="M88.533,64.68h-4.7c-0.013,0.01-0.024,0.02-0.037,0.03h4.737V64.68"/>
	<path fill="#DFE0E1" d="M88.533,64.71h-4.737H64.19H62.4c-0.79,0-1.46,0.6-1.46,1.33l0,0v19.87v10.22c0,0.73,0.67,1.35,1.46,1.35
		h26.133v-3.366H70.934c0-3.456-2.808-6.265-6.264-6.265c-0.168,0-0.324,0.011-0.48,0.021v-6.744v-0.063v-6.744
		c0.156,0.01,0.313,0.021,0.48,0.021c3.456,0,6.264-2.809,6.264-6.264h17.599V64.71"/>
	<path fill="#166CAD" d="M88.533,68.075H70.934c0,3.455-2.808,6.264-6.264,6.264c-0.168,0-0.324-0.011-0.48-0.021v6.744v0.063v6.744
		c0.156-0.01,0.313-0.021,0.48-0.021c3.456,0,6.264,2.809,6.264,6.265h17.599v-5.065c-4.259-0.157-7.662-3.657-7.662-7.953
		c0-4.298,3.403-7.799,7.662-7.956V68.075"/>
	<path fill="#DFE0E1" d="M88.533,73.139c-4.259,0.157-7.662,3.658-7.662,7.956c0,4.296,3.403,7.796,7.662,7.953V73.139"/>
	<polyline fill="#166CAD" points="88.533,61.56 69.71,61.56 60.94,61.56 60.19,61.56 60.19,64.68 60.94,64.68 64.19,64.68 
		83.833,64.68 88.533,64.68 88.533,61.56 	"/>
	<polyline fill="#166CAD" points="88.533,51.31 69.391,51.31 60.94,51.31 60.19,51.31 60.19,54.5 62.399,54.5 64.19,54.5 83.3,54.5 
		88.533,54.5 88.533,51.31 	"/>
	<circle fill="#F4F4F4" cx="121.871" cy="79.514" r="12.833"/>
	<path fill="#1676BB" d="M121.871,94.347c-8.179,0-14.833-6.654-14.833-14.833s6.654-14.833,14.833-14.833
		s14.833,6.654,14.833,14.833S130.049,94.347,121.871,94.347z M121.871,68.681c-5.974,0-10.833,4.859-10.833,10.833
		s4.859,10.833,10.833,10.833s10.833-4.859,10.833-10.833S127.844,68.681,121.871,68.681z"/>
	<path fill="#1676BB" d="M124.331,84.914c-0.42,0-0.837-0.175-1.134-0.517c-0.543-0.625-0.476-1.572,0.149-2.116l3.188-2.768
		l-3.188-2.768c-0.625-0.544-0.692-1.491-0.149-2.116c0.544-0.625,1.491-0.692,2.116-0.149l3.736,3.245
		c0.527,0.457,0.828,1.109,0.828,1.788s-0.301,1.331-0.826,1.788l-3.738,3.245C125.03,84.793,124.678,84.914,124.331,84.914z"/>
	<path fill="#1676BB" d="M126.575,81.014h-8.885c-0.828,0-1.5-0.671-1.5-1.5s0.672-1.5,1.5-1.5h8.885c0.829,0,1.5,0.671,1.5,1.5
		S127.404,81.014,126.575,81.014z"/>
	<path fill="#1676BB" d="M116.729,86.31c-0.828,0-1.5-0.672-1.5-1.5V74.263c0-0.828,0.672-1.5,1.5-1.5s1.5,0.672,1.5,1.5V84.81
		C118.229,85.638,117.557,86.31,116.729,86.31z"/>
</g>
</svg>
