<svg xmlns="http://www.w3.org/2000/svg" width="176.767" height="127.778" viewBox="0 0 176.767 127.778"><path fill="#1676BB" d="M167.943 16.072v29.78c0 3.76-3.09 6.85-6.851 6.85h-104.109c-3.77 0-6.85-3.09-6.85-6.85v-29.78c0-3.77 3.08-6.85 6.85-6.85h104.109c3.761 0 6.851 3.08 6.851 6.85"/><path fill="#2FA2CD" d="M167.943 16.072v29.78c0 3.76-3.09 6.85-6.851 6.85h-104.109c-3.77 0-6.85-3.09-6.85-6.85v-29.78c0-3.77 3.08-6.85 6.85-6.85h104.109c3.761 0 6.851 3.08 6.851 6.85"/><path fill="#EBEBEC" d="M158.133 112.353h-131.028v-95.716h131.028v95.716"/><path fill="#1676BB" d="M167.943 26.812v88.781c0 3.76-3.09 6.84-6.851 6.84h-145.109c-3.77 0-6.85-3.08-6.85-6.84v-102.521c0-3.77 3.08-6.85 6.85-6.85h47.11c.36 0 1.99 1.25 4.11 3 2.64 2.19 6.02 5.15 8.56 7.41 2.17 1.92 3.74 3.331 3.74 3.331h81.589c3.761-.001 6.851 3.079 6.851 6.849"/><path fill="#F4F4F4" d="M116.73 45.17v8.33l-1.46 1c.79 0 1.46.6 1.46 1.32v8.86h-3.25v.03h1.79c.79 0 1.46.6 1.46 1.33v9.22c0 .73-.67 1.351-1.46 1.351h-52.87c-.79 0-1.46-.62-1.46-1.351v-9.22c0-.73.67-1.33 1.46-1.33h1.79v-.03h-3.25v-8.86c0-.72.67-1.32 1.46-1.32l-1.46-1v-8.33c0-.73.67-1.33 1.46-1.33h52.87c.79 0 1.46.6 1.46 1.33"/><path fill="#1676BB" d="M113.48 53.45v13.55l-.479-.021c-2.541 0-4.721 1.511-5.711 3.681-.359.79-.56 1.659-.56 2.58h-35.8c0-.921-.2-1.79-.56-2.58-.98-2.17-3.16-3.681-5.7-3.681l-.48.021v-13.55l.48.02c1.89 0 3.58-.84 4.72-2.16.96-1.1 1.54-2.53 1.54-4.1h35.8c0 1.57.58 3 1.54 4.1 1.15 1.32 2.84 2.16 4.73 2.16l.48-.02"/><path fill="#F4F4F4" d="M80.871 60.226c0-4.398 3.564-7.962 7.962-7.962s7.961 3.563 7.961 7.962c0 4.397-3.563 7.96-7.961 7.96s-7.962-3.563-7.962-7.96M116.73 55.82v8.86h-3.25v.03h1.79c.79 0 1.46.6 1.46 1.33v19.87c0 .729-.67 1.35-1.46 1.35h-52.87c-.79 0-1.46-.62-1.46-1.35v-19.87c0-.73.67-1.33 1.46-1.33h1.79v-.03h-3.25v-8.86c0-.72.67-1.32 1.46-1.32h52.87c.79 0 1.46.6 1.46 1.32"/><path fill="#1676BB" d="M113.48 64.1v13.549l-.479-.02c-3.461 0-6.271 2.811-6.271 6.27h-35.8c0-3.459-2.8-6.27-6.26-6.27l-.48.02v-13.549l.48.02c2.07 0 3.91-1.01 5.04-2.56.77-1.04 1.22-2.32 1.22-3.7h35.8c0 1.38.45 2.66 1.22 3.7 1.141 1.55 2.98 2.56 5.051 2.56l.479-.02"/><path fill="#F4F4F4" d="M80.871 70.877c0-4.398 3.564-7.962 7.962-7.962s7.961 3.563 7.961 7.962c0 4.397-3.563 7.96-7.961 7.96s-7.962-3.563-7.962-7.96M116.73 66.04v30.09c0 .73-.67 1.35-1.46 1.35h-52.87c-.79 0-1.46-.619-1.46-1.35v-30.09c0-.73.67-1.33 1.46-1.33h52.87c.79 0 1.46.6 1.46 1.33"/><path fill="#1676BB" d="M64.67 87.849c3.456 0 6.264 2.809 6.264 6.265h35.797000000000004c0-3.456 2.809-6.265 6.265-6.265l.48.021v-13.550999999999998l-.48.021c-3.456 0-6.265-2.809-6.265-6.264h-35.797000000000004c0 3.455-2.808 6.264-6.264 6.264l-.48-.021v13.550999999999998l.48-.021"/><path fill="#F4F4F4" d="M80.871 81.095c0-4.398 3.564-7.962 7.962-7.962s7.961 3.563 7.961 7.962c0 4.396-3.563 7.959-7.961 7.959s-7.962-3.563-7.962-7.959"/><path fill="#1676BB" d="M117.69 61.56v3.12h-57.5v-3.12h57.5M117.69 51.31v3.19h-57.5v-3.19h57.5"/><path fill="#2D97BF" d="M88.533 9.222h-21.33c2.64 2.19 6.02 5.15 8.56 7.41l.005.005h12.765v-7.415"/><path fill="#D9DBDC" d="M88.533 16.637h-12.765c2.167 1.918 3.735 3.326 3.735 3.326h9.03v-3.326"/><path fill="#166CAD" d="M63.093 6.222h-47.11c-3.77 0-6.85 3.08-6.85 6.85v102.521c0 3.76 3.08 6.84 6.85 6.84h72.55v-24.954h-26.133c-.79 0-1.46-.619-1.46-1.35v-30.089c0-.73.67-1.33 1.46-1.33h1.79v-.03h-4v-3.12h.75v-5.74c0-.72.67-1.32 1.46-1.32h-2.21v-3.19h.75v-6.14c0-.73.67-1.33 1.46-1.33h26.133v-23.878h-9.03s-1.568-1.408-3.735-3.326l-.005-.005c-2.54-2.26-5.92-5.22-8.56-7.41-2.12-1.749-3.75-2.999-4.11-2.999"/><path fill="#DFE0E1" d="M64.19 54.5h-1.791.001 1.79m24.343-10.66h-26.133c-.79 0-1.46.6-1.46 1.33v6.14h8.451c.959-1.1 1.54-2.53 1.54-4.1h17.603v-3.37"/><path fill="#166CAD" d="M83.3 54.5h-19.11 19.11m5.233-7.29h-17.603c0 1.57-.58 3-1.54 4.1h19.142v-4.1"/><path fill="#DFE0E1" d="M88.533 54.5h-5.234 5.234M88.533 54.5h-26.133c-.79 0-1.46.6-1.46 1.32v5.74h8.77c.77-1.04 1.22-2.32 1.22-3.7h17.603v-3.36"/><path fill="#166CAD" d="M83.833 64.68h-19.643v.03h19.606l.037-.03m4.7-6.82h-17.603c0 1.38-.45 2.66-1.22 3.7h18.823v-3.7"/><path fill="#DFE0E1" d="M88.533 64.68h-4.7l-.037.03h4.737v-.03M88.533 64.71h-26.133000000000003c-.79 0-1.46.6-1.46 1.33v30.090000000000003c0 .73.67 1.35 1.46 1.35h26.133v-3.366h-17.599c0-3.456-2.808-6.265-6.264-6.265l-.48.021v-13.550999999999998l.48.021c3.456 0 6.264-2.809 6.264-6.264h17.599v-3.366"/><path fill="#166CAD" d="M88.533 68.075h-17.599c0 3.455-2.808 6.264-6.264 6.264l-.48-.021v13.550999999999998l.48-.021c3.456 0 6.264 2.809 6.264 6.265h17.599v-5.065c-4.259-.157-7.662-3.657-7.662-7.953 0-4.298 3.403-7.799 7.662-7.956v-5.064"/><path fill="#DFE0E1" d="M88.533 73.139c-4.259.157-7.662 3.658-7.662 7.956 0 4.296 3.403 7.796 7.662 7.953v-15.909"/><path fill="#166CAD" d="M88.533 61.56h-28.343v3.12h28.343v-3.12M88.533 51.31h-28.343v3.19h28.343v-3.19"/><circle fill="#F4F4F4" cx="121.871" cy="79.514" r="12.833"/><path fill="#1676BB" d="M121.871 94.347c-8.179 0-14.833-6.654-14.833-14.833s6.654-14.833 14.833-14.833 14.833 6.654 14.833 14.833-6.655 14.833-14.833 14.833zm0-25.666c-5.974 0-10.833 4.859-10.833 10.833s4.859 10.833 10.833 10.833 10.833-4.859 10.833-10.833-4.86-10.833-10.833-10.833zM124.331 84.914c-.42 0-.837-.175-1.134-.517-.543-.625-.476-1.572.149-2.116l3.188-2.768-3.188-2.768c-.625-.544-.692-1.491-.149-2.116.544-.625 1.491-.692 2.116-.149l3.736 3.245c.527.457.828 1.109.828 1.788s-.301 1.331-.826 1.788l-3.738 3.245c-.283.247-.635.368-.982.368zM126.575 81.014h-8.885c-.828 0-1.5-.671-1.5-1.5s.672-1.5 1.5-1.5h8.885c.829 0 1.5.671 1.5 1.5s-.671 1.5-1.5 1.5zM116.729 86.31c-.828 0-1.5-.672-1.5-1.5v-10.547c0-.828.672-1.5 1.5-1.5s1.5.672 1.5 1.5v10.547c0 .828-.672 1.5-1.5 1.5z"/></svg>