<svg xmlns="http://www.w3.org/2000/svg" width="176.767" height="127.778" viewBox="0 0 176.767 127.778"><path fill="#1676BB" d="M168.364 15.856v29.78c0 3.76-3.09 6.85-6.85 6.85h-104.11c-3.77 0-6.85-3.09-6.85-6.85v-29.78c0-3.77 3.08-6.85 6.85-6.85h104.11c3.76 0 6.85 3.08 6.85 6.85"/><path fill="#2FA2CD" d="M168.364 15.856v29.78c0 3.76-3.09 6.85-6.85 6.85h-104.11c-3.77 0-6.85-3.09-6.85-6.85v-29.78c0-3.77 3.08-6.85 6.85-6.85h104.11c3.76 0 6.85 3.08 6.85 6.85"/><path fill="#EBEBEC" d="M158.553 112.136h-131.027v-95.715h131.027v95.715"/><path fill="#1676BB" d="M168.364 26.596v88.78c0 3.76-3.09 6.84-6.85 6.84h-145.11c-3.77 0-6.85-3.08-6.85-6.84v-102.52c0-3.77 3.08-6.85 6.85-6.85h47.11c.36 0 1.99 1.25 4.11 3 2.64 2.19 6.02 5.15 8.56 7.41 2.17 1.92 3.74 3.331 3.74 3.331h81.59c3.76 0 6.85 3.079 6.85 6.849"/><path fill="#2D97BF" d="M88.954 9.006h-21.33c2.64 2.19 6.02 5.15 8.56 7.41l.005.005h12.765v-7.415"/><path fill="#D9DBDC" d="M88.954 16.421h-12.765c2.167 1.918 3.735 3.326 3.735 3.326h9.03v-3.326"/><path fill="#166CAD" d="M63.514 6.006h-47.11c-3.77 0-6.85 3.08-6.85 6.85v102.52c0 3.76 3.08 6.84 6.85 6.84h72.55v-102.469h-9.03s-1.568-1.408-3.735-3.326l-.005-.005c-2.54-2.26-5.92-5.22-8.56-7.41-2.12-1.75-3.75-3-4.11-3"/><path fill="#F4F4F4" d="M77.449 93.091v4.691c0 .221-.252.402-.551.402h-13.483c-.299 0-.551-.182-.551-.402v-4.691c0-.221.252-.407.551-.407h13.483c.299 0 .551.186.551.407zM94.548 93.091v4.691c0 .221-.252.402-.551.402h-13.483c-.299 0-.551-.182-.551-.402v-4.691c0-.221.252-.407.551-.407h13.483c.299 0 .551.186.551.407zM111.587 93.091v4.691c0 .221-.252.402-.551.402h-13.483c-.299 0-.551-.182-.551-.402v-4.691c0-.221.252-.407.551-.407h13.483c.299 0 .551.186.551.407zM77.449 76.716v4.69c0 .222-.252.403-.551.403h-13.483c-.299 0-.551-.182-.551-.403v-4.69c0-.221.252-.408.551-.408h13.483c.299 0 .551.187.551.408zM94.548 76.716v4.69c0 .222-.252.403-.551.403h-13.483c-.299 0-.551-.182-.551-.403v-4.69c0-.221.252-.408.551-.408h13.483c.299 0 .551.187.551.408zM111.587 76.716v4.69c0 .222-.252.403-.551.403h-13.483c-.299 0-.551-.182-.551-.403v-4.69c0-.221.252-.408.551-.408h13.483c.299 0 .551.187.551.408zM94.548 60.339v4.691c0 .221-.252.402-.551.402h-13.483c-.299 0-.551-.182-.551-.402v-4.691c0-.221.252-.407.551-.407h13.483c.299 0 .551.186.551.407zM111.587 60.339v4.691c0 .221-.252.402-.551.402h-13.483c-.299 0-.551-.182-.551-.402v-4.691c0-.221.252-.407.551-.407h13.483c.299 0 .551.186.551.407zM111.587 43.963v4.691c0 .221-.252.403-.551.403h-13.483c-.299 0-.551-.182-.551-.403v-4.691c0-.221.252-.407.551-.407h13.483c.299 0 .551.187.551.407zM85.9 84.903v4.69c0 .221-.251.402-.551.402h-13.483c-.299 0-.551-.182-.551-.402v-4.69c0-.221.252-.408.551-.408h13.483c.299 0 .551.188.551.408zM69.037 68.526v4.691c0 .221-.252.402-.551.402h-5.134c-.299 0-.551-.182-.551-.402v-4.691c0-.22.252-.406.551-.406h5.134c.299 0 .551.187.551.406zM69.099 84.903v4.691c0 .221-.252.402-.551.402h-5.134c-.299 0-.551-.182-.551-.402v-4.691c0-.221.252-.408.551-.408h5.134c.299 0 .551.188.551.408zM111.587 84.903v4.691c0 .221-.252.402-.551.402h-5.134c-.299 0-.551-.182-.551-.402v-4.691c0-.221.252-.407.551-.407h5.134c.299 0 .551.187.551.407zM111.587 68.527v4.691c0 .221-.252.402-.551.402h-5.134c-.299 0-.551-.182-.551-.402v-4.691c0-.22.252-.407.551-.407h5.134c.299 0 .551.188.551.407zM102.974 84.903v4.69c0 .221-.252.402-.552.402h-13.483c-.299 0-.551-.182-.551-.402v-4.69c0-.221.252-.408.551-.408h13.483c.3 0 .552.188.552.408zM85.838 68.526v4.691c0 .221-.251.402-.551.402h-13.483c-.299 0-.551-.182-.551-.402v-4.691c0-.22.252-.406.551-.406h13.483c.3 0 .551.187.551.406zM102.913 68.526v4.691c0 .221-.252.402-.551.402h-13.484c-.299 0-.551-.182-.551-.402v-4.691c0-.221.252-.407.551-.407h13.484c.299 0 .551.187.551.407zM111.587 52.151v4.691c0 .221-.252.403-.551.403h-5.134c-.299 0-.551-.182-.551-.403v-4.691c0-.221.252-.407.551-.407h5.134c.299 0 .551.187.551.407zM102.974 52.12v4.691c0 .221-.252.403-.552.403h-13.483c-.299 0-.551-.182-.551-.403v-4.691c0-.221.252-.407.551-.407h13.483c.3 0 .552.186.552.407zM94.028 46.007h-26.03c-.299 0-.551.169-.551.371v18.652c0 .221.238.402.521.402h8.96c.282 0 .521-.182.521-.402v-7.816h7.873c.28 0 .517-.179.517-.396v-7.76h8.189c.282 0 .521-.101.521-.223v-2.601c-.001-.123-.239-.227-.521-.227z"/><circle fill="#F4F4F4" cx="110.587" cy="79.081" r="12.833"/><path fill="#1676BB" d="M110.586 93.914c-8.178 0-14.832-6.654-14.832-14.833 0-8.18 6.654-14.833 14.832-14.833 8.18 0 14.834 6.654 14.834 14.833s-6.654 14.833-14.834 14.833zm0-25.667c-5.973 0-10.832 4.86-10.832 10.834 0 5.973 4.859 10.833 10.832 10.833 5.975 0 10.834-4.86 10.834-10.833 0-5.974-4.859-10.834-10.834-10.834zM115.868 80.216c-.268 0-.535-.045-.786-.141l-1.684-.636c-.517-.195-.777-.772-.582-1.289s.774-.776 1.289-.582l1.683.636c.102.038.334-.027.399-.113l1.229-1.599c.336-.438.963-.521 1.402-.183.438.336.52.965.184 1.402l-1.23 1.599c-.441.575-1.177.906-1.904.906z"/><path fill="#F4F4F4" d="M115.868 80.216v-.125c-.254 0-.506-.043-.741-.133l-1.685-.636c-.35-.132-.565-.465-.565-.818 0-.103.018-.207.057-.31.132-.35.467-.565.819-.565.103 0 .207.018.309.057l1.683.636.118.019c.153-.008.316-.049.425-.173l1.229-1.599c.173-.225.431-.342.693-.342.187 0 .374.059.534.182.225.173.342.432.342.695 0 .187-.06.373-.182.532l-1.229 1.599c-.414.54-1.115.857-1.806.856v.25c.765-.001 1.534-.346 2.003-.954l1.23-1.599c.157-.204.233-.445.233-.685 0-.337-.151-.672-.439-.894-.205-.157-.447-.233-.687-.233-.337-.001-.671.151-.892.439l-1.229 1.599-.085.047-.142.028-.03-.003-1.683-.636c-.13-.049-.264-.072-.396-.072-.454 0-.883.276-1.054.728-.049.13-.072.265-.072.397-.001.454.277.882.728 1.053l1.684.636c.266.102.549.148.83.148v-.124z"/><path fill="#1676BB" d="M115.981 79.798c-.829 0-1.5-.672-1.5-1.5 0-2.355-1.916-4.271-4.271-4.271-1.531 0-2.953.827-3.713 2.158-.41.719-1.327.97-2.046.56-.72-.41-.97-1.326-.56-2.046 1.291-2.265 3.713-3.672 6.318-3.672 4.01 0 7.271 3.262 7.271 7.271.001.828-.671 1.5-1.499 1.5zM102.468 81.921c-.213 0-.427-.066-.609-.207-.438-.336-.52-.965-.183-1.402l1.229-1.599c.604-.786 1.764-1.116 2.69-.765l1.684.636c.518.195.777.772.582 1.289s-.774.776-1.289.582l-1.683-.636c-.104-.039-.333.027-.399.113l-1.229 1.599c-.196.256-.493.39-.793.39z"/><path fill="#F4F4F4" d="M102.468 81.921v-.125c-.188 0-.373-.058-.533-.181-.224-.173-.341-.432-.342-.694.001-.187.06-.374.182-.533l1.229-1.599c.414-.539 1.117-.856 1.806-.856.255 0 .507.043.742.133l1.684.636c.351.132.565.465.565.818 0 .103-.018.207-.057.31-.132.35-.467.565-.82.565-.103 0-.206-.019-.308-.057l-1.683-.636-.12-.02c-.154.008-.315.052-.422.174l-1.229 1.599c-.172.224-.432.341-.694.341v.25c.337 0 .671-.15.893-.438l1.229-1.599.225-.076.032.004 1.683.636c.13.049.264.072.396.072.455 0 .884-.276 1.055-.728.049-.131.072-.266.072-.397.001-.455-.276-.882-.728-1.053l-1.684-.636c-.266-.101-.547-.148-.83-.148-.764.001-1.534.346-2.003.954l-1.229 1.599c-.157.204-.234.446-.234.686 0 .337.151.671.439.893.205.157.447.232.686.232v-.126z"/><path fill="#1676BB" d="M110.469 86.997c-4.01 0-7.271-3.262-7.271-7.271 0-.828.672-1.5 1.5-1.5s1.5.672 1.5 1.5c0 2.355 1.916 4.271 4.271 4.271 1.53 0 2.953-.827 3.713-2.158.409-.719 1.326-.97 2.045-.56.721.41.971 1.326.561 2.046-1.292 2.265-3.713 3.672-6.319 3.672z"/></svg>