<?xml version="1.0" encoding="utf-8"?>
<!-- Generator: Adobe Illustrator 16.0.0, SVG Export Plug-In . SVG Version: 6.00 Build 0)  -->
<!DOCTYPE svg PUBLIC "-//W3C//DTD SVG 1.1//EN" "http://www.w3.org/Graphics/SVG/1.1/DTD/svg11.dtd">
<svg version="1.1" id="Layer_1" xmlns="http://www.w3.org/2000/svg" xmlns:xlink="http://www.w3.org/1999/xlink" x="0px" y="0px"
	 width="176.767px" height="127.778px" viewBox="0 0 176.767 127.778" enable-background="new 0 0 176.767 127.778"
	 xml:space="preserve">
<g>
	<path fill="#1676BB" d="M168.364,15.856v29.78c0,3.76-3.09,6.85-6.85,6.85H57.404c-3.77,0-6.85-3.09-6.85-6.85v-29.78
		c0-3.77,3.08-6.85,6.85-6.85h104.11C165.274,9.006,168.364,12.086,168.364,15.856"/>
	<path fill="#2FA2CD" d="M168.364,15.856v29.78c0,3.76-3.09,6.85-6.85,6.85H57.404c-3.77,0-6.85-3.09-6.85-6.85v-29.78
		c0-3.77,3.08-6.85,6.85-6.85h104.11C165.274,9.006,168.364,12.086,168.364,15.856"/>
	<polyline fill="#EBEBEC" points="158.553,112.136 27.526,112.136 27.526,16.421 158.553,16.421 158.553,112.136 	"/>
	<path fill="#1676BB" d="M168.364,26.596v88.78c0,3.76-3.09,6.84-6.85,6.84H16.404c-3.77,0-6.85-3.08-6.85-6.84V12.856
		c0-3.77,3.08-6.85,6.85-6.85h47.11c0.36,0,1.99,1.25,4.11,3c2.64,2.19,6.02,5.15,8.56,7.41c2.17,1.92,3.74,3.331,3.74,3.331h81.59
		C165.274,19.747,168.364,22.826,168.364,26.596"/>
	<path fill="#2D97BF" d="M88.954,9.006h-21.33c2.64,2.19,6.02,5.15,8.56,7.41c0.002,0.001,0.004,0.003,0.005,0.005h12.765V9.006"/>
	<path fill="#D9DBDC" d="M88.954,16.421H76.189c2.167,1.918,3.735,3.326,3.735,3.326h9.03V16.421"/>
	<path fill="#166CAD" d="M63.514,6.006h-47.11c-3.77,0-6.85,3.08-6.85,6.85v102.52c0,3.76,3.08,6.84,6.85,6.84h72.55V19.747h-9.03
		c0,0-1.568-1.408-3.735-3.326c-0.001-0.001-0.003-0.003-0.005-0.005c-2.54-2.26-5.92-5.22-8.56-7.41l0,0
		C65.504,7.256,63.874,6.006,63.514,6.006"/>
	<path fill="#F4F4F4" d="M77.449,93.091v4.691c0,0.221-0.252,0.402-0.551,0.402H63.415c-0.299,0-0.551-0.182-0.551-0.402v-4.691
		c0-0.221,0.252-0.407,0.551-0.407h13.483C77.197,92.684,77.449,92.87,77.449,93.091z"/>
	<path fill="#F4F4F4" d="M94.548,93.091v4.691c0,0.221-0.252,0.402-0.551,0.402H80.514c-0.299,0-0.551-0.182-0.551-0.402v-4.691
		c0-0.221,0.252-0.407,0.551-0.407h13.483C94.296,92.684,94.548,92.87,94.548,93.091z"/>
	<path fill="#F4F4F4" d="M111.587,93.091v4.691c0,0.221-0.252,0.402-0.551,0.402H97.553c-0.299,0-0.551-0.182-0.551-0.402v-4.691
		c0-0.221,0.252-0.407,0.551-0.407h13.483C111.335,92.684,111.587,92.87,111.587,93.091z"/>
	<path fill="#F4F4F4" d="M77.449,76.716v4.69c0,0.222-0.252,0.403-0.551,0.403H63.415c-0.299,0-0.551-0.182-0.551-0.403v-4.69
		c0-0.221,0.252-0.408,0.551-0.408h13.483C77.197,76.308,77.449,76.495,77.449,76.716z"/>
	<path fill="#F4F4F4" d="M94.548,76.716v4.69c0,0.222-0.252,0.403-0.551,0.403H80.514c-0.299,0-0.551-0.182-0.551-0.403v-4.69
		c0-0.221,0.252-0.408,0.551-0.408h13.483C94.296,76.308,94.548,76.495,94.548,76.716z"/>
	<path fill="#F4F4F4" d="M111.587,76.716v4.69c0,0.222-0.252,0.403-0.551,0.403H97.553c-0.299,0-0.551-0.182-0.551-0.403v-4.69
		c0-0.221,0.252-0.408,0.551-0.408h13.483C111.335,76.308,111.587,76.495,111.587,76.716z"/>
	<path fill="#F4F4F4" d="M94.548,60.339v4.691c0,0.221-0.252,0.402-0.551,0.402H80.514c-0.299,0-0.551-0.182-0.551-0.402v-4.691
		c0-0.221,0.252-0.407,0.551-0.407h13.483C94.296,59.932,94.548,60.118,94.548,60.339z"/>
	<path fill="#F4F4F4" d="M111.587,60.339v4.691c0,0.221-0.252,0.402-0.551,0.402H97.553c-0.299,0-0.551-0.182-0.551-0.402v-4.691
		c0-0.221,0.252-0.407,0.551-0.407h13.483C111.335,59.932,111.587,60.118,111.587,60.339z"/>
	<path fill="#F4F4F4" d="M111.587,43.963v4.691c0,0.221-0.252,0.403-0.551,0.403H97.553c-0.299,0-0.551-0.182-0.551-0.403v-4.691
		c0-0.221,0.252-0.407,0.551-0.407h13.483C111.335,43.556,111.587,43.743,111.587,43.963z"/>
	<path fill="#F4F4F4" d="M85.9,84.903v4.69c0,0.221-0.251,0.402-0.551,0.402H71.866c-0.299,0-0.551-0.182-0.551-0.402v-4.69
		c0-0.221,0.252-0.408,0.551-0.408h13.483C85.648,84.495,85.9,84.683,85.9,84.903z"/>
	<path fill="#F4F4F4" d="M69.037,68.526v4.691c0,0.221-0.252,0.402-0.551,0.402h-5.134c-0.299,0-0.551-0.182-0.551-0.402v-4.691
		c0-0.22,0.252-0.406,0.551-0.406h5.134C68.785,68.12,69.037,68.307,69.037,68.526z"/>
	<path fill="#F4F4F4" d="M69.099,84.903v4.691c0,0.221-0.252,0.402-0.551,0.402h-5.134c-0.299,0-0.551-0.182-0.551-0.402v-4.691
		c0-0.221,0.252-0.408,0.551-0.408h5.134C68.847,84.495,69.099,84.683,69.099,84.903z"/>
	<path fill="#F4F4F4" d="M111.587,84.903v4.691c0,0.221-0.252,0.402-0.551,0.402h-5.134c-0.299,0-0.551-0.182-0.551-0.402v-4.691
		c0-0.221,0.252-0.407,0.551-0.407h5.134C111.335,84.496,111.587,84.683,111.587,84.903z"/>
	<path fill="#F4F4F4" d="M111.587,68.527v4.691c0,0.221-0.252,0.402-0.551,0.402h-5.134c-0.299,0-0.551-0.182-0.551-0.402v-4.691
		c0-0.22,0.252-0.407,0.551-0.407h5.134C111.335,68.12,111.587,68.308,111.587,68.527z"/>
	<path fill="#F4F4F4" d="M102.974,84.903v4.69c0,0.221-0.252,0.402-0.552,0.402H88.939c-0.299,0-0.551-0.182-0.551-0.402v-4.69
		c0-0.221,0.252-0.408,0.551-0.408h13.483C102.722,84.495,102.974,84.683,102.974,84.903z"/>
	<path fill="#F4F4F4" d="M85.838,68.526v4.691c0,0.221-0.251,0.402-0.551,0.402H71.804c-0.299,0-0.551-0.182-0.551-0.402v-4.691
		c0-0.22,0.252-0.406,0.551-0.406h13.483C85.587,68.12,85.838,68.307,85.838,68.526z"/>
	<path fill="#F4F4F4" d="M102.913,68.526v4.691c0,0.221-0.252,0.402-0.551,0.402H88.878c-0.299,0-0.551-0.182-0.551-0.402v-4.691
		c0-0.221,0.252-0.407,0.551-0.407h13.484C102.661,68.119,102.913,68.306,102.913,68.526z"/>
	<path fill="#F4F4F4" d="M111.587,52.151v4.691c0,0.221-0.252,0.403-0.551,0.403h-5.134c-0.299,0-0.551-0.182-0.551-0.403v-4.691
		c0-0.221,0.252-0.407,0.551-0.407h5.134C111.335,51.744,111.587,51.931,111.587,52.151z"/>
	<path fill="#F4F4F4" d="M102.974,52.12v4.691c0,0.221-0.252,0.403-0.552,0.403H88.939c-0.299,0-0.551-0.182-0.551-0.403V52.12
		c0-0.221,0.252-0.407,0.551-0.407h13.483C102.722,51.713,102.974,51.899,102.974,52.12z"/>
	<path fill="#F4F4F4" d="M94.028,46.007h-26.03c-0.299,0-0.551,0.169-0.551,0.371V65.03c0,0.221,0.238,0.402,0.521,0.402h8.96
		c0.282,0,0.521-0.182,0.521-0.402v-7.816h7.873c0.28,0,0.517-0.179,0.517-0.396v-7.76h8.189c0.282,0,0.521-0.101,0.521-0.223
		v-2.601C94.548,46.111,94.31,46.007,94.028,46.007z"/>
	<circle fill="#F4F4F4" cx="110.587" cy="79.081" r="12.833"/>
	<path fill="#1676BB" d="M110.586,93.914c-8.178,0-14.832-6.654-14.832-14.833c0-8.18,6.654-14.833,14.832-14.833
		c8.18,0,14.834,6.654,14.834,14.833C125.42,87.26,118.766,93.914,110.586,93.914z M110.586,68.247
		c-5.973,0-10.832,4.86-10.832,10.834c0,5.973,4.859,10.833,10.832,10.833c5.975,0,10.834-4.86,10.834-10.833
		C121.42,73.107,116.561,68.247,110.586,68.247z"/>
	<path fill="#1676BB" d="M115.868,80.216c-0.268,0-0.535-0.045-0.786-0.141l-1.684-0.636c-0.517-0.195-0.777-0.772-0.582-1.289
		s0.774-0.776,1.289-0.582l1.683,0.636c0.102,0.038,0.334-0.027,0.399-0.113l1.229-1.599c0.336-0.438,0.963-0.521,1.402-0.183
		c0.438,0.336,0.52,0.965,0.184,1.402l-1.23,1.599C117.331,79.885,116.595,80.216,115.868,80.216z"/>
	<path fill="#F4F4F4" d="M115.868,80.216v-0.125c-0.254,0-0.506-0.043-0.741-0.133l-1.685-0.636
		c-0.35-0.132-0.565-0.465-0.565-0.818c0-0.103,0.018-0.207,0.057-0.31c0.132-0.35,0.467-0.565,0.819-0.565
		c0.103,0,0.207,0.018,0.309,0.057l1.683,0.636l0.118,0.019c0.153-0.008,0.316-0.049,0.425-0.173l1.229-1.599
		c0.173-0.225,0.431-0.342,0.693-0.342c0.187,0,0.374,0.059,0.534,0.182c0.225,0.173,0.342,0.432,0.342,0.695
		c0,0.187-0.06,0.373-0.182,0.532l-1.229,1.599c-0.414,0.54-1.115,0.857-1.806,0.856V80.216v0.125
		c0.765-0.001,1.534-0.346,2.003-0.954l1.23-1.599c0.157-0.204,0.233-0.445,0.233-0.685c0-0.337-0.151-0.672-0.439-0.894
		c-0.205-0.157-0.447-0.233-0.687-0.233c-0.337-0.001-0.671,0.151-0.892,0.439l-1.229,1.599l-0.085,0.047l-0.142,0.028l-0.03-0.003
		l-1.683-0.636c-0.13-0.049-0.264-0.072-0.396-0.072c-0.454,0-0.883,0.276-1.054,0.728c-0.049,0.13-0.072,0.265-0.072,0.397
		c-0.001,0.454,0.277,0.882,0.728,1.053l1.684,0.636c0.266,0.102,0.549,0.148,0.83,0.148V80.216z"/>
	<path fill="#1676BB" d="M115.981,79.798c-0.829,0-1.5-0.672-1.5-1.5c0-2.355-1.916-4.271-4.271-4.271
		c-1.531,0-2.953,0.827-3.713,2.158c-0.41,0.719-1.327,0.97-2.046,0.56c-0.72-0.41-0.97-1.326-0.56-2.046
		c1.291-2.265,3.713-3.672,6.318-3.672c4.01,0,7.271,3.262,7.271,7.271C117.481,79.126,116.809,79.798,115.981,79.798z"/>
	<path fill="#1676BB" d="M102.468,81.921c-0.213,0-0.427-0.066-0.609-0.207c-0.438-0.336-0.52-0.965-0.183-1.402l1.229-1.599
		c0.604-0.786,1.764-1.116,2.69-0.765l1.684,0.636c0.518,0.195,0.777,0.772,0.582,1.289s-0.774,0.776-1.289,0.582l-1.683-0.636
		c-0.104-0.039-0.333,0.027-0.399,0.113l-1.229,1.599C103.065,81.787,102.768,81.921,102.468,81.921z"/>
	<path fill="#F4F4F4" d="M102.468,81.921v-0.125c-0.188,0-0.373-0.058-0.533-0.181c-0.224-0.173-0.341-0.432-0.342-0.694
		c0.001-0.187,0.06-0.374,0.182-0.533l1.229-1.599c0.414-0.539,1.117-0.856,1.806-0.856c0.255,0,0.507,0.043,0.742,0.133
		l1.684,0.636c0.351,0.132,0.565,0.465,0.565,0.818c0,0.103-0.018,0.207-0.057,0.31c-0.132,0.35-0.467,0.565-0.82,0.565
		c-0.103,0-0.206-0.019-0.308-0.057l-1.683-0.636l-0.12-0.02c-0.154,0.008-0.315,0.052-0.422,0.174l-1.229,1.599
		c-0.172,0.224-0.432,0.341-0.694,0.341V81.921v0.125c0.337,0,0.671-0.15,0.893-0.438l1.229-1.599l0.225-0.076l0.032,0.004
		l1.683,0.636c0.13,0.049,0.264,0.072,0.396,0.072c0.455,0,0.884-0.276,1.055-0.728c0.049-0.131,0.072-0.266,0.072-0.397
		c0.001-0.455-0.276-0.882-0.728-1.053l-1.684-0.636c-0.266-0.101-0.547-0.148-0.83-0.148c-0.764,0.001-1.534,0.346-2.003,0.954
		l-1.229,1.599c-0.157,0.204-0.234,0.446-0.234,0.686c0,0.337,0.151,0.671,0.439,0.893c0.205,0.157,0.447,0.232,0.686,0.232V81.921z
		"/>
	<path fill="#1676BB" d="M110.469,86.997c-4.01,0-7.271-3.262-7.271-7.271c0-0.828,0.672-1.5,1.5-1.5s1.5,0.672,1.5,1.5
		c0,2.355,1.916,4.271,4.271,4.271c1.53,0,2.953-0.827,3.713-2.158c0.409-0.719,1.326-0.97,2.045-0.56
		c0.721,0.41,0.971,1.326,0.561,2.046C115.496,85.59,113.075,86.997,110.469,86.997z"/>
</g>
</svg>
