<?xml version="1.0" encoding="utf-8"?>
<!-- Generator: Adobe Illustrator 16.0.0, SVG Export Plug-In . SVG Version: 6.00 Build 0)  -->
<!DOCTYPE svg PUBLIC "-//W3C//DTD SVG 1.1//EN" "http://www.w3.org/Graphics/SVG/1.1/DTD/svg11.dtd">
<svg version="1.1" id="Layer_1" xmlns="http://www.w3.org/2000/svg" xmlns:xlink="http://www.w3.org/1999/xlink" x="0px" y="0px"
	 width="321.211px" height="252.525px" viewBox="0 0 321.211 252.525" enable-background="new 0 0 321.211 252.525"
	 xml:space="preserve">
<g>
	<path fill="#1375BB" d="M220.1,244.79H104.36c-3.3,0-4.05-1.87-1.68-4.16c0,0,16.05-10.47,19.31-14.47
		c0.12-0.14,0.23-0.29,0.33-0.45c0.19-0.279,0.36-0.58,0.52-0.9c0.06-0.129,0.12-0.27,0.18-0.41l0.03-0.069
		c0.34-0.82,0.59-1.729,0.77-2.67c0.48-2.55,0.45-5.341,0.34-7.181L120.12,197l-2.9-13.26l-1.91-8.71c0-1.37,1.12-2.49,2.5-2.49
		h88.85c1.359,0,2.49,1.12,2.49,2.49l-1.91,8.71l-2.9,13.26l-4.04,17.479c-0.11,1.84-0.14,4.631,0.341,7.181
		c0.18,0.94,0.43,1.85,0.77,2.67l0.029,0.069c0.061,0.141,0.121,0.281,0.181,0.41c0.159,0.32,0.33,0.621,0.521,0.9
		c0.1,0.16,0.209,0.311,0.33,0.45c3.26,4,19.309,14.47,19.309,14.47C224.15,242.92,223.4,244.79,220.1,244.79"/>
	<path fill="#1064A1" d="M204.34,197H162.3v27.33h39.11c-0.34-0.82-0.59-1.729-0.77-2.67c-0.312-1.653-0.409-3.408-0.408-4.939
		c0-0.83,0.028-1.595,0.067-2.241L204.34,197"/>
	<path fill="#1375BB" d="M308.83,16.78v171.44v0.021c-0.01,4.819-3.96,8.76-8.78,8.76H22.04c-4.83,0-8.77-3.94-8.78-8.76v-0.021
		V16.78c0-4.83,3.94-8.78,8.78-8.78h278.01C304.88,8,308.83,11.95,308.83,16.78"/>
	<path fill="#F3F4F5" d="M294.42,20.82c1.65,0,3,1.35,3,3v156.92c0,1.649-1.35,3-3,3H27.67c-1.65,0-3-1.351-3-3V23.82
		c0-1.65,1.35-3,3-3H294.42"/>
	<path fill="#1375BB" d="M105.52,41.5c-10.7,0-19.41,8.71-19.41,19.41c0,10.7,8.71,19.41,19.41,19.41s19.41-8.71,19.41-19.41
		C124.93,50.21,116.22,41.5,105.52,41.5"/>
	<path fill="#1375BB" d="M105.52,41.5V41c-10.978,0.001-19.909,8.933-19.91,19.91c0.001,10.977,8.933,19.909,19.91,19.91
		c10.978-0.001,19.909-8.933,19.91-19.91c-0.001-10.978-8.933-19.909-19.91-19.91V41.5V42c5.213,0,9.938,2.121,13.364,5.546
		c3.425,3.427,5.546,8.151,5.546,13.364s-2.121,9.938-5.546,13.364c-3.427,3.425-8.151,5.546-13.364,5.546
		s-9.938-2.121-13.364-5.546c-3.425-3.426-5.546-8.151-5.546-13.364s2.121-9.938,5.546-13.364C95.582,44.12,100.307,42,105.52,42
		V41.5"/>
	<path fill="#F3F4F5" d="M115.033,58.575h-7.177V51.38c0-1.29-1.046-2.334-2.335-2.334c-1.289,0-2.335,1.045-2.335,2.334v7.195
		h-7.176c-1.289,0-2.334,1.045-2.334,2.334c0,1.29,1.045,2.335,2.334,2.335h7.176v7.196c0,1.289,1.046,2.334,2.335,2.334
		c1.29,0,2.335-1.045,2.335-2.334v-7.196h7.177c1.289,0,2.334-1.045,2.334-2.335C117.368,59.62,116.322,58.575,115.033,58.575"/>
	<path fill="#FFFFFF" d="M115.033,58.575v-0.5h-6.677V51.38c0-1.566-1.27-2.834-2.835-2.834c-1.565,0-2.834,1.269-2.835,2.834v6.695
		h-6.676c-1.565,0-2.834,1.269-2.834,2.834c0,1.566,1.269,2.834,2.834,2.835h6.676v6.696c0,1.565,1.27,2.833,2.835,2.834
		c1.566,0,2.835-1.269,2.835-2.834v-6.696h6.677c1.565,0,2.834-1.269,2.834-2.835c0-1.565-1.27-2.834-2.834-2.834V58.575v0.5
		c1.012,0.002,1.833,0.822,1.834,1.834c-0.002,1.013-0.822,1.833-1.834,1.835h-7.677v7.696c-0.002,1.012-0.822,1.832-1.835,1.834
		c-1.013-0.002-1.833-0.822-1.835-1.834v-7.696h-7.676c-1.013-0.002-1.833-0.822-1.834-1.835c0.002-1.013,0.822-1.833,1.834-1.834
		h7.676V51.38c0.002-1.013,0.822-1.833,1.835-1.834c1.014,0.002,1.833,0.821,1.835,1.834v7.695h7.677V58.575"/>
	<path fill="#1375BB" d="M202.337,122.469c0.063,10.697-4.056,20.772-11.571,28.369c-7.525,7.606-17.557,11.824-28.253,11.879
		h-0.216c-21.954,0-39.915-17.871-40.023-39.824v-0.586l-0.008-0.126c-0.027-6.903,0.026-29.001,0.026-29.217
		c0-0.478,0.082-1,0.244-1.613l0.045-0.189c0.044-0.171,0.09-0.342,0.153-0.514c0.198-0.513,0.487-1.018,0.847-1.505
		c0.956-1.343,2.353-2.262,3.911-2.586c0.497-0.099,0.974-0.144,1.416-0.144c2.595,0.009,4.893,1.46,5.993,3.803
		c0.441,0.928,0.649,1.974,0.631,3.289c0,0-0.027,21.34-0.027,23.485c-0.044,0.901,0.379,1.18,0.739,1.262l0.433,0.1l0.189-0.163
		c0.342-0.027,0.685-0.019,1.063,0l0.982-0.081l0.054-68.14c0-1.477,0.333-2.766,1-3.839c0.36-0.559,0.793-1.054,1.325-1.496
		c2.073-1.739,4.434-2.109,6.885-1.073c2.505,1.054,3.866,3.037,4.064,5.885c0.009,0.18,0.009,0.351,0,0.531l-0.045,48.908
		l3.389-0.018v-0.901c0,0,0-12.419,0.026-16.033c0.018-2.226,1.036-4.218,2.784-5.461c1.371-0.955,3.028-1.352,4.769-1.126
		c3.244,0.415,5.695,3.235,5.713,6.561l-0.009,17.988l0.045,0.144c0.217,0.613,0.775,0.613,1.226,0.613c0.234,0,0.622,0,1.244-0.019
		l0.865-0.018l0.018-0.856c0.018-0.667,0.018-5.695,0.018-9.733v-4.281c0.045-3.677,3.002-6.66,6.57-6.66
		c0.946,0.009,1.865,0.216,2.73,0.604c0.559,0.261,0.973,0.504,1.343,0.793c1.712,1.208,2.587,2.992,2.596,5.299
		c0.019,3.767,0,16.375,0,16.375l-0.009,0.901l3.424-0.008v-0.902c0-0.072-0.018-7.363,0-9.462c0.055-3.704,2.975-6.597,6.588-6.606
		l0.271,0.027c3.441,0.082,6.182,2.902,6.371,6.57c0.026,0.424,0,7.002-0.018,10.571c-0.01,2.045,0.089,10.571,0.152,15.663
		C202.318,120.838,202.337,122.217,202.337,122.469"/>
	<path fill="#1375BB" d="M220.1,244.79H104.36c-3.3,0-4.05-1.87-1.68-4.16c0,0,16.05-10.47,19.31-14.47
		c0.12-0.14,0.23-0.29,0.33-0.45c0.19-0.279,0.36-0.58,0.52-0.9c0.06-0.129,0.12-0.27,0.18-0.41l0.03-0.069h78.36l0.029,0.069
		c0.061,0.141,0.121,0.281,0.181,0.41c0.159,0.32,0.33,0.621,0.521,0.9c0.1,0.16,0.209,0.311,0.33,0.45
		c3.26,4,19.309,14.47,19.309,14.47C224.15,242.92,223.4,244.79,220.1,244.79"/>
	<path fill="#0F5E97" d="M162.3,197h-42.18l4.04,17.479c0.039,0.646,0.067,1.411,0.067,2.241l0,0c0,1.531-0.097,3.286-0.408,4.939
		c-0.18,0.94-0.43,1.85-0.77,2.67h39.25V197"/>
	<path fill="#116EB0" d="M162.3,8H22.04c-4.84,0-8.78,3.95-8.78,8.78v171.44v0.021c0.01,4.819,3.95,8.76,8.78,8.76h98.08h42.18
		v-13.26H27.67c-1.65,0-3-1.351-3-3V23.82c0-1.65,1.35-3,3-3H162.3V8"/>
	<path fill="#E3E5E7" d="M105.52,80.82c-10.978-0.001-19.909-8.933-19.91-19.91c0.001-10.978,8.933-19.909,19.91-19.91l0,0
		c10.978,0.001,19.909,8.933,19.91,19.91C125.429,71.887,116.498,80.819,105.52,80.82 M162.3,20.82H27.67c-1.65,0-3,1.35-3,3v156.92
		c0,1.649,1.35,3,3,3H162.3v-21.022h-0.003c-21.954,0-39.915-17.871-40.023-39.824v-0.586l-0.008-0.126
		c-0.027-6.903,0.026-29.001,0.026-29.217c0-0.478,0.082-1,0.244-1.613l0.045-0.189c0.044-0.171,0.09-0.342,0.153-0.514
		c0.198-0.513,0.487-1.018,0.847-1.505c0.956-1.343,2.353-2.262,3.911-2.586c0.497-0.099,0.974-0.144,1.416-0.144
		c2.595,0.009,4.893,1.46,5.993,3.803c0.441,0.928,0.649,1.974,0.631,3.289c0,0-0.027,21.34-0.027,23.485
		c-0.044,0.901,0.379,1.18,0.739,1.262l0.433,0.1l0.189-0.163c0.156-0.012,0.312-0.017,0.471-0.017c0.19,0,0.386,0.007,0.592,0.017
		l0.982-0.081l0.054-68.14c0-1.477,0.333-2.766,1-3.839c0.36-0.559,0.793-1.054,1.325-1.496c1.305-1.095,2.725-1.647,4.209-1.647
		c0.873,0,1.768,0.191,2.676,0.575c2.505,1.054,3.866,3.037,4.064,5.885c0.009,0.18,0.009,0.351,0,0.531l-0.045,48.908l3.389-0.018
		v-0.901c0,0,0-12.419,0.026-16.033c0.018-2.226,1.036-4.218,2.784-5.461c1.12-0.78,2.432-1.188,3.824-1.188
		c0.027,0,0.055,0,0.082,0V20.82"/>
	<path fill="#116EB0" d="M96.009,63.744c-1.565,0-2.834-1.269-2.834-2.835c0-1.565,1.269-2.834,2.834-2.834h6.676V51.38
		c0-1.566,1.27-2.834,2.835-2.834c1.566,0,2.835,1.268,2.835,2.834v6.695h6.677c1.565,0,2.834,1.269,2.834,2.834
		c0,1.566-1.27,2.834-2.834,2.835h-6.677v6.696c0,1.565-1.27,2.833-2.835,2.834c-1.565,0-2.834-1.269-2.835-2.834v-6.696H96.009
		 M105.52,42c-5.213,0-9.938,2.121-13.364,5.546c-3.425,3.427-5.546,8.151-5.546,13.364s2.121,9.938,5.546,13.364
		c3.426,3.425,8.151,5.546,13.364,5.546s9.938-2.121,13.364-5.546c3.425-3.426,5.546-8.151,5.546-13.364s-2.121-9.938-5.546-13.364
		C115.458,44.12,110.733,42,105.52,42L105.52,42"/>
	<path fill="#116EB0" d="M105.52,79.82c-5.213,0-9.938-2.121-13.364-5.546c-3.425-3.426-5.546-8.151-5.546-13.364
		s2.121-9.938,5.546-13.364C95.582,44.12,100.307,42,105.52,42l0,0c5.213,0,9.938,2.121,13.364,5.546
		c3.425,3.427,5.546,8.151,5.546,13.364s-2.121,9.938-5.546,13.364C115.458,77.699,110.733,79.82,105.52,79.82 M105.52,41
		c-10.978,0.001-19.909,8.933-19.91,19.91c0.001,10.977,8.933,19.909,19.91,19.91c10.978-0.001,19.909-8.933,19.91-19.91
		C125.429,49.932,116.498,41.001,105.52,41L105.52,41"/>
	<path fill="#E3E5E7" d="M105.521,49.545c-1.013,0.002-1.833,0.821-1.835,1.834v7.695h-7.676c-1.013,0.002-1.833,0.822-1.834,1.834
		c0.002,1.013,0.822,1.833,1.834,1.835h7.676v7.696c0.002,1.012,0.822,1.832,1.835,1.834c1.013-0.002,1.833-0.822,1.835-1.834
		v-7.696h7.677c1.012-0.002,1.833-0.822,1.834-1.835c-0.002-1.012-0.822-1.833-1.834-1.834l0,0h-7.677V51.38
		C107.354,50.366,106.534,49.547,105.521,49.545"/>
	<path fill="#EEEFF0" d="M96.009,62.744c-1.013-0.002-1.833-0.822-1.834-1.835c0.002-1.013,0.822-1.833,1.834-1.834h7.676V51.38
		c0.002-1.013,0.822-1.833,1.835-1.834c1.014,0.002,1.833,0.821,1.835,1.834v7.695h7.677c1.012,0.002,1.833,0.822,1.834,1.834
		c-0.002,1.013-0.822,1.833-1.834,1.835h-7.677v7.696c-0.002,1.012-0.822,1.832-1.835,1.834c-1.013-0.002-1.833-0.822-1.835-1.834
		v-7.696H96.009 M105.521,48.545c-1.565,0-2.834,1.269-2.835,2.834v6.695h-6.676c-1.565,0-2.834,1.269-2.834,2.834
		c0,1.566,1.269,2.834,2.834,2.835h6.676v6.696c0,1.565,1.27,2.833,2.835,2.834c1.566,0,2.835-1.269,2.835-2.834v-6.696h6.677
		c1.565,0,2.834-1.269,2.834-2.835c0-1.565-1.27-2.834-2.834-2.834l0,0h-6.677V51.38C108.355,49.813,107.086,48.546,105.521,48.545"
		/>
	<path fill="#116EB0" d="M145.499,42.986c-1.484,0-2.904,0.552-4.209,1.647c-0.531,0.441-0.964,0.937-1.325,1.496
		c-0.667,1.073-1,2.362-1,3.839l-0.054,68.14l-0.982,0.081c-0.207-0.01-0.402-0.017-0.592-0.017c-0.159,0-0.315,0.005-0.471,0.017
		l-0.189,0.163l-0.433-0.1c-0.36-0.082-0.784-0.36-0.739-1.262c0-2.145,0.027-23.485,0.027-23.485
		c0.018-1.315-0.189-2.361-0.631-3.289c-1.1-2.343-3.397-3.794-5.993-3.803c-0.442,0-0.919,0.045-1.416,0.144
		c-1.559,0.324-2.955,1.244-3.911,2.586c-0.36,0.487-0.649,0.992-0.847,1.505c-0.063,0.171-0.108,0.343-0.153,0.514l-0.045,0.189
		c-0.162,0.613-0.244,1.136-0.244,1.613c0,0.216-0.053,22.313-0.026,29.217l0.008,0.126v0.586
		c0.108,21.953,18.069,39.824,40.023,39.824h0.003V75.284c-0.027,0-0.055,0-0.082,0c-1.392,0-2.704,0.408-3.824,1.188
		c-1.748,1.244-2.766,3.235-2.784,5.461c-0.026,3.614-0.026,16.033-0.026,16.033v0.901l-3.389,0.018l0.045-48.908
		c0.009-0.181,0.009-0.352,0-0.531c-0.198-2.848-1.559-4.831-4.064-5.885C147.267,43.177,146.372,42.986,145.499,42.986"/>
	<path fill="#116EB0" d="M162.3,224.33h-39.25l-0.03,0.069c-0.06,0.141-0.12,0.281-0.18,0.41c-0.16,0.32-0.33,0.621-0.52,0.9
		c-0.1,0.16-0.21,0.311-0.33,0.45c-3.26,4-19.31,14.47-19.31,14.47c-0.935,0.903-1.384,1.741-1.383,2.426
		c0.002,1.049,1.065,1.734,3.063,1.734h57.94V224.33"/>
</g>
</svg>
