<svg xmlns="http://www.w3.org/2000/svg" width="321.211" height="252.525" viewBox="0 0 321.211 252.525"><path fill="#1375BB" d="M220.1 244.79h-115.74c-3.3 0-4.05-1.87-1.68-4.16 0 0 16.05-10.47 19.31-14.47.12-.14.23-.29.33-.45.19-.279.36-.58.52-.9l.18-.41.03-.069c.34-.82.59-1.729.77-2.67.48-2.55.45-5.341.34-7.181l-4.04-17.48-2.9-13.26-1.91-8.71c0-1.37 1.12-2.49 2.5-2.49h88.85c1.359 0 2.49 1.12 2.49 2.49l-1.91 8.71-2.9 13.26-4.04 17.479c-.11 1.84-.14 4.631.341 7.181.18.94.43 1.85.77 2.67l.029.069.181.41c.159.32.33.621.521.9.1.16.209.311.33.45 3.26 4 19.309 14.47 19.309 14.47 2.369 2.291 1.619 4.161-1.681 4.161"/><path fill="#1064A1" d="M204.34 197h-42.04v27.33h39.11c-.34-.82-.59-1.729-.77-2.67-.312-1.653-.409-3.408-.408-4.939 0-.83.028-1.595.067-2.241l4.041-17.48"/><path fill="#1375BB" d="M308.83 16.78v171.46099999999998c-.01 4.819-3.96 8.76-8.78 8.76h-278.01c-4.83 0-8.77-3.94-8.78-8.76v-171.46099999999998c0-4.83 3.94-8.78 8.78-8.78h278.01c4.83 0 8.78 3.95 8.78 8.78"/><path fill="#F3F4F5" d="M294.42 20.82c1.65 0 3 1.35 3 3v156.92c0 1.649-1.35 3-3 3h-266.75c-1.65 0-3-1.351-3-3v-156.92c0-1.65 1.35-3 3-3h266.75"/><path fill="#1375BB" d="M105.52 41.5c-10.7 0-19.41 8.71-19.41 19.41s8.71 19.41 19.41 19.41 19.41-8.71 19.41-19.41-8.71-19.41-19.41-19.41M105.52 41.5v-.5c-10.978.001-19.909 8.933-19.91 19.91.001 10.977 8.933 19.909 19.91 19.91 10.978-.001 19.909-8.933 19.91-19.91-.001-10.978-8.933-19.909-19.91-19.91v1c5.213 0 9.938 2.121 13.364 5.546 3.425 3.427 5.546 8.151 5.546 13.364s-2.121 9.938-5.546 13.364c-3.427 3.425-8.151 5.546-13.364 5.546s-9.938-2.121-13.364-5.546c-3.425-3.426-5.546-8.151-5.546-13.364s2.121-9.938 5.546-13.364c3.426-3.426 8.151-5.546 13.364-5.546v-.5"/><path fill="#F3F4F5" d="M115.033 58.575h-7.177v-7.195c0-1.29-1.046-2.334-2.335-2.334s-2.335 1.045-2.335 2.334v7.195h-7.176c-1.289 0-2.334 1.045-2.334 2.334 0 1.29 1.045 2.335 2.334 2.335h7.176v7.196c0 1.289 1.046 2.334 2.335 2.334 1.29 0 2.335-1.045 2.335-2.334v-7.196h7.177c1.289 0 2.334-1.045 2.334-2.335.001-1.289-1.045-2.334-2.334-2.334"/><path fill="#fff" d="M115.033 58.575v-.5h-6.677v-6.695c0-1.566-1.27-2.834-2.835-2.834s-2.834 1.269-2.835 2.834v6.695h-6.676c-1.565 0-2.834 1.269-2.834 2.834 0 1.566 1.269 2.834 2.834 2.835h6.676v6.696c0 1.565 1.27 2.833 2.835 2.834 1.566 0 2.835-1.269 2.835-2.834v-6.696h6.677c1.565 0 2.834-1.269 2.834-2.835 0-1.565-1.27-2.834-2.834-2.834v1c1.012.002 1.833.822 1.834 1.834-.002 1.013-.822 1.833-1.834 1.835h-7.677v7.696c-.002 1.012-.822 1.832-1.835 1.834-1.013-.002-1.833-.822-1.835-1.834v-7.696h-7.676c-1.013-.002-1.833-.822-1.834-1.835.002-1.013.822-1.833 1.834-1.834h7.676v-7.695c.002-1.013.822-1.833 1.835-1.834 1.014.002 1.833.821 1.835 1.834v7.695h7.677v-.5"/><path fill="#1375BB" d="M202.337 122.469c.063 10.697-4.056 20.772-11.571 28.369-7.525 7.606-17.557 11.824-28.253 11.879h-.216c-21.954 0-39.915-17.871-40.023-39.824v-.586l-.008-.126c-.027-6.903.026-29.001.026-29.217 0-.478.082-1 .244-1.613l.045-.189c.044-.171.09-.342.153-.514.198-.513.487-1.018.847-1.505.956-1.343 2.353-2.262 3.911-2.586.497-.099.974-.144 1.416-.144 2.595.009 4.893 1.46 5.993 3.803.441.928.649 1.974.631 3.289 0 0-.027 21.34-.027 23.485-.044.901.379 1.18.739 1.262l.433.1.189-.163c.342-.027.685-.019 1.063 0l.982-.081.054-68.14c0-1.477.333-2.766 1-3.839.36-.559.793-1.054 1.325-1.496 2.073-1.739 4.434-2.109 6.885-1.073 2.505 1.054 3.866 3.037 4.064 5.885.009.18.009.351 0 .531l-.045 48.908 3.389-.018v-.901s0-12.419.026-16.033c.018-2.226 1.036-4.218 2.784-5.461 1.371-.955 3.028-1.352 4.769-1.126 3.244.415 5.695 3.235 5.713 6.561l-.009 17.988.045.144c.217.613.775.613 1.226.613.234 0 .622 0 1.244-.019l.865-.018.018-.856c.018-.667.018-5.695.018-9.733v-4.281c.045-3.677 3.002-6.66 6.57-6.66.946.009 1.865.216 2.73.604.559.261.973.504 1.343.793 1.712 1.208 2.587 2.992 2.596 5.299.019 3.767 0 16.375 0 16.375l-.009.901 3.424-.008v-.902c0-.072-.018-7.363 0-9.462.055-3.704 2.975-6.597 6.588-6.606l.271.027c3.441.082 6.182 2.902 6.371 6.57.026.424 0 7.002-.018 10.571-.01 2.045.089 10.571.152 15.663l.037 3.56M220.1 244.79h-115.74c-3.3 0-4.05-1.87-1.68-4.16 0 0 16.05-10.47 19.31-14.47.12-.14.23-.29.33-.45.19-.279.36-.58.52-.9l.18-.41.03-.069h78.36l.029.069.181.41c.159.32.33.621.521.9.1.16.209.311.33.45 3.26 4 19.309 14.47 19.309 14.47 2.37 2.29 1.62 4.16-1.68 4.16"/><path fill="#0F5E97" d="M162.3 197h-42.18l4.04 17.479c.039.646.067 1.411.067 2.241 0 1.531-.097 3.286-.408 4.939-.18.94-.43 1.85-.77 2.67h39.25v-27.329"/><path fill="#116EB0" d="M162.3 8h-140.26c-4.84 0-8.78 3.95-8.78 8.78v171.46099999999998c.01 4.819 3.95 8.76 8.78 8.76h140.26v-13.26h-134.63c-1.65 0-3-1.351-3-3v-156.921c0-1.65 1.35-3 3-3h134.63v-12.82"/><path fill="#E3E5E7" d="M105.52 80.82c-10.978-.001-19.909-8.933-19.91-19.91.001-10.978 8.933-19.909 19.91-19.91 10.978.001 19.909 8.933 19.91 19.91-.001 10.977-8.932 19.909-19.91 19.91m56.78-60h-134.63c-1.65 0-3 1.35-3 3v156.92c0 1.649 1.35 3 3 3h134.63v-21.022h-.003c-21.954 0-39.915-17.871-40.023-39.824v-.586l-.008-.126c-.027-6.903.026-29.001.026-29.217 0-.478.082-1 .244-1.613l.045-.189c.044-.171.09-.342.153-.514.198-.513.487-1.018.847-1.505.956-1.343 2.353-2.262 3.911-2.586.497-.099.974-.144 1.416-.144 2.595.009 4.893 1.46 5.993 3.803.441.928.649 1.974.631 3.289 0 0-.027 21.34-.027 23.485-.044.901.379 1.18.739 1.262l.433.1.189-.163.471-.017.592.017.982-.081.054-68.14c0-1.477.333-2.766 1-3.839.36-.559.793-1.054 1.325-1.496 1.305-1.095 2.725-1.647 4.209-1.647.873 0 1.768.191 2.676.575 2.505 1.054 3.866 3.037 4.064 5.885.009.18.009.351 0 .531l-.045 48.908 3.389-.018v-.901s0-12.419.026-16.033c.018-2.226 1.036-4.218 2.784-5.461 1.12-.78 2.432-1.188 3.824-1.188h.082v-54.465"/><path fill="#116EB0" d="M96.009 63.744c-1.565 0-2.834-1.269-2.834-2.835 0-1.565 1.269-2.834 2.834-2.834h6.676v-6.695c0-1.566 1.27-2.834 2.835-2.834 1.566 0 2.835 1.268 2.835 2.834v6.695h6.677c1.565 0 2.834 1.269 2.834 2.834 0 1.566-1.27 2.834-2.834 2.835h-6.677v6.696c0 1.565-1.27 2.833-2.835 2.834-1.565 0-2.834-1.269-2.835-2.834v-6.696h-6.676m9.511-21.744c-5.213 0-9.938 2.121-13.364 5.546-3.425 3.427-5.546 8.151-5.546 13.364s2.121 9.938 5.546 13.364c3.426 3.425 8.151 5.546 13.364 5.546s9.938-2.121 13.364-5.546c3.425-3.426 5.546-8.151 5.546-13.364s-2.121-9.938-5.546-13.364c-3.426-3.426-8.151-5.546-13.364-5.546M105.52 79.82c-5.213 0-9.938-2.121-13.364-5.546-3.425-3.426-5.546-8.151-5.546-13.364s2.121-9.938 5.546-13.364c3.426-3.426 8.151-5.546 13.364-5.546 5.213 0 9.938 2.121 13.364 5.546 3.425 3.427 5.546 8.151 5.546 13.364s-2.121 9.938-5.546 13.364c-3.426 3.425-8.151 5.546-13.364 5.546m0-38.82c-10.978.001-19.909 8.933-19.91 19.91.001 10.977 8.933 19.909 19.91 19.91 10.978-.001 19.909-8.933 19.91-19.91-.001-10.978-8.932-19.909-19.91-19.91"/><path fill="#E3E5E7" d="M105.521 49.545c-1.013.002-1.833.821-1.835 1.834v7.695h-7.676c-1.013.002-1.833.822-1.834 1.834.002 1.013.822 1.833 1.834 1.835h7.676v7.696c.002 1.012.822 1.832 1.835 1.834 1.013-.002 1.833-.822 1.835-1.834v-7.696h7.677c1.012-.002 1.833-.822 1.834-1.835-.002-1.012-.822-1.833-1.834-1.834h-7.677v-7.694c-.002-1.014-.822-1.833-1.835-1.835"/><path fill="#EEEFF0" d="M96.009 62.744c-1.013-.002-1.833-.822-1.834-1.835.002-1.013.822-1.833 1.834-1.834h7.676v-7.695c.002-1.013.822-1.833 1.835-1.834 1.014.002 1.833.821 1.835 1.834v7.695h7.677c1.012.002 1.833.822 1.834 1.834-.002 1.013-.822 1.833-1.834 1.835h-7.677v7.696c-.002 1.012-.822 1.832-1.835 1.834-1.013-.002-1.833-.822-1.835-1.834v-7.696h-7.676m9.512-14.199c-1.565 0-2.834 1.269-2.835 2.834v6.695h-6.676c-1.565 0-2.834 1.269-2.834 2.834 0 1.566 1.269 2.834 2.834 2.835h6.676v6.696c0 1.565 1.27 2.833 2.835 2.834 1.566 0 2.835-1.269 2.835-2.834v-6.696h6.677c1.565 0 2.834-1.269 2.834-2.835 0-1.565-1.27-2.834-2.834-2.834h-6.677v-6.694c-.001-1.567-1.27-2.834-2.835-2.835"/><path fill="#116EB0" d="M145.499 42.986c-1.484 0-2.904.552-4.209 1.647-.531.441-.964.937-1.325 1.496-.667 1.073-1 2.362-1 3.839l-.054 68.14-.982.081-.592-.017-.471.017-.189.163-.433-.1c-.36-.082-.784-.36-.739-1.262 0-2.145.027-23.485.027-23.485.018-1.315-.189-2.361-.631-3.289-1.1-2.343-3.397-3.794-5.993-3.803-.442 0-.919.045-1.416.144-1.559.324-2.955 1.244-3.911 2.586-.36.487-.649.992-.847 1.505-.063.171-.108.343-.153.514l-.045.189c-.162.613-.244 1.136-.244 1.613 0 .216-.053 22.313-.026 29.217l.008.126v.586c.108 21.953 18.069 39.824 40.023 39.824h.003v-87.433h-.082c-1.392 0-2.704.408-3.824 1.188-1.748 1.244-2.766 3.235-2.784 5.461-.026 3.614-.026 16.033-.026 16.033v.901l-3.389.018.045-48.908c.009-.181.009-.352 0-.531-.198-2.848-1.559-4.831-4.064-5.885-.909-.384-1.804-.575-2.677-.575M162.3 224.33h-39.25l-.03.069-.18.41c-.16.32-.33.621-.52.9-.1.16-.21.311-.33.45-3.26 4-19.31 14.47-19.31 14.47-.935.903-1.384 1.741-1.383 2.426.002 1.049 1.065 1.734 3.063 1.734h57.94v-20.459"/></svg>