<?xml version="1.0" encoding="utf-8"?>
<!-- Generator: Adobe Illustrator 17.0.2, SVG Export Plug-In . SVG Version: 6.00 Build 0)  -->
<!DOCTYPE svg PUBLIC "-//W3C//DTD SVG 1.1//EN" "http://www.w3.org/Graphics/SVG/1.1/DTD/svg11.dtd" [
	<!ENTITY ns_extend "http://ns.adobe.com/Extensibility/1.0/">
	<!ENTITY ns_ai "http://ns.adobe.com/AdobeIllustrator/10.0/">
	<!ENTITY ns_graphs "http://ns.adobe.com/Graphs/1.0/">
	<!ENTITY ns_vars "http://ns.adobe.com/Variables/1.0/">
	<!ENTITY ns_imrep "http://ns.adobe.com/ImageReplacement/1.0/">
	<!ENTITY ns_sfw "http://ns.adobe.com/SaveForWeb/1.0/">
	<!ENTITY ns_custom "http://ns.adobe.com/GenericCustomNamespace/1.0/">
	<!ENTITY ns_adobe_xpath "http://ns.adobe.com/XPath/1.0/">
]>
<svg version="1.1" id="Layer_1" xmlns:x="&ns_extend;" xmlns:i="&ns_ai;" xmlns:graph="&ns_graphs;"
	 xmlns="http://www.w3.org/2000/svg" xmlns:xlink="http://www.w3.org/1999/xlink" x="0px" y="0px" width="321.211px"
	 height="252.525px" viewBox="0 0 321.211 252.525" enable-background="new 0 0 321.211 252.525" xml:space="preserve">
<metadata>
	<sfw  xmlns="&ns_sfw;">
		<slices></slices>
		<sliceSourceBounds  y="-414.23" x="273.26" width="295.57" height="232.23" bottomLeftOrigin="true"></sliceSourceBounds>
	</sfw>
</metadata>
<g>
	<path fill="#1676BB" d="M204.524,191.321v42.88v0.01c-0.01,1.37-1.131,2.49-2.49,2.49h-78.85c-1.37,0-2.49-1.12-2.5-2.49v-0.01
		v-42.88c0-1.37,1.12-2.49,2.5-2.49h78.85C203.393,188.831,204.524,189.951,204.524,191.321"/>
	<polyline fill="#13619C" points="204.524,201.121 162.604,201.121 162.604,233.041 204.524,233.041 204.524,201.121 	"/>
	<path fill="#1676BB" d="M309.204,20.901v171.441v0.02c-0.01,4.82-3.96,8.76-8.779,8.76H22.414c-4.83,0-8.77-3.94-8.78-8.76v-0.02
		V20.901c0-4.83,3.94-8.78,8.78-8.78h278.011C305.254,12.121,309.204,16.071,309.204,20.901"/>
	<path fill="#F4F4F4" d="M294.793,24.941c1.65,0,3,1.35,3,3v156.92c0,1.65-1.35,3-3,3H28.044c-1.65,0-3-1.35-3-3V27.941
		c0-1.65,1.35-3,3-3H294.793"/>
	<path fill="#1676BB" d="M105.894,45.623c-10.701,0-19.407,8.706-19.407,19.408c0,10.702,8.707,19.409,19.407,19.409
		c10.703,0,19.409-8.707,19.409-19.409C125.303,54.329,116.597,45.623,105.894,45.623"/>
	<path fill="#1676BB" d="M105.894,45.623v-0.5c-10.978,0.001-19.906,8.929-19.907,19.908c0.001,10.979,8.929,19.908,19.907,19.909
		c10.98-0.001,19.908-8.93,19.909-19.909c-0.001-10.979-8.929-19.907-19.909-19.908V45.623v0.5c5.214,0,9.939,2.119,13.364,5.544
		c3.425,3.426,5.544,8.15,5.545,13.363c0,5.214-2.12,9.938-5.545,13.364c-3.426,3.425-8.15,5.544-13.364,5.545
		c-5.213,0-9.937-2.12-13.363-5.545c-3.425-3.426-5.544-8.15-5.545-13.364c0-5.214,2.12-9.938,5.545-13.363
		c3.425-3.425,8.149-5.544,13.363-5.544V45.623"/>
	<path fill="#F4F4F4" d="M115.407,62.696h-7.177v-7.195c0-1.29-1.046-2.335-2.336-2.335c-1.289,0-2.335,1.045-2.335,2.335v7.195
		h-7.176c-1.289,0-2.334,1.045-2.334,2.335c0,1.289,1.045,2.335,2.334,2.335h7.176v7.196c0,1.289,1.046,2.334,2.335,2.334
		c1.29,0,2.336-1.045,2.336-2.334v-7.196h7.177c1.289,0,2.334-1.046,2.334-2.335C117.741,63.742,116.695,62.696,115.407,62.696"/>
	<path fill="#FFFFFF" d="M115.407,62.696v-0.5h-6.677v-6.695c0-1.566-1.27-2.834-2.835-2.835c-1.565,0-2.835,1.269-2.835,2.835
		v6.695h-6.676c-1.565,0-2.834,1.269-2.834,2.834c0,1.566,1.269,2.834,2.834,2.835h6.676v6.696c0,1.565,1.27,2.833,2.835,2.834
		c1.566,0,2.835-1.269,2.835-2.834v-6.696h6.677c1.565,0,2.834-1.269,2.834-2.835c0-1.566-1.269-2.834-2.834-2.834V62.696v0.5
		c1.012,0.002,1.833,0.822,1.834,1.835c-0.002,1.013-0.822,1.833-1.834,1.835h-7.677v7.696c-0.002,1.012-0.822,1.832-1.836,1.834
		c-1.013-0.002-1.833-0.822-1.835-1.834v-7.696h-7.676c-1.013-0.002-1.833-0.822-1.834-1.835c0.002-1.013,0.822-1.833,1.834-1.835
		h7.676v-7.695c0.002-1.013,0.822-1.833,1.835-1.835c1.013,0.002,1.834,0.821,1.836,1.835v7.695h7.677V62.696"/>
	<path fill="#1676BB" d="M202.71,126.591c0.064,10.697-4.056,20.773-11.571,28.37c-7.525,7.605-17.557,11.823-28.253,11.877h-0.216
		c-21.954,0-39.915-17.871-40.023-39.823v-0.586l-0.008-0.126c-0.027-6.903,0.026-29.001,0.026-29.217
		c0-0.478,0.082-1.001,0.244-1.613l0.045-0.19c0.044-0.171,0.09-0.342,0.153-0.514c0.198-0.513,0.487-1.018,0.847-1.505
		c0.956-1.343,2.353-2.262,3.911-2.586c0.497-0.099,0.974-0.144,1.415-0.144c2.595,0.009,4.893,1.46,5.993,3.803
		c0.441,0.928,0.649,1.974,0.631,3.289c0,0-0.027,21.34-0.027,23.485c-0.044,0.901,0.379,1.18,0.739,1.262l0.433,0.1l0.189-0.163
		c0.342-0.027,0.685-0.018,1.063,0l0.982-0.081l0.054-68.14c0-1.477,0.333-2.766,1-3.839c0.36-0.559,0.794-1.054,1.325-1.496
		c2.073-1.739,4.434-2.109,6.885-1.073c2.505,1.054,3.866,3.037,4.064,5.885c0.009,0.18,0.009,0.351,0,0.531l-0.045,48.908
		l3.389-0.018v-0.901c0,0,0-12.419,0.026-16.033c0.018-2.226,1.036-4.218,2.784-5.461c1.371-0.955,3.029-1.352,4.769-1.127
		c3.244,0.415,5.695,3.235,5.713,6.561l-0.009,17.988l0.045,0.144c0.217,0.613,0.775,0.613,1.226,0.613c0.234,0,0.622,0,1.244-0.019
		l0.865-0.018l0.018-0.856c0.018-0.667,0.018-5.695,0.018-9.733v-4.281c0.045-3.677,3.002-6.66,6.57-6.66
		c0.946,0.009,1.865,0.216,2.73,0.604c0.558,0.261,0.973,0.504,1.343,0.793c1.712,1.207,2.587,2.992,2.596,5.299
		c0.019,3.767,0,16.375,0,16.375l-0.009,0.901l3.424-0.008v-0.902c0-0.072-0.018-7.363,0-9.462c0.055-3.704,2.975-6.597,6.588-6.606
		l0.272,0.027c3.441,0.082,6.182,2.902,6.371,6.57c0.026,0.424,0,7.002-0.018,10.571c-0.01,2.045,0.089,10.571,0.152,15.663
		C202.692,124.96,202.71,126.338,202.71,126.591"/>
	<path fill="#1676BB" d="M217.514,236.061v5.281c-0.01,2.369-2.961,3.01-5.33,3.01h-101.54c-2.38,0-5.31-0.641-5.32-3.01v-5.281
		c0-2.359,2.94-3.02,5.32-3.02h101.54C214.564,233.041,217.514,233.701,217.514,236.061"/>
	<polyline fill="#125C95" points="162.604,201.121 120.684,201.121 120.684,233.041 162.604,233.041 162.604,201.121 	"/>
	<path fill="#176FB0" d="M162.604,12.121H22.414c-4.84,0-8.78,3.95-8.78,8.78v171.441v0.02c0.01,4.82,3.95,8.76,8.78,8.76h98.27
		h41.92v-13.26H28.044c-1.65,0-3-1.35-3-3V27.941c0-1.65,1.35-3,3-3h134.56V12.121"/>
	<path fill="#E4E5E6" d="M105.894,84.94c-10.978-0.001-19.906-8.93-19.907-19.909c0.001-10.979,8.929-19.907,19.907-19.908l0,0
		c10.98,0.001,19.908,8.929,19.909,19.908C125.802,76.01,116.874,84.939,105.894,84.94 M162.604,24.941H28.044c-1.65,0-3,1.35-3,3
		v156.92c0,1.65,1.35,3,3,3h134.56v-21.024c-21.923-0.037-39.848-17.894-39.957-39.823v-0.586l-0.008-0.126
		c-0.027-6.903,0.026-29.001,0.026-29.217c0-0.478,0.082-1.001,0.244-1.613l0.045-0.19c0.044-0.171,0.09-0.342,0.153-0.514
		c0.198-0.513,0.487-1.018,0.847-1.505c0.956-1.343,2.353-2.262,3.911-2.586c0.497-0.099,0.974-0.144,1.415-0.144
		c2.595,0.009,4.893,1.46,5.993,3.803c0.441,0.928,0.649,1.974,0.631,3.289c0,0-0.027,21.34-0.027,23.485
		c-0.044,0.901,0.379,1.18,0.739,1.262l0.433,0.1l0.189-0.163c0.156-0.012,0.312-0.017,0.471-0.017c0.191,0,0.386,0.007,0.592,0.017
		l0.982-0.081l0.054-68.14c0-1.477,0.333-2.766,1-3.839c0.36-0.559,0.794-1.054,1.325-1.496c1.306-1.095,2.725-1.647,4.209-1.647
		c0.873,0,1.768,0.191,2.676,0.575c2.505,1.054,3.866,3.037,4.064,5.885c0.009,0.18,0.009,0.351,0,0.531l-0.045,48.908l3.389-0.018
		v-0.901c0,0,0-12.419,0.026-16.033c0.018-2.226,1.036-4.218,2.784-5.461c1.12-0.781,2.432-1.188,3.824-1.188
		c0.004,0,0.009,0,0.013,0V24.941"/>
	<path fill="#176FB0" d="M96.383,67.866c-1.566,0-2.834-1.269-2.834-2.835c0-1.566,1.269-2.834,2.834-2.834h6.676v-6.695
		c0-1.566,1.27-2.834,2.835-2.835c1.566,0,2.835,1.268,2.835,2.835v6.695h6.677c1.565,0,2.834,1.269,2.834,2.834
		c0,1.566-1.269,2.834-2.834,2.835h-6.677v6.696c0,1.565-1.27,2.834-2.835,2.834c-1.565,0-2.835-1.269-2.835-2.834v-6.696H96.383
		 M105.894,46.123c-5.213,0-9.937,2.119-13.363,5.544c-3.425,3.426-5.544,8.15-5.545,13.363c0,5.214,2.12,9.938,5.545,13.364
		c3.425,3.425,8.149,5.544,13.363,5.545c5.214,0,9.939-2.12,13.364-5.545c3.425-3.426,5.544-8.15,5.545-13.364
		c0-5.214-2.12-9.938-5.545-13.363C115.833,48.243,111.108,46.123,105.894,46.123L105.894,46.123"/>
	<path fill="#176FB0" d="M105.894,83.939c-5.213,0-9.937-2.12-13.363-5.545c-3.425-3.426-5.544-8.15-5.545-13.364
		c0-5.214,2.12-9.938,5.545-13.363c3.425-3.425,8.149-5.544,13.363-5.544l0,0c5.214,0,9.939,2.119,13.364,5.544
		c3.425,3.426,5.544,8.15,5.545,13.363c0,5.214-2.12,9.938-5.545,13.364C115.833,81.82,111.108,83.939,105.894,83.939
		 M105.894,45.123c-10.978,0.001-19.906,8.929-19.907,19.908c0.001,10.979,8.929,19.908,19.907,19.909
		c10.98-0.001,19.908-8.93,19.909-19.909C125.802,54.052,116.874,45.124,105.894,45.123L105.894,45.123"/>
	<path fill="#E4E5E6" d="M105.894,53.667c-1.013,0.002-1.833,0.821-1.835,1.835v7.695h-7.676c-1.013,0.002-1.833,0.822-1.834,1.835
		c0.002,1.013,0.822,1.833,1.834,1.835h7.676v7.696c0.002,1.012,0.822,1.832,1.835,1.834c1.013-0.002,1.834-0.822,1.836-1.834
		v-7.696h7.677c1.012-0.002,1.833-0.822,1.834-1.835c-0.002-1.012-0.822-1.833-1.834-1.835l0,0h-7.677v-7.695
		C107.728,54.488,106.907,53.668,105.894,53.667"/>
	<path fill="#EEEFF0" d="M96.383,66.866c-1.013-0.002-1.833-0.822-1.834-1.835c0.002-1.013,0.822-1.833,1.834-1.835h7.676v-7.695
		c0.002-1.013,0.822-1.833,1.835-1.835c1.013,0.002,1.834,0.821,1.836,1.835v7.695h7.677c1.012,0.002,1.833,0.822,1.834,1.835
		c-0.002,1.013-0.822,1.833-1.834,1.835h-7.677v7.696c-0.002,1.012-0.822,1.832-1.836,1.834c-1.013-0.002-1.833-0.822-1.835-1.834
		v-7.696H96.383 M105.894,52.666c-1.565,0-2.835,1.269-2.835,2.835v6.695h-6.676c-1.565,0-2.834,1.269-2.834,2.834
		c0,1.566,1.269,2.834,2.834,2.835h6.676v6.696c0,1.565,1.27,2.833,2.835,2.834c1.566,0,2.835-1.269,2.835-2.834v-6.696h6.677
		c1.565,0,2.834-1.269,2.834-2.835c0-1.566-1.269-2.834-2.834-2.834l0,0h-6.677v-6.695C108.729,53.935,107.46,52.667,105.894,52.666
		"/>
	<path fill="#176FB0" d="M145.872,47.107c-1.484,0-2.904,0.552-4.209,1.647c-0.531,0.441-0.964,0.936-1.325,1.496
		c-0.667,1.073-1,2.362-1,3.839l-0.054,68.14l-0.982,0.081c-0.206-0.01-0.402-0.017-0.592-0.017c-0.159,0-0.315,0.005-0.471,0.017
		l-0.189,0.163l-0.433-0.1c-0.36-0.082-0.784-0.36-0.739-1.262c0-2.145,0.027-23.485,0.027-23.485
		c0.018-1.315-0.19-2.361-0.631-3.289c-1.099-2.343-3.397-3.794-5.993-3.803c-0.442,0-0.919,0.045-1.415,0.144
		c-1.559,0.324-2.955,1.244-3.911,2.586c-0.36,0.487-0.649,0.992-0.847,1.505c-0.063,0.171-0.108,0.343-0.153,0.514l-0.045,0.19
		c-0.162,0.613-0.244,1.136-0.244,1.613c0,0.216-0.053,22.313-0.026,29.217l0.008,0.126v0.586
		c0.108,21.929,18.034,39.786,39.957,39.823V79.405c-0.004,0-0.009,0-0.013,0c-1.392,0-2.704,0.408-3.824,1.188
		c-1.748,1.244-2.766,3.235-2.784,5.461c-0.026,3.614-0.026,16.033-0.026,16.033v0.901l-3.389,0.018l0.045-48.908
		c0.009-0.181,0.009-0.352,0-0.531c-0.198-2.848-1.559-4.831-4.064-5.885C147.641,47.298,146.745,47.107,145.872,47.107"/>
	<path fill="#176FB0" d="M162.604,233.041h-41.92h-10.04c-2.38,0-5.32,0.66-5.32,3.02v5.281c0.01,2.369,2.94,3.01,5.32,3.01h51.961
		V233.041"/>
</g>
</svg>
