<svg xmlns="http://www.w3.org/2000/svg" width="342.424" height="252.525" viewBox="0 0 342.424 252.525"><path fill="#1676BB" d="M314.51 27.18v189.861c-.01 4.819-3.959 8.76-8.77 8.76h-284.809c-4.83 0-8.77-3.94-8.78-8.76v-189.861c0-9.93 8.08-18 18-18h266.359c9.931 0 18 8.07 18 18"/><path fill="#008EC3" d="M192.21 18.766h-27.977v7.585h36.206c-.343-4.23-3.905-7.585-8.229-7.585"/><path fill="#2FA2CD" d="M151.543 27.023v3.524h-76.794v-3.524c0-4.541 3.707-8.257 8.256-8.257h60.281c4.55 0 8.257 3.716 8.257 8.257"/><path fill="#F4F4F4" d="M302.172 24.457l-1.451-1.451 1.454-1.454c.261-.261.261-.684 0-.944-.261-.26-.683-.261-.942 0l-1.455 1.454-1.45-1.451c-.26-.26-.683-.26-.942.001-.262.26-.262.682 0 .942l1.451 1.451-1.456 1.454c-.26.262-.26.683.001.944.26.26.683.26.943 0l1.453-1.454 1.451 1.45c.26.26.683.26.943 0 .261-.259.261-.682 0-.942z"/><path fill="#1676BB" d="M118.146 56.713h66.245c.276 0 .5-.224.5-.5s-.224-.5-.5-.5h-66.245c-.276 0-.5.224-.5.5s.224.5.5.5M118.146 63.294h66.245c.276 0 .5-.224.5-.5s-.224-.5-.5-.5h-66.245c-.276 0-.5.224-.5.5s.224.5.5.5M118.146 69.875h66.245c.276 0 .5-.224.5-.5s-.224-.5-.5-.5h-66.245c-.276 0-.5.224-.5.5s.224.5.5.5M118.146 76.456h66.245c.276 0 .5-.224.5-.5s-.224-.5-.5-.5h-66.245c-.276 0-.5.224-.5.5s.224.5.5.5M118.146 83.037h66.245c.276 0 .5-.224.5-.5s-.224-.5-.5-.5h-66.245c-.276 0-.5.224-.5.5s.224.5.5.5"/><path fill="#F4F4F4" d="M99.667 30.54v-3.52c0-4.543-3.703-8.254-8.254-8.254h-60.28c-4.551 0-8.253 3.711-8.253 8.254v3.997l.01-.915v115.546l-.01.097v66.92c0 1.65 1.35 3 3 3h275.323c1.65 0 3-1.35 3-3v-182.125h-204.536"/><path fill="#1676BB" d="M132.146 162.92h66.245c.276 0 .5-.224.5-.5s-.224-.5-.5-.5h-66.245c-.276 0-.5.224-.5.5s.224.5.5.5M132.146 169.501h66.245c.276 0 .5-.224.5-.5s-.224-.5-.5-.5h-66.245c-.276 0-.5.224-.5.5s.224.5.5.5M132.146 176.082h66.245c.276 0 .5-.224.5-.5s-.224-.5-.5-.5h-66.245c-.276 0-.5.224-.5.5s.224.5.5.5M132.146 182.662h66.245c.276 0 .5-.224.5-.5s-.224-.5-.5-.5h-66.245c-.276 0-.5.224-.5.5s.224.5.5.5M132.146 189.244h66.245c.276 0 .5-.224.5-.5s-.224-.5-.5-.5h-66.245c-.276 0-.5.224-.5.5s.224.5.5.5M132.146 108.331h66.245c.276 0 .5-.224.5-.5s-.224-.5-.5-.5h-66.245c-.276 0-.5.224-.5.5s.224.5.5.5M132.146 114.913h66.245c.276 0 .5-.224.5-.5s-.224-.5-.5-.5h-66.245c-.276 0-.5.224-.5.5s.224.5.5.5M132.146 121.494h66.245c.276 0 .5-.224.5-.5s-.224-.5-.5-.5h-66.245c-.276 0-.5.224-.5.5s.224.5.5.5M132.146 128.074h66.245c.276 0 .5-.224.5-.5s-.224-.5-.5-.5h-66.245c-.276 0-.5.224-.5.5s.224.5.5.5M132.146 134.655h66.245c.276 0 .5-.224.5-.5s-.224-.5-.5-.5h-66.245c-.276 0-.5.224-.5.5s.224.5.5.5M132.146 53.743h66.245c.276 0 .5-.224.5-.5s-.224-.5-.5-.5h-66.245c-.276 0-.5.224-.5.5s.224.5.5.5M132.146 60.325h66.245c.276 0 .5-.224.5-.5s-.224-.5-.5-.5h-66.245c-.276 0-.5.224-.5.5s.224.5.5.5M132.146 66.905h66.245c.276 0 .5-.224.5-.5s-.224-.5-.5-.5h-66.245c-.276 0-.5.224-.5.5s.224.5.5.5M132.146 73.485h66.245c.276 0 .5-.224.5-.5s-.224-.5-.5-.5h-66.245c-.276 0-.5.224-.5.5s.224.5.5.5M132.146 80.067h66.245c.276 0 .5-.224.5-.5s-.224-.5-.5-.5h-66.245c-.276 0-.5.224-.5.5s.224.5.5.5"/><path fill="#1676BB" d="M264.814 64.456h-2.5c-.001 2.646-1.065 5.018-2.798 6.754-1.736 1.732-4.107 2.796-6.753 2.797-2.646-.001-5.017-1.065-6.753-2.797-1.732-1.736-2.797-4.108-2.798-6.754.001-2.645 1.065-5.017 2.798-6.753 1.736-1.732 4.107-2.796 6.753-2.797 2.646.001 5.017 1.065 6.753 2.797 1.732 1.736 2.797 4.108 2.798 6.753h5c-.002-8.037-6.514-14.549-14.551-14.551-8.037.001-14.549 6.514-14.551 14.551.002 8.038 6.514 14.55 14.551 14.551 8.037-.001 14.549-6.514 14.551-14.551h-2.5zM264.814 120.56h-2.5c-.001 2.646-1.065 5.018-2.798 6.754-1.736 1.732-4.107 2.796-6.753 2.797-2.646-.001-5.017-1.065-6.753-2.797-1.732-1.736-2.797-4.108-2.798-6.754.001-2.645 1.065-5.017 2.798-6.753 1.736-1.732 4.107-2.796 6.753-2.797 2.646.001 5.017 1.065 6.753 2.797 1.732 1.736 2.797 4.108 2.798 6.753h5c-.002-8.037-6.514-14.549-14.551-14.551-8.037.001-14.549 6.514-14.551 14.551.002 8.038 6.514 14.549 14.551 14.551 8.037-.002 14.549-6.514 14.551-14.551h-2.5zM264.814 175.367h-2.5c-.001 2.646-1.065 5.017-2.798 6.753-1.736 1.732-4.107 2.797-6.753 2.798-2.646-.001-5.017-1.065-6.753-2.798-1.732-1.736-2.797-4.107-2.798-6.753.001-2.646 1.065-5.018 2.798-6.754 1.736-1.732 4.107-2.797 6.753-2.798 2.646.001 5.017 1.065 6.753 2.798 1.732 1.736 2.797 4.108 2.798 6.754h5c-.002-8.038-6.514-14.55-14.551-14.552-8.037.002-14.549 6.514-14.551 14.552.002 8.037 6.514 14.549 14.551 14.551 8.037-.002 14.549-6.514 14.551-14.551h-2.5z"/><circle fill="#2FA2CD" cx="252.763" cy="64.456" r="7.08"/><circle fill="#2FA2CD" cx="252.763" cy="175.367" r="7.08"/><path fill="#2FA2CD" d="M90.962 115.895h-29.741l6.76-19.338h16.222l6.759 19.338"/><path fill="#1676BB" d="M88.86 107.491h-25.537l2.06-5.263h21.418l2.059 5.263M89.91 121.15l-4.955.424 4.499 1.875-1.528 7.668-5.925.99 5.562.842-.429 2.147h-22.082l-1.744-8.733 5.329-.057-5.696-1.795-1.721-8.618h29.74l-1.05 5.257"/><path fill="#115D96" d="M88.86 107.491l-.411 1.982-.776-1.982h1.187M63.323 107.491l.411 1.982.776-1.982h-1.187"/><path fill="#1676BB" d="M90.271 193.574h-28.491l-1.382-1.775h31.254l-1.381 1.775"/><path fill="#2FA2CD" d="M89.095 175.473l2.582 16.16v.001c0 .302-.351.55-.778.55h-29.766c-.428 0-.776-.248-.778-.55v-.001l2.581-16.16c0-.305.35-.551.778-.551h24.604c.428 0 .777.246.777.551"/><path fill="#1676BB" d="M90.202 190.873h-28.353l-1.375-1.767h31.103l-1.375 1.767"/><path fill="#2FA2CD" d="M89.032 172.859l2.569 16.081v.001c-.001.301-.35.547-.775.547h-29.621c-.425 0-.771-.246-.774-.547v-.001l2.567-16.081c0-.303.348-.549.775-.549h24.485c.426.001.774.247.774.549"/><path fill="#1676BB" d="M90.202 188.313h-28.353l-1.375-1.766h31.103l-1.375 1.766"/><path fill="#2FA2CD" d="M89.014 170.414l2.563 16.042v.001c-.001.302-.35.546-.772.546h-29.56c-.424 0-.77-.244-.771-.546v-.001l2.562-16.042c0-.303.347-.549.773-.549h24.433c.424 0 .772.246.772.549"/><path fill="#1676BB" d="M95.662 172.445l.013.01h-39.406v-.01c-.248.01-.455-.074-.565-.243-.11-.126-.151-.315-.138-.548l1.638-14.385c.055-.77.756-1.793 1.554-2.267l15.819-10.212c.454-.273 1.059-.39 1.649-.358.454.031.896.148 1.252.358l15.818 10.212c.798.474 1.485 1.497 1.541 2.267l1.637 14.385c.04.58-.289.866-.812.791M94.445 172.592v.123c-.001.435-.357.789-.791.789h-35.259c-.435 0-.79-.354-.792-.789v-.123c0-.434.355-.789.792-.789h35.259c.435 0 .791.355.791.789M67.075 185.826h-2.939c-.232 0-.42-.14-.42-.311l-2.646-12.761c0-.171.189-.312.421-.312h4.261c.232 0 .421.141.421.312l1.322 12.761c.001.172-.189.311-.42.311M73.582 185.826h-2.939c-.23 0-.421-.14-.421-.311l-1.322-12.761c0-.171.189-.312.421-.312h4.2620000000000005c.232 0 .421.141.421.312v12.761c-.001.172-.19.311-.422.311M84.975 185.826h2.938c.232 0 .421-.14.421-.311l2.646-12.761c0-.171-.189-.312-.42-.312h-4.263c-.232 0-.42.141-.42.312l-1.322 12.761c-.001.172.188.311.42.311M77.808 185.826h2.939c.23 0 .42-.14.42-.311l1.323-12.761c0-.171-.188-.312-.42-.312h-4.2620000000000005c-.231 0-.42.141-.42.312v12.761c-.001.172.189.311.42.311"/><path fill="#2FA2CD" d="M76.226 144.433l-.206 17.168-20.316 10.602c-.11-.126-.151-.315-.138-.548l1.638-14.385c.055-.77.756-1.793 1.554-2.267l15.819-10.212c.453-.273 1.058-.39 1.649-.358M80.056 85.188l-2.827-3.674v-4.27l4.67-6.106s1.953 7.278 1.953 7.533l-3.796 6.517"/><path fill="#1676BB" d="M90.37 64.479l-12.892-10.845c-.356-.29-.804-.439-1.269-.439h-.008c-.464 0-.92.141-1.285.439l-12.874 10.845c-.697.597-1.202 1.782-1.136 2.636l.174 1.783v.008l1.244 14.724c.083.871.945 1.559 1.907 1.559h8.49v-6.773c0-.647.597-1.169 1.326-1.169h4.684c.729 0 1.327.522 1.327 1.169v6.773h8.125c.97 0 1.833-.688 1.907-1.559l1.26-14.956.149-1.559c.082-.854-.424-2.04-1.129-2.636m-20.9 10.188h-3.731c-.29 0-.53-.24-.53-.539l-.365-4.361c0-.299.232-.539.531-.539h3.987c.298 0 .539.24.539.539l.1 4.361c-.001.299-.241.539-.531.539M96.125 70.247c.053.858-.547 1.149-1.332.639l-16.973-10.91c-.442-.28-1.038-.404-1.616-.374-.453.027-.895.151-1.242.374l-16.975 10.91c-.79.51-1.391.219-1.338-.639l2.409-15.982c.052-.853.724-1.985 1.49-2.51l14.442-11.357c.336-.228.76-.358 1.202-.389.566-.037 1.16.094 1.591.389l14.442 11.357c.767.525 1.438 1.658 1.491 2.51l2.409 15.982"/><path fill="#2FA2CD" d="M76.204 40.018v19.584c-.453.027-.895.151-1.242.374l-16.975 10.91c-.79.51-1.391.219-1.338-.639l2.409-15.982c.052-.853.724-1.985 1.49-2.51l14.442-11.357c.336-.228.76-.358 1.202-.389l.012.009M83.342 47.038l2.54-5.476.645 2.886-3.185 7.811v-5.221"/><path fill="#1676BB" d="M90.305 43.005l-4.423-1.443.645 2.886-3.185 7.811 5.281 3.314 2.404-10.106-.722-2.462"/><path fill="#2FA2CD" d="M90.305 43.005l-1.104 1.911 1.826.551-.722-2.462"/><path fill="#EEEFF0" d="M164.233 9.18h-135.12c-9.92 0-18 8.07-18 18v189.861c.01 4.819 3.95 8.76 8.78 8.76h1.038c-4.83 0-8.77-3.94-8.78-8.76v-189.861c0-9.93 8.08-18 18-18h134.082"/><path fill="#176FB0" d="M164.233 9.18h-134.082c-9.92 0-18 8.07-18 18v189.861c.01 4.819 3.95 8.76 8.78 8.76h9.824v-10.136h-4.876c-1.65 0-3-1.35-3-3v-66.92l.01-.097v-115.547l-.01.915v-3.996c0-4.543 3.703-8.254 8.253-8.254h133.101v-9.586"/><path fill="#0088BA" d="M164.233 18.766h-20.947c4.323 0 7.885 3.355 8.229 7.585h12.717v-7.585"/><path fill="#2E9AC3" d="M143.287 18.766h-51.874c4.325 0 7.885 3.352 8.227 7.585h51.876c-.344-4.23-3.907-7.585-8.229-7.585"/><path fill="#E4E5E6" d="M91.413 18.766h-60.28c-4.551 0-8.253 3.711-8.253 8.254v3.997l.01-.915v115.546l-.01.097v66.92c0 1.65 1.35 3 3 3h4.876v-171.314c0-9.93 8.08-18 18-18h50.884c-.343-4.233-3.902-7.585-8.227-7.585"/><path fill="#1676BB" d="M334.153 44.351v189.861c-.01 4.819-3.961 8.76-8.771 8.76h-284.81c-4.83 0-8.77-3.94-8.78-8.76v-189.861c0-9.93 8.08-18 18-18h266.36c9.931 0 18.001 8.069 18.001 18"/><path fill="#008EC3" d="M211.852 35.936h-27.977v11.774h36.233v-3.517c.001-4.541-3.707-8.257-8.256-8.257"/><path fill="#2FA2CD" d="M171.185 44.193v3.524h-76.794v-3.524c0-4.541 3.707-8.257 8.256-8.257h60.281c4.55 0 8.257 3.716 8.257 8.257"/><path fill="#F4F4F4" d="M321.814 41.627l-1.451-1.451 1.454-1.454c.26-.261.26-.684 0-.944-.261-.26-.683-.261-.943 0l-1.454 1.454-1.45-1.451c-.26-.26-.683-.26-.943.001-.26.26-.26.682 0 .942l1.451 1.451-1.455 1.454c-.26.262-.26.683.001.944.261.26.683.26.943 0l1.453-1.454 1.451 1.45c.261.26.683.26.943 0 .261-.259.261-.681 0-.942z"/><path fill="#1676BB" d="M137.788 73.883h66.245c.276 0 .5-.224.5-.5s-.224-.5-.5-.5h-66.245c-.276 0-.5.224-.5.5s.224.5.5.5M137.788 80.464h66.245c.276 0 .5-.224.5-.5s-.224-.5-.5-.5h-66.245c-.276 0-.5.224-.5.5 0 .277.224.5.5.5M137.788 87.045h66.245c.276 0 .5-.224.5-.5s-.224-.5-.5-.5h-66.245c-.276 0-.5.224-.5.5s.224.5.5.5M137.788 93.626h66.245c.276 0 .5-.224.5-.5s-.224-.5-.5-.5h-66.245c-.276 0-.5.224-.5.5s.224.5.5.5M137.788 100.207h66.245c.276 0 .5-.224.5-.5s-.224-.5-.5-.5h-66.245c-.276 0-.5.224-.5.5s.224.5.5.5"/><path fill="#F4F4F4" d="M119.308 47.71v-3.52c0-4.543-3.703-8.254-8.254-8.254h-60.28c-4.551 0-8.253 3.711-8.253 8.254v3.997l.01-.915v115.547l-.01.096v66.92c0 1.65 1.35 3 3 3h275.323c1.649 0 3-1.35 3-3v-182.125h-204.536"/><path fill="#1676BB" d="M151.788 180.09h66.245c.276 0 .5-.224.5-.5s-.224-.5-.5-.5h-66.245c-.276 0-.5.224-.5.5s.223.5.5.5M151.788 186.672h66.245c.276 0 .5-.224.5-.5s-.224-.5-.5-.5h-66.245c-.276 0-.5.224-.5.5s.223.5.5.5M151.788 193.252h66.245c.276 0 .5-.224.5-.5s-.224-.5-.5-.5h-66.245c-.276 0-.5.224-.5.5s.223.5.5.5M151.788 199.833h66.245c.276 0 .5-.224.5-.5s-.224-.5-.5-.5h-66.245c-.276 0-.5.224-.5.5s.223.5.5.5M151.788 206.414h66.245c.276 0 .5-.224.5-.5s-.224-.5-.5-.5h-66.245c-.276 0-.5.224-.5.5s.223.5.5.5M151.788 125.501h66.245c.276 0 .5-.224.5-.5s-.224-.5-.5-.5h-66.245c-.276 0-.5.224-.5.5s.223.5.5.5M151.788 132.084h66.245c.276 0 .5-.224.5-.5s-.224-.5-.5-.5h-66.245c-.276 0-.5.224-.5.5s.223.5.5.5M151.788 138.664h66.245c.276 0 .5-.224.5-.5s-.224-.5-.5-.5h-66.245c-.276 0-.5.224-.5.5s.223.5.5.5M151.788 145.244h66.245c.276 0 .5-.224.5-.5s-.224-.5-.5-.5h-66.245c-.276 0-.5.224-.5.5s.223.5.5.5M151.788 151.826h66.245c.276 0 .5-.224.5-.5s-.224-.5-.5-.5h-66.245c-.276 0-.5.224-.5.5s.223.5.5.5M151.788 70.913h66.245c.276 0 .5-.224.5-.5s-.224-.5-.5-.5h-66.245c-.276 0-.5.224-.5.5s.223.5.5.5M151.788 77.495h66.245c.276 0 .5-.224.5-.5s-.224-.5-.5-.5h-66.245c-.276 0-.5.224-.5.5s.223.5.5.5M151.788 84.076h66.245c.276 0 .5-.224.5-.5s-.224-.5-.5-.5h-66.245c-.276 0-.5.224-.5.5s.223.5.5.5M151.788 90.656h66.245c.276 0 .5-.224.5-.5s-.224-.5-.5-.5h-66.245c-.276 0-.5.224-.5.5s.223.5.5.5M151.788 97.237h66.245c.276 0 .5-.224.5-.5s-.224-.5-.5-.5h-66.245c-.276 0-.5.224-.5.5s.223.5.5.5"/><path fill="#1676BB" d="M284.456 81.626h-2.5c-.001 2.646-1.065 5.018-2.798 6.754-1.736 1.732-4.107 2.796-6.753 2.797-2.646-.001-5.018-1.065-6.754-2.797-1.731-1.736-2.796-4.108-2.797-6.754.001-2.646 1.064-5.017 2.797-6.753 1.736-1.732 4.108-2.796 6.754-2.797 2.646.001 5.017 1.065 6.753 2.797 1.732 1.736 2.797 4.108 2.798 6.753h5c-.002-8.037-6.514-14.549-14.551-14.551-8.038.001-14.549 6.514-14.551 14.551.002 8.037 6.513 14.55 14.551 14.551 8.037-.001 14.549-6.514 14.551-14.551h-2.5zM284.456 137.73h-2.5c-.001 2.646-1.065 5.018-2.798 6.754-1.735 1.731-4.107 2.796-6.753 2.797-2.646-.001-5.018-1.065-6.754-2.797-1.732-1.736-2.796-4.108-2.797-6.754.001-2.646 1.064-5.018 2.797-6.754 1.736-1.731 4.108-2.795 6.754-2.797 2.646.001 5.017 1.065 6.753 2.798 1.732 1.736 2.797 4.107 2.798 6.753h5c-.002-8.037-6.514-14.549-14.551-14.551-8.038.001-14.549 6.514-14.551 14.551.001 8.038 6.513 14.55 14.551 14.551 8.037-.002 14.549-6.513 14.551-14.551h-2.5zM284.456 192.537h-2.5c-.001 2.646-1.065 5.018-2.798 6.754-1.735 1.731-4.107 2.796-6.753 2.797-2.646-.001-5.018-1.065-6.754-2.797-1.732-1.736-2.796-4.108-2.797-6.754.001-2.646 1.065-5.018 2.797-6.754 1.736-1.731 4.108-2.796 6.754-2.797 2.646.001 5.018 1.065 6.753 2.797 1.732 1.736 2.797 4.108 2.798 6.754h5c-.002-8.038-6.514-14.549-14.551-14.551-8.038.001-14.55 6.513-14.551 14.551.001 8.038 6.513 14.55 14.551 14.551 8.037-.002 14.549-6.513 14.551-14.551h-2.5z"/><circle fill="#2FA2CD" cx="272.405" cy="81.626" r="7.08"/><circle fill="#2FA2CD" cx="272.405" cy="192.537" r="7.08"/><path fill="#2FA2CD" d="M110.604 133.065h-29.741l6.76-19.338h16.221l6.76 19.338"/><path fill="#1676BB" d="M108.501 124.662h-25.536l2.06-5.264h21.417l2.059 5.264M109.551 138.32l-4.955.424 4.499 1.875-1.528 7.668-5.924.991 5.562.841-.429 2.147h-22.082l-1.744-8.733 5.329-.056-5.696-1.795-1.722-8.619h29.741l-1.051 5.257"/><path fill="#115D96" d="M108.501 124.662l-.41 1.981-.776-1.981h1.186M82.965 124.662l.41 1.981.776-1.981h-1.186"/><path fill="#1676BB" d="M109.912 210.744h-28.49l-1.382-1.774h31.254l-1.382 1.774"/><path fill="#2FA2CD" d="M108.737 192.643l2.582 16.16v.002c0 .301-.351.549-.778.549h-29.767c-.428 0-.776-.248-.778-.549v-.002l2.581-16.16c0-.305.35-.551.778-.551h24.604c.429 0 .778.246.778.551"/><path fill="#1676BB" d="M109.843 208.043h-28.353l-1.374-1.766h31.103l-1.376 1.766"/><path fill="#2FA2CD" d="M108.674 190.029l2.569 16.082v.001c-.001.3-.35.546-.775.546h-29.622c-.425 0-.771-.246-.774-.546v-.001l2.567-16.082c0-.303.348-.549.775-.549h24.486c.425 0 .774.247.774.549"/><path fill="#1676BB" d="M109.843 205.484h-28.353l-1.374-1.766h31.103l-1.376 1.766"/><path fill="#2FA2CD" d="M108.656 187.584l2.563 16.043v.001c-.001.302-.35.546-.772.546h-29.56c-.424 0-.77-.244-.771-.546v-.001l2.562-16.043c0-.302.347-.548.773-.548h24.433c.424 0 .772.246.772.548"/><path fill="#1676BB" d="M115.304 189.615l.013.01h-39.407v-.01c-.248.01-.455-.074-.565-.242-.11-.126-.151-.316-.138-.549l1.638-14.385c.055-.77.756-1.792 1.554-2.266l15.819-10.213c.454-.273 1.059-.389 1.649-.357.454.031.896.148 1.252.357l15.818 10.213c.798.474 1.485 1.496 1.541 2.266l1.637 14.385c.041.58-.289.865-.811.791M114.086 189.763v.122c-.001.436-.357.789-.791.789h-35.258c-.435 0-.79-.354-.792-.789v-.122c0-.435.355-.79.792-.79h35.259c.435 0 .79.355.79.79M86.717 202.996h-2.939c-.232 0-.42-.139-.42-.31l-2.646-12.761c0-.172.189-.312.421-.312h4.261c.232 0 .421.14.421.312l1.322 12.761c0 .171-.189.31-.42.31M93.224 202.996h-2.939c-.23 0-.421-.139-.421-.31l-1.322-12.761c0-.172.189-.312.421-.312h4.2620000000000005c.232 0 .421.14.421.312v12.761c-.001.171-.19.31-.422.31M104.617 202.996h2.938c.232 0 .421-.139.421-.31l2.646-12.761c0-.172-.189-.312-.42-.312h-4.263c-.232 0-.42.14-.42.312l-1.322 12.761c-.002.171.187.31.42.31M97.449 202.996h2.939c.23 0 .42-.139.42-.31l1.323-12.761c0-.172-.188-.312-.42-.312h-4.2620000000000005c-.231 0-.42.14-.42.312v12.761c0 .171.189.31.42.31"/><path fill="#2FA2CD" d="M95.867 161.604l-.206 17.168-20.316 10.602c-.11-.126-.151-.316-.138-.549l1.638-14.385c.055-.77.756-1.792 1.554-2.266l15.819-10.213c.454-.273 1.058-.389 1.649-.357M99.698 102.358l-2.827-3.674v-4.27l4.67-6.106s1.953 7.278 1.953 7.533l-3.796 6.517"/><path fill="#1676BB" d="M110.012 81.649l-12.892-10.845c-.356-.29-.804-.439-1.269-.439h-.008c-.464 0-.92.141-1.285.439l-12.875 10.845c-.697.597-1.202 1.782-1.136 2.636l.174 1.783v.008l1.244 14.724c.083.871.945 1.559 1.907 1.559h8.49v-6.773c0-.647.597-1.169 1.326-1.169h4.684c.729 0 1.327.522 1.327 1.169v6.773h8.125c.97 0 1.833-.688 1.907-1.559l1.26-14.956.149-1.559c.082-.854-.424-2.039-1.128-2.636m-20.901 10.188h-3.731c-.29 0-.53-.24-.53-.539l-.365-4.361c0-.299.232-.539.531-.539h3.987c.298 0 .539.24.539.539l.1 4.361c0 .299-.24.539-.531.539M115.767 87.417c.053.858-.547 1.149-1.332.639l-16.973-10.91c-.442-.28-1.038-.404-1.616-.374-.453.027-.895.151-1.242.374l-16.975 10.91c-.79.51-1.391.219-1.338-.639l2.409-15.982c.052-.853.724-1.985 1.49-2.51l14.442-11.357c.336-.228.76-.358 1.202-.389.566-.037 1.16.094 1.591.389l14.442 11.357c.767.525 1.438 1.658 1.491 2.51l2.409 15.982"/><path fill="#2FA2CD" d="M95.845 57.188v19.584c-.453.027-.895.151-1.242.374l-16.975 10.91c-.79.51-1.391.219-1.338-.639l2.41-15.982c.052-.853.724-1.985 1.49-2.51l14.442-11.357c.336-.228.76-.358 1.202-.389l.011.009M102.984 64.208l2.54-5.476.644 2.887-3.184 7.811v-5.222"/><path fill="#1676BB" d="M109.947 60.175l-4.423-1.443.644 2.887-3.184 7.811 5.28 3.313 2.404-10.106-.721-2.462"/><path fill="#2FA2CD" d="M109.947 60.175l-1.105 1.911 1.826.551-.721-2.462"/><path fill="#EEEFF0" d="M31.792 225.8h-1.038v8.412c.01 4.819 3.95 8.76 8.78 8.76h1.038c-4.83 0-8.77-3.94-8.78-8.76v-8.412"/><path fill="#1669A8" d="M31.792 215.664h-1.037v10.136h1.037v-10.136"/><path fill="#D8DADB" d="M99.64 26.351h-50.885c-9.92 0-18 8.07-18 18v171.313h1.038v-171.313c0-9.93 8.08-18 18-18h49.847"/><path fill="#176FB0" d="M183.875 26.351h-134.083c-9.92 0-18 8.07-18 18v189.86099999999996c.01 4.819 3.95 8.76 8.78 8.76h143.303v-10.137h-138.355c-1.65 0-3-1.35-3-3v-66.92l.01-.096v-115.548l-.01.915v-3.996c0-4.543 3.703-8.254 8.253-8.254h133.101v-9.585"/><path fill="#0088BA" d="M183.875 35.936h-20.947c4.549 0 8.257 3.716 8.257 8.257v3.517h12.69v-11.774"/><path fill="#2E9AC3" d="M162.928 35.936h-51.874c4.551 0 8.254 3.711 8.254 8.254v3.521h51.877v-3.517c0-4.542-3.707-8.258-8.257-8.258"/><path fill="#E4E5E6" d="M75.205 188.898l.002-.074 1.638-14.385c.055-.77.756-1.792 1.554-2.266l15.819-10.213c.406-.244.932-.362 1.461-.362l.188.005c.454.031.896.148 1.252.357l15.818 10.213c.798.474 1.485 1.496 1.541 2.266l1.637 14.385c.037.52-.224.803-.654.803l-.157-.012.013.01h-1.243l.012.138v.122c-.001.436-.357.789-.791.789h-2.83l-.744 3.587 1.497 9.366v.001l-.011.09h.011l-.017.021c-.032.107-.109.204-.217.278l-.064.082.321 2.012v.001l-.037.165h.013l-.043.056-.06.077-.148.19.352 2.202v.002l-.037.165h.012l-.038.048-.074.096-1.271 1.631h-28.49l-1.226-1.574c-.124-.098-.199-.226-.2-.365v-.002l.355-2.223-.083-.106c-.121-.097-.195-.224-.196-.361v-.001l.325-2.032-.046-.06c-.109-.075-.187-.172-.219-.281l-.016-.021h.011l-.011-.09v-.001l1.495-9.364-.744-3.589h-2.831c-.435 0-.79-.354-.792-.789v-.122l.012-.138h-1.344v-.01l-.039.001c-.231 0-.422-.084-.526-.243-.097-.112-.141-.275-.14-.475m10.435-69.5l1.982-5.671h16.222l1.982 5.671h.616l2.059 5.263-.311 1.5 2.413 6.904h-.002l-1.05 5.255-4.955.424 4.499 1.875-1.528 7.668-5.925.991 5.562.841-.429 2.146h-22.081l-1.744-8.732 5.329-.057-5.696-1.795-1.722-8.619h.002l2.412-6.9-.311-1.5 2.06-5.263h.616m10.194-62.221l.188-.006c.507 0 1.02.133 1.402.396l6.33 4.978 1.769-3.813.645 2.886-.645-2.886 4.423 1.443.722 2.462-1.071 4.502 2.27 1.785c.767.525 1.438 1.658 1.491 2.51l2.409 15.982c.035.571-.219.891-.624.891-.204 0-.446-.081-.708-.251l-3.444-2.214v.001l-1.26 14.956c-.075.871-.937 1.559-1.907 1.559h-8.125l-2.827-3.674v-4.268h-3.183c-.729 0-1.326.522-1.326 1.169v6.773h-8.49c-.962 0-1.824-.688-1.907-1.559l-1.244-14.724v-.007l-3.093 1.988c-.264.17-.508.251-.712.251-.381 0-.628-.281-.629-.787l.003-.104 2.409-15.982c.052-.853.724-1.985 1.49-2.51l14.442-11.357c.336-.229.761-.359 1.202-.39m15.22-21.242h-60.28c-4.551 0-8.253 3.711-8.253 8.254v3.997l.01-.915v115.547l-.01.096v66.92c0 1.65 1.35 3 3 3h138.355v-26.42h-32.088c-.276 0-.5-.224-.5-.5s.224-.5.5-.5h32.088v-5.581h-32.088c-.276 0-.5-.224-.5-.5s.224-.5.5-.5h32.088v-5.581h-32.088c-.276 0-.5-.224-.5-.5s.224-.5.5-.5h32.088v-5.58h-32.088c-.276 0-.5-.224-.5-.5s.224-.5.5-.5h32.088v-5.582h-32.088c-.276 0-.5-.224-.5-.5s.224-.5.5-.5h32.088v-27.264h-32.088c-.276 0-.5-.224-.5-.5s.224-.5.5-.5h32.088v-5.582h-32.088c-.276 0-.5-.224-.5-.5s.224-.5.5-.5h32.088v-5.58h-32.088c-.276 0-.5-.224-.5-.5s.224-.5.5-.5h32.088v-5.58h-32.088c-.276 0-.5-.224-.5-.5s.224-.5.5-.5h32.088v-5.583h-32.088c-.276 0-.5-.224-.5-.5s.224-.5.5-.5h32.088v-27.265h-32.088c-.276 0-.5-.224-.5-.5s.224-.5.5-.5h32.088v-5.582h-32.088c-.276 0-.5-.224-.5-.5s.224-.5.5-.5h32.088v-5.58h-32.088c-.276 0-.5-.224-.5-.5s.224-.5.5-.5h32.088v-5.581h-32.088c-.276 0-.5-.224-.5-.5s.224-.5.5-.5h32.088v-5.582h-32.088c-.276 0-.5-.224-.5-.5s.224-.5.5-.5h32.088v-22.202h-64.56700000000001v-3.52c-.001-4.543-3.704-8.254-8.255-8.254"/><path fill="#176FB0" d="M183.875 179.09h-32.088c-.276 0-.5.224-.5.5s.224.5.5.5h32.088v-1M183.875 185.672h-32.088c-.276 0-.5.224-.5.5s.224.5.5.5h32.088v-1M183.875 192.252h-32.088c-.276 0-.5.224-.5.5s.224.5.5.5h32.088v-1M183.875 198.833h-32.088c-.276 0-.5.224-.5.5s.224.5.5.5h32.088v-1M183.875 205.414h-32.088c-.276 0-.5.224-.5.5s.224.5.5.5h32.088v-1M183.875 124.501h-32.088c-.276 0-.5.224-.5.5s.224.5.5.5h32.088v-1M183.875 131.084h-32.088c-.276 0-.5.224-.5.5s.224.5.5.5h32.088v-1M183.875 137.664h-32.088c-.276 0-.5.224-.5.5s.224.5.5.5h32.088v-1M183.875 144.244h-32.088c-.276 0-.5.224-.5.5s.224.5.5.5h32.088v-1M183.875 150.826h-32.088c-.276 0-.5.224-.5.5s.224.5.5.5h32.088v-1M183.875 69.913h-32.088c-.276 0-.5.224-.5.5s.224.5.5.5h32.088v-1M183.875 76.495h-32.088c-.276 0-.5.224-.5.5s.224.5.5.5h32.088v-1M183.875 83.076h-32.088c-.276 0-.5.224-.5.5s.224.5.5.5h32.088v-1M183.875 89.656h-32.088c-.276 0-.5.224-.5.5s.224.5.5.5h32.088v-1M183.875 96.237h-32.088c-.276 0-.5.224-.5.5s.224.5.5.5h32.088v-1"/><path fill="#2E9AC3" d="M107.315 124.662h-23.164l-.776 1.981-.1-.48-2.412 6.9h29.738v.003h.002l-2.413-6.904-.1.481-.775-1.981m-3.471-10.935h-16.221l-1.982 5.671h20.187l-1.984-5.671"/><path fill="#176FB0" d="M106.442 119.398h-21.416999999999998l-2.06 5.264h25.536l-2.059-5.264M110.602 133.063h-29.741l1.722 8.619 5.696 1.795-5.329.056 1.744 8.733h22.082l.429-2.147-5.562-.841 5.924-.991 1.528-7.668-4.499-1.875 4.955-.424 1.05-5.255.001-.002"/><path fill="#10588F" d="M108.501 124.662h-1.186l.776 1.981.099-.481.311-1.5M84.151 124.662h-1.186l.311 1.5.099.481.776-1.981"/><path fill="#176FB0" d="M111.183 209.113c-.141.145-.376.24-.642.24h-29.767c-.229 0-.436-.071-.579-.184l1.226 1.574h28.49l1.272-1.63m.111-.143h-.012l-.025.048.037-.048"/><path fill="#2E9AC3" d="M80.351 206.58l-.355 2.223v.002c.001.14.076.268.2.365.143.112.349.184.579.184h29.766c.266 0 .501-.096.642-.24l.074-.096.025-.048.037-.165v-.002l-.352-2.202-1.124 1.442h-28.353l-1.139-1.463"/><path fill="#176FB0" d="M111.115 206.41c-.139.149-.378.248-.647.248h-29.622c-.229 0-.436-.071-.578-.185l.083.106 1.139 1.463h28.353l1.124-1.442.148-.19m.104-.133h-.013l-.03.056.043-.056"/><path fill="#2E9AC3" d="M80.397 204.079l-.325 2.032v.001c.001.138.075.265.196.361.142.113.348.185.578.185h29.622c.269 0 .508-.099.647-.248l.06-.077.03-.056.037-.165v-.001l-.321-2.012-1.078 1.385h-28.353l-1.093-1.405"/><path fill="#176FB0" d="M110.985 204.018c-.14.097-.331.156-.539.156h-29.56c-.208 0-.397-.059-.536-.154l.046.06 1.093 1.405h28.353l1.078-1.385.065-.082m-30.859-.3h-.011l.016.021-.005-.021m31.093 0h-.011l-.006.021.017-.021"/><path fill="#2E9AC3" d="M105.44 190.674h-3.386l-1.246 12.013c0 .171-.189.31-.42.31h-2.939c-.231 0-.42-.139-.42-.31v-12.013h-3.384v12.013c0 .171-.188.31-.421.31h-2.939c-.23 0-.421-.139-.421-.31l-1.245-12.013h-2.726l1.244 12.013c0 .171-.189.31-.42.31h-2.939c-.232 0-.42-.139-.42-.31l-1.747-8.424-1.495 9.364v.001l.011.09.005.021c.032.109.11.206.219.281.139.096.328.154.536.154h29.56c.208 0 .399-.06.539-.156.107-.074.185-.171.217-.278l.006-.021.011-.09v-.001l-1.497-9.366-1.747 8.426c0 .171-.188.31-.421.31h-2.938c-.232 0-.421-.139-.421-.31l1.244-12.014"/><path fill="#176FB0" d="M95.867 161.604l-.206 17.168-20.316 10.602c-.098-.112-.141-.275-.14-.475-.001.199.042.362.14.475.104.159.295.243.526.243l.039-.001v.01h1.347c.065-.369.39-.652.779-.652h35.259c.388 0 .713.283.778.652h1.243l-.013-.01.157.012c.431 0 .691-.283.654-.803l-1.637-14.385c-.055-.77-.743-1.792-1.541-2.266l-15.818-10.213c-.355-.209-.797-.326-1.251-.357M113.296 188.973h-35.259c-.389 0-.714.283-.779.652l-.012.138v.122c.002.436.357.789.792.789h2.831l-.155-.748c0-.172.189-.312.421-.312h4.261c.232 0 .421.14.421.312l.078.748h2.726l-.078-.748c0-.172.189-.312.421-.312h4.2620000000000005c.232 0 .421.14.421.312v.748h3.384v-.748c0-.172.189-.312.42-.312h4.2620000000000005c.232 0 .42.14.42.312l-.078.748h3.386l.078-.748c0-.172.188-.312.42-.312h4.263c.23 0 .42.14.42.312l-.155.748h2.83c.434 0 .789-.354.791-.789v-.122l-.012-.138c-.067-.369-.392-.652-.78-.652M85.394 189.614h-4.261c-.232 0-.421.14-.421.312l.155.748.744 3.589 1.747 8.424c0 .171.188.31.42.31h2.939c.231 0 .42-.139.42-.31l-1.244-12.013-.078-.748c0-.172-.189-.312-.421-.312"/><path fill="#E4E5E6" d="M89.003 86.399h-3.987c-.299 0-.531.24-.531.539l.365 4.361c0 .298.24.539.53.539h3.731c.291 0 .531-.24.531-.539l-.1-4.361c0-.299-.24-.539-.539-.539"/><path fill="#176FB0" d="M93.224 189.614h-4.2620000000000005c-.232 0-.421.14-.421.312l.078.748 1.245 12.013c0 .171.19.31.421.31h2.939c.232 0 .421-.139.421-.31v-12.761c0-.172-.189-.312-.421-.312M110.201 189.614h-4.263c-.232 0-.42.14-.42.312l-.078.748-1.245 12.013c0 .171.189.31.421.31h2.938c.232 0 .421-.139.421-.31l1.747-8.426.744-3.587.155-.748c0-.172-.189-.312-.42-.312M101.711 189.614h-4.2620000000000005c-.231 0-.42.14-.42.312v12.761c0 .171.189.31.42.31h2.939c.23 0 .42-.139.42-.31l1.246-12.013.078-.748c0-.172-.189-.312-.421-.312"/><path fill="#2E9AC3" d="M95.679 161.599c-.529 0-1.055.118-1.461.362l-15.819 10.213c-.797.474-1.499 1.496-1.554 2.266l-1.638 14.385-.002.074c-.001.199.042.362.14.475l20.316-10.602.206-17.168-.188-.005M98.372 94.416h-1.501v4.268l2.827 3.674v-6.772c0-.648-.597-1.17-1.326-1.17"/><path fill="#176FB0" d="M85.38 91.837c-.29 0-.53-.24-.53-.539l-.365-4.361c0-.299.232-.539.531-.539h3.987c.298 0 .539.24.539.539l.1 4.361c0 .298-.24.539-.531.539h-3.731m10.638-15.069l-.172.004c-.453.027-.895.151-1.242.374l-13.882 8.922v.007l1.244 14.724c.083.871.945 1.559 1.907 1.559h8.49v-6.773c0-.647.597-1.169 1.326-1.169h4.683999999999999c.729 0 1.327.522 1.327 1.169v6.772h8.125c.97 0 1.833-.688 1.907-1.559l1.26-14.956v-.001l-13.529-8.696c-.4-.251-.923-.377-1.445-.377M96.023 57.172l-.188.006.011.01v19.584c-.453.027-.895.151-1.242.374l-16.975 10.91c-.264.17-.508.251-.712.251-.381 0-.628-.281-.629-.787 0 .505.248.787.629.787.205 0 .448-.081.712-.251l3.093-1.988 13.882-8.922c.348-.222.79-.347 1.242-.374l.172-.004c.522 0 1.045.126 1.444.378l13.529 8.696 3.444 2.214c.263.17.504.251.708.251.405 0 .659-.32.624-.891l-2.409-15.982c-.053-.853-.724-1.985-1.491-2.51l-2.27-1.785-1.333 5.604-5.28-3.313v-5.221l.771-1.663-6.33-4.978c-.383-.263-.895-.396-1.402-.396"/><path fill="#2E9AC3" d="M95.834 57.178c-.442.031-.866.161-1.202.389l-14.442 11.358c-.766.525-1.438 1.658-1.49 2.51l-2.409 15.982-.003.104c0 .505.248.787.629.787.205 0 .448-.081.712-.251l16.975-10.91c.348-.222.79-.347 1.242-.374v-19.585l-.012-.01M105.524 58.732l-1.769 3.813-.771 1.663v5.222l3.184-7.811-.644-2.887"/><path fill="#176FB0" d="M105.524 58.732l.644 2.887-3.184 7.811 5.28 3.313 1.333-5.603 1.071-4.503-1.826-.551 1.105-1.911-4.423-1.443"/><path fill="#2E9AC3" d="M109.947 60.175l-1.105 1.911 1.826.551-.721-2.462"/></svg>