<?xml version="1.0" encoding="utf-8"?>
<!-- Generator: Adobe Illustrator 16.0.0, SVG Export Plug-In . SVG Version: 6.00 Build 0)  -->
<!DOCTYPE svg PUBLIC "-//W3C//DTD SVG 1.1//EN" "http://www.w3.org/Graphics/SVG/1.1/DTD/svg11.dtd">
<svg version="1.1" id="Layer_1" xmlns="http://www.w3.org/2000/svg" xmlns:xlink="http://www.w3.org/1999/xlink" x="0px" y="0px"
	 width="342.424px" height="252.525px" viewBox="0 0 342.424 252.525" enable-background="new 0 0 342.424 252.525"
	 xml:space="preserve">
<g>
	<path fill="#1676BB" d="M314.51,27.18V217.02v0.021c-0.01,4.819-3.959,8.76-8.77,8.76H20.931c-4.83,0-8.77-3.94-8.78-8.76v-0.021
		V27.18c0-9.93,8.08-18,18-18H296.51C306.441,9.18,314.51,17.25,314.51,27.18"/>
	<path fill="#008EC3" d="M192.21,18.766h-27.977v7.585h19.642h16.564C200.096,22.121,196.534,18.766,192.21,18.766"/>
	<path fill="#2FA2CD" d="M151.543,27.023v3.524H74.749v-3.524c0-4.541,3.707-8.257,8.256-8.257h60.281
		C147.836,18.766,151.543,22.482,151.543,27.023"/>
	<path fill="#F4F4F4" d="M302.172,24.457l-1.451-1.451l1.454-1.454c0.261-0.261,0.261-0.684,0-0.944
		c-0.261-0.26-0.683-0.261-0.942,0l-1.455,1.454l-1.45-1.451c-0.26-0.26-0.683-0.26-0.942,0.001c-0.262,0.26-0.262,0.682,0,0.942
		l1.451,1.451l-1.456,1.454c-0.26,0.262-0.26,0.683,0.001,0.944c0.26,0.26,0.683,0.26,0.943,0l1.453-1.454l1.451,1.45
		c0.26,0.26,0.683,0.26,0.943,0C302.433,25.14,302.433,24.717,302.172,24.457z"/>
	<path fill="#1676BB" d="M118.146,56.713h66.245c0.276,0,0.5-0.224,0.5-0.5c0-0.276-0.224-0.5-0.5-0.5h-66.245
		c-0.276,0-0.5,0.224-0.5,0.5C117.646,56.489,117.87,56.713,118.146,56.713"/>
	<path fill="#1676BB" d="M118.146,63.294h66.245c0.276,0,0.5-0.224,0.5-0.5c0-0.276-0.224-0.5-0.5-0.5h-66.245
		c-0.276,0-0.5,0.224-0.5,0.5C117.646,63.07,117.87,63.294,118.146,63.294"/>
	<path fill="#1676BB" d="M118.146,69.875h66.245c0.276,0,0.5-0.224,0.5-0.5s-0.224-0.5-0.5-0.5h-66.245c-0.276,0-0.5,0.224-0.5,0.5
		S117.87,69.875,118.146,69.875"/>
	<path fill="#1676BB" d="M118.146,76.456h66.245c0.276,0,0.5-0.224,0.5-0.5s-0.224-0.5-0.5-0.5h-66.245c-0.276,0-0.5,0.224-0.5,0.5
		S117.87,76.456,118.146,76.456"/>
	<path fill="#1676BB" d="M118.146,83.037h66.245c0.276,0,0.5-0.224,0.5-0.5s-0.224-0.5-0.5-0.5h-66.245c-0.276,0-0.5,0.224-0.5,0.5
		S117.87,83.037,118.146,83.037"/>
	<path fill="#F4F4F4" d="M99.667,30.54V27.02c0-4.543-3.703-8.254-8.254-8.254h-10.68h-38.92h-10.68
		c-4.551,0-8.253,3.711-8.253,8.254v3.997l0.01-0.915v115.546l-0.01,0.097v66.92c0,1.65,1.35,3,3,3h275.323c1.65,0,3-1.35,3-3
		v-7.914v-59.006V30.54H99.667"/>
	<path fill="#1676BB" d="M132.146,162.92h66.245c0.276,0,0.5-0.224,0.5-0.5s-0.224-0.5-0.5-0.5h-66.245c-0.276,0-0.5,0.224-0.5,0.5
		S131.87,162.92,132.146,162.92"/>
	<path fill="#1676BB" d="M132.146,169.501h66.245c0.276,0,0.5-0.224,0.5-0.5s-0.224-0.5-0.5-0.5h-66.245c-0.276,0-0.5,0.224-0.5,0.5
		S131.87,169.501,132.146,169.501"/>
	<path fill="#1676BB" d="M132.146,176.082h66.245c0.276,0,0.5-0.224,0.5-0.5s-0.224-0.5-0.5-0.5h-66.245c-0.276,0-0.5,0.224-0.5,0.5
		S131.87,176.082,132.146,176.082"/>
	<path fill="#1676BB" d="M132.146,182.662h66.245c0.276,0,0.5-0.224,0.5-0.5s-0.224-0.5-0.5-0.5h-66.245c-0.276,0-0.5,0.224-0.5,0.5
		S131.87,182.662,132.146,182.662"/>
	<path fill="#1676BB" d="M132.146,189.244h66.245c0.276,0,0.5-0.224,0.5-0.5s-0.224-0.5-0.5-0.5h-66.245c-0.276,0-0.5,0.224-0.5,0.5
		S131.87,189.244,132.146,189.244"/>
	<path fill="#1676BB" d="M132.146,108.331h66.245c0.276,0,0.5-0.224,0.5-0.5s-0.224-0.5-0.5-0.5h-66.245c-0.276,0-0.5,0.224-0.5,0.5
		S131.87,108.331,132.146,108.331"/>
	<path fill="#1676BB" d="M132.146,114.913h66.245c0.276,0,0.5-0.224,0.5-0.5s-0.224-0.5-0.5-0.5h-66.245c-0.276,0-0.5,0.224-0.5,0.5
		S131.87,114.913,132.146,114.913"/>
	<path fill="#1676BB" d="M132.146,121.494h66.245c0.276,0,0.5-0.224,0.5-0.5c0-0.276-0.224-0.5-0.5-0.5h-66.245
		c-0.276,0-0.5,0.224-0.5,0.5C131.646,121.27,131.87,121.494,132.146,121.494"/>
	<path fill="#1676BB" d="M132.146,128.074h66.245c0.276,0,0.5-0.224,0.5-0.5s-0.224-0.5-0.5-0.5h-66.245c-0.276,0-0.5,0.224-0.5,0.5
		S131.87,128.074,132.146,128.074"/>
	<path fill="#1676BB" d="M132.146,134.655h66.245c0.276,0,0.5-0.224,0.5-0.5s-0.224-0.5-0.5-0.5h-66.245c-0.276,0-0.5,0.224-0.5,0.5
		S131.87,134.655,132.146,134.655"/>
	<path fill="#1676BB" d="M132.146,53.743h66.245c0.276,0,0.5-0.224,0.5-0.5c0-0.276-0.224-0.5-0.5-0.5h-66.245
		c-0.276,0-0.5,0.224-0.5,0.5C131.646,53.519,131.87,53.743,132.146,53.743"/>
	<path fill="#1676BB" d="M132.146,60.325h66.245c0.276,0,0.5-0.224,0.5-0.5c0-0.276-0.224-0.5-0.5-0.5h-66.245
		c-0.276,0-0.5,0.224-0.5,0.5C131.646,60.101,131.87,60.325,132.146,60.325"/>
	<path fill="#1676BB" d="M132.146,66.905h66.245c0.276,0,0.5-0.224,0.5-0.5c0-0.276-0.224-0.5-0.5-0.5h-66.245
		c-0.276,0-0.5,0.224-0.5,0.5C131.646,66.681,131.87,66.905,132.146,66.905"/>
	<path fill="#1676BB" d="M132.146,73.485h66.245c0.276,0,0.5-0.224,0.5-0.5c0-0.276-0.224-0.5-0.5-0.5h-66.245
		c-0.276,0-0.5,0.224-0.5,0.5C131.646,73.261,131.87,73.485,132.146,73.485"/>
	<path fill="#1676BB" d="M132.146,80.067h66.245c0.276,0,0.5-0.224,0.5-0.5s-0.224-0.5-0.5-0.5h-66.245c-0.276,0-0.5,0.224-0.5,0.5
		S131.87,80.067,132.146,80.067"/>
	<path fill="#1676BB" d="M264.814,64.456h-2.5c-0.001,2.646-1.065,5.018-2.798,6.754c-1.736,1.732-4.107,2.796-6.753,2.797
		c-2.646-0.001-5.017-1.065-6.753-2.797c-1.732-1.736-2.797-4.108-2.798-6.754c0.001-2.645,1.065-5.017,2.798-6.753
		c1.736-1.732,4.107-2.796,6.753-2.797c2.646,0.001,5.017,1.065,6.753,2.797c1.732,1.736,2.797,4.108,2.798,6.753H264.814h2.5
		c-0.002-8.037-6.514-14.549-14.551-14.551c-8.037,0.001-14.549,6.514-14.551,14.551c0.002,8.038,6.514,14.55,14.551,14.551
		c8.037-0.001,14.549-6.514,14.551-14.551H264.814z"/>
	<path fill="#1676BB" d="M264.814,120.56h-2.5c-0.001,2.646-1.065,5.018-2.798,6.754c-1.736,1.732-4.107,2.796-6.753,2.797
		c-2.646-0.001-5.017-1.065-6.753-2.797c-1.732-1.736-2.797-4.108-2.798-6.754c0.001-2.645,1.065-5.017,2.798-6.753
		c1.736-1.732,4.107-2.796,6.753-2.797c2.646,0.001,5.017,1.065,6.753,2.797c1.732,1.736,2.797,4.108,2.798,6.753H264.814h2.5
		c-0.002-8.037-6.514-14.549-14.551-14.551c-8.037,0.001-14.549,6.514-14.551,14.551c0.002,8.038,6.514,14.549,14.551,14.551
		c8.037-0.002,14.549-6.514,14.551-14.551H264.814z"/>
	<path fill="#1676BB" d="M264.814,175.367h-2.5c-0.001,2.646-1.065,5.017-2.798,6.753c-1.736,1.732-4.107,2.797-6.753,2.798
		c-2.646-0.001-5.017-1.065-6.753-2.798c-1.732-1.736-2.797-4.107-2.798-6.753c0.001-2.646,1.065-5.018,2.798-6.754
		c1.736-1.732,4.107-2.797,6.753-2.798c2.646,0.001,5.017,1.065,6.753,2.798c1.732,1.736,2.797,4.108,2.798,6.754H264.814h2.5
		c-0.002-8.038-6.514-14.55-14.551-14.552c-8.037,0.002-14.549,6.514-14.551,14.552c0.002,8.037,6.514,14.549,14.551,14.551
		c8.037-0.002,14.549-6.514,14.551-14.551H264.814z"/>
	<circle fill="#2FA2CD" cx="252.763" cy="64.456" r="7.08"/>
	<circle fill="#2FA2CD" cx="252.763" cy="175.367" r="7.08"/>
	<polyline fill="#2FA2CD" points="90.962,115.895 61.221,115.895 67.981,96.557 84.203,96.557 90.962,115.895 	"/>
	<polyline fill="#1676BB" points="88.86,107.491 63.323,107.491 65.383,102.228 86.801,102.228 88.86,107.491 	"/>
	<polyline fill="#1676BB" points="89.91,121.15 84.955,121.574 89.454,123.449 87.926,131.117 82.001,132.107 87.563,132.949 
		87.134,135.096 65.052,135.096 63.308,126.363 68.637,126.306 62.941,124.511 61.22,115.893 90.96,115.893 89.91,121.15 	"/>
	<polyline fill="#115D96" points="88.86,107.491 88.449,109.473 87.673,107.491 88.86,107.491 	"/>
	<polyline fill="#115D96" points="63.323,107.491 63.734,109.473 64.51,107.491 63.323,107.491 	"/>
	<polyline fill="#1676BB" points="90.271,193.574 61.78,193.574 60.398,191.799 91.652,191.799 90.271,193.574 	"/>
	<path fill="#2FA2CD" d="M89.095,175.473l2.582,16.16v0.001c0,0.302-0.351,0.55-0.778,0.55H61.133c-0.428,0-0.776-0.248-0.778-0.55
		v-0.001l2.581-16.16c0-0.305,0.35-0.551,0.778-0.551h24.604C88.746,174.922,89.095,175.168,89.095,175.473"/>
	<polyline fill="#1676BB" points="90.202,190.873 61.849,190.873 60.474,189.106 91.577,189.106 90.202,190.873 	"/>
	<path fill="#2FA2CD" d="M89.032,172.859l2.569,16.081v0.001c-0.001,0.301-0.35,0.547-0.775,0.547H61.205
		c-0.425,0-0.771-0.246-0.774-0.547v-0.001l2.567-16.081c0-0.303,0.348-0.549,0.775-0.549h24.485
		C88.684,172.311,89.032,172.557,89.032,172.859"/>
	<polyline fill="#1676BB" points="90.202,188.313 61.849,188.313 60.474,186.547 91.577,186.547 90.202,188.313 	"/>
	<path fill="#2FA2CD" d="M89.014,170.414l2.563,16.042v0.001c-0.001,0.302-0.35,0.546-0.772,0.546h-29.56
		c-0.424,0-0.77-0.244-0.771-0.546v-0.001l2.562-16.042c0-0.303,0.347-0.549,0.773-0.549h24.433
		C88.666,169.865,89.014,170.111,89.014,170.414"/>
	<path fill="#1676BB" d="M95.662,172.445l0.013,0.01H56.269v-0.01c-0.248,0.01-0.455-0.074-0.565-0.243
		c-0.11-0.126-0.151-0.315-0.138-0.548l1.638-14.385c0.055-0.77,0.756-1.793,1.554-2.267l15.819-10.212
		c0.454-0.273,1.059-0.39,1.649-0.358c0.454,0.031,0.896,0.148,1.252,0.358l15.818,10.212c0.798,0.474,1.485,1.497,1.541,2.267
		l1.637,14.385C96.514,172.234,96.185,172.52,95.662,172.445"/>
	<path fill="#1676BB" d="M94.445,172.592v0.122v0.001c-0.001,0.435-0.357,0.789-0.791,0.789H58.395c-0.435,0-0.79-0.354-0.792-0.789
		v-0.001v-0.122c0-0.434,0.355-0.789,0.792-0.789h35.259C94.089,171.803,94.445,172.158,94.445,172.592"/>
	<path fill="#1676BB" d="M67.075,185.826h-2.939c-0.232,0-0.42-0.14-0.42-0.311l-2.646-12.761c0-0.171,0.189-0.312,0.421-0.312
		h4.261c0.232,0,0.421,0.141,0.421,0.312l1.322,12.761C67.496,185.687,67.306,185.826,67.075,185.826"/>
	<path fill="#1676BB" d="M73.582,185.826h-2.938h-0.001c-0.23,0-0.421-0.14-0.421-0.311l-1.322-12.761
		c0-0.171,0.189-0.312,0.421-0.312h0.001h4.261c0.232,0,0.421,0.141,0.421,0.312v12.761
		C74.003,185.687,73.814,185.826,73.582,185.826"/>
	<path fill="#1676BB" d="M84.975,185.826h2.938c0.232,0,0.421-0.14,0.421-0.311l2.646-12.761c0-0.171-0.189-0.312-0.42-0.312h-0.002
		h-4.261c-0.232,0-0.42,0.141-0.42,0.312l-1.322,12.761C84.554,185.687,84.743,185.826,84.975,185.826"/>
	<path fill="#1676BB" d="M77.808,185.826h2.938h0.001c0.23,0,0.42-0.14,0.42-0.311l1.323-12.761c0-0.171-0.188-0.312-0.42-0.312
		h-0.001h-4.261c-0.231,0-0.42,0.141-0.42,0.312v12.761C77.387,185.687,77.577,185.826,77.808,185.826"/>
	<path fill="#2FA2CD" d="M76.226,144.433l-0.206,17.168l-20.316,10.602c-0.11-0.126-0.151-0.315-0.138-0.548l1.638-14.385
		c0.055-0.77,0.756-1.793,1.554-2.267l15.819-10.212C75.03,144.518,75.635,144.401,76.226,144.433"/>
	<path fill="#2FA2CD" d="M80.056,85.188l-2.827-3.674v-4.27l4.67-6.106c0,0,1.953,7.278,1.953,7.533S80.056,85.188,80.056,85.188"/>
	<path fill="#1676BB" d="M90.37,64.479L77.478,53.634c-0.356-0.29-0.804-0.439-1.269-0.439h-0.008c-0.464,0-0.92,0.141-1.285,0.439
		L62.042,64.479c-0.697,0.597-1.202,1.782-1.136,2.636l0.174,1.783v0.008l1.244,14.724c0.083,0.871,0.945,1.559,1.907,1.559h8.49
		v-6.773c0-0.647,0.597-1.169,1.326-1.169h4.684c0.729,0,1.327,0.522,1.327,1.169v6.773h8.125c0.97,0,1.833-0.688,1.907-1.559
		l1.26-14.956l0.149-1.559C91.581,66.261,91.075,65.075,90.37,64.479 M69.47,74.667h-3.731c-0.29,0-0.53-0.24-0.53-0.539
		l-0.365-4.361c0-0.299,0.232-0.539,0.531-0.539h3.987c0.298,0,0.539,0.24,0.539,0.539l0.1,4.361
		C70,74.427,69.76,74.667,69.47,74.667"/>
	<path fill="#1676BB" d="M96.125,70.247c0.053,0.858-0.547,1.149-1.332,0.639L77.82,59.976c-0.442-0.28-1.038-0.404-1.616-0.374
		c-0.453,0.027-0.895,0.151-1.242,0.374l-16.975,10.91c-0.79,0.51-1.391,0.219-1.338-0.639l2.409-15.982
		c0.052-0.853,0.724-1.985,1.49-2.51l14.442-11.357c0.336-0.228,0.76-0.358,1.202-0.389c0.566-0.037,1.16,0.094,1.591,0.389
		l14.442,11.357c0.767,0.525,1.438,1.658,1.491,2.51L96.125,70.247"/>
	<path fill="#2FA2CD" d="M76.204,40.018v19.584c-0.453,0.027-0.895,0.151-1.242,0.374l-16.975,10.91
		c-0.79,0.51-1.391,0.219-1.338-0.639l2.409-15.982c0.052-0.853,0.724-1.985,1.49-2.51l14.442-11.357
		c0.336-0.228,0.76-0.358,1.202-0.389L76.204,40.018"/>
	<polyline fill="#2FA2CD" points="83.342,47.038 85.882,41.562 86.527,44.448 83.342,52.259 83.342,47.038 	"/>
	<polyline fill="#1676BB" points="90.305,43.005 85.882,41.562 86.527,44.448 83.342,52.259 88.623,55.573 91.027,45.467 
		90.305,43.005 	"/>
	<polyline fill="#2FA2CD" points="90.305,43.005 89.201,44.916 91.027,45.467 90.305,43.005 	"/>
	<path fill="#EEEFF0" d="M164.233,9.18H29.113c-9.92,0-18,8.07-18,18V217.02v0.021c0.01,4.819,3.95,8.76,8.78,8.76h1.038
		c-4.83,0-8.77-3.94-8.78-8.76v-0.021V27.18c0-9.93,8.08-18,18-18H164.233"/>
	<path fill="#176FB0" d="M164.233,9.18H30.151c-9.92,0-18,8.07-18,18V217.02v0.021c0.01,4.819,3.95,8.76,8.78,8.76h9.824v-10.136
		h-4.876c-1.65,0-3-1.35-3-3v-66.92l0.01-0.097V30.101l-0.01,0.915V27.02c0-4.543,3.703-8.254,8.253-8.254h10.68h38.92h10.68l0,0
		h51.874l0,0h20.947V9.18"/>
	<path fill="#0088BA" d="M164.233,18.766h-20.947c4.323,0,7.885,3.355,8.229,7.585h12.717V18.766"/>
	<path fill="#2E9AC3" d="M143.287,18.766H91.413c4.325,0,7.885,3.352,8.227,7.585h51.876
		C151.172,22.121,147.609,18.766,143.287,18.766L143.287,18.766L143.287,18.766"/>
	<path fill="#E4E5E6" d="M91.413,18.766h-10.68h-38.92h-10.68c-4.551,0-8.253,3.711-8.253,8.254v3.997l0.01-0.915v115.546
		l-0.01,0.097v66.92c0,1.65,1.35,3,3,3h4.876V44.351c0-9.93,8.08-18,18-18H99.64C99.297,22.118,95.738,18.766,91.413,18.766
		L91.413,18.766"/>
	<path fill="#1676BB" d="M334.153,44.351v189.84v0.021c-0.01,4.819-3.961,8.76-8.771,8.76H40.572c-4.83,0-8.77-3.94-8.78-8.76
		v-0.021V44.351c0-9.93,8.08-18,18-18h266.36C326.083,26.351,334.153,34.42,334.153,44.351"/>
	<path fill="#008EC3" d="M211.852,35.936h-27.977V47.71h36.233v-3.517C220.109,39.652,216.401,35.936,211.852,35.936"/>
	<path fill="#2FA2CD" d="M171.185,44.193v3.524H94.391v-3.524c0-4.541,3.707-8.257,8.256-8.257h60.281
		C167.478,35.936,171.185,39.652,171.185,44.193"/>
	<path fill="#F4F4F4" d="M321.814,41.627l-1.451-1.451l1.454-1.454c0.26-0.261,0.26-0.684,0-0.944c-0.261-0.26-0.683-0.261-0.943,0
		l-1.454,1.454l-1.45-1.451c-0.26-0.26-0.683-0.26-0.943,0.001c-0.26,0.26-0.26,0.682,0,0.942l1.451,1.451l-1.455,1.454
		c-0.26,0.262-0.26,0.683,0.001,0.944c0.261,0.26,0.683,0.26,0.943,0l1.453-1.454l1.451,1.45c0.261,0.26,0.683,0.26,0.943,0
		C322.075,42.31,322.075,41.888,321.814,41.627z"/>
	<path fill="#1676BB" d="M137.788,73.883h66.245c0.276,0,0.5-0.224,0.5-0.5c0-0.276-0.224-0.5-0.5-0.5h-66.245
		c-0.276,0-0.5,0.224-0.5,0.5C137.288,73.659,137.512,73.883,137.788,73.883"/>
	<path fill="#1676BB" d="M137.788,80.464h66.245c0.276,0,0.5-0.224,0.5-0.5c0-0.276-0.224-0.5-0.5-0.5h-66.245
		c-0.276,0-0.5,0.224-0.5,0.5C137.288,80.241,137.512,80.464,137.788,80.464"/>
	<path fill="#1676BB" d="M137.788,87.045h66.245c0.276,0,0.5-0.224,0.5-0.5s-0.224-0.5-0.5-0.5h-66.245c-0.276,0-0.5,0.224-0.5,0.5
		S137.512,87.045,137.788,87.045"/>
	<path fill="#1676BB" d="M137.788,93.626h66.245c0.276,0,0.5-0.224,0.5-0.5c0-0.276-0.224-0.5-0.5-0.5h-66.245
		c-0.276,0-0.5,0.224-0.5,0.5C137.288,93.402,137.512,93.626,137.788,93.626"/>
	<path fill="#1676BB" d="M137.788,100.207h66.245c0.276,0,0.5-0.224,0.5-0.5s-0.224-0.5-0.5-0.5h-66.245c-0.276,0-0.5,0.224-0.5,0.5
		S137.512,100.207,137.788,100.207"/>
	<path fill="#F4F4F4" d="M119.308,47.71V44.19c0-4.543-3.703-8.254-8.254-8.254h-10.68h-38.92h-10.68
		c-4.551,0-8.253,3.711-8.253,8.254v3.997l0.01-0.915v115.547l-0.01,0.096v66.92c0,1.65,1.35,3,3,3h275.323c1.649,0,3-1.35,3-3
		v-7.914v-59.006V47.71H119.308"/>
	<path fill="#1676BB" d="M151.788,180.09h66.245c0.276,0,0.5-0.224,0.5-0.5s-0.224-0.5-0.5-0.5h-66.245c-0.276,0-0.5,0.224-0.5,0.5
		S151.511,180.09,151.788,180.09"/>
	<path fill="#1676BB" d="M151.788,186.672h66.245c0.276,0,0.5-0.224,0.5-0.5s-0.224-0.5-0.5-0.5h-66.245c-0.276,0-0.5,0.224-0.5,0.5
		S151.511,186.672,151.788,186.672"/>
	<path fill="#1676BB" d="M151.788,193.252h66.245c0.276,0,0.5-0.224,0.5-0.5s-0.224-0.5-0.5-0.5h-66.245c-0.276,0-0.5,0.224-0.5,0.5
		S151.511,193.252,151.788,193.252"/>
	<path fill="#1676BB" d="M151.788,199.833h66.245c0.276,0,0.5-0.224,0.5-0.5s-0.224-0.5-0.5-0.5h-66.245c-0.276,0-0.5,0.224-0.5,0.5
		S151.511,199.833,151.788,199.833"/>
	<path fill="#1676BB" d="M151.788,206.414h66.245c0.276,0,0.5-0.224,0.5-0.5s-0.224-0.5-0.5-0.5h-66.245c-0.276,0-0.5,0.224-0.5,0.5
		S151.511,206.414,151.788,206.414"/>
	<path fill="#1676BB" d="M151.788,125.501h66.245c0.276,0,0.5-0.224,0.5-0.5s-0.224-0.5-0.5-0.5h-66.245c-0.276,0-0.5,0.224-0.5,0.5
		S151.511,125.501,151.788,125.501"/>
	<path fill="#1676BB" d="M151.788,132.084h66.245c0.276,0,0.5-0.224,0.5-0.5s-0.224-0.5-0.5-0.5h-66.245c-0.276,0-0.5,0.224-0.5,0.5
		S151.511,132.084,151.788,132.084"/>
	<path fill="#1676BB" d="M151.788,138.664h66.245c0.276,0,0.5-0.224,0.5-0.5s-0.224-0.5-0.5-0.5h-66.245c-0.276,0-0.5,0.224-0.5,0.5
		S151.511,138.664,151.788,138.664"/>
	<path fill="#1676BB" d="M151.788,145.244h66.245c0.276,0,0.5-0.224,0.5-0.5s-0.224-0.5-0.5-0.5h-66.245c-0.276,0-0.5,0.224-0.5,0.5
		S151.511,145.244,151.788,145.244"/>
	<path fill="#1676BB" d="M151.788,151.826h66.245c0.276,0,0.5-0.224,0.5-0.5s-0.224-0.5-0.5-0.5h-66.245c-0.276,0-0.5,0.224-0.5,0.5
		S151.511,151.826,151.788,151.826"/>
	<path fill="#1676BB" d="M151.788,70.913h66.245c0.276,0,0.5-0.224,0.5-0.5s-0.224-0.5-0.5-0.5h-66.245c-0.276,0-0.5,0.224-0.5,0.5
		S151.511,70.913,151.788,70.913"/>
	<path fill="#1676BB" d="M151.788,77.495h66.245c0.276,0,0.5-0.224,0.5-0.5c0-0.276-0.224-0.5-0.5-0.5h-66.245
		c-0.276,0-0.5,0.224-0.5,0.5C151.288,77.271,151.511,77.495,151.788,77.495"/>
	<path fill="#1676BB" d="M151.788,84.076h66.245c0.276,0,0.5-0.224,0.5-0.5c0-0.276-0.224-0.5-0.5-0.5h-66.245
		c-0.276,0-0.5,0.224-0.5,0.5C151.288,83.852,151.511,84.076,151.788,84.076"/>
	<path fill="#1676BB" d="M151.788,90.656h66.245c0.276,0,0.5-0.224,0.5-0.5s-0.224-0.5-0.5-0.5h-66.245c-0.276,0-0.5,0.224-0.5,0.5
		S151.511,90.656,151.788,90.656"/>
	<path fill="#1676BB" d="M151.788,97.237h66.245c0.276,0,0.5-0.224,0.5-0.5s-0.224-0.5-0.5-0.5h-66.245c-0.276,0-0.5,0.224-0.5,0.5
		S151.511,97.237,151.788,97.237"/>
	<path fill="#1676BB" d="M284.456,81.626h-2.5c-0.001,2.646-1.065,5.018-2.798,6.754c-1.736,1.732-4.107,2.796-6.753,2.797
		c-2.646-0.001-5.018-1.065-6.754-2.797c-1.731-1.736-2.796-4.108-2.797-6.754c0.001-2.646,1.064-5.017,2.797-6.753
		c1.736-1.732,4.108-2.796,6.754-2.797c2.646,0.001,5.017,1.065,6.753,2.797c1.732,1.736,2.797,4.108,2.798,6.753H284.456h2.5
		c-0.002-8.037-6.514-14.549-14.551-14.551c-8.038,0.001-14.549,6.514-14.551,14.551c0.002,8.037,6.513,14.55,14.551,14.551
		c8.037-0.001,14.549-6.514,14.551-14.551H284.456z"/>
	<path fill="#1676BB" d="M284.456,137.73h-2.5c-0.001,2.646-1.065,5.018-2.798,6.754c-1.735,1.731-4.107,2.796-6.753,2.797
		c-2.646-0.001-5.018-1.065-6.754-2.797c-1.732-1.736-2.796-4.108-2.797-6.754c0.001-2.646,1.064-5.018,2.797-6.754
		c1.736-1.731,4.108-2.795,6.754-2.797c2.646,0.001,5.017,1.065,6.753,2.798c1.732,1.736,2.797,4.107,2.798,6.753H284.456h2.5
		c-0.002-8.037-6.514-14.549-14.551-14.551c-8.038,0.001-14.549,6.514-14.551,14.551c0.001,8.038,6.513,14.55,14.551,14.551
		c8.037-0.002,14.549-6.513,14.551-14.551H284.456z"/>
	<path fill="#1676BB" d="M284.456,192.537h-2.5c-0.001,2.646-1.065,5.018-2.798,6.754c-1.735,1.731-4.107,2.796-6.753,2.797
		c-2.646-0.001-5.018-1.065-6.754-2.797c-1.732-1.736-2.796-4.108-2.797-6.754c0.001-2.646,1.065-5.018,2.797-6.754
		c1.736-1.731,4.108-2.796,6.754-2.797c2.646,0.001,5.018,1.065,6.753,2.797c1.732,1.736,2.797,4.108,2.798,6.754H284.456h2.5
		c-0.002-8.038-6.514-14.549-14.551-14.551c-8.038,0.001-14.55,6.513-14.551,14.551c0.001,8.038,6.513,14.55,14.551,14.551
		c8.037-0.002,14.549-6.513,14.551-14.551H284.456z"/>
	<circle fill="#2FA2CD" cx="272.405" cy="81.626" r="7.08"/>
	<circle fill="#2FA2CD" cx="272.405" cy="192.537" r="7.08"/>
	<polyline fill="#2FA2CD" points="110.604,133.065 80.863,133.065 87.623,113.727 103.844,113.727 110.604,133.065 	"/>
	<polyline fill="#1676BB" points="108.501,124.662 82.965,124.662 85.025,119.398 106.442,119.398 108.501,124.662 	"/>
	<polyline fill="#1676BB" points="109.551,138.32 104.596,138.744 109.095,140.619 107.567,148.287 101.643,149.278 
		107.205,150.119 106.776,152.266 84.694,152.266 82.95,143.533 88.279,143.477 82.583,141.682 80.861,133.063 110.602,133.063 
		109.551,138.32 	"/>
	<polyline fill="#115D96" points="108.501,124.662 108.091,126.643 107.315,124.662 108.501,124.662 	"/>
	<polyline fill="#115D96" points="82.965,124.662 83.375,126.643 84.151,124.662 82.965,124.662 	"/>
	<polyline fill="#1676BB" points="109.912,210.744 81.422,210.744 80.04,208.97 111.294,208.97 109.912,210.744 	"/>
	<path fill="#2FA2CD" d="M108.737,192.643l2.582,16.16v0.002c0,0.301-0.351,0.549-0.778,0.549H80.774
		c-0.428,0-0.776-0.248-0.778-0.549v-0.002l2.581-16.16c0-0.305,0.35-0.551,0.778-0.551h24.604
		C108.388,192.092,108.737,192.338,108.737,192.643"/>
	<polyline fill="#1676BB" points="109.843,208.043 81.49,208.043 80.116,206.277 111.219,206.277 109.843,208.043 	"/>
	<path fill="#2FA2CD" d="M108.674,190.029l2.569,16.082v0.001c-0.001,0.3-0.35,0.546-0.775,0.546H80.846
		c-0.425,0-0.771-0.246-0.774-0.546v-0.001l2.567-16.082c0-0.303,0.348-0.549,0.775-0.549H107.9
		C108.325,189.48,108.674,189.727,108.674,190.029"/>
	<polyline fill="#1676BB" points="109.843,205.484 81.49,205.484 80.116,203.718 111.219,203.718 109.843,205.484 	"/>
	<path fill="#2FA2CD" d="M108.656,187.584l2.563,16.043v0.001c-0.001,0.302-0.35,0.546-0.772,0.546h-29.56
		c-0.424,0-0.77-0.244-0.771-0.546v-0.001l2.562-16.043c0-0.302,0.347-0.548,0.773-0.548h24.433
		C108.308,187.036,108.656,187.282,108.656,187.584"/>
	<path fill="#1676BB" d="M115.304,189.615l0.013,0.01H75.91v-0.01c-0.248,0.01-0.455-0.074-0.565-0.242
		c-0.11-0.126-0.151-0.316-0.138-0.549l1.638-14.385c0.055-0.77,0.756-1.792,1.554-2.266l15.819-10.213
		c0.454-0.273,1.059-0.389,1.649-0.357c0.454,0.031,0.896,0.148,1.252,0.357l15.818,10.213c0.798,0.474,1.485,1.496,1.541,2.266
		l1.637,14.385C116.156,189.404,115.826,189.689,115.304,189.615"/>
	<path fill="#1676BB" d="M114.086,189.763v0.122c-0.001,0.436-0.357,0.789-0.791,0.789H78.037c-0.435,0-0.79-0.354-0.792-0.789
		v-0.122c0-0.435,0.355-0.79,0.792-0.79h35.259C113.731,188.973,114.086,189.328,114.086,189.763"/>
	<path fill="#1676BB" d="M86.717,202.996h-2.939c-0.232,0-0.42-0.139-0.42-0.31l-2.646-12.761c0-0.172,0.189-0.312,0.421-0.312
		h4.261c0.232,0,0.421,0.14,0.421,0.312l1.322,12.761C87.137,202.857,86.948,202.996,86.717,202.996"/>
	<path fill="#1676BB" d="M93.224,202.996h-2.938h-0.001c-0.23,0-0.421-0.139-0.421-0.31l-1.322-12.761
		c0-0.172,0.189-0.312,0.421-0.312h0.001h4.261c0.232,0,0.421,0.14,0.421,0.312v12.761
		C93.645,202.857,93.456,202.996,93.224,202.996"/>
	<path fill="#1676BB" d="M104.617,202.996h2.938c0.232,0,0.421-0.139,0.421-0.31l2.646-12.761c0-0.172-0.189-0.312-0.42-0.312
		h-0.002h-4.261c-0.232,0-0.42,0.14-0.42,0.312l-1.322,12.761C104.195,202.857,104.384,202.996,104.617,202.996"/>
	<path fill="#1676BB" d="M97.449,202.996h2.938h0.001c0.23,0,0.42-0.139,0.42-0.31l1.323-12.761c0-0.172-0.188-0.312-0.42-0.312
		h-0.001h-4.261c-0.231,0-0.42,0.14-0.42,0.312v12.761C97.029,202.857,97.218,202.996,97.449,202.996"/>
	<path fill="#2FA2CD" d="M95.867,161.604l-0.206,17.168l-20.316,10.602c-0.11-0.126-0.151-0.316-0.138-0.549l1.638-14.385
		c0.055-0.77,0.756-1.792,1.554-2.266l15.819-10.213C94.672,161.688,95.276,161.572,95.867,161.604"/>
	<path fill="#2FA2CD" d="M99.698,102.358l-2.827-3.674v-4.27l4.67-6.106c0,0,1.953,7.278,1.953,7.533S99.698,102.358,99.698,102.358
		"/>
	<path fill="#1676BB" d="M110.012,81.649L97.12,70.804c-0.356-0.29-0.804-0.439-1.269-0.439h-0.008c-0.464,0-0.92,0.141-1.285,0.439
		L81.683,81.649c-0.697,0.597-1.202,1.782-1.136,2.636l0.174,1.783v0.008l1.244,14.724c0.083,0.871,0.945,1.559,1.907,1.559h8.49
		v-6.773c0-0.647,0.597-1.169,1.326-1.169h4.684c0.729,0,1.327,0.522,1.327,1.169v6.773h8.125c0.97,0,1.833-0.688,1.907-1.559
		l1.26-14.956l0.149-1.559C111.222,83.431,110.716,82.246,110.012,81.649 M89.111,91.837H85.38c-0.29,0-0.53-0.24-0.53-0.539
		l-0.365-4.361c0-0.299,0.232-0.539,0.531-0.539h3.987c0.298,0,0.539,0.24,0.539,0.539l0.1,4.361
		C89.642,91.597,89.402,91.837,89.111,91.837"/>
	<path fill="#1676BB" d="M115.767,87.417c0.053,0.858-0.547,1.149-1.332,0.639l-16.973-10.91c-0.442-0.28-1.038-0.404-1.616-0.374
		c-0.453,0.027-0.895,0.151-1.242,0.374l-16.975,10.91c-0.79,0.51-1.391,0.219-1.338-0.639L78.7,71.435
		c0.052-0.853,0.724-1.985,1.49-2.51l14.442-11.357c0.336-0.228,0.76-0.358,1.202-0.389c0.566-0.037,1.16,0.094,1.591,0.389
		l14.442,11.357c0.767,0.525,1.438,1.658,1.491,2.51L115.767,87.417"/>
	<path fill="#2FA2CD" d="M95.845,57.188v19.584c-0.453,0.027-0.895,0.151-1.242,0.374l-16.975,10.91
		c-0.79,0.51-1.391,0.219-1.338-0.639L78.7,71.435c0.052-0.853,0.724-1.985,1.49-2.51l14.442-11.357
		c0.336-0.228,0.76-0.358,1.202-0.389L95.845,57.188"/>
	<polyline fill="#2FA2CD" points="102.984,64.208 105.524,58.732 106.168,61.619 102.984,69.43 102.984,64.208 	"/>
	<polyline fill="#1676BB" points="109.947,60.175 105.524,58.732 106.168,61.619 102.984,69.43 108.264,72.743 110.668,62.637 
		109.947,60.175 	"/>
	<polyline fill="#2FA2CD" points="109.947,60.175 108.842,62.086 110.668,62.637 109.947,60.175 	"/>
	<path fill="#EEEFF0" d="M31.792,225.8h-1.038v8.391v0.021c0.01,4.819,3.95,8.76,8.78,8.76h1.038c-4.83,0-8.77-3.94-8.78-8.76
		v-0.021V225.8"/>
	<polyline fill="#1669A8" points="31.792,215.664 30.755,215.664 30.755,225.8 31.792,225.8 31.792,215.664 	"/>
	<path fill="#D8DADB" d="M99.64,26.351H48.755c-9.92,0-18,8.07-18,18v171.313h1.038V44.351c0-9.93,8.08-18,18-18H99.64L99.64,26.351
		"/>
	<path fill="#176FB0" d="M183.875,26.351H99.64H49.792c-9.92,0-18,8.07-18,18v171.313V225.8v8.391v0.021
		c0.01,4.819,3.95,8.76,8.78,8.76h143.303v-10.137H45.52c-1.65,0-3-1.35-3-3v-66.92l0.01-0.096V47.271l-0.01,0.915V44.19
		c0-4.543,3.703-8.254,8.253-8.254h10.68h38.92h10.68l0,0h51.874l0,0h20.947V26.351"/>
	<path fill="#0088BA" d="M183.875,35.936h-20.947c4.549,0,8.257,3.716,8.257,8.257v3.517h12.69V35.936"/>
	<path fill="#2E9AC3" d="M162.928,35.936h-51.874c4.551,0,8.254,3.711,8.254,8.254v3.521h51.877v-3.517
		C171.185,39.652,167.478,35.936,162.928,35.936L162.928,35.936L162.928,35.936"/>
	<path fill="#E4E5E6" d="M75.205,188.898c0-0.023,0-0.049,0.002-0.074l1.638-14.385c0.055-0.77,0.756-1.792,1.554-2.266
		l15.819-10.213c0.406-0.244,0.932-0.362,1.461-0.362c0.063,0,0.126,0.002,0.188,0.005l0,0l0,0c0.454,0.031,0.896,0.148,1.252,0.357
		l15.818,10.213c0.798,0.474,1.485,1.496,1.541,2.266l1.637,14.385c0.037,0.52-0.224,0.803-0.654,0.803
		c-0.05,0-0.102-0.004-0.157-0.012l0.013,0.01h-1.243c0.008,0.045,0.012,0.091,0.012,0.138v0.122
		c-0.001,0.436-0.357,0.789-0.791,0.789h-2.83l-0.744,3.587l1.497,9.366v0.001c0,0.03-0.004,0.061-0.011,0.09h0.011l-0.017,0.021
		c-0.032,0.107-0.109,0.204-0.217,0.278l-0.064,0.082l0.321,2.012v0.001c0,0.058-0.013,0.113-0.037,0.165h0.013l-0.043,0.056
		c-0.017,0.027-0.037,0.053-0.06,0.077l-0.148,0.19l0.352,2.202v0.002c0,0.058-0.013,0.113-0.037,0.165h0.012l-0.038,0.048
		c-0.02,0.034-0.045,0.065-0.074,0.096l-1.271,1.631h-28.49l-1.226-1.574c-0.124-0.098-0.199-0.226-0.2-0.365v-0.002l0.355-2.223
		l-0.083-0.106c-0.121-0.097-0.195-0.224-0.196-0.361v-0.001l0.325-2.032l-0.046-0.06c-0.109-0.075-0.187-0.172-0.219-0.281
		l-0.016-0.021h0.011c-0.007-0.029-0.011-0.06-0.011-0.09v-0.001l1.495-9.364l-0.744-3.589h-2.831c-0.435,0-0.79-0.354-0.792-0.789
		v-0.122c0-0.047,0.004-0.093,0.012-0.138H75.91v-0.01c-0.013,0-0.026,0.001-0.039,0.001c-0.231,0-0.422-0.084-0.526-0.243
		C75.248,189.261,75.204,189.098,75.205,188.898 M85.64,119.398l1.982-5.671h16.222l1.982,5.671h0.616l2.059,5.263l-0.311,1.5
		l2.413,6.904h-0.002l-1.05,5.255l-4.955,0.424l4.499,1.875l-1.528,7.668l-5.925,0.991l5.562,0.841l-0.429,2.146H84.694
		l-1.744-8.732l5.329-0.057l-5.696-1.795l-1.722-8.619h0.002l2.412-6.9l-0.311-1.5l2.06-5.263H85.64 M95.834,57.178
		c0.063-0.004,0.125-0.006,0.188-0.006c0.507,0,1.02,0.133,1.402,0.396l6.33,4.978l1.769-3.813l0.645,2.886l-0.645-2.886
		l4.423,1.443l0.722,2.462l-1.071,4.502l2.27,1.785c0.767,0.525,1.438,1.658,1.491,2.51l2.409,15.982
		c0.035,0.571-0.219,0.891-0.624,0.891c-0.204,0-0.446-0.081-0.708-0.251l-3.444-2.214v0.001l-1.26,14.956
		c-0.075,0.871-0.937,1.559-1.907,1.559h-8.125v0c0,0,0,0,0,0l-2.827-3.674v-4.268h-3.183c-0.729,0-1.326,0.522-1.326,1.169v6.773
		h-8.49c-0.962,0-1.824-0.688-1.907-1.559l-1.244-14.724v-0.007l-3.093,1.988c-0.264,0.17-0.508,0.251-0.712,0.251
		c-0.381,0-0.628-0.281-0.629-0.787c0-0.034,0.001-0.068,0.003-0.104L78.7,71.435c0.052-0.853,0.724-1.985,1.49-2.51l14.442-11.357
		C94.968,57.339,95.393,57.209,95.834,57.178L95.834,57.178 M111.054,35.936h-10.68h-38.92h-10.68c-4.551,0-8.253,3.711-8.253,8.254
		v3.997l0.01-0.915v115.547l-0.01,0.096v66.92c0,1.65,1.35,3,3,3h138.355v-26.42h-32.088c-0.276,0-0.5-0.224-0.5-0.5
		s0.224-0.5,0.5-0.5h32.088v-5.581h-32.088c-0.276,0-0.5-0.224-0.5-0.5s0.224-0.5,0.5-0.5h32.088v-5.581h-32.088
		c-0.276,0-0.5-0.224-0.5-0.5s0.224-0.5,0.5-0.5h32.088v-5.58h-32.088c-0.276,0-0.5-0.224-0.5-0.5s0.224-0.5,0.5-0.5h32.088v-5.582
		h-32.088c-0.276,0-0.5-0.224-0.5-0.5s0.224-0.5,0.5-0.5h32.088v-27.264h-32.088c-0.276,0-0.5-0.224-0.5-0.5s0.224-0.5,0.5-0.5
		h32.088v-5.582h-32.088c-0.276,0-0.5-0.224-0.5-0.5s0.224-0.5,0.5-0.5h32.088v-5.58h-32.088c-0.276,0-0.5-0.224-0.5-0.5
		s0.224-0.5,0.5-0.5h32.088v-5.58h-32.088c-0.276,0-0.5-0.224-0.5-0.5s0.224-0.5,0.5-0.5h32.088v-5.583h-32.088
		c-0.276,0-0.5-0.224-0.5-0.5s0.224-0.5,0.5-0.5h32.088V97.237h-32.088c-0.276,0-0.5-0.224-0.5-0.5s0.224-0.5,0.5-0.5h32.088v-5.582
		h-32.088c-0.276,0-0.5-0.224-0.5-0.5s0.224-0.5,0.5-0.5h32.088v-5.58h-32.088c-0.276,0-0.5-0.224-0.5-0.5
		c0-0.276,0.224-0.5,0.5-0.5h32.088v-5.581h-32.088c-0.276,0-0.5-0.224-0.5-0.5c0-0.276,0.224-0.5,0.5-0.5h32.088v-5.582h-32.088
		c-0.276,0-0.5-0.224-0.5-0.5s0.224-0.5,0.5-0.5h32.088V47.71h-12.69h-51.877V44.19C119.308,39.647,115.605,35.936,111.054,35.936
		L111.054,35.936"/>
	<path fill="#176FB0" d="M183.875,179.09h-32.088c-0.276,0-0.5,0.224-0.5,0.5s0.224,0.5,0.5,0.5h32.088V179.09"/>
	<path fill="#176FB0" d="M183.875,185.672h-32.088c-0.276,0-0.5,0.224-0.5,0.5s0.224,0.5,0.5,0.5h32.088V185.672"/>
	<path fill="#176FB0" d="M183.875,192.252h-32.088c-0.276,0-0.5,0.224-0.5,0.5s0.224,0.5,0.5,0.5h32.088V192.252"/>
	<path fill="#176FB0" d="M183.875,198.833h-32.088c-0.276,0-0.5,0.224-0.5,0.5s0.224,0.5,0.5,0.5h32.088V198.833"/>
	<path fill="#176FB0" d="M183.875,205.414h-32.088c-0.276,0-0.5,0.224-0.5,0.5s0.224,0.5,0.5,0.5h32.088V205.414"/>
	<path fill="#176FB0" d="M183.875,124.501h-32.088c-0.276,0-0.5,0.224-0.5,0.5s0.224,0.5,0.5,0.5h32.088V124.501"/>
	<path fill="#176FB0" d="M183.875,131.084h-32.088c-0.276,0-0.5,0.224-0.5,0.5s0.224,0.5,0.5,0.5h32.088V131.084"/>
	<path fill="#176FB0" d="M183.875,137.664h-32.088c-0.276,0-0.5,0.224-0.5,0.5s0.224,0.5,0.5,0.5h32.088V137.664"/>
	<path fill="#176FB0" d="M183.875,144.244h-32.088c-0.276,0-0.5,0.224-0.5,0.5s0.224,0.5,0.5,0.5h32.088V144.244"/>
	<path fill="#176FB0" d="M183.875,150.826h-32.088c-0.276,0-0.5,0.224-0.5,0.5s0.224,0.5,0.5,0.5h32.088V150.826"/>
	<path fill="#176FB0" d="M183.875,69.913h-32.088c-0.276,0-0.5,0.224-0.5,0.5s0.224,0.5,0.5,0.5h32.088V69.913"/>
	<path fill="#176FB0" d="M183.875,76.495h-32.088c-0.276,0-0.5,0.224-0.5,0.5c0,0.276,0.224,0.5,0.5,0.5h32.088V76.495"/>
	<path fill="#176FB0" d="M183.875,83.076h-32.088c-0.276,0-0.5,0.224-0.5,0.5c0,0.276,0.224,0.5,0.5,0.5h32.088V83.076"/>
	<path fill="#176FB0" d="M183.875,89.656h-32.088c-0.276,0-0.5,0.224-0.5,0.5s0.224,0.5,0.5,0.5h32.088V89.656"/>
	<path fill="#176FB0" d="M183.875,96.237h-32.088c-0.276,0-0.5,0.224-0.5,0.5s0.224,0.5,0.5,0.5h32.088V96.237"/>
	<path fill="#2E9AC3" d="M107.315,124.662H84.151l-0.776,1.981l-0.1-0.48l-2.412,6.9h29.738l0,0.003h0.002l-2.413-6.904l-0.1,0.481
		L107.315,124.662 M103.844,113.727H87.623l-1.982,5.671h20.187L103.844,113.727"/>
	<polyline fill="#176FB0" points="106.442,119.398 105.827,119.398 85.64,119.398 85.025,119.398 82.965,124.662 84.151,124.662 
		107.315,124.662 108.501,124.662 106.442,119.398 	"/>
	<polyline fill="#176FB0" points="110.602,133.063 80.864,133.063 80.861,133.063 82.583,141.682 88.279,143.477 82.95,143.533 
		84.694,152.266 106.776,152.266 107.205,150.119 101.643,149.278 107.567,148.287 109.095,140.619 104.596,138.744 109.551,138.32 
		110.601,133.065 110.602,133.063 	"/>
	<polyline fill="#10588F" points="108.501,124.662 108.501,124.662 107.315,124.662 108.091,126.643 108.19,126.162 
		108.501,124.662 	"/>
	<polyline fill="#10588F" points="84.151,124.662 82.965,124.662 83.276,126.162 83.375,126.643 84.151,124.662 	"/>
	<path fill="#176FB0" d="M111.183,209.113c-0.141,0.145-0.376,0.24-0.642,0.24H80.774c-0.229,0-0.436-0.071-0.579-0.184l1.226,1.574
		h28.49L111.183,209.113 M111.294,208.97h-0.012c-0.007,0.017-0.016,0.032-0.025,0.048L111.294,208.97"/>
	<path fill="#2E9AC3" d="M80.351,206.58l-0.355,2.223v0.002c0.001,0.14,0.076,0.268,0.2,0.365c0.143,0.112,0.349,0.184,0.579,0.184
		h29.766c0.266,0,0.501-0.096,0.642-0.24c0.029-0.03,0.054-0.062,0.074-0.096c0.01-0.016,0.018-0.031,0.025-0.048
		c0.024-0.052,0.037-0.107,0.037-0.165v-0.002l-0.352-2.202l-1.124,1.442H81.49L80.351,206.58"/>
	<path fill="#176FB0" d="M111.115,206.41c-0.139,0.149-0.378,0.248-0.647,0.248H80.846c-0.229,0-0.436-0.071-0.578-0.185
		l0.083,0.106l1.139,1.463h28.353l1.124-1.442L111.115,206.41 M111.219,206.277h-0.013c-0.009,0.02-0.019,0.038-0.03,0.056
		L111.219,206.277"/>
	<path fill="#2E9AC3" d="M80.397,204.079l-0.325,2.032v0.001c0.001,0.138,0.075,0.265,0.196,0.361
		c0.142,0.113,0.348,0.185,0.578,0.185h29.622c0.269,0,0.508-0.099,0.647-0.248c0.023-0.024,0.043-0.05,0.06-0.077
		c0.012-0.018,0.021-0.036,0.03-0.056c0.024-0.052,0.037-0.107,0.037-0.165v-0.001l-0.321-2.012l-1.078,1.385H81.49L80.397,204.079"
		/>
	<path fill="#176FB0" d="M110.985,204.018c-0.14,0.097-0.331,0.156-0.539,0.156h-29.56c-0.208,0-0.397-0.059-0.536-0.154l0.046,0.06
		l1.093,1.405h28.353l1.078-1.385L110.985,204.018 M80.126,203.718h-0.011l0.016,0.021C80.13,203.731,80.128,203.725,80.126,203.718
		 M111.219,203.718h-0.011c-0.002,0.007-0.004,0.015-0.006,0.021L111.219,203.718"/>
	<path fill="#2E9AC3" d="M105.44,190.674h-3.386l-1.246,12.013c0,0.171-0.189,0.31-0.42,0.31h-0.001h-2.938
		c-0.231,0-0.42-0.139-0.42-0.31v-12.013h-3.384v12.013c0,0.171-0.188,0.31-0.421,0.31h-2.938h-0.001
		c-0.23,0-0.421-0.139-0.421-0.31l-1.245-12.013h-2.726l1.244,12.013c0,0.171-0.189,0.31-0.42,0.31h-2.939
		c-0.232,0-0.42-0.139-0.42-0.31l-1.747-8.424l-1.495,9.364v0.001c0,0.03,0.004,0.061,0.011,0.09
		c0.001,0.007,0.003,0.014,0.005,0.021c0.032,0.109,0.11,0.206,0.219,0.281c0.139,0.096,0.328,0.154,0.536,0.154h29.56
		c0.208,0,0.399-0.06,0.539-0.156c0.107-0.074,0.185-0.171,0.217-0.278c0.002-0.007,0.004-0.015,0.006-0.021
		c0.007-0.029,0.011-0.06,0.011-0.09v-0.001l-1.497-9.366l-1.747,8.426c0,0.171-0.188,0.31-0.421,0.31h-2.938
		c-0.232,0-0.421-0.139-0.421-0.31L105.44,190.674"/>
	<path fill="#176FB0" d="M95.867,161.604l-0.206,17.168l-20.316,10.602c-0.098-0.112-0.141-0.275-0.14-0.475
		c-0.001,0.199,0.042,0.362,0.14,0.475c0.104,0.159,0.295,0.243,0.526,0.243c0.013,0,0.025-0.001,0.039-0.001v0.01h1.347
		c0.065-0.369,0.39-0.652,0.779-0.652h35.259c0.388,0,0.713,0.283,0.778,0.652h1.243l-0.013-0.01
		c0.055,0.008,0.107,0.012,0.157,0.012c0.431,0,0.691-0.283,0.654-0.803l-1.637-14.385c-0.055-0.77-0.743-1.792-1.541-2.266
		l-15.818-10.213C96.763,161.752,96.321,161.635,95.867,161.604L95.867,161.604"/>
	<path fill="#176FB0" d="M113.296,188.973H78.037c-0.389,0-0.714,0.283-0.779,0.652c-0.008,0.045-0.012,0.091-0.012,0.138v0.122
		c0.002,0.436,0.357,0.789,0.792,0.789h2.831l-0.155-0.748c0-0.172,0.189-0.312,0.421-0.312h4.261c0.232,0,0.421,0.14,0.421,0.312
		l0.078,0.748h2.726l-0.078-0.748c0-0.172,0.189-0.312,0.421-0.312h0.001h4.261c0.232,0,0.421,0.14,0.421,0.312v0.748h3.384v-0.748
		c0-0.172,0.189-0.312,0.42-0.312h4.261h0.001c0.232,0,0.42,0.14,0.42,0.312l-0.078,0.748h3.386l0.078-0.748
		c0-0.172,0.188-0.312,0.42-0.312h4.261h0.002c0.23,0,0.42,0.14,0.42,0.312l-0.155,0.748h2.83c0.434,0,0.789-0.354,0.791-0.789
		v-0.122c0-0.047-0.004-0.093-0.012-0.138C114.009,189.256,113.684,188.973,113.296,188.973"/>
	<path fill="#176FB0" d="M85.394,189.614h-4.261c-0.232,0-0.421,0.14-0.421,0.312l0.155,0.748l0.744,3.589l1.747,8.424
		c0,0.171,0.188,0.31,0.42,0.31h2.939c0.231,0,0.42-0.139,0.42-0.31l-1.244-12.013l-0.078-0.748
		C85.815,189.754,85.626,189.614,85.394,189.614"/>
	<path fill="#E4E5E6" d="M89.003,86.399h-3.987c-0.299,0-0.531,0.24-0.531,0.539l0.365,4.361c0,0.298,0.24,0.539,0.53,0.539h3.731
		c0.291,0,0.531-0.24,0.531-0.539l-0.1-4.361C89.542,86.639,89.302,86.399,89.003,86.399"/>
	<path fill="#176FB0" d="M93.224,189.614h-4.261h-0.001c-0.232,0-0.421,0.14-0.421,0.312l0.078,0.748l1.245,12.013
		c0,0.171,0.19,0.31,0.421,0.31h0.001h2.938c0.232,0,0.421-0.139,0.421-0.31v-12.013v-0.748
		C93.645,189.754,93.456,189.614,93.224,189.614"/>
	<path fill="#176FB0" d="M110.201,189.614h-0.002h-4.261c-0.232,0-0.42,0.14-0.42,0.312l-0.078,0.748l-1.245,12.013
		c0,0.171,0.189,0.31,0.421,0.31h2.938c0.232,0,0.421-0.139,0.421-0.31l1.747-8.426l0.744-3.587l0.155-0.748
		C110.621,189.754,110.432,189.614,110.201,189.614"/>
	<path fill="#176FB0" d="M101.711,189.614h-0.001h-4.261c-0.231,0-0.42,0.14-0.42,0.312v0.748v12.013c0,0.171,0.189,0.31,0.42,0.31
		h2.938h0.001c0.23,0,0.42-0.139,0.42-0.31l1.246-12.013l0.078-0.748C102.132,189.754,101.943,189.614,101.711,189.614"/>
	<path fill="#2E9AC3" d="M95.679,161.599c-0.529,0-1.055,0.118-1.461,0.362l-15.819,10.213c-0.797,0.474-1.499,1.496-1.554,2.266
		l-1.638,14.385c-0.001,0.025-0.002,0.051-0.002,0.074c-0.001,0.199,0.042,0.362,0.14,0.475l20.316-10.602l0.206-17.168
		C95.805,161.601,95.742,161.599,95.679,161.599"/>
	<path fill="#2E9AC3" d="M98.372,94.416h-1.501v4.268l2.827,3.674c0,0,0,0,0,0v-6.772C99.698,94.938,99.101,94.416,98.372,94.416"/>
	<path fill="#176FB0" d="M85.38,91.837c-0.29,0-0.53-0.24-0.53-0.539l-0.365-4.361c0-0.299,0.232-0.539,0.531-0.539h3.987
		c0.298,0,0.539,0.24,0.539,0.539l0.1,4.361c0,0.298-0.24,0.539-0.531,0.539H85.38 M96.018,76.768c-0.058,0-0.115,0.001-0.172,0.004
		c-0.453,0.027-0.895,0.151-1.242,0.374l-13.882,8.922v0.007l1.244,14.724c0.083,0.871,0.945,1.559,1.907,1.559h8.49v-6.773
		c0-0.647,0.597-1.169,1.326-1.169h3.183h1.501c0.729,0,1.327,0.522,1.327,1.169v6.772v0h8.125c0.97,0,1.833-0.688,1.907-1.559
		l1.26-14.956v-0.001l-13.529-8.696C97.063,76.894,96.54,76.768,96.018,76.768"/>
	<path fill="#176FB0" d="M96.023,57.172c-0.063,0-0.126,0.002-0.188,0.006l0.011,0.01v19.584c-0.453,0.027-0.895,0.151-1.242,0.374
		l-16.975,10.91c-0.264,0.17-0.508,0.251-0.712,0.251c-0.381,0-0.628-0.281-0.629-0.787c0,0.505,0.248,0.787,0.629,0.787
		c0.205,0,0.448-0.081,0.712-0.251l3.093-1.988l13.882-8.922c0.348-0.222,0.79-0.347,1.242-0.374
		c0.057-0.003,0.115-0.004,0.172-0.004c0.522,0,1.045,0.126,1.444,0.378l13.529,8.696l3.444,2.214
		c0.263,0.17,0.504,0.251,0.708,0.251c0.405,0,0.659-0.32,0.624-0.891l-2.409-15.982c-0.053-0.853-0.724-1.985-1.491-2.51
		l-2.27-1.785l-1.333,5.604l-5.28-3.313v-5.221l0.771-1.663l-6.33-4.978C97.042,57.305,96.53,57.172,96.023,57.172"/>
	<path fill="#2E9AC3" d="M95.834,57.178c-0.442,0.031-0.866,0.161-1.202,0.389L80.19,68.925c-0.766,0.525-1.438,1.658-1.49,2.51
		l-2.409,15.982c-0.002,0.036-0.003,0.07-0.003,0.104c0,0.505,0.248,0.787,0.629,0.787c0.205,0,0.448-0.081,0.712-0.251
		l16.975-10.91c0.348-0.222,0.79-0.347,1.242-0.374V57.188L95.834,57.178"/>
	<polyline fill="#2E9AC3" points="105.524,58.732 103.755,62.545 102.984,64.208 102.984,69.43 106.168,61.619 105.524,58.732 	"/>
	<polyline fill="#176FB0" points="105.524,58.732 106.168,61.619 102.984,69.43 108.264,72.743 109.597,67.14 110.668,62.637 
		108.842,62.086 109.947,60.175 105.524,58.732 	"/>
	<polyline fill="#2E9AC3" points="109.947,60.175 109.947,60.175 108.842,62.086 110.668,62.637 109.947,60.175 	"/>
</g>
</svg>
