<svg xmlns="http://www.w3.org/2000/svg" version="1.1" id="Layer_1" x="0px" y="0px" width="321.211px" height="252.525px" viewBox="0 0 321.211 252.525" enable-background="new 0 0 321.211 252.525" xml:space="preserve"><metadata><sfw xmlns="http://ns.adobe.com/SaveForWeb/1.0/"><sliceSourceBounds y="-406.679" x="269.629" width="303.397" height="216.62" bottomLeftOrigin="true"/></sfw></metadata><path fill="#1676BB" d="M313.4 38.18V228.02v0.021c-0.01 4.819-3.96 8.76-8.77 8.76H19.82c-4.83 0-8.77-3.94-8.78-8.76v-0.021V38.18c0-9.93 8.08-18 18-18H295.4C305.33 20.18 313.4 28.25 313.4 38.18"/><path fill="#008EC3" d="M191.1 29.766h-27.978V41.54h36.233v-3.517C199.356 33.482 195.649 29.766 191.1 29.766"/><path fill="#2FA2CD" d="M150.433 38.023v3.524H73.638v-3.524c0-4.541 3.707-8.257 8.256-8.257h60.281C146.725 29.766 150.433 33.482 150.433 38.023"/><path fill="#F4F4F4" d="M301.061 35.457l-1.451-1.451 1.455-1.454c0.26-0.261 0.26-0.684 0-0.944 -0.262-0.26-0.684-0.261-0.943 0l-1.455 1.454 -1.449-1.451c-0.26-0.26-0.684-0.26-0.943 0.001 -0.261 0.26-0.261 0.682 0 0.942l1.451 1.451 -1.455 1.454c-0.26 0.262-0.26 0.683 0 0.944 0.261 0.26 0.684 0.26 0.943 0l1.453-1.454 1.451 1.45c0.261 0.26 0.684 0.26 0.943 0C301.323 36.14 301.323 35.717 301.061 35.457z"/><path fill="#1676BB" d="M117.035 67.713h66.245c0.276 0 0.5-0.224 0.5-0.5 0-0.276-0.224-0.5-0.5-0.5h-66.245c-0.276 0-0.5 0.224-0.5 0.5C116.535 67.489 116.759 67.713 117.035 67.713"/><path fill="#1676BB" d="M117.035 74.294h66.245c0.276 0 0.5-0.224 0.5-0.5 0-0.276-0.224-0.5-0.5-0.5h-66.245c-0.276 0-0.5 0.224-0.5 0.5C116.535 74.07 116.759 74.294 117.035 74.294"/><path fill="#1676BB" d="M117.035 80.874h66.245c0.276 0 0.5-0.224 0.5-0.5 0-0.276-0.224-0.5-0.5-0.5h-66.245c-0.276 0-0.5 0.224-0.5 0.5C116.535 80.651 116.759 80.874 117.035 80.874"/><path fill="#1676BB" d="M117.035 87.456h66.245c0.276 0 0.5-0.224 0.5-0.5 0-0.276-0.224-0.5-0.5-0.5h-66.245c-0.276 0-0.5 0.224-0.5 0.5C116.535 87.232 116.759 87.456 117.035 87.456"/><path fill="#1676BB" d="M117.035 94.037h66.245c0.276 0 0.5-0.224 0.5-0.5 0-0.276-0.224-0.5-0.5-0.5h-66.245c-0.276 0-0.5 0.224-0.5 0.5C116.535 93.813 116.759 94.037 117.035 94.037"/><path fill="#F4F4F4" d="M98.556 41.54v-3.52c0-4.543-3.703-8.254-8.254-8.254h-10.68 -38.92 -10.68c-4.551 0-8.253 3.711-8.253 8.254v3.997l0.01-0.915v115.546l-0.01 0.097v66.92c0 1.65 1.35 3 3 3H300.09c1.65 0 3-1.35 3-3v-7.914 -59.006V41.54H98.556"/><path fill="#1676BB" d="M131.035 173.92h66.245c0.276 0 0.5-0.224 0.5-0.5s-0.224-0.5-0.5-0.5h-66.245c-0.276 0-0.5 0.224-0.5 0.5S130.759 173.92 131.035 173.92"/><path fill="#1676BB" d="M131.035 180.501h66.245c0.276 0 0.5-0.224 0.5-0.5 0-0.276-0.224-0.5-0.5-0.5h-66.245c-0.276 0-0.5 0.224-0.5 0.5C130.535 180.277 130.759 180.501 131.035 180.501"/><path fill="#1676BB" d="M131.035 187.082h66.245c0.276 0 0.5-0.224 0.5-0.5 0-0.276-0.224-0.5-0.5-0.5h-66.245c-0.276 0-0.5 0.224-0.5 0.5C130.535 186.858 130.759 187.082 131.035 187.082"/><path fill="#1676BB" d="M131.035 193.662h66.245c0.276 0 0.5-0.224 0.5-0.5 0-0.276-0.224-0.5-0.5-0.5h-66.245c-0.276 0-0.5 0.224-0.5 0.5C130.535 193.438 130.759 193.662 131.035 193.662"/><path fill="#1676BB" d="M131.035 200.244h66.245c0.276 0 0.5-0.224 0.5-0.5 0-0.276-0.224-0.5-0.5-0.5h-66.245c-0.276 0-0.5 0.224-0.5 0.5C130.535 200.02 130.759 200.244 131.035 200.244"/><path fill="#1676BB" d="M131.035 119.331h66.245c0.276 0 0.5-0.224 0.5-0.5 0-0.276-0.224-0.5-0.5-0.5h-66.245c-0.276 0-0.5 0.224-0.5 0.5C130.535 119.107 130.759 119.331 131.035 119.331"/><path fill="#1676BB" d="M131.035 125.913h66.245c0.276 0 0.5-0.224 0.5-0.5 0-0.276-0.224-0.5-0.5-0.5h-66.245c-0.276 0-0.5 0.224-0.5 0.5C130.535 125.689 130.759 125.913 131.035 125.913"/><path fill="#1676BB" d="M131.035 132.494h66.245c0.276 0 0.5-0.224 0.5-0.5 0-0.276-0.224-0.5-0.5-0.5h-66.245c-0.276 0-0.5 0.224-0.5 0.5C130.535 132.27 130.759 132.494 131.035 132.494"/><path fill="#1676BB" d="M131.035 139.074h66.245c0.276 0 0.5-0.224 0.5-0.5 0-0.276-0.224-0.5-0.5-0.5h-66.245c-0.276 0-0.5 0.224-0.5 0.5C130.535 138.85 130.759 139.074 131.035 139.074"/><path fill="#1676BB" d="M131.035 145.655h66.245c0.276 0 0.5-0.224 0.5-0.5 0-0.276-0.224-0.5-0.5-0.5h-66.245c-0.276 0-0.5 0.224-0.5 0.5C130.535 145.431 130.759 145.655 131.035 145.655"/><path fill="#1676BB" d="M131.035 64.743h66.245c0.276 0 0.5-0.224 0.5-0.5 0-0.276-0.224-0.5-0.5-0.5h-66.245c-0.276 0-0.5 0.224-0.5 0.5C130.535 64.519 130.759 64.743 131.035 64.743"/><path fill="#1676BB" d="M131.035 71.325h66.245c0.276 0 0.5-0.224 0.5-0.5 0-0.276-0.224-0.5-0.5-0.5h-66.245c-0.276 0-0.5 0.224-0.5 0.5C130.535 71.101 130.759 71.325 131.035 71.325"/><path fill="#1676BB" d="M131.035 77.905h66.245c0.276 0 0.5-0.224 0.5-0.5 0-0.276-0.224-0.5-0.5-0.5h-66.245c-0.276 0-0.5 0.224-0.5 0.5C130.535 77.681 130.759 77.905 131.035 77.905"/><path fill="#1676BB" d="M131.035 84.485h66.245c0.276 0 0.5-0.224 0.5-0.5 0-0.276-0.224-0.5-0.5-0.5h-66.245c-0.276 0-0.5 0.224-0.5 0.5C130.535 84.261 130.759 84.485 131.035 84.485"/><path fill="#1676BB" d="M131.035 91.067h66.245c0.276 0 0.5-0.224 0.5-0.5 0-0.276-0.224-0.5-0.5-0.5h-66.245c-0.276 0-0.5 0.224-0.5 0.5C130.535 90.843 130.759 91.067 131.035 91.067"/><path fill="#1676BB" d="M263.704 75.456h-2.5c-0.001 2.645-1.065 5.017-2.798 6.754 -1.736 1.732-4.108 2.796-6.753 2.798 -2.646-0.001-5.018-1.065-6.754-2.797 -1.732-1.736-2.796-4.108-2.797-6.754 0.001-2.645 1.065-5.017 2.797-6.753 1.736-1.732 4.108-2.796 6.754-2.797 2.645 0.001 5.017 1.065 6.753 2.797 1.732 1.736 2.797 4.108 2.798 6.753H263.704h2.5c0.001-4.01-1.633-7.664-4.262-10.289 -2.625-2.629-6.279-4.263-10.288-4.262 -8.038 0.002-14.549 6.514-14.551 14.551 0.001 8.037 6.513 14.55 14.551 14.551 4.01 0.001 7.663-1.633 10.288-4.262 2.629-2.625 4.264-6.279 4.262-10.289H263.704z"/><path fill="#1676BB" d="M263.704 131.561h-2.5c-0.001 2.645-1.065 5.017-2.798 6.753 -1.736 1.732-4.108 2.796-6.753 2.797 -2.646-0.001-5.018-1.065-6.754-2.797 -1.732-1.736-2.796-4.108-2.797-6.753 0.001-2.646 1.065-5.018 2.797-6.754 1.736-1.732 4.108-2.796 6.754-2.797 2.645 0.001 5.017 1.065 6.753 2.798 1.732 1.736 2.797 4.108 2.798 6.754H263.704h2.5c0.001-4.01-1.633-7.664-4.262-10.289 -2.625-2.629-6.279-4.263-10.288-4.262 -8.038 0.001-14.549 6.514-14.551 14.551 -0.001 4.01 1.632 7.663 4.261 10.289 2.625 2.629 6.279 4.263 10.289 4.262 4.01 0.001 7.663-1.633 10.288-4.262 2.629-2.625 4.264-6.279 4.262-10.289H263.704z"/><path fill="#1676BB" d="M263.704 186.367h-2.5c-0.001 2.645-1.065 5.017-2.798 6.753 -1.736 1.732-4.108 2.796-6.753 2.797 -2.646-0.001-5.018-1.065-6.754-2.797 -1.732-1.736-2.796-4.108-2.797-6.753 0.001-2.646 1.065-5.018 2.797-6.754 1.736-1.732 4.108-2.796 6.754-2.797 2.645 0.001 5.017 1.065 6.753 2.798 1.732 1.736 2.797 4.109 2.798 6.754H263.704h2.5c0.001-4.011-1.633-7.664-4.262-10.29 -2.625-2.629-6.279-4.263-10.289-4.262 -8.038 0.001-14.549 6.514-14.551 14.552 0.001 8.037 6.513 14.549 14.551 14.551 4.01 0.001 7.663-1.633 10.288-4.262 2.629-2.625 4.264-6.279 4.262-10.289H263.704z"/><circle fill="#2FA2CD" cx="251.653" cy="75.456" r="7.08"/><circle fill="#2FA2CD" cx="251.653" cy="186.367" r="7.08"/><polyline fill="#2FA2CD" points="89.851,126.895 60.11,126.895 66.87,107.557 83.092,107.557 89.851,126.895  "/><polyline fill="#1676BB" points="87.749,118.491 62.212,118.491 64.272,113.228 85.69,113.228 87.749,118.491  "/><polyline fill="#1676BB" points="88.799,132.15 83.844,132.574 88.343,134.449 86.815,142.117 80.89,143.107 86.452,143.949    86.023,146.096 63.941,146.096 62.197,137.363 67.526,137.306 61.831,135.511 60.109,126.893 89.849,126.893 88.799,132.15  "/><polyline fill="#115D96" points="87.749,118.491 87.338,120.473 86.562,118.491 87.749,118.491  "/><polyline fill="#115D96" points="62.212,118.491 62.623,120.473 63.399,118.491 62.212,118.491  "/><polyline fill="#1676BB" points="89.16,204.574 60.669,204.574 59.288,202.799 90.542,202.799 89.16,204.574  "/><path fill="#2FA2CD" d="M87.984 186.473l2.582 16.16v0.001c-0.001 0.302-0.351 0.55-0.778 0.55H60.022c-0.428 0-0.776-0.248-0.778-0.55v-0.001l2.581-16.16c0-0.305 0.35-0.551 0.778-0.551h24.604C87.635 185.922 87.984 186.168 87.984 186.473"/><polyline fill="#1676BB" points="89.091,201.873 60.738,201.873 59.363,200.106 90.466,200.106 89.091,201.873  "/><path fill="#2FA2CD" d="M87.921 183.859l2.569 16.081v0.001c-0.001 0.301-0.35 0.547-0.775 0.547H60.094c-0.425 0-0.771-0.246-0.774-0.547v-0.001l2.567-16.081c0-0.303 0.348-0.549 0.775-0.549h24.485C87.573 183.311 87.921 183.557 87.921 183.859"/><polyline fill="#1676BB" points="89.091,199.313 60.738,199.313 59.363,197.547 90.466,197.547 89.091,199.313  "/><path fill="#2FA2CD" d="M87.903 181.414l2.563 16.042v0.001c-0.002 0.302-0.35 0.546-0.773 0.546h-29.56c-0.424 0-0.77-0.244-0.771-0.546v-0.001l2.562-16.042c0-0.303 0.347-0.549 0.773-0.549H87.13C87.555 180.865 87.903 181.111 87.903 181.414"/><path fill="#1676BB" d="M94.551 183.445l0.013 0.01H55.158v-0.01c-0.248 0.01-0.455-0.074-0.565-0.243 -0.11-0.126-0.151-0.315-0.138-0.548l1.638-14.385c0.055-0.769 0.756-1.793 1.554-2.267l15.819-10.212c0.454-0.273 1.059-0.39 1.649-0.358 0.454 0.031 0.896 0.148 1.252 0.358l15.818 10.212c0.798 0.474 1.485 1.497 1.541 2.267l1.637 14.385C95.403 183.234 95.074 183.52 94.551 183.445"/><path fill="#1676BB" d="M93.334 183.592v0.122 0.001c-0.001 0.435-0.357 0.789-0.791 0.789H57.284c-0.435 0-0.79-0.354-0.792-0.789v-0.001 -0.122c0-0.434 0.355-0.789 0.792-0.789h35.259C92.978 182.803 93.334 183.158 93.334 183.592"/><path fill="#1676BB" d="M65.964 196.826h-2.939c-0.232 0-0.421-0.14-0.421-0.311l-2.645-12.761c0-0.171 0.189-0.312 0.421-0.312h4.261c0.232 0 0.421 0.141 0.421 0.312l1.322 12.761C66.385 196.686 66.195 196.826 65.964 196.826"/><path fill="#1676BB" d="M72.471 196.826h-2.938 -0.002c-0.231 0-0.421-0.14-0.421-0.311l-1.322-12.761c0-0.171 0.189-0.312 0.421-0.312h0.001 4.261c0.232 0 0.421 0.141 0.421 0.312v12.761C72.892 196.686 72.704 196.826 72.471 196.826"/><path fill="#1676BB" d="M83.864 196.826h2.938c0.232 0 0.421-0.14 0.421-0.311l2.646-12.761c0-0.171-0.189-0.312-0.42-0.312h-0.002 -4.261c-0.232 0-0.42 0.141-0.42 0.312l-1.322 12.761C83.443 196.686 83.632 196.826 83.864 196.826"/><path fill="#1676BB" d="M76.697 196.826h2.938 0.002c0.231 0 0.42-0.14 0.42-0.311l1.323-12.761c0-0.171-0.189-0.312-0.421-0.312h-0.001 -4.261c-0.231 0-0.42 0.141-0.42 0.312v12.761C76.276 196.686 76.466 196.826 76.697 196.826"/><path fill="#2FA2CD" d="M75.115 155.433l-0.206 17.168 -20.316 10.602c-0.11-0.126-0.151-0.315-0.138-0.548l1.638-14.385c0.055-0.769 0.756-1.793 1.554-2.267l15.819-10.212C73.919 155.518 74.524 155.401 75.115 155.433"/><path fill="#2FA2CD" d="M78.945 96.188l-2.827-3.674v-4.27l4.67-6.106c0 0 1.953 7.278 1.953 7.533C82.741 89.926 78.945 96.188 78.945 96.188"/><path fill="#1676BB" d="M89.259 75.479L76.367 64.634c-0.356-0.29-0.804-0.439-1.269-0.439h-0.008c-0.464 0-0.92 0.141-1.285 0.439L60.931 75.479c-0.697 0.597-1.202 1.782-1.136 2.636l0.174 1.783v0.008l1.244 14.724c0.082 0.871 0.945 1.559 1.907 1.559h8.49v-6.773c0-0.647 0.597-1.169 1.326-1.169h4.684c0.729 0 1.327 0.523 1.327 1.169v6.773h8.125c0.97 0 1.832-0.688 1.907-1.559l1.26-14.956 0.149-1.559C90.47 77.261 89.964 76.075 89.259 75.479M68.359 85.667h-3.731c-0.29 0-0.53-0.24-0.53-0.539l-0.365-4.361c0-0.299 0.232-0.539 0.531-0.539h3.987c0.298 0 0.539 0.24 0.539 0.539l0.1 4.361C68.89 85.427 68.649 85.667 68.359 85.667"/><path fill="#1676BB" d="M95.014 81.247c0.053 0.858-0.547 1.149-1.332 0.639l-16.973-10.91c-0.442-0.28-1.038-0.404-1.616-0.374 -0.453 0.027-0.895 0.151-1.242 0.374l-16.975 10.91c-0.79 0.51-1.391 0.219-1.338-0.639l2.409-15.982c0.052-0.853 0.724-1.985 1.49-2.51L73.88 51.397c0.336-0.228 0.76-0.358 1.202-0.389 0.566-0.037 1.16 0.094 1.591 0.389l14.442 11.357c0.767 0.525 1.438 1.658 1.491 2.51L95.014 81.247"/><path fill="#2FA2CD" d="M75.093 51.018v19.585c-0.453 0.027-0.895 0.151-1.242 0.374l-16.975 10.91c-0.79 0.51-1.391 0.219-1.338-0.639l2.409-15.982c0.052-0.853 0.724-1.985 1.49-2.51L73.88 51.397c0.336-0.228 0.76-0.358 1.202-0.389L75.093 51.018"/><polyline fill="#2FA2CD" points="82.231,58.038 84.771,52.562 85.416,55.448 82.231,63.259 82.231,58.038  "/><polyline fill="#1676BB" points="89.194,54.005 84.771,52.562 85.416,55.448 82.231,63.259 87.512,66.573 89.916,56.467    89.194,54.005  "/><polyline fill="#2FA2CD" points="89.194,54.005 88.09,55.916 89.916,56.467 89.194,54.005  "/><path fill="#EEEFF0" d="M163.123 20.18H28.002c-9.92 0-18 8.07-18 18V228.02v0.021c0.01 4.819 3.95 8.76 8.78 8.76h1.038c-4.83 0-8.77-3.94-8.78-8.76v-0.021V38.18c0-9.93 8.08-18 18-18H163.123"/><path fill="#176FB0" d="M163.123 20.18H29.04c-9.92 0-18 8.07-18 18V228.02v0.021c0.01 4.819 3.95 8.76 8.78 8.76h143.303v-10.136H24.767c-1.65 0-3-1.35-3-3v-66.92l0.01-0.097V41.101l-0.01 0.915V38.02c0-4.543 3.703-8.254 8.253-8.254h10.68 38.92 10.68l0 0h51.874l0 0h20.947V20.18"/><path fill="#0088BA" d="M163.123 29.766h-20.947c4.549 0 8.257 3.716 8.257 8.257v3.517h12.69V29.766"/><path fill="#2E9AC3" d="M142.176 29.766H90.302c4.551 0 8.254 3.711 8.254 8.254v3.52h51.877v-3.517C150.433 33.482 146.725 29.766 142.176 29.766L142.176 29.766 142.176 29.766"/><path fill="#E4E5E6" d="M54.452 182.729c0-0.024 0.001-0.049 0.002-0.075l1.638-14.385c0.055-0.769 0.756-1.793 1.554-2.267l15.819-10.212c0.406-0.245 0.933-0.363 1.462-0.363 0.063 0 0.125 0.002 0.188 0.005l0 0 0 0c0.454 0.031 0.896 0.148 1.252 0.358l15.818 10.212c0.798 0.474 1.485 1.497 1.541 2.267l1.637 14.385c0.037 0.52-0.224 0.803-0.654 0.803 -0.05 0-0.102-0.004-0.157-0.012l0.013 0.01h-1.242c0.008 0.044 0.012 0.09 0.012 0.137v0.122 0.001c-0.001 0.435-0.357 0.789-0.791 0.789h-2.83l-0.743 3.586 1.496 9.366v0.001c0 0.031-0.004 0.061-0.011 0.09h0.011l-0.017 0.021c-0.032 0.108-0.109 0.204-0.217 0.278l-0.064 0.082 0.321 2.011v0.001c0 0.057-0.013 0.113-0.037 0.165h0.013l-0.042 0.054c-0.018 0.029-0.039 0.056-0.064 0.082l-0.146 0.188 0.352 2.202v0.001c0 0.057-0.013 0.113-0.036 0.165h0.012l-0.036 0.047c-0.021 0.035-0.047 0.069-0.078 0.1l-1.268 1.629h-28.49l-1.225-1.573c-0.124-0.098-0.2-0.226-0.201-0.367v-0.001l0.355-2.224 -0.082-0.105c-0.122-0.097-0.196-0.224-0.197-0.363v-0.001l0.324-2.032 -0.046-0.06c-0.109-0.075-0.186-0.172-0.218-0.281l-0.016-0.021h0.011c-0.007-0.029-0.011-0.059-0.011-0.09v-0.001l1.495-9.365 -0.744-3.588h-2.831c-0.435 0-0.79-0.354-0.792-0.789v-0.001 -0.122c0-0.047 0.004-0.092 0.012-0.137h-1.347v-0.01c-0.013 0.001-0.026 0.001-0.038 0.001 -0.231 0-0.422-0.084-0.527-0.244C54.495 183.09 54.452 182.927 54.452 182.729M64.888 113.228l1.982-5.671h16.222l1.982 5.671h0.616l2.059 5.263 -0.311 1.5 2.413 6.904h-0.002l-1.05 5.255 -4.955 0.424 4.499 1.875 -1.528 7.668 -5.925 0.99 5.562 0.842 -0.429 2.146H63.941l-1.744-8.732 5.329-0.058 -5.696-1.795 -1.722-8.618h0.002l2.412-6.901 -0.311-1.501 2.06-5.263H64.888M75.082 51.008c0.063-0.004 0.126-0.006 0.189-0.006 0.507 0 1.019 0.133 1.402 0.395l6.33 4.978 1.769-3.813 0.645 2.886 -0.645-2.886 4.423 1.443 0.722 2.462 -1.071 4.503 2.27 1.785c0.767 0.525 1.438 1.658 1.491 2.51l2.409 15.982c0.035 0.571-0.219 0.891-0.624 0.891 -0.204 0-0.446-0.081-0.708-0.252l-3.444-2.214 0 0.001 -1.26 14.956c-0.075 0.871-0.937 1.559-1.907 1.559h-8.125v-0.001c0 0.001-0.001 0.001-0.001 0.001l-2.827-3.674v-4.268h-3.183c-0.729 0-1.326 0.523-1.326 1.169v6.773h-8.49c-0.962 0-1.824-0.688-1.907-1.559l-1.244-14.724v-0.007l-3.093 1.988c-0.264 0.171-0.508 0.252-0.712 0.252 -0.381 0-0.629-0.281-0.629-0.787 0-0.034 0.001-0.068 0.003-0.104l2.409-15.982c0.052-0.853 0.724-1.985 1.49-2.51L73.88 51.397C74.216 51.169 74.64 51.039 75.082 51.008L75.082 51.008M90.302 29.766h-10.68 -38.92 -10.68c-4.551 0-8.253 3.711-8.253 8.254v3.997l0.01-0.915v115.546l-0.01 0.097v66.92c0 1.65 1.35 3 3 3h138.355v-26.42h-32.087c-0.276 0-0.5-0.224-0.5-0.5 0-0.276 0.224-0.5 0.5-0.5h32.087v-5.582h-32.087c-0.276 0-0.5-0.224-0.5-0.5 0-0.276 0.224-0.5 0.5-0.5h32.087v-5.58h-32.087c-0.276 0-0.5-0.224-0.5-0.5 0-0.276 0.224-0.5 0.5-0.5h32.087v-5.581h-32.087c-0.276 0-0.5-0.224-0.5-0.5 0-0.276 0.224-0.5 0.5-0.5h32.087v-5.581h-32.087c-0.276 0-0.5-0.224-0.5-0.5s0.224-0.5 0.5-0.5h32.087v-27.265h-32.087c-0.276 0-0.5-0.224-0.5-0.5 0-0.276 0.224-0.5 0.5-0.5h32.087v-5.581h-32.087c-0.276 0-0.5-0.224-0.5-0.5 0-0.276 0.224-0.5 0.5-0.5h32.087v-5.58h-32.087c-0.276 0-0.5-0.224-0.5-0.5 0-0.276 0.224-0.5 0.5-0.5h32.087v-5.581h-32.087c-0.276 0-0.5-0.224-0.5-0.5 0-0.276 0.224-0.5 0.5-0.5h32.087v-5.582h-32.087c-0.276 0-0.5-0.224-0.5-0.5 0-0.276 0.224-0.5 0.5-0.5h32.087V91.067h-32.087c-0.276 0-0.5-0.224-0.5-0.5 0-0.276 0.224-0.5 0.5-0.5h32.087v-5.582h-32.087c-0.276 0-0.5-0.224-0.5-0.5 0-0.276 0.224-0.5 0.5-0.5h32.087v-5.58h-32.087c-0.276 0-0.5-0.224-0.5-0.5 0-0.276 0.224-0.5 0.5-0.5h32.087v-5.581h-32.087c-0.276 0-0.5-0.224-0.5-0.5 0-0.276 0.224-0.5 0.5-0.5h32.087v-5.582h-32.087c-0.276 0-0.5-0.224-0.5-0.5 0-0.276 0.224-0.5 0.5-0.5h32.087V41.54h-12.69H98.556v-3.52C98.556 33.477 94.853 29.766 90.302 29.766L90.302 29.766"/><path fill="#176FB0" d="M163.123 172.92h-32.087c-0.276 0-0.5 0.224-0.5 0.5s0.224 0.5 0.5 0.5h32.087V172.92"/><path fill="#176FB0" d="M163.123 179.501h-32.087c-0.276 0-0.5 0.224-0.5 0.5 0 0.276 0.224 0.5 0.5 0.5h32.087V179.501"/><path fill="#176FB0" d="M163.123 186.082h-32.087c-0.276 0-0.5 0.224-0.5 0.5 0 0.276 0.224 0.5 0.5 0.5h32.087V186.082"/><path fill="#176FB0" d="M163.123 192.662h-32.087c-0.276 0-0.5 0.224-0.5 0.5 0 0.276 0.224 0.5 0.5 0.5h32.087V192.662"/><path fill="#176FB0" d="M163.123 199.244h-32.087c-0.276 0-0.5 0.224-0.5 0.5 0 0.276 0.224 0.5 0.5 0.5h32.087V199.244"/><path fill="#176FB0" d="M163.123 118.331h-32.087c-0.276 0-0.5 0.224-0.5 0.5 0 0.276 0.224 0.5 0.5 0.5h32.087V118.331"/><path fill="#176FB0" d="M163.123 124.913h-32.087c-0.276 0-0.5 0.224-0.5 0.5 0 0.276 0.224 0.5 0.5 0.5h32.087V124.913"/><path fill="#176FB0" d="M163.123 131.494h-32.087c-0.276 0-0.5 0.224-0.5 0.5 0 0.276 0.224 0.5 0.5 0.5h32.087V131.494"/><path fill="#176FB0" d="M163.123 138.074h-32.087c-0.276 0-0.5 0.224-0.5 0.5 0 0.276 0.224 0.5 0.5 0.5h32.087V138.074"/><path fill="#176FB0" d="M163.123 144.655h-32.087c-0.276 0-0.5 0.224-0.5 0.5 0 0.276 0.224 0.5 0.5 0.5h32.087V144.655"/><path fill="#176FB0" d="M163.123 63.743h-32.087c-0.276 0-0.5 0.224-0.5 0.5 0 0.276 0.224 0.5 0.5 0.5h32.087V63.743"/><path fill="#176FB0" d="M163.123 70.325h-32.087c-0.276 0-0.5 0.224-0.5 0.5 0 0.276 0.224 0.5 0.5 0.5h32.087V70.325"/><path fill="#176FB0" d="M163.123 76.905h-32.087c-0.276 0-0.5 0.224-0.5 0.5 0 0.276 0.224 0.5 0.5 0.5h32.087V76.905"/><path fill="#176FB0" d="M163.123 83.485h-32.087c-0.276 0-0.5 0.224-0.5 0.5 0 0.276 0.224 0.5 0.5 0.5h32.087V83.485"/><path fill="#176FB0" d="M163.123 90.067h-32.087c-0.276 0-0.5 0.224-0.5 0.5 0 0.276 0.224 0.5 0.5 0.5h32.087V90.067"/><path fill="#2E9AC3" d="M86.562 118.491H63.399l-0.776 1.981 -0.1-0.481 -2.412 6.901h29.738l0 0.002h0.002l-2.413-6.904 -0.1 0.481L86.562 118.491M83.092 107.557H66.87l-1.982 5.671h20.187L83.092 107.557"/><polyline fill="#176FB0" points="85.69,113.228 85.074,113.228 64.888,113.228 64.272,113.228 62.212,118.491 63.399,118.491    86.562,118.491 87.749,118.491 85.69,113.228  "/><polyline fill="#176FB0" points="89.849,126.893 60.111,126.893 60.109,126.893 61.831,135.511 67.526,137.306 62.197,137.363    63.941,146.096 86.023,146.096 86.452,143.949 80.89,143.107 86.815,142.117 88.343,134.449 83.844,132.574 88.799,132.15    89.849,126.895 89.849,126.893  "/><polyline fill="#10588F" points="87.749,118.491 87.749,118.491 86.562,118.491 87.338,120.473 87.438,119.991 87.749,118.491  "/><polyline fill="#10588F" points="63.399,118.491 62.212,118.491 62.523,119.992 62.623,120.473 63.399,118.491  "/><path fill="#176FB0" d="M90.428 202.945c-0.141 0.144-0.375 0.238-0.639 0.238H60.022c-0.229 0-0.435-0.071-0.577-0.183l1.225 1.573h28.49L90.428 202.945M90.542 202.799H90.53c-0.007 0.016-0.015 0.032-0.025 0.047L90.542 202.799"/><path fill="#2E9AC3" d="M59.599 200.409l-0.355 2.224v0.001c0.001 0.14 0.077 0.269 0.201 0.367 0.143 0.112 0.349 0.183 0.577 0.183h29.766c0.264 0 0.499-0.095 0.639-0.238 0.03-0.031 0.056-0.064 0.078-0.1 0.009-0.015 0.017-0.031 0.025-0.047 0.023-0.052 0.036-0.108 0.036-0.165v-0.001l-0.352-2.202 -1.123 1.443H60.738L59.599 200.409"/><path fill="#176FB0" d="M90.36 200.243c-0.139 0.148-0.377 0.246-0.645 0.246H60.094c-0.229 0-0.435-0.071-0.577-0.184l0.082 0.105 1.139 1.464h28.353l1.123-1.443L90.36 200.243M90.466 200.106h-0.013c-0.008 0.019-0.018 0.037-0.029 0.054L90.466 200.106"/><path fill="#2E9AC3" d="M59.644 197.908l-0.324 2.032v0.001c0.001 0.139 0.076 0.266 0.197 0.363 0.142 0.113 0.348 0.184 0.577 0.184h29.622c0.268 0 0.506-0.098 0.645-0.246 0.024-0.026 0.046-0.053 0.064-0.082 0.011-0.018 0.021-0.036 0.029-0.054 0.024-0.052 0.037-0.108 0.037-0.165v-0.001l-0.321-2.011 -1.078 1.385H60.738L59.644 197.908"/><path fill="#176FB0" d="M90.233 197.847c-0.14 0.097-0.33 0.156-0.539 0.156h-29.56c-0.208 0-0.397-0.059-0.536-0.154l0.046 0.06 1.094 1.405h28.353l1.078-1.385L90.233 197.847M59.374 197.547h-0.011l0.016 0.021C59.377 197.561 59.376 197.554 59.374 197.547M90.466 197.547h-0.011c-0.002 0.007-0.004 0.014-0.006 0.021L90.466 197.547"/><path fill="#2E9AC3" d="M84.687 184.504h-3.386l-1.246 12.012c0 0.171-0.189 0.311-0.42 0.311h-0.002 -2.938c-0.231 0-0.42-0.14-0.42-0.311v-12.012h-3.384v12.012c0 0.171-0.189 0.311-0.421 0.311h-2.938 -0.002c-0.231 0-0.421-0.14-0.421-0.311l-1.245-12.012h-2.725l1.244 12.012c0 0.171-0.189 0.311-0.42 0.311h-2.939c-0.232 0-0.421-0.14-0.421-0.311l-1.746-8.424 -1.495 9.365v0.001c0 0.031 0.004 0.061 0.011 0.09 0.002 0.007 0.004 0.014 0.006 0.021 0.032 0.109 0.11 0.206 0.218 0.281 0.139 0.096 0.328 0.154 0.536 0.154h29.56c0.209 0 0.4-0.06 0.539-0.156 0.107-0.074 0.185-0.17 0.217-0.278 0.002-0.007 0.004-0.014 0.006-0.021 0.007-0.029 0.011-0.059 0.011-0.09v-0.001l-1.496-9.366 -1.747 8.426c0 0.171-0.189 0.311-0.421 0.311h-2.938c-0.232 0-0.421-0.14-0.421-0.311L84.687 184.504"/><path fill="#176FB0" d="M75.115 155.433l-0.206 17.168 -20.316 10.602c-0.098-0.112-0.141-0.275-0.14-0.473 -0.001 0.198 0.043 0.361 0.14 0.473 0.105 0.16 0.296 0.244 0.527 0.244 0.013 0 0.026 0 0.038-0.001v0.01h1.347c0.065-0.369 0.39-0.652 0.78-0.652h35.259c0.388 0 0.713 0.283 0.779 0.652h1.242l-0.013-0.01c0.054 0.008 0.107 0.012 0.157 0.012 0.43 0 0.691-0.283 0.654-0.803l-1.637-14.385c-0.055-0.769-0.743-1.793-1.541-2.267l-15.818-10.212C76.01 155.581 75.569 155.464 75.115 155.433L75.115 155.433"/><path fill="#176FB0" d="M92.543 182.803H57.284c-0.389 0-0.714 0.283-0.78 0.652 -0.008 0.044-0.012 0.09-0.012 0.137v0.122 0.001c0.002 0.435 0.357 0.789 0.792 0.789h2.831l-0.155-0.749c0-0.171 0.189-0.312 0.421-0.312h4.261c0.232 0 0.421 0.141 0.421 0.312l0.078 0.749h2.725l-0.078-0.749c0-0.171 0.189-0.312 0.421-0.312h0.001 4.261c0.232 0 0.421 0.141 0.421 0.312v0.749h3.384v-0.749c0-0.171 0.189-0.312 0.42-0.312h4.261 0.001c0.232 0 0.421 0.141 0.421 0.312l-0.078 0.749h3.386l0.078-0.749c0-0.171 0.189-0.312 0.42-0.312h4.261 0.002c0.231 0 0.42 0.141 0.42 0.312l-0.155 0.749h2.83c0.434 0 0.789-0.354 0.791-0.789v-0.001 -0.122c0-0.047-0.004-0.092-0.012-0.137C93.257 183.086 92.932 182.803 92.543 182.803"/><path fill="#176FB0" d="M64.642 183.443H60.38c-0.232 0-0.421 0.141-0.421 0.312l0.155 0.749 0.744 3.588 1.746 8.424c0 0.171 0.189 0.311 0.421 0.311h2.939c0.231 0 0.42-0.14 0.42-0.311l-1.244-12.012 -0.078-0.749C65.063 183.584 64.874 183.443 64.642 183.443"/><path fill="#E4E5E6" d="M68.251 80.229h-3.987c-0.299 0-0.531 0.24-0.531 0.539l0.365 4.361c0 0.298 0.24 0.539 0.53 0.539h3.731c0.29 0 0.531-0.24 0.531-0.539l-0.1-4.361C68.789 80.469 68.549 80.229 68.251 80.229"/><path fill="#176FB0" d="M72.471 183.443H68.21h-0.001c-0.232 0-0.421 0.141-0.421 0.312l0.078 0.749 1.245 12.012c0 0.171 0.19 0.311 0.421 0.311h0.002 2.938c0.232 0 0.421-0.14 0.421-0.311v-12.012 -0.749C72.892 183.584 72.704 183.443 72.471 183.443"/><path fill="#176FB0" d="M89.449 183.443h-0.002 -4.261c-0.232 0-0.42 0.141-0.42 0.312l-0.078 0.749 -1.245 12.012c0 0.171 0.189 0.311 0.421 0.311h2.938c0.232 0 0.421-0.14 0.421-0.311l1.747-8.426 0.743-3.586 0.155-0.749C89.869 183.584 89.679 183.443 89.449 183.443"/><path fill="#176FB0" d="M80.959 183.443h-0.001 -4.261c-0.231 0-0.42 0.141-0.42 0.312v0.749 12.012c0 0.171 0.189 0.311 0.42 0.311h2.938 0.002c0.231 0 0.42-0.14 0.42-0.311l1.246-12.012 0.078-0.749C81.379 183.584 81.191 183.443 80.959 183.443"/><path fill="#2E9AC3" d="M74.927 155.428c-0.529 0-1.056 0.119-1.462 0.363l-15.819 10.212c-0.797 0.474-1.499 1.497-1.554 2.267l-1.638 14.385c-0.001 0.025-0.002 0.05-0.002 0.075 -0.001 0.198 0.043 0.361 0.14 0.473l20.316-10.602 0.206-17.168C75.052 155.429 74.99 155.428 74.927 155.428"/><path fill="#2E9AC3" d="M77.619 88.246h-1.501v4.268l2.827 3.674c0 0 0 0 0.001-0.001v-6.772C78.946 88.768 78.349 88.246 77.619 88.246"/><path fill="#176FB0" d="M64.628 85.667c-0.29 0-0.53-0.24-0.53-0.539l-0.365-4.361c0-0.299 0.232-0.539 0.531-0.539h3.987c0.298 0 0.539 0.24 0.539 0.539l0.1 4.361c0 0.298-0.24 0.539-0.531 0.539H64.628M75.265 70.597c-0.058 0-0.115 0.002-0.173 0.005 -0.453 0.027-0.895 0.151-1.242 0.374l-13.882 8.922v0.007l1.244 14.724c0.082 0.871 0.945 1.559 1.907 1.559h8.49v-6.773c0-0.647 0.597-1.169 1.326-1.169h3.183 1.501c0.729 0 1.327 0.523 1.327 1.169v6.772 0.001h8.125c0.97 0 1.832-0.688 1.907-1.559l1.26-14.956 0-0.001 -13.529-8.696C76.31 70.724 75.788 70.597 75.265 70.597"/><path fill="#176FB0" d="M75.271 51.002c-0.063 0-0.126 0.002-0.189 0.006l0.011 0.01v19.585c-0.453 0.027-0.895 0.151-1.242 0.374l-16.975 10.91c-0.264 0.171-0.508 0.252-0.712 0.252 -0.381 0-0.629-0.281-0.629-0.787 0 0.506 0.247 0.787 0.629 0.787 0.205 0 0.448-0.081 0.712-0.252l3.093-1.988 13.882-8.922c0.348-0.222 0.79-0.347 1.242-0.374 0.057-0.003 0.115-0.005 0.173-0.005 0.522 0 1.045 0.126 1.444 0.378l13.529 8.696 3.444 2.214c0.263 0.171 0.505 0.252 0.708 0.252 0.405 0 0.659-0.32 0.624-0.891l-2.409-15.982c-0.053-0.853-0.724-1.985-1.491-2.51l-2.27-1.785 -1.333 5.603 -5.28-3.314v-5.221l0.771-1.663 -6.33-4.978C76.29 51.134 75.777 51.002 75.271 51.002"/><path fill="#2E9AC3" d="M75.082 51.008c-0.442 0.031-0.866 0.161-1.202 0.389L59.437 62.754c-0.766 0.525-1.438 1.658-1.49 2.51l-2.409 15.982c-0.002 0.036-0.003 0.07-0.003 0.104 0 0.506 0.247 0.787 0.629 0.787 0.205 0 0.448-0.081 0.712-0.252l16.975-10.91c0.348-0.222 0.79-0.347 1.242-0.374V51.018L75.082 51.008"/><polyline fill="#2E9AC3" points="84.771,52.562 83.003,56.375 82.231,58.038 82.231,63.259 85.416,55.448 84.771,52.562  "/><polyline fill="#176FB0" points="84.771,52.562 85.416,55.448 82.231,63.259 87.512,66.573 88.845,60.969 89.916,56.467    88.09,55.916 89.194,54.005 84.771,52.562  "/><polyline fill="#2E9AC3" points="89.194,54.005 89.194,54.005 88.09,55.916 89.916,56.467 89.194,54.005  "/></svg>