<svg xmlns="http://www.w3.org/2000/svg" width="321.211" height="284.849" viewBox="0 0 321.211 284.849"><path fill="#1676BB" d="M235.667 100.112c-4.585 1.513-12.055 1.416-16.599-.216l-49.804-17.885c-4.545-1.632-11.967-1.596-16.496.08l-47.91 17.726c-4.528 1.675-11.985 1.808-16.57.295l-55.507-18.317c-4.585-1.513-8.336 1.2-8.336 6.028v143.796c0 4.828 3.751 10.017 8.336 11.529l55.507 18.316c4.585 1.513 12.042 1.381 16.57-.295l47.91-17.727c4.529-1.675 11.951-1.711 16.496-.078l49.804 17.884c4.544 1.632 12.014 1.729 16.599.216l55.508-18.316c4.584-1.513 8.336-6.701 8.336-11.529v-143.796c0-4.828-3.752-7.541-8.336-6.028l-55.508 18.317M293.651 70.197c-1.99 0-4.002.324-5.981.984l-55.505 18.316c-.717.235-2.281.503-4.361.503-.336 0-.66-.011-.973-.022-1.768-.067-3.242-.335-3.98-.604l-49.803-17.89c-4.283-1.532-8.822-1.856-11.875-1.856-.771 0-1.621.022-2.549.078-2.885.167-6.396.66-9.739 1.901l-47.901 17.723c-.884.324-2.762.66-4.987.66-.391 0-.76-.012-1.107-.034-1.454-.067-2.549-.279-3.097-.458l-55.508-18.317c-1.979-.66-3.991-.984-5.981-.984-9.717 0-17.041 7.582-17.041 17.623v143.794c0 9.616 6.888 19.144 16.012 22.151l55.505 18.315c3.567 1.175 7.302 1.543 10.108 1.611.391.01.76.01 1.107.01 4.651 0 9.18-.727 12.747-2.046l47.901-17.723c.347-.134 1.018-.302 1.979-.436.704-.09 1.565-.157 2.538-.157 1.945 0 3.567.279 4.328.549l49.803 17.891c3.254 1.162 7.313 1.844 11.539 1.922.324.023.648.023.973.023 2.918 0 7.268-.291 11.371-1.645l55.506-18.314c9.124-3.008 16.012-12.535 16.012-22.151v-143.795c0-10.041-7.324-17.622-17.041-17.622m-5.322 161.271c-.1.347-.503.906-.805 1.107l-55.359 18.271c-.717.235-2.293.515-4.361.515-.336 0-.66-.012-.973-.022-1.777-.078-3.242-.347-3.98-.615l-49.803-17.88c-4.283-1.543-8.822-1.867-11.886-1.867-.761 0-1.622.023-2.538.078-2.885.168-6.396.66-9.739 1.901l-47.901 17.724c-.884.324-2.762.659-4.987.659-.391 0-.76-.011-1.107-.034-1.454-.066-2.549-.279-3.097-.458l-55.36-18.271c-.302-.201-.705-.761-.805-1.107v-136.963l49.152 16.224c3.567 1.174 7.302 1.543 10.108 1.61.391.011.76.011 1.107.011 4.651 0 9.18-.727 12.747-2.046l47.901-17.723c.347-.134 1.018-.302 1.979-.437.704-.089 1.565-.156 2.549-.156 2.213 0 3.758.346 4.317.547l49.803 17.88c3.254 1.174 7.313 1.845 11.539 1.923.324.022.648.022.973.022 2.918 0 7.268-.28 11.371-1.633l49.154-16.224v136.964"/><path fill="#F4F4F4" d="M235.667 100.112c-4.585 1.513-12.055 1.416-16.599-.216l-49.804-17.885c-4.545-1.632-11.967-1.596-16.496.08l-47.91 17.726c-4.528 1.675-11.985 1.808-16.57.295l-55.507-18.317c-4.585-1.513-8.336 1.2-8.336 6.028v143.796c0 4.828 3.751 10.017 8.336 11.529l55.507 18.316c4.585 1.513 12.042 1.381 16.57-.295l47.91-17.727c4.529-1.675 11.951-1.711 16.496-.078l49.804 17.884c4.544 1.632 12.014 1.729 16.599.216l55.508-18.316c4.584-1.513 8.336-6.701 8.336-11.529v-143.796c0-4.828-3.752-7.541-8.336-6.028l-55.508 18.317"/><path fill="#2FA2CD" d="M51.406 200.79l43.177 27.649 64.821-23.676 66.967-54.385 42.091 57.2c.818 1.112 2.383 1.351 3.495.532s1.351-2.383.532-3.495l-45.199-61.425-70.388 57.163-61.708 22.538-41.091-26.313c-1.163-.744-2.709-.405-3.454.757-.745 1.164-.406 2.709.757 3.455"/><path fill="#1676BB" d="M52.105 201.098l43.368 11.659 62.588-50.875 39.2 59.174 31.507-27.871 44.959-73.631c.72-1.178.348-2.717-.831-3.437s-2.717-.348-3.437.831l-44.566 72.99-26.639 23.563-39.069-58.977-64.882 52.74-40.9-10.995c-1.333-.358-2.705.432-3.063 1.765-.359 1.335.431 2.706 1.765 3.064"/><path fill="#166DAE" d="M161.165 242.164c-.852 0-1.705.033-2.542.101v11.232c.704-.09 1.565-.157 2.538-.157 1.945 0 3.567.279 4.328.549l49.803 17.891c3.254 1.162 7.313 1.844 11.539 1.922v-11.176c-2.832-.08-5.622-.508-7.763-1.276l-49.804-17.884c-2.233-.804-5.161-1.202-8.099-1.202m25.989-165.614c-1.786 3.354-3.785 6.633-5.879 9.774l37.793 13.572c2.141.769 4.931 1.197 7.763 1.276v-11.195c-1.768-.067-3.242-.335-3.98-.604l-35.697-12.823"/><path fill="#E1E2E3" d="M177 190.472l-17.597 14.291-.781.285v37.216c.837-.067 1.69-.101 2.542-.101 2.938 0 5.866.398 8.099 1.201l49.804 17.884c2.141.769 4.931 1.196 7.763 1.276v-67.624l-29.569 26.156-20.261-30.584m-18.377-27.742v36.226l15.603-12.672-15.603-23.554m67.748-12.352l-45.47 36.927 17.354 26.196 26.639-23.563 1.938-3.174v-35.763l-.461-.623m-45.096-64.054c-7.616 11.422-16.487 20.99-20.935 25.448h-.01l-.04.05-.34.34-.09.08c-.379.34-.769.788-1.237 1.108v41.632l.562-.457 18.941 28.592 48.704-39.553v-42.392c-2.832-.08-5.622-.508-7.763-1.276l-37.792-13.572"/><path fill="#2E98C1" d="M174.226 186.284l-15.603 12.672v6.093l.781-.285 17.596-14.292-2.774-4.188m52.605-42.72l-48.704 39.553 2.774 4.188 45.47-36.927.46.624v-7.438"/><path fill="#166DAE" d="M159.185 154.525l-.562.457v7.748l15.603 23.554 2.774 4.188 20.261 30.584 29.57-26.156v-8.135l-1.938 3.174-26.639 23.562-17.353-26.196-2.775-4.188-18.941-28.592"/><path fill="#1676BB" d="M194.709 51.162c.08 23.48-25.649 51.87-34.37 60.61h-.01l-.04.05-.34.34-.09.08c-.38.34-.77.79-1.24 1.11-.12.09-.25.17-.39.24v.08l-.08-.04-.08.04v-.08c-.65-.32-1.15-.92-1.63-1.35l-.08-.08-.35-.34-.03-.05h-.01c-8.72-8.74-34.46-37.13-34.37-60.61.09-27.43 24.84-37 36.4-37.01h.31l.31.01c11.68.17 36.001 9.81 36.09 37"/><path fill="#125E98" d="M158.62 14.162v15.281c11.769.298 21.224 9.924 21.224 21.776 0 11.841-9.455 21.467-21.224 21.766v40.368c-.12.09-.25.17-.39.24.14-.07.27-.15.39-.24.47-.32.86-.77 1.24-1.11l.09-.08.34-.34.04-.05h.01c8.708-8.728 34.375-37.047 34.37-60.507v-.103c-.09-27.191-24.411-36.831-36.09-37.001"/><path fill="#1676BB" d="M179.844 51.219c0-11.979-9.658-21.685-21.603-21.783v-.009l-.088.005-.089-.005v.009c-11.945.098-21.604 9.803-21.604 21.783 0 11.968 9.659 21.674 21.604 21.772v.008l.089-.005.088.005v-.008c11.945-.098 21.603-9.804 21.603-21.772"/><path fill="#F1F2F2" d="M158.62 39.442l-.2-.01-.18-.02-.09.01-.09-.01-.17.02c-6.35.19-11.45 5.4-11.45 11.79 0 6.39 5.1 11.59 11.45 11.78l.17.02h.18l.18-.02.2-.01c6.25-.29 11.25-5.45 11.25-11.77 0-6.32-5-11.49-11.25-11.78m0 18.23c-.16.02-.31.03-.47.03-3.54-.04-6.4-2.93-6.4-6.48 0-3.55 2.86-6.44 6.4-6.49.16 0 .31.01.47.03 3.32.28 5.94 3.07 5.94 6.46s-2.62 6.18-5.94 6.45"/><path fill="#1676BB" d="M58.311 118.989c.299 3.172-1.441 5.93-3.887 6.161-2.445.23-4.669-2.155-4.968-5.327-.299-3.174 1.441-5.931 3.887-6.162 2.445-.231 4.67 2.154 4.968 5.328"/><path fill="#2FA2CD" d="M58.311 139.253c.299 3.173-1.441 5.931-3.887 6.161-2.445.23-4.669-2.155-4.968-5.327-.299-3.173 1.441-5.931 3.887-6.161 2.445-.23 4.67 2.155 4.968 5.327"/><path fill="#EBECEC" d="M30.112 69.928c-9.718 0-17.041 7.582-17.041 17.623v143.794c0 4.804 1.718 9.584 4.576 13.542-2.742-3.904-4.384-8.579-4.384-13.273v-143.795c0-10.041 7.324-17.623 17.041-17.623 1.99 0 4.002.324 5.981.984l55.506 18.316c.523.171 1.547.373 2.905.448v-.259c-1.453-.067-2.549-.279-3.097-.458l-55.505-18.315c-1.979-.66-3.992-.984-5.982-.984"/><path fill="#166DAE" d="M30.304 70.197c-9.717 0-17.041 7.582-17.041 17.623v143.794c0 4.694 1.642 9.369 4.384 13.273 2.863 3.965 6.87 7.103 11.436 8.608l55.505 18.315c3.567 1.175 7.302 1.544 10.108 1.61v-10.929c-2.345-.091-4.6-.432-6.408-1.028l-55.507-18.316c-4.585-1.513-8.336-6.701-8.336-11.529v-143.795c0-3.921 2.475-6.447 5.86-6.447.783 0 1.615.135 2.476.419l55.507 18.316c1.808.597 4.063.938 6.408 1.029v-11.195c-1.358-.076-2.382-.277-2.905-.448l-55.506-18.316c-1.979-.66-3.991-.984-5.981-.984"/><path fill="#E1E2E3" d="M67.712 205.294l26.984 17.279v-10.025l-26.984-7.254m-13.614-59.864c-2.313 0-4.356-2.313-4.641-5.343-.299-3.173 1.441-5.931 3.887-6.161l.327-.015c2.313 0 4.355 2.312 4.641 5.342.299 3.173-1.441 5.931-3.887 6.161l-.327.016m0-20.265c-2.313 0-4.356-2.312-4.642-5.342-.299-3.174 1.441-5.931 3.887-6.162l.327-.016c2.313 0 4.356 2.313 4.641 5.344.299 3.172-1.441 5.93-3.887 6.161l-.326.015m-23.793-43.789c-3.386 0-5.86 2.526-5.86 6.447v143.796c0 4.828 3.751 10.017 8.336 11.529l55.507 18.316c1.808.597 4.063.938 6.408 1.028v-34.096l-.113.042-43.13-27.619c-.151-.093-.291-.199-.417-.319-.28-.265-.489-.584-.62-.931-.124-.325-.18-.678-.158-1.037.018-.291.086-.583.209-.86.121-.274.288-.519.489-.727.257-.267.566-.467.9-.596l.004-.001.002-.001c.28-.107.581-.165.89-.165l.154.005c.186.012.371.043.553.097l40.844 10.98.393-.319v-105.804c-2.346-.091-4.6-.432-6.408-1.029l-55.507-18.317c-.862-.284-1.693-.419-2.476-.419"/><path fill="#2E98C1" d="M51.453 200.82l43.13 27.619.113-.042v-5.823l-26.984-17.279-15.607-4.196c-.235-.064-.454-.159-.652-.279m-1.037-1.25c.131.347.339.666.62.931-.275-.26-.487-.58-.62-.931m.051-1.898c-.123.277-.192.569-.209.86.01-.165.037-.332.082-.498l.127-.362m1.39-1.322c-.334.129-.643.329-.9.596.253-.262.561-.465.9-.596m.006-.002l-.002.001.002-.001m1.043-.16c.165.011.331.037.497.082l.057.015c-.183-.054-.368-.085-.554-.097"/><path fill="#166DAE" d="M52.752 196.183c-.309 0-.609.058-.89.165l-.002.001-.004.001c-.339.131-.647.334-.9.596-.201.208-.368.452-.489.727-.051.116-.094.237-.127.362-.045.166-.072.333-.082.498-.022.359.035.712.158 1.037.133.352.345.671.62.931.126.12.266.227.417.319.198.12.417.215.652.278l15.607 4.196 26.984 7.254v-5.603l-.393.319-40.844-10.98-.057-.015c-.166-.045-.332-.071-.497-.082l-.153-.004M53.67 113.645l-.327.016c-2.445.23-4.186 2.988-3.887 6.162.285 3.03 2.328 5.342 4.642 5.342l.326-.015c2.446-.23 4.186-2.989 3.887-6.161-.285-3.031-2.328-5.344-4.641-5.344"/><path fill="#2E98C1" d="M53.67 133.911l-.327.015c-2.445.23-4.186 2.988-3.887 6.161.285 3.03 2.328 5.343 4.641 5.343l.327-.016c2.446-.23 4.186-2.988 3.887-6.161-.285-3.03-2.328-5.342-4.641-5.342"/><path fill="#D1D3D4" d="M284.338 232.167l-57.494 18.119-68.229-23.443-63.734 22.921-55.82-19.22v-125.93c0-.552-.448-1-1-1s-1 .448-1 1v127.355l57.835 19.915 63.735-22.923 68.187 23.43 58.123-18.316c.526-.166.819-.728.653-1.255-.167-.527-.728-.82-1.256-.653z"/><ellipse transform="matrix(.985 .174 -.174 .985 24.79 -45.738)" fill="#F4F4F4" cx="272.666" cy="118.197" rx="7.288" ry="8.359"/><path fill="#1676BB" d="M279.842 119.468l-2.462-.436c-.27 1.532-1.005 2.81-1.94 3.679-.94.872-2.038 1.317-3.11 1.316-.227 0-.454-.02-.686-.061-1.057-.19-1.957-.775-2.661-1.718-.697-.938-1.144-2.228-1.143-3.65 0-.403.035-.816.11-1.236.27-1.532 1.005-2.81 1.94-3.679.94-.872 2.038-1.317 3.11-1.316.228 0 .455.02.686.06 1.058.19 1.958.775 2.662 1.717.697.938 1.143 2.227 1.142 3.648 0 .403-.035.818-.11 1.239l2.462.437 2.462.436c.125-.709.187-1.415.187-2.111-.002-2.452-.753-4.77-2.122-6.623-1.361-1.85-3.395-3.242-5.81-3.666-.52-.092-1.041-.137-1.558-.137-2.475 0-4.77 1.027-6.517 2.656-1.752 1.631-2.999 3.883-3.458 6.467-.125.708-.187 1.413-.187 2.108.002 2.452.754 4.77 2.122 6.624 1.361 1.85 3.395 3.243 5.81 3.668.521.092 1.042.137 1.558.137 2.476 0 4.771-1.027 6.517-2.656 1.752-1.632 2.999-3.883 3.458-6.467l-2.462-.436z"/><ellipse transform="matrix(.985 .174 -.174 .985 40.616 -44.347)" fill="#F4F4F4" cx="272.666" cy="208.949" rx="7.288" ry="8.359"/><path fill="#2FA2CD" d="M279.842 210.22l-2.462-.436c-.27 1.531-1.005 2.809-1.94 3.678-.94.872-2.038 1.317-3.11 1.316-.227 0-.454-.02-.686-.061-1.057-.19-1.957-.774-2.661-1.717-.697-.939-1.144-2.229-1.143-3.651 0-.403.035-.816.11-1.235.27-1.532 1.005-2.81 1.94-3.679.94-.872 2.038-1.317 3.11-1.316.228 0 .455.02.686.061 1.058.19 1.958.774 2.662 1.716.697.938 1.143 2.227 1.142 3.648 0 .403-.035.818-.11 1.24l2.462.436 2.462.436c.125-.708.187-1.415.187-2.111-.002-2.452-.753-4.77-2.122-6.622-1.361-1.85-3.395-3.242-5.81-3.666-.52-.092-1.041-.137-1.558-.137-2.475 0-4.77 1.027-6.517 2.655-1.752 1.632-2.999 3.884-3.458 6.468-.125.707-.187 1.413-.187 2.107.002 2.452.754 4.771 2.122 6.624 1.361 1.851 3.395 3.244 5.811 3.668.52.092 1.041.137 1.557.137 2.476 0 4.771-1.027 6.517-2.656 1.752-1.631 2.999-3.883 3.458-6.467l-2.462-.436z"/><path fill="#10588F" d="M158.31 14.152h-.31c-11.56.01-36.31 9.58-36.4 37.01v.138c.011 23.454 25.667 51.75 34.371 60.473h.01l.03.05.35.34.08.08c.48.43.98 1.03 1.63 1.35v.08l.08-.04.08.04v-.08c.14-.07.27-.15.39-.24v-40.369l-.379.006v.008l-.088-.005-.089.005v-.008c-11.945-.098-21.604-9.804-21.604-21.772 0-11.979 9.659-21.685 21.604-21.783v-.009l.089.005.088-.005v.009l.379.006v-15.279l-.311-.01"/><path fill="#166DAE" d="M158.15 44.732c-3.54.05-6.4 2.94-6.4 6.49 0 3.55 2.86 6.44 6.4 6.48.16 0 .31-.01.47-.03v-12.91c-.16-.02-.31-.03-.47-.03m.091-15.305l-.088.005-.089-.005v.009c-11.945.098-21.604 9.803-21.604 21.783 0 11.968 9.659 21.674 21.604 21.772v.008l.089-.005.088.005v-.008l.379-.006v-9.993l-.2.01-.18.02h-.18l-.17-.02c-6.35-.19-11.45-5.39-11.45-11.78s5.1-11.6 11.45-11.79l.17-.02.09.01.09-.01.18.02.2.01v-10l-.379-.006v-.009"/><path fill="#E1E2E3" d="M158.24 39.412l-.09.01-.09-.01-.17.02c-6.35.19-11.45 5.4-11.45 11.79 0 6.39 5.1 11.59 11.45 11.78l.17.02h.18l.18-.02.2-.01v-5.32c-.16.02-.31.03-.47.03-3.54-.04-6.4-2.93-6.4-6.48 0-3.55 2.86-6.44 6.4-6.49.16 0 .31.01.47.03v-5.32l-.2-.01-.18-.02"/></svg>