<?xml version="1.0" encoding="utf-8"?>
<!-- Generator: Adobe Illustrator 16.0.0, SVG Export Plug-In . SVG Version: 6.00 Build 0)  -->
<!DOCTYPE svg PUBLIC "-//W3C//DTD SVG 1.1//EN" "http://www.w3.org/Graphics/SVG/1.1/DTD/svg11.dtd">
<svg version="1.1" id="Layer_1" xmlns="http://www.w3.org/2000/svg" xmlns:xlink="http://www.w3.org/1999/xlink" x="0px" y="0px"
	 width="321.211px" height="284.849px" viewBox="0 0 321.211 284.849" enable-background="new 0 0 321.211 284.849"
	 xml:space="preserve">
<g>
	<path fill="#1676BB" d="M235.667,100.112c-4.585,1.513-12.055,1.416-16.599-0.216l-49.804-17.885
		c-4.545-1.632-11.967-1.596-16.496,0.08l-47.91,17.726c-4.528,1.675-11.985,1.808-16.57,0.295L32.781,81.795
		c-4.585-1.513-8.336,1.2-8.336,6.028v69.096c0,4.828,0,11.32,0,14.427s0,9.598,0,14.427v45.846c0,4.828,3.751,10.017,8.336,11.529
		l55.507,18.316c4.585,1.513,12.042,1.381,16.57-0.295l47.91-17.727c4.529-1.675,11.951-1.711,16.496-0.078l49.804,17.884
		c4.544,1.632,12.014,1.729,16.599,0.216l55.508-18.316c4.584-1.513,8.336-6.701,8.336-11.529v-45.846c0-4.829,0-11.32,0-14.427
		s0-9.599,0-14.427V87.823c0-4.828-3.752-7.541-8.336-6.028L235.667,100.112"/>
	<path fill="#1676BB" d="M293.651,70.197c-1.99,0-4.002,0.324-5.981,0.984l-55.505,18.316c-0.717,0.235-2.281,0.503-4.361,0.503
		c-0.336,0-0.66-0.011-0.973-0.022c-1.768-0.067-3.242-0.335-3.98-0.604l-49.803-17.89c-4.283-1.532-8.822-1.856-11.875-1.856
		c-0.771,0-1.621,0.022-2.549,0.078c-2.885,0.167-6.396,0.66-9.739,1.901l-47.901,17.723c-0.884,0.324-2.762,0.66-4.987,0.66
		c-0.391,0-0.76-0.012-1.107-0.034c-1.454-0.067-2.549-0.279-3.097-0.458L36.285,71.181c-1.979-0.66-3.991-0.984-5.981-0.984
		c-9.717,0-17.041,7.582-17.041,17.623v143.794c0,9.616,6.888,19.144,16.012,22.151L84.78,272.08
		c3.567,1.175,7.302,1.543,10.108,1.611c0.391,0.01,0.76,0.01,1.107,0.01c4.651,0,9.18-0.727,12.747-2.046l47.901-17.723
		c0.347-0.134,1.018-0.302,1.979-0.436c0.704-0.09,1.565-0.157,2.538-0.157c1.945,0,3.567,0.279,4.328,0.549l49.803,17.891
		c3.254,1.162,7.313,1.844,11.539,1.922c0.324,0.023,0.648,0.023,0.973,0.023c2.918,0,7.268-0.291,11.371-1.645l55.506-18.314
		c9.124-3.008,16.012-12.535,16.012-22.151V87.819C310.692,77.778,303.368,70.197,293.651,70.197 M288.329,231.468
		c-0.1,0.347-0.503,0.906-0.805,1.107l-55.359,18.271c-0.717,0.235-2.293,0.515-4.361,0.515c-0.336,0-0.66-0.012-0.973-0.022
		c-1.777-0.078-3.242-0.347-3.98-0.615l-49.803-17.88c-4.283-1.543-8.822-1.867-11.886-1.867c-0.761,0-1.622,0.023-2.538,0.078
		c-2.885,0.168-6.396,0.66-9.739,1.901l-47.901,17.724c-0.884,0.324-2.762,0.659-4.987,0.659c-0.391,0-0.76-0.011-1.107-0.034
		c-1.454-0.066-2.549-0.279-3.097-0.458l-55.36-18.271c-0.302-0.201-0.705-0.761-0.805-1.107V94.506L84.78,110.73
		c3.567,1.174,7.302,1.543,10.108,1.61c0.391,0.011,0.76,0.011,1.107,0.011c4.651,0,9.18-0.727,12.747-2.046l47.901-17.723
		c0.347-0.134,1.018-0.302,1.979-0.437c0.704-0.089,1.565-0.156,2.549-0.156c2.213,0,3.758,0.346,4.317,0.547l49.803,17.88
		c3.254,1.174,7.313,1.845,11.539,1.923c0.324,0.022,0.648,0.022,0.973,0.022c2.918,0,7.268-0.28,11.371-1.633l49.154-16.224
		V231.468"/>
	<path fill="#F4F4F4" d="M235.667,100.112c-4.585,1.513-12.055,1.416-16.599-0.216l-49.804-17.885
		c-4.545-1.632-11.967-1.596-16.496,0.08l-47.91,17.726c-4.528,1.675-11.985,1.808-16.57,0.295L32.781,81.795
		c-4.585-1.513-8.336,1.2-8.336,6.028v69.096c0,4.828,0,11.32,0,14.427s0,9.598,0,14.427v45.846c0,4.828,3.751,10.017,8.336,11.529
		l55.507,18.316c4.585,1.513,12.042,1.381,16.57-0.295l47.91-17.727c4.529-1.675,11.951-1.711,16.496-0.078l49.804,17.884
		c4.544,1.632,12.014,1.729,16.599,0.216l55.508-18.316c4.584-1.513,8.336-6.701,8.336-11.529v-45.846c0-4.829,0-11.32,0-14.427
		s0-9.599,0-14.427V87.823c0-4.828-3.752-7.541-8.336-6.028L235.667,100.112"/>
	<path fill="#2FA2CD" d="M51.406,200.79l43.177,27.649l64.821-23.676l66.967-54.385l42.091,57.2
		c0.818,1.112,2.383,1.351,3.495,0.532s1.351-2.383,0.532-3.495l-45.199-61.425l-70.388,57.163l-61.708,22.538l-41.091-26.313
		c-1.163-0.744-2.709-0.405-3.454,0.757C49.904,198.499,50.243,200.044,51.406,200.79"/>
	<path fill="#1676BB" d="M52.105,201.098l43.368,11.659l62.588-50.875l39.2,59.174l31.507-27.871l44.959-73.631
		c0.72-1.178,0.348-2.717-0.831-3.437s-2.717-0.348-3.437,0.831l-44.566,72.99l-26.639,23.563l-39.069-58.977l-64.882,52.74
		l-40.9-10.995c-1.333-0.358-2.705,0.432-3.063,1.765C49.981,199.369,50.771,200.74,52.105,201.098"/>
	<path fill="#166DAE" d="M161.165,242.164c-0.852,0-1.705,0.033-2.542,0.101v11.232c0.704-0.09,1.565-0.157,2.538-0.157
		c1.945,0,3.567,0.279,4.328,0.549l49.803,17.891c3.254,1.162,7.313,1.844,11.539,1.922v-11.176
		c-2.832-0.08-5.622-0.508-7.763-1.276l-49.804-17.884C167.031,242.562,164.103,242.164,161.165,242.164 M187.154,76.55
		c-1.786,3.354-3.785,6.633-5.879,9.774l37.793,13.572c2.141,0.769,4.931,1.197,7.763,1.276V89.977l0,0
		c-1.768-0.067-3.242-0.335-3.98-0.604L187.154,76.55"/>
	<path fill="#E1E2E3" d="M177,190.472l-17.597,14.291l-0.781,0.285v37.216c0.837-0.067,1.69-0.101,2.542-0.101
		c2.938,0,5.866,0.398,8.099,1.201l49.804,17.884c2.141,0.769,4.931,1.196,7.763,1.276V194.9l-29.569,26.156L177,190.472
		 M158.623,162.73v36.226l15.603-12.672L158.623,162.73 M226.371,150.378l-45.47,36.927l17.354,26.196l26.639-23.563l1.938-3.174
		v-35.763L226.371,150.378 M181.275,86.324c-7.616,11.422-16.487,20.99-20.935,25.448h-0.01l-0.04,0.05
		c-0.12,0.11-0.23,0.22-0.34,0.34l-0.09,0.08c-0.379,0.34-0.769,0.788-1.237,1.108v41.632l0.562-0.457l18.941,28.592l48.704-39.553
		v-42.392c-2.832-0.08-5.622-0.508-7.763-1.276L181.275,86.324"/>
	<path fill="#2E98C1" d="M174.226,186.284l-15.603,12.672v6.093l0.781-0.285L177,190.472L174.226,186.284 M226.831,143.564
		l-48.704,39.553l2.774,4.188l45.47-36.927l0.46,0.624V143.564"/>
	<polyline fill="#166DAE" points="159.185,154.525 158.623,154.982 158.623,162.73 174.226,186.284 177,190.472 197.261,221.056 
		226.831,194.9 226.831,186.765 224.893,189.939 198.254,213.501 180.901,187.305 178.126,183.117 159.185,154.525 	"/>
	<path fill="#1676BB" d="M194.709,51.162c0.08,23.48-25.649,51.87-34.37,60.61h-0.01l-0.04,0.05c-0.12,0.11-0.23,0.22-0.34,0.34
		l-0.09,0.08c-0.38,0.34-0.77,0.79-1.24,1.11c-0.12,0.09-0.25,0.17-0.39,0.24v0.08l-0.08-0.04l-0.08,0.04v-0.08
		c-0.65-0.32-1.15-0.92-1.63-1.35l-0.08-0.08c-0.11-0.12-0.23-0.23-0.35-0.34l-0.03-0.05h-0.01c-8.72-8.74-34.46-37.13-34.37-60.61
		c0.09-27.43,24.84-37,36.4-37.01h0.31c0.1,0,0.2,0,0.31,0.01C170.299,14.332,194.62,23.972,194.709,51.162"/>
	<path fill="#125E98" d="M158.62,14.162v15.281c11.769,0.298,21.224,9.924,21.224,21.776c0,11.841-9.455,21.467-21.224,21.766
		v40.368c-0.12,0.09-0.25,0.17-0.39,0.24l0,0c0.14-0.07,0.27-0.15,0.39-0.24c0.47-0.32,0.86-0.77,1.24-1.11l0.09-0.08
		c0.11-0.12,0.22-0.23,0.34-0.34l0.04-0.05h0.01c8.708-8.728,34.375-37.047,34.37-60.507c0-0.034,0-0.068,0-0.103
		C194.62,23.972,170.299,14.332,158.62,14.162"/>
	<path fill="#1676BB" d="M179.844,51.219c0-11.979-9.658-21.685-21.603-21.783v-0.009l-0.088,0.005l-0.089-0.005v0.009
		c-11.945,0.098-21.604,9.803-21.604,21.783c0,11.968,9.659,21.674,21.604,21.772v0.008l0.089-0.005l0.088,0.005v-0.008
		C170.186,72.893,179.844,63.187,179.844,51.219"/>
	<path fill="#F1F2F2" d="M158.62,39.442l-0.2-0.01l-0.18-0.02l-0.09,0.01l-0.09-0.01l-0.17,0.02c-6.35,0.19-11.45,5.4-11.45,11.79
		c0,6.39,5.1,11.59,11.45,11.78l0.17,0.02h0.18l0.18-0.02l0.2-0.01c6.25-0.29,11.25-5.45,11.25-11.77
		C169.87,44.902,164.87,39.732,158.62,39.442 M158.62,57.672c-0.16,0.02-0.31,0.03-0.47,0.03c-3.54-0.04-6.4-2.93-6.4-6.48
		c0-3.55,2.86-6.44,6.4-6.49c0.16,0,0.31,0.01,0.47,0.03c3.32,0.28,5.94,3.07,5.94,6.46C164.56,54.612,161.94,57.402,158.62,57.672"
		/>
	<path fill="#1676BB" d="M58.311,118.989c0.299,3.172-1.441,5.93-3.887,6.161c-2.445,0.23-4.669-2.155-4.968-5.327
		c-0.299-3.174,1.441-5.931,3.887-6.162C55.788,113.43,58.013,115.815,58.311,118.989"/>
	<path fill="#2FA2CD" d="M58.311,139.253c0.299,3.173-1.441,5.931-3.887,6.161c-2.445,0.23-4.669-2.155-4.968-5.327
		c-0.299-3.173,1.441-5.931,3.887-6.161C55.788,133.696,58.013,136.081,58.311,139.253"/>
	<path fill="#EBECEC" d="M30.112,69.928c-9.718,0-17.041,7.582-17.041,17.623v143.794c0,4.804,1.718,9.584,4.576,13.542
		c-2.742-3.904-4.384-8.579-4.384-13.273V87.819c0-10.041,7.324-17.623,17.041-17.623c1.99,0,4.002,0.324,5.981,0.984l55.506,18.316
		c0.523,0.171,1.547,0.373,2.905,0.448v-0.259c-1.453-0.067-2.549-0.279-3.097-0.458L36.094,70.912
		C34.115,70.252,32.102,69.928,30.112,69.928"/>
	<path fill="#166DAE" d="M30.304,70.197c-9.717,0-17.041,7.582-17.041,17.623v143.794c0,4.694,1.642,9.369,4.384,13.273
		c2.863,3.965,6.87,7.103,11.436,8.608l55.505,18.315c3.567,1.175,7.302,1.544,10.108,1.61v-10.929
		c-2.345-0.091-4.6-0.432-6.408-1.028l-55.507-18.316c-4.585-1.513-8.336-6.701-8.336-11.529v-45.846c0-4.829,0-11.32,0-14.427
		s0-9.599,0-14.427V87.823c0-3.921,2.475-6.447,5.86-6.447c0.783,0,1.615,0.135,2.476,0.419l55.507,18.316
		c1.808,0.597,4.063,0.938,6.408,1.029V89.945c-1.358-0.076-2.382-0.277-2.905-0.448L36.285,71.181
		C34.306,70.521,32.294,70.197,30.304,70.197"/>
	<path fill="#E1E2E3" d="M67.712,205.294l26.984,17.279v-10.025L67.712,205.294 M54.098,145.43c-2.313,0-4.356-2.313-4.641-5.343
		c-0.299-3.173,1.441-5.931,3.887-6.161c0.109-0.01,0.219-0.015,0.327-0.015c2.313,0,4.355,2.312,4.641,5.342
		c0.299,3.173-1.441,5.931-3.887,6.161C54.315,145.425,54.206,145.43,54.098,145.43 M54.098,125.165
		c-2.313,0-4.356-2.312-4.642-5.342c-0.299-3.174,1.441-5.931,3.887-6.162c0.109-0.01,0.218-0.016,0.327-0.016
		c2.313,0,4.356,2.313,4.641,5.344c0.299,3.172-1.441,5.93-3.887,6.161C54.315,125.16,54.207,125.165,54.098,125.165 M30.305,81.376
		c-3.386,0-5.86,2.526-5.86,6.447v69.096c0,4.828,0,11.32,0,14.427s0,9.598,0,14.427v45.846c0,4.828,3.751,10.017,8.336,11.529
		l55.507,18.316c1.808,0.597,4.063,0.938,6.408,1.028v-34.096l-0.113,0.042l-43.13-27.619c-0.151-0.093-0.291-0.199-0.417-0.319
		c-0.28-0.265-0.489-0.584-0.62-0.931c-0.124-0.325-0.18-0.678-0.158-1.037c0.018-0.291,0.086-0.583,0.209-0.86
		c0.121-0.274,0.288-0.519,0.489-0.727c0.257-0.267,0.566-0.467,0.9-0.596c0.001,0,0.002-0.001,0.004-0.001
		c0,0,0.001-0.001,0.002-0.001c0.28-0.107,0.581-0.165,0.89-0.165c0.051,0,0.102,0.002,0.154,0.005
		c0.186,0.012,0.371,0.043,0.553,0.097l40.844,10.98l0.393-0.319V101.141c-2.346-0.091-4.6-0.432-6.408-1.029L32.781,81.795
		C31.919,81.511,31.088,81.376,30.305,81.376"/>
	<path fill="#2E98C1" d="M51.453,200.82l43.13,27.619l0.113-0.042v-5.823l-26.984-17.279l-15.607-4.196
		C51.87,201.035,51.651,200.94,51.453,200.82 M50.416,199.57c0.131,0.347,0.339,0.666,0.62,0.931
		C50.761,200.241,50.549,199.921,50.416,199.57 M50.467,197.672c-0.123,0.277-0.192,0.569-0.209,0.86
		c0.01-0.165,0.037-0.332,0.082-0.498C50.374,197.91,50.417,197.789,50.467,197.672 M51.857,196.35
		c-0.334,0.129-0.643,0.329-0.9,0.596C51.21,196.684,51.518,196.481,51.857,196.35 M51.863,196.348
		c-0.001,0-0.001,0.001-0.002,0.001C51.861,196.349,51.862,196.348,51.863,196.348 M52.906,196.188
		c0.165,0.011,0.331,0.037,0.497,0.082l0.057,0.015C53.277,196.231,53.092,196.2,52.906,196.188"/>
	<path fill="#166DAE" d="M52.752,196.183c-0.309,0-0.609,0.058-0.89,0.165c-0.001,0-0.001,0.001-0.002,0.001
		c-0.001,0-0.003,0.001-0.004,0.001c-0.339,0.131-0.647,0.334-0.9,0.596c-0.201,0.208-0.368,0.452-0.489,0.727
		c-0.051,0.116-0.094,0.237-0.127,0.362c-0.045,0.166-0.072,0.333-0.082,0.498c-0.022,0.359,0.035,0.712,0.158,1.037
		c0.133,0.352,0.345,0.671,0.62,0.931c0.126,0.12,0.266,0.227,0.417,0.319c0.198,0.12,0.417,0.215,0.652,0.278l15.607,4.196
		l26.984,7.254v-5.603l-0.393,0.319l-40.844-10.98l-0.057-0.015c-0.166-0.045-0.332-0.071-0.497-0.082
		C52.854,196.185,52.803,196.183,52.752,196.183"/>
	<path fill="#166DAE" d="M53.67,113.645c-0.108,0-0.217,0.005-0.327,0.016c-2.445,0.23-4.186,2.988-3.887,6.162
		c0.285,3.03,2.328,5.342,4.642,5.342c0.108,0,0.217-0.005,0.326-0.015c2.446-0.23,4.186-2.989,3.887-6.161
		C58.026,115.958,55.983,113.645,53.67,113.645"/>
	<path fill="#2E98C1" d="M53.67,133.911c-0.108,0-0.218,0.005-0.327,0.015c-2.445,0.23-4.186,2.988-3.887,6.161
		c0.285,3.03,2.328,5.343,4.641,5.343c0.108,0,0.217-0.005,0.327-0.016c2.446-0.23,4.186-2.988,3.887-6.161
		C58.026,136.223,55.983,133.911,53.67,133.911"/>
	<path fill="#D1D3D4" d="M284.338,232.167l-57.494,18.119l-68.229-23.443l-63.734,22.921l-55.82-19.22V104.614c0-0.552-0.448-1-1-1
		s-1,0.448-1,1v127.355l57.835,19.915l63.735-22.923l68.187,23.43l58.123-18.316c0.526-0.166,0.819-0.728,0.653-1.255
		C285.427,232.293,284.866,232,284.338,232.167z"/>
	
		<ellipse transform="matrix(0.9847 0.1744 -0.1744 0.9847 24.7897 -45.7378)" fill="#F4F4F4" cx="272.666" cy="118.197" rx="7.288" ry="8.359"/>
	<path fill="#1676BB" d="M279.842,119.468l-2.462-0.436c-0.27,1.532-1.005,2.81-1.94,3.679c-0.94,0.872-2.038,1.317-3.11,1.316
		c-0.227,0-0.454-0.02-0.686-0.061c-1.057-0.19-1.957-0.775-2.661-1.718c-0.697-0.938-1.144-2.228-1.143-3.65
		c0-0.403,0.035-0.816,0.11-1.236c0.27-1.532,1.005-2.81,1.94-3.679c0.94-0.872,2.038-1.317,3.11-1.316
		c0.228,0,0.455,0.02,0.686,0.06c1.058,0.19,1.958,0.775,2.662,1.717c0.697,0.938,1.143,2.227,1.142,3.648
		c0,0.403-0.035,0.818-0.11,1.239L279.842,119.468l2.462,0.436c0.125-0.709,0.187-1.415,0.187-2.111
		c-0.002-2.452-0.753-4.77-2.122-6.623c-1.361-1.85-3.395-3.242-5.81-3.666c-0.52-0.092-1.041-0.137-1.558-0.137
		c-2.475,0-4.77,1.027-6.517,2.656c-1.752,1.631-2.999,3.883-3.458,6.467c-0.125,0.708-0.187,1.413-0.187,2.108
		c0.002,2.452,0.754,4.77,2.122,6.624c1.361,1.85,3.395,3.243,5.81,3.668c0.521,0.092,1.042,0.137,1.558,0.137
		c2.476,0,4.771-1.027,6.517-2.656c1.752-1.632,2.999-3.883,3.458-6.467L279.842,119.468z"/>
	
		<ellipse transform="matrix(0.9847 0.1744 -0.1744 0.9847 40.6156 -44.3472)" fill="#F4F4F4" cx="272.666" cy="208.949" rx="7.288" ry="8.359"/>
	<path fill="#2FA2CD" d="M279.842,210.22l-2.462-0.436c-0.27,1.531-1.005,2.809-1.94,3.678c-0.94,0.872-2.038,1.317-3.11,1.316
		c-0.227,0-0.454-0.02-0.686-0.061c-1.057-0.19-1.957-0.774-2.661-1.717c-0.697-0.939-1.144-2.229-1.143-3.651
		c0-0.403,0.035-0.816,0.11-1.235c0.27-1.532,1.005-2.81,1.94-3.679c0.94-0.872,2.038-1.317,3.11-1.316
		c0.228,0,0.455,0.02,0.686,0.061c1.058,0.19,1.958,0.774,2.662,1.716c0.697,0.938,1.143,2.227,1.142,3.648
		c0,0.403-0.035,0.818-0.11,1.24L279.842,210.22l2.462,0.436c0.125-0.708,0.187-1.415,0.187-2.111
		c-0.002-2.452-0.753-4.77-2.122-6.622c-1.361-1.85-3.395-3.242-5.81-3.666c-0.52-0.092-1.041-0.137-1.558-0.137
		c-2.475,0-4.77,1.027-6.517,2.655c-1.752,1.632-2.999,3.884-3.458,6.468c-0.125,0.707-0.187,1.413-0.187,2.107
		c0.002,2.452,0.754,4.771,2.122,6.624c1.361,1.851,3.395,3.244,5.811,3.668c0.52,0.092,1.041,0.137,1.557,0.137
		c2.476,0,4.771-1.027,6.517-2.656c1.752-1.631,2.999-3.883,3.458-6.467L279.842,210.22z"/>
	<path fill="#10588F" d="M158.31,14.152H158c-11.56,0.01-36.31,9.58-36.4,37.01c0,0.046,0,0.092,0,0.138
		c0.011,23.454,25.667,51.75,34.371,60.473h0.01l0.03,0.05c0.12,0.11,0.24,0.22,0.35,0.34l0.08,0.08c0.48,0.43,0.98,1.03,1.63,1.35
		v0.08l0.08-0.04l0.08,0.04v-0.08l0,0l0,0c0.14-0.07,0.27-0.15,0.39-0.24V72.984c-0.126,0.003-0.252,0.005-0.379,0.006v0.008
		l-0.088-0.005l-0.089,0.005v-0.008c-11.945-0.098-21.604-9.804-21.604-21.772c0-11.979,9.659-21.685,21.604-21.783v-0.009
		l0.089,0.005l0.088-0.005v0.009c0.127,0.001,0.252,0.003,0.379,0.006V14.162l0,0C158.51,14.152,158.41,14.152,158.31,14.152"/>
	<path fill="#166DAE" d="M158.15,44.732c-3.54,0.05-6.4,2.94-6.4,6.49c0,3.55,2.86,6.44,6.4,6.48c0.16,0,0.31-0.01,0.47-0.03l0,0
		v-12.91l0,0C158.46,44.742,158.31,44.732,158.15,44.732 M158.241,29.427l-0.088,0.005l-0.089-0.005v0.009
		c-11.945,0.098-21.604,9.803-21.604,21.783c0,11.968,9.659,21.674,21.604,21.772v0.008l0.089-0.005l0.088,0.005v-0.008
		c0.127-0.001,0.252-0.003,0.379-0.006v-9.993l0,0l-0.2,0.01l-0.18,0.02h-0.18l-0.17-0.02c-6.35-0.19-11.45-5.39-11.45-11.78
		c0-6.39,5.1-11.6,11.45-11.79l0.17-0.02l0.09,0.01l0.09-0.01l0.18,0.02l0.2,0.01l0,0v-10c-0.126-0.003-0.252-0.005-0.379-0.006
		V29.427"/>
	<path fill="#E1E2E3" d="M158.24,39.412l-0.09,0.01l-0.09-0.01l-0.17,0.02c-6.35,0.19-11.45,5.4-11.45,11.79
		c0,6.39,5.1,11.59,11.45,11.78l0.17,0.02h0.18l0.18-0.02l0.2-0.01l0,0v-5.32l0,0c-0.16,0.02-0.31,0.03-0.47,0.03
		c-3.54-0.04-6.4-2.93-6.4-6.48c0-3.55,2.86-6.44,6.4-6.49c0.16,0,0.31,0.01,0.47,0.03l0,0v-5.32l0,0l-0.2-0.01L158.24,39.412"/>
</g>
</svg>
