<svg xmlns="http://www.w3.org/2000/svg" version="1.1" id="Layer_1" x="0px" y="0px" width="321.211px" height="284.849px" viewBox="0 0 321.211 284.849" enable-background="new 0 0 321.211 284.849" xml:space="preserve"><metadata><sfw xmlns="http://ns.adobe.com/SaveForWeb/1.0/"><sliceSourceBounds y="-428.451" x="272.698" width="297.621" height="259.572" bottomLeftOrigin="true"/></sfw></metadata><path fill="#1676BB" d="M235.667 100.112c-4.585 1.513-12.055 1.416-16.599-0.216l-49.804-17.885c-4.545-1.632-11.967-1.596-16.496 0.08l-47.91 17.726c-4.529 1.675-11.985 1.808-16.57 0.295L32.781 81.795c-4.585-1.513-8.336 1.2-8.336 6.028v69.096c0 4.828 0 11.32 0 14.427 0 3.106 0 9.598 0 14.427v45.846c0 4.828 3.751 10.017 8.336 11.529l55.507 18.316c4.585 1.513 12.042 1.381 16.57-0.295l47.91-17.727c4.529-1.675 11.951-1.711 16.496-0.078l49.804 17.884c4.544 1.632 12.014 1.729 16.599 0.216l55.508-18.316c4.584-1.513 8.336-6.701 8.336-11.529v-45.846c0-4.829 0-11.32 0-14.427 0-3.106 0-9.599 0-14.427V87.823c0-4.828-3.752-7.541-8.336-6.028L235.667 100.112"/><path fill="#1676BB" d="M293.651 70.197c-1.99 0-4.002 0.324-5.981 0.984l-55.505 18.316c-0.717 0.235-2.281 0.503-4.361 0.503 -0.336 0-0.66-0.011-0.973-0.023 -1.768-0.067-3.242-0.335-3.98-0.604l-49.803-17.89c-4.283-1.532-8.822-1.856-11.876-1.856 -0.771 0-1.621 0.023-2.549 0.078 -2.885 0.167-6.397 0.66-9.739 1.901l-47.901 17.723c-0.884 0.324-2.762 0.66-4.987 0.66 -0.391 0-0.76-0.012-1.107-0.034 -1.454-0.067-2.549-0.279-3.097-0.458L36.285 71.181c-1.979-0.66-3.991-0.984-5.981-0.984 -9.717 0-17.041 7.582-17.041 17.623v143.794c0 9.616 6.888 19.144 16.012 22.151l55.505 18.314c3.567 1.175 7.302 1.543 10.108 1.611 0.391 0.01 0.76 0.01 1.107 0.01 4.651 0 9.18-0.726 12.747-2.046l47.901-17.723c0.347-0.134 1.018-0.302 1.98-0.436 0.704-0.09 1.565-0.157 2.538-0.157 1.945 0 3.567 0.279 4.328 0.549l49.803 17.891c3.254 1.162 7.312 1.844 11.539 1.922 0.324 0.024 0.648 0.024 0.973 0.024 2.918 0 7.268-0.291 11.371-1.645l55.506-18.314c9.124-3.008 16.012-12.535 16.012-22.151V87.819C310.692 77.778 303.368 70.197 293.651 70.197M288.329 231.468c-0.1 0.347-0.503 0.906-0.805 1.107l-55.359 18.271c-0.717 0.235-2.293 0.515-4.361 0.515 -0.336 0-0.66-0.012-0.973-0.023 -1.777-0.078-3.242-0.347-3.98-0.615l-49.803-17.88c-4.283-1.543-8.822-1.867-11.886-1.867 -0.761 0-1.622 0.024-2.538 0.078 -2.885 0.168-6.397 0.66-9.739 1.901l-47.901 17.724c-0.884 0.324-2.762 0.659-4.987 0.659 -0.391 0-0.76-0.011-1.107-0.034 -1.454-0.066-2.549-0.279-3.097-0.458l-55.36-18.271c-0.302-0.201-0.705-0.761-0.805-1.107V94.506L84.78 110.73c3.567 1.174 7.302 1.543 10.108 1.61 0.391 0.011 0.76 0.011 1.107 0.011 4.651 0 9.18-0.727 12.747-2.046l47.901-17.723c0.347-0.134 1.018-0.302 1.98-0.437 0.704-0.089 1.565-0.156 2.549-0.156 2.213 0 3.758 0.346 4.317 0.547l49.803 17.88c3.254 1.174 7.312 1.845 11.539 1.923 0.324 0.022 0.648 0.022 0.973 0.022 2.918 0 7.268-0.28 11.371-1.633l49.154-16.224V231.468"/><path fill="#F4F4F4" d="M235.667 100.112c-4.585 1.513-12.055 1.416-16.599-0.216l-49.804-17.885c-4.545-1.632-11.967-1.596-16.496 0.08l-47.91 17.726c-4.529 1.675-11.985 1.808-16.57 0.295L32.781 81.795c-4.585-1.513-8.336 1.2-8.336 6.028v69.096c0 4.828 0 11.32 0 14.427 0 3.106 0 9.598 0 14.427v45.846c0 4.828 3.751 10.017 8.336 11.529l55.507 18.316c4.585 1.513 12.042 1.381 16.57-0.295l47.91-17.727c4.529-1.675 11.951-1.711 16.496-0.078l49.804 17.884c4.544 1.632 12.014 1.729 16.599 0.216l55.508-18.316c4.584-1.513 8.336-6.701 8.336-11.529v-45.846c0-4.829 0-11.32 0-14.427 0-3.106 0-9.599 0-14.427V87.823c0-4.828-3.752-7.541-8.336-6.028L235.667 100.112"/><path fill="#2FA2CD" d="M51.406 200.789l43.177 27.649 64.821-23.676 66.967-54.384 42.09 57.201c0.818 1.112 2.383 1.35 3.495 0.532 1.112-0.818 1.35-2.383 0.532-3.495l-45.199-61.425 -70.388 57.163 -61.708 22.539 -41.091-26.314c-1.163-0.745-2.709-0.405-3.454 0.757S50.243 200.045 51.406 200.789L51.406 200.789"/><path fill="#1676BB" d="M52.105 201.098l43.368 11.659 62.588-50.875 39.201 59.174 31.507-27.87 44.958-73.631c0.72-1.178 0.348-2.717-0.831-3.436 -1.178-0.72-2.717-0.348-3.436 0.831l-44.567 72.99 -26.638 23.563 -39.07-58.977 -64.882 52.74 -40.9-10.995c-1.334-0.358-2.705 0.432-3.063 1.765C49.981 199.368 50.772 200.74 52.105 201.098L52.105 201.098"/><path fill="#166DAE" d="M187.153 76.55c-1.786 3.354-3.785 6.633-5.879 9.774l37.793 13.572c2.141 0.769 4.931 1.197 7.763 1.277V89.977l0 0c-1.768-0.067-3.242-0.335-3.98-0.604L187.153 76.55"/><path fill="#E1E2E3" d="M226.371 150.378l-45.471 36.927 17.354 26.197 26.638-23.563 1.938-3.174v-35.762L226.371 150.378M181.274 86.324c-7.616 11.422-16.487 20.99-20.935 25.448h-0.01l-0.04 0.05c-0.12 0.11-0.23 0.22-0.34 0.34l-0.09 0.08c-0.379 0.34-0.769 0.788-1.237 1.108v41.632l0.562-0.457 18.941 28.592 48.704-39.553v-42.391c-2.832-0.08-5.622-0.508-7.763-1.277L181.274 86.324"/><polyline fill="#2E98C1" points="226.83,143.564 178.126,183.117 180.901,187.305 226.371,150.378 226.83,151.003 226.83,143.564     "/><path fill="#166DAE" d="M161.165 242.163c-0.852 0-1.705 0.034-2.542 0.101v11.233c0.704-0.09 1.565-0.157 2.538-0.157 1.945 0 3.567 0.279 4.328 0.549l49.803 17.891c3.254 1.162 7.312 1.844 11.539 1.922v-11.176c-2.832-0.08-5.622-0.508-7.763-1.276l-49.804-17.884C167.031 242.562 164.103 242.163 161.165 242.163"/><path fill="#E1E2E3" d="M177.001 190.472l-17.597 14.291 -0.781 0.285v37.216c0.837-0.067 1.69-0.101 2.542-0.101 2.938 0 5.866 0.399 8.099 1.202l49.804 17.884c2.141 0.769 4.931 1.197 7.763 1.276V194.9l-29.569 26.156L177.001 190.472M158.623 162.73v36.225l15.603-12.672L158.623 162.73"/><polyline fill="#2E98C1" points="174.226,186.284 158.623,198.956 158.623,205.048 159.404,204.763 177.001,190.472    174.226,186.284  "/><polyline fill="#166DAE" points="159.185,154.525 158.623,154.982 158.623,162.73 174.226,186.284 177.001,190.472    197.262,221.056 226.83,194.9 226.83,186.765 224.893,189.938 198.255,213.502 180.901,187.305 178.126,183.117 159.185,154.525     "/><path fill="#1676BB" d="M194.709 51.162c0.08 23.48-25.649 51.87-34.37 60.61h-0.01l-0.04 0.05c-0.12 0.11-0.23 0.22-0.34 0.34l-0.09 0.08c-0.38 0.34-0.77 0.79-1.24 1.11 -0.12 0.09-0.25 0.17-0.39 0.24v0.08l-0.08-0.04 -0.08 0.04v-0.08c-0.65-0.32-1.15-0.92-1.63-1.35l-0.08-0.08c-0.11-0.12-0.23-0.23-0.35-0.34l-0.03-0.05h-0.01c-8.72-8.74-34.46-37.13-34.37-60.61 0.09-27.43 24.84-37 36.4-37.01h0.31c0.1 0 0.2 0 0.31 0.01C170.299 14.332 194.62 23.972 194.709 51.162"/><path fill="#125E98" d="M158.62 14.162v15.281c11.769 0.298 21.224 9.924 21.224 21.776 0 11.841-9.455 21.467-21.224 21.766v40.368c-0.12 0.09-0.25 0.17-0.39 0.24l0 0c0.14-0.07 0.27-0.15 0.39-0.24 0.47-0.32 0.86-0.77 1.24-1.11l0.09-0.08c0.11-0.12 0.22-0.23 0.34-0.34l0.04-0.05h0.01c8.707-8.727 34.374-37.047 34.37-60.507 0-0.034 0-0.069 0-0.103C194.62 23.972 170.299 14.332 158.62 14.162"/><path fill="#1676BB" d="M179.844 51.219c0-11.98-9.658-21.685-21.603-21.783v-0.009l-0.088 0.005 -0.089-0.005v0.009c-11.945 0.098-21.604 9.803-21.604 21.783 0 11.968 9.659 21.674 21.604 21.772v0.008l0.089-0.005 0.088 0.005v-0.008C170.186 72.893 179.844 63.187 179.844 51.219"/><path fill="#F1F2F2" d="M158.62 39.442l-0.2-0.01 -0.18-0.02 -0.09 0.01 -0.09-0.01 -0.17 0.02c-6.35 0.19-11.45 5.4-11.45 11.79 0 6.39 5.1 11.59 11.45 11.78l0.17 0.02h0.18l0.18-0.02 0.2-0.01c6.249-0.29 11.25-5.45 11.25-11.77C169.87 44.902 164.87 39.732 158.62 39.442M158.62 57.672c-0.16 0.02-0.31 0.03-0.47 0.03 -3.54-0.04-6.4-2.93-6.4-6.48 0-3.55 2.86-6.44 6.4-6.49 0.16 0 0.31 0.01 0.47 0.03 3.32 0.28 5.94 3.07 5.94 6.46C164.56 54.612 161.94 57.402 158.62 57.672"/><path fill="#1676BB" d="M58.311 118.989c0.299 3.172-1.441 5.93-3.887 6.161 -2.445 0.23-4.669-2.155-4.968-5.327 -0.299-3.174 1.441-5.931 3.887-6.162C55.788 113.43 58.013 115.815 58.311 118.989"/><path fill="#2FA2CD" d="M58.311 139.253c0.299 3.173-1.441 5.931-3.887 6.161 -2.445 0.23-4.669-2.155-4.968-5.327 -0.299-3.173 1.441-5.931 3.887-6.161C55.788 133.696 58.013 136.08 58.311 139.253"/><path fill="#EBECEC" d="M30.112 69.928c-9.718 0-17.041 7.582-17.041 17.622v143.795c0 4.803 1.718 9.584 4.576 13.542 -2.742-3.904-4.384-8.578-4.384-13.273V87.819c0-10.041 7.324-17.623 17.041-17.623 1.99 0 4.002 0.324 5.981 0.984l55.506 18.316c0.523 0.171 1.547 0.372 2.905 0.448v-0.259c-1.453-0.067-2.549-0.279-3.097-0.458L36.094 70.912C34.115 70.252 32.102 69.928 30.112 69.928"/><path fill="#166DAE" d="M30.304 70.197c-9.717 0-17.041 7.582-17.041 17.623v143.794c0 4.695 1.642 9.369 4.384 13.273 2.863 3.965 6.869 7.103 11.436 8.609l55.505 18.315c3.567 1.175 7.302 1.544 10.108 1.61v-10.928c-2.345-0.091-4.6-0.432-6.408-1.029l-55.507-18.316c-4.585-1.513-8.336-6.701-8.336-11.529v-45.846c0-4.829 0-11.32 0-14.427 0-3.106 0-9.599 0-14.427V87.823c0-3.921 2.474-6.447 5.86-6.447 0.783 0 1.615 0.135 2.476 0.419l55.507 18.316c1.808 0.597 4.063 0.937 6.408 1.029V89.945c-1.358-0.076-2.382-0.277-2.905-0.448L36.285 71.181C34.306 70.521 32.294 70.197 30.304 70.197"/><path fill="#E1E2E3" d="M67.712 205.294l26.984 17.28v-10.026L67.712 205.294M54.098 145.43c-2.313 0-4.356-2.312-4.641-5.343 -0.299-3.173 1.441-5.931 3.887-6.161 0.109-0.01 0.218-0.015 0.327-0.015 2.314 0 4.356 2.311 4.641 5.343 0.299 3.173-1.441 5.931-3.887 6.161C54.315 145.425 54.206 145.43 54.098 145.43M54.098 125.165c-2.314 0-4.357-2.312-4.642-5.343 -0.299-3.174 1.441-5.931 3.887-6.162 0.109-0.01 0.218-0.015 0.327-0.015 2.314 0 4.356 2.312 4.641 5.344 0.299 3.172-1.441 5.93-3.887 6.161C54.315 125.16 54.206 125.165 54.098 125.165M30.305 81.376c-3.386 0-5.86 2.526-5.86 6.447v69.096c0 4.828 0 11.32 0 14.427 0 3.106 0 9.598 0 14.427v45.846c0 4.828 3.751 10.017 8.336 11.529l55.507 18.316c1.808 0.596 4.063 0.937 6.408 1.029v-34.096l-0.114 0.042 -43.125-27.616c-0.158-0.096-0.303-0.208-0.434-0.333 -0.265-0.254-0.465-0.558-0.595-0.887 -0.136-0.343-0.197-0.718-0.168-1.1 0.02-0.276 0.086-0.552 0.201-0.816 0.126-0.29 0.302-0.546 0.516-0.762 0 0 0.001-0.001 0.001-0.001 0 0 0.001-0.001 0.001-0.001 0.246-0.248 0.536-0.437 0.85-0.561 0.29-0.115 0.602-0.177 0.922-0.177 0.061 0 0.123 0.002 0.185 0.007 0.174 0.013 0.348 0.044 0.519 0.094l40.847 10.981 0.393-0.32V101.14c-2.346-0.091-4.6-0.432-6.408-1.029L32.781 81.795C31.92 81.511 31.088 81.376 30.305 81.376"/><path fill="#2E98C1" d="M51.457 200.822l43.125 27.616 0.114-0.042v-5.823l-26.984-17.28 -15.607-4.196v0C51.871 201.036 51.654 200.942 51.457 200.822M50.428 199.602c0.13 0.329 0.33 0.633 0.595 0.887C50.763 200.239 50.56 199.935 50.428 199.602M50.461 197.686c-0.115 0.263-0.181 0.539-0.201 0.816 0.012-0.155 0.038-0.311 0.08-0.467C50.372 197.914 50.413 197.798 50.461 197.686M50.978 196.923c0 0-0.001 0.001-0.001 0.001C50.978 196.924 50.978 196.924 50.978 196.923M51.83 196.361c-0.314 0.124-0.604 0.313-0.85 0.561C51.222 196.678 51.512 196.487 51.83 196.361M52.937 196.19c0.155 0.012 0.31 0.038 0.466 0.079l0.053 0.014C53.285 196.234 53.111 196.203 52.937 196.19"/><path fill="#166DAE" d="M52.752 196.183c-0.32 0-0.633 0.062-0.922 0.177 -0.318 0.127-0.608 0.318-0.85 0.561 0 0-0.001 0.001-0.001 0.001 0 0-0.001 0.001-0.001 0.001 -0.214 0.215-0.39 0.472-0.516 0.762 -0.048 0.111-0.089 0.228-0.122 0.349 -0.042 0.156-0.068 0.312-0.08 0.467 -0.028 0.382 0.033 0.757 0.168 1.1 0.132 0.334 0.335 0.637 0.595 0.887 0.131 0.126 0.276 0.238 0.434 0.333 0.197 0.119 0.414 0.213 0.648 0.276v0l15.607 4.196 26.984 7.254v-5.603l-0.393 0.32 -40.847-10.981 -0.053-0.014c-0.155-0.042-0.311-0.068-0.466-0.079C52.875 196.186 52.814 196.183 52.752 196.183"/><path fill="#166DAE" d="M53.67 113.645c-0.108 0-0.217 0.005-0.327 0.015 -2.445 0.23-4.185 2.988-3.887 6.162 0.285 3.03 2.328 5.343 4.642 5.343 0.108 0 0.217-0.005 0.326-0.015 2.446-0.231 4.186-2.989 3.887-6.161C58.026 115.957 55.983 113.645 53.67 113.645"/><path fill="#2E98C1" d="M53.67 133.911c-0.108 0-0.217 0.005-0.327 0.015 -2.445 0.23-4.185 2.988-3.887 6.161 0.285 3.03 2.328 5.343 4.641 5.343 0.108 0 0.217-0.005 0.327-0.015 2.446-0.231 4.186-2.988 3.887-6.161C58.026 136.222 55.983 133.91 53.67 133.911"/><path fill="#D1D3D4" d="M284.338 232.167l-57.495 18.119 -68.229-23.444 -63.735 22.922 -55.82-19.221 0-125.929c0-0.552-0.448-1-1-1 -0.552 0-1 0.448-1 1l0 127.355 57.835 19.914 63.735-22.922 68.186 23.429 58.123-18.317c0.527-0.166 0.819-0.728 0.653-1.254C285.427 232.293 284.865 232.001 284.338 232.167L284.338 232.167z"/><ellipse transform="matrix(0.9847 0.1744 -0.1744 0.9847 24.7894 -45.7374)" fill="#F4F4F4" cx="272.665" cy="118.197" rx="7.288" ry="8.359"/><path fill="#1676BB" d="M279.842 119.468l-2.462-0.436c-0.27 1.531-1.005 2.809-1.941 3.678 -0.941 0.872-2.038 1.317-3.11 1.317 -0.226 0-0.455-0.02-0.686-0.06 -1.056-0.19-1.957-0.775-2.662-1.718 -0.697-0.939-1.143-2.228-1.142-3.651 0-0.403 0.035-0.816 0.11-1.236 0.27-1.532 1.005-2.81 1.941-3.679 0.941-0.872 2.038-1.317 3.111-1.316 0.227 0 0.454 0.02 0.685 0.06 1.058 0.191 1.958 0.775 2.663 1.717 0.697 0.938 1.143 2.227 1.141 3.648 0 0.403-0.035 0.818-0.11 1.239L279.842 119.468l2.462 0.436c0.126-0.709 0.187-1.415 0.187-2.112 -0.001-2.452-0.753-4.769-2.122-6.623 -1.361-1.85-3.394-3.242-5.81-3.666 -0.52-0.092-1.042-0.137-1.557-0.137 -2.475 0.001-4.77 1.027-6.517 2.656 -1.752 1.632-3 3.883-3.458 6.467 -0.125 0.708-0.186 1.413-0.186 2.108 0.002 2.453 0.753 4.771 2.122 6.624 1.361 1.85 3.394 3.243 5.81 3.668 0.52 0.092 1.041 0.137 1.557 0.137 2.475-0.001 4.77-1.028 6.516-2.656 1.752-1.632 2.999-3.883 3.458-6.467L279.842 119.468z"/><ellipse transform="matrix(0.9847 0.1744 -0.1744 0.9847 40.6152 -44.3469)" fill="#F4F4F4" cx="272.665" cy="208.949" rx="7.288" ry="8.359"/><path fill="#2FA2CD" d="M279.842 210.22l-2.462-0.436c-0.27 1.531-1.005 2.809-1.94 3.678 -0.941 0.872-2.038 1.317-3.11 1.316 -0.227 0-0.455-0.02-0.686-0.06 -1.057-0.19-1.957-0.775-2.662-1.717 -0.697-0.939-1.143-2.229-1.142-3.651 0-0.403 0.035-0.816 0.11-1.235 0.27-1.532 1.005-2.81 1.941-3.679 0.941-0.872 2.038-1.317 3.111-1.316 0.227 0 0.455 0.02 0.685 0.06 1.058 0.19 1.958 0.775 2.662 1.716 0.697 0.938 1.143 2.227 1.141 3.649 0 0.403-0.035 0.818-0.11 1.239L279.842 210.22l2.462 0.436c0.126-0.709 0.187-1.416 0.187-2.112 -0.002-2.452-0.753-4.77-2.122-6.623 -1.361-1.85-3.395-3.242-5.81-3.665 -0.52-0.092-1.041-0.137-1.557-0.137 -2.475 0.001-4.77 1.027-6.517 2.656 -1.752 1.632-3 3.883-3.458 6.467 -0.125 0.708-0.186 1.413-0.186 2.108 0.002 2.452 0.753 4.771 2.122 6.624 1.361 1.85 3.395 3.243 5.81 3.667 0.519 0.092 1.041 0.137 1.557 0.137 2.475-0.001 4.77-1.027 6.516-2.656 1.752-1.632 2.999-3.883 3.458-6.467L279.842 210.22z"/><path fill="#10588F" d="M158.31 14.152H158c-11.56 0.01-36.31 9.58-36.4 37.01 0 0.046 0 0.092 0 0.138 0.01 23.454 25.667 51.75 34.37 60.473h0.01l0.03 0.05c0.12 0.11 0.24 0.22 0.35 0.34l0.08 0.08c0.48 0.43 0.98 1.03 1.63 1.35v0.08l0.08-0.04 0.08 0.04v-0.08l0 0 0 0c0.14-0.07 0.27-0.15 0.39-0.24V72.984c-0.126 0.003-0.252 0.005-0.379 0.006v0.008l-0.088-0.005 -0.089 0.005v-0.008c-11.945-0.098-21.604-9.804-21.604-21.772 0-11.98 9.659-21.685 21.604-21.783v-0.009l0.089 0.005 0.088-0.005v0.009c0.127 0.001 0.253 0.003 0.379 0.006V14.162l0 0C158.51 14.152 158.41 14.152 158.31 14.152"/><path fill="#166DAE" d="M158.15 44.732c-3.54 0.05-6.4 2.94-6.4 6.49 0 3.55 2.86 6.44 6.4 6.48 0.16 0 0.31-0.01 0.47-0.03l0 0v-12.91l0 0C158.46 44.742 158.31 44.732 158.15 44.732M158.241 29.427l-0.088 0.005 -0.089-0.005v0.009c-11.945 0.098-21.604 9.803-21.604 21.783 0 11.968 9.659 21.674 21.604 21.772v0.008l0.089-0.005 0.088 0.005v-0.008c0.127-0.001 0.253-0.003 0.379-0.006v-9.993l0 0 -0.2 0.01 -0.18 0.02h-0.18l-0.17-0.02c-6.35-0.19-11.45-5.39-11.45-11.78 0-6.39 5.1-11.6 11.45-11.79l0.17-0.02 0.09 0.01 0.09-0.01 0.18 0.02 0.2 0.01 0 0v-9.999c-0.126-0.003-0.252-0.005-0.379-0.006V29.427"/><path fill="#E1E2E3" d="M158.24 39.412l-0.09 0.01 -0.09-0.01 -0.17 0.02c-6.35 0.19-11.45 5.4-11.45 11.79 0 6.39 5.1 11.59 11.45 11.78l0.17 0.02h0.18l0.18-0.02 0.2-0.01 0 0v-5.32l0 0c-0.16 0.02-0.31 0.03-0.47 0.03 -3.54-0.04-6.4-2.93-6.4-6.48 0-3.55 2.86-6.44 6.4-6.49 0.16 0 0.31 0.01 0.47 0.03l0 0v-5.32l0 0 -0.2-0.01L158.24 39.412"/></svg>
