<svg xmlns="http://www.w3.org/2000/svg" width="390" height="279" viewBox="-20.288 -14.238 390 279" enable-background="new -20.288 -14.238 390 279"><path fill="#1375BB" d="M271.575 32.73v61.805c0 4.608-3.766 8.373-8.344 8.373h-210.083v16.988c0 7.771-5 11.294-9.668 11.294-2.199 0-5.452-.752-8.645-4.428l-9.729-11.144s-9.246-10.089-15.241-16.084c-3.403-3.432-4.125-5.3-4.125-7.409v-59.396c0-9.429 7.71-17.108 17.137-17.108h231.558c9.429.001 17.14 7.681 17.14 17.109"/><path fill="#F3F4F5" d="M254.198 30.151l1.381-1.38-1.383-1.384c-.248-.247-.248-.649 0-.898.248-.247.648-.249.896 0l1.385 1.384 1.382-1.379c.247-.247.647-.247.896 0 .247.247.247.649 0 .897l-1.381 1.381 1.386 1.384c.246.25.246.648-.002.897-.247.247-.65.247-.896 0l-1.385-1.382-1.379 1.379c-.25.248-.65.248-.9 0-.247-.249-.247-.652 0-.899zM15.57 35.625v54.459l.009.05c-.037.841.411 1.882 1.411 3.029l23.335 26.772c2.624 3.009 4.771 2.205 4.771-1.789v-25.206h213.413c1.572 0 2.856-1.284 2.856-2.856v-54.459h-245.795"/><path fill="#D0D2D3" d="M244.759 69.427h-212.239v-16.137h212.239v16.137"/><path fill="#2DA1CD" d="M65.813 69.427h-35.713v-16.137h35.713v16.137"/><path fill="#1375BB" d="M335.94 132.846v66.654c0 4.006-2.831 7.319-6.536 8.133-.362.09-.724.15-1.054.182l-.785.029h-45.57c-5.602 5.783-11.927 12.711-11.927 12.74l-9.729 11.145c-3.222 3.676-6.476 4.428-8.644 4.428-4.669 0-9.699-3.554-9.699-11.325v-16.987h-161.438l-.753-.029c-.331-.031-.693-.092-1.054-.182-3.734-.813-6.565-4.127-6.565-8.133v-66.654c0-8.915 6.896-16.264 15.601-17.017.542-.061 1.054-.091 1.537-.091h229.479c.512 0 1.023.031 1.566.091 8.673.753 15.571 8.102 15.571 17.016"/><path fill="#F3F4F5" d="M256.077 135.726h-173.642v59.3c0 1.572 1.259 2.854 2.856 2.854h164.77200000000002v25.22c0 3.995 2.154 4.793 4.768 1.791l22.982-27.012h45.042c1.599 0 2.858-1.281 2.858-2.854v-59.3h-69.636"/><path fill="#D0D2D3" d="M97.101 173.52h212.238v-16.135h-212.238v16.135"/><path fill="#2DA1CD" d="M97.101 173.52h35.713v-16.135h-35.713v16.135"/><path fill="#116CAD" d="M170.614 15.622h-147.736c-9.427 0-17.137 7.68-17.137 17.108v59.396c0 2.108.722 3.977 4.125 7.409 5.995 5.995 15.241 16.084 15.241 16.084l9.729 11.144c3.193 3.676 6.446 4.428 8.645 4.428 4.668 0 9.668-3.523 9.668-11.294v-16.988h117.466v-9.969h-125.519v25.207c0 2.364-.752 3.61-1.91 3.61-.798 0-1.791-.593-2.861-1.821l-23.335-26.772c-1-1.147-1.448-2.188-1.411-3.029l-.009-.05v-54.46h155.044v-20.003"/><path fill="#DFE1E3" d="M170.614 35.625h-155.044v54.459l.009.05c-.037.841.411 1.882 1.411 3.029l23.335 26.772c1.071 1.228 2.063 1.821 2.861 1.821 1.158 0 1.91-1.246 1.91-3.61v-25.206h125.518v-23.513h-140.51399999999998v-16.137h140.515v-17.665"/><path fill="#BFC2C3" d="M170.614 53.29h-104.801v16.137h-33.293 138.094v-16.137"/><path fill="#2994BE" d="M65.813 53.29h-35.713v16.137h35.713v-16.137"/><path fill="#116CAD" d="M170.614 115.739h-81.292c-.482 0-.994.031-1.537.091-8.706.753-15.601 8.102-15.601 17.017v66.654c0 4.006 2.831 7.319 6.565 8.133.361.09.723.15 1.054.182l.753.029h90.057v-9.965h-85.322c-1.597 0-2.856-1.281-2.856-2.854v-59.3h88.179v-19.987"/><path fill="#DFE1E3" d="M170.614 135.726h-88.179v59.3c0 1.572 1.259 2.854 2.856 2.854h85.323v-24.36h-73.513v-16.135h73.514v-21.659"/><path fill="#BFC2C3" d="M170.614 157.385h-37.8v16.135h-35.713v-16.135 16.135h73.513v-16.135"/><path fill="#2994BE" d="M132.814 157.385h-35.713v16.135h35.713v-16.135"/><path fill="#F3F4F5" d="M320.966 129.612l1.381-1.381-1.382-1.385c-.249-.246-.249-.649 0-.898.247-.247.648-.249.896 0l1.385 1.384 1.383-1.38c.246-.247.647-.247.896 0 .246.247.246.649 0 .897l-1.381 1.381 1.385 1.384c.247.25.247.647-.002.897-.246.246-.65.246-.896 0l-1.385-1.383-1.379 1.379c-.25.248-.65.248-.9 0-.247-.245-.247-.648-.001-.895z"/></svg>