<?xml version="1.0" encoding="utf-8"?>
<!-- Generator: Adobe Illustrator 16.0.0, SVG Export Plug-In . SVG Version: 6.00 Build 0)  -->
<!DOCTYPE svg PUBLIC "-//W3C//DTD SVG 1.1//EN" "http://www.w3.org/Graphics/SVG/1.1/DTD/svg11.dtd">
<svg version="1.1" id="Layer_1" xmlns="http://www.w3.org/2000/svg" xmlns:xlink="http://www.w3.org/1999/xlink" x="0px" y="0px"
	 width="390px" height="279px" viewBox="-20.288 -14.238 390 279" enable-background="new -20.288 -14.238 390 279"
	 xml:space="preserve">
<g>
	<path fill="#1375BB" d="M271.575,32.73v61.805c0,4.608-3.766,8.373-8.344,8.373H53.148v16.988c0,7.771-5,11.294-9.668,11.294
		c-2.199,0-5.452-0.752-8.645-4.428l-9.729-11.144c0,0-9.246-10.089-15.241-16.084c-3.403-3.432-4.125-5.3-4.125-7.409
		c0-4.248,0-59.396,0-59.396c0-9.429,7.71-17.108,17.137-17.108h231.558C263.864,15.622,271.575,23.302,271.575,32.73"/>
	<path fill="#F3F4F5" d="M254.198,30.151l1.381-1.38l-1.383-1.384c-0.248-0.247-0.248-0.649,0-0.898
		c0.248-0.247,0.648-0.249,0.896,0l1.385,1.384l1.382-1.379c0.247-0.247,0.647-0.247,0.896,0c0.247,0.247,0.247,0.649,0,0.897
		l-1.381,1.381l1.386,1.384c0.246,0.25,0.246,0.648-0.002,0.897c-0.247,0.247-0.65,0.247-0.896,0l-1.385-1.382l-1.379,1.379
		c-0.25,0.248-0.65,0.248-0.9,0C253.951,30.801,253.951,30.398,254.198,30.151z"/>
	<path fill="#F3F4F5" d="M15.57,35.625v54.459l0.009,0.05c-0.037,0.841,0.411,1.882,1.411,3.029l23.335,26.772
		c2.624,3.009,4.771,2.205,4.771-1.789V92.94h213.413c1.572,0,2.856-1.284,2.856-2.856V35.625H15.57"/>
	<polyline fill="#D0D2D3" points="244.759,69.427 32.52,69.427 32.52,53.29 244.759,53.29 244.759,69.427 	"/>
	<polyline fill="#2DA1CD" points="65.813,69.427 30.1,69.427 30.1,53.29 65.813,53.29 65.813,69.427 	"/>
	<path fill="#1375BB" d="M335.94,132.846v66.625v0.029c0,4.006-2.831,7.319-6.536,8.133c-0.362,0.09-0.724,0.15-1.054,0.182
		c-0.211,0-0.513,0.029-0.785,0.029h-45.57c-5.602,5.783-11.927,12.711-11.927,12.74l-9.729,11.145
		c-3.222,3.676-6.476,4.428-8.644,4.428c-4.669,0-9.699-3.554-9.699-11.325v-16.987H80.558c-0.242,0-0.543-0.029-0.753-0.029
		c-0.331-0.031-0.693-0.092-1.054-0.182c-3.734-0.813-6.565-4.127-6.565-8.133v-0.029v-66.625c0-8.915,6.896-16.264,15.601-17.017
		c0.542-0.061,1.054-0.091,1.537-0.091h229.479c0.512,0,1.023,0.031,1.566,0.091C329.042,116.583,335.94,123.932,335.94,132.846"/>
	<path fill="#F3F4F5" d="M256.077,135.726h-67.865H82.435v59.3c0,1.572,1.259,2.854,2.856,2.854h102.921h60.605h1.246V223.1
		c0,3.995,2.154,4.793,4.768,1.791l22.982-27.012h45.042c1.599,0,2.858-1.281,2.858-2.854v-59.3H256.077"/>
	<polyline fill="#D0D2D3" points="97.101,173.52 309.339,173.52 309.339,157.385 97.101,157.385 97.101,173.52 	"/>
	<polyline fill="#2DA1CD" points="97.101,173.52 132.814,173.52 132.814,157.385 97.101,157.385 97.101,173.52 	"/>
	<path fill="#116CAD" d="M170.614,15.622H22.878c-9.427,0-17.137,7.68-17.137,17.108c0,0,0,55.148,0,59.396
		c0,2.108,0.722,3.977,4.125,7.409c5.995,5.995,15.241,16.084,15.241,16.084l9.729,11.144c3.193,3.676,6.446,4.428,8.645,4.428
		c4.668,0,9.668-3.523,9.668-11.294v-16.988h117.466V92.94H45.096v25.207c0,2.364-0.752,3.61-1.91,3.61
		c-0.798,0-1.791-0.593-2.861-1.821L16.99,93.164c-1-1.147-1.448-2.188-1.411-3.029l-0.009-0.05V35.625h155.044V15.622"/>
	<path fill="#DFE1E3" d="M170.614,35.625H15.57v54.459l0.009,0.05c-0.037,0.841,0.411,1.882,1.411,3.029l23.335,26.772
		c1.071,1.228,2.063,1.821,2.861,1.821c1.158,0,1.91-1.246,1.91-3.61V92.94h125.518V69.427H32.52H30.1V53.29h35.714h104.801V35.625"
		/>
	<polyline fill="#BFC2C3" points="170.614,53.29 65.813,53.29 65.813,69.427 32.52,69.427 170.614,69.427 170.614,53.29 	"/>
	<polyline fill="#2994BE" points="65.813,53.29 30.1,53.29 30.1,69.427 32.52,69.427 65.813,69.427 65.813,53.29 	"/>
	<path fill="#116CAD" d="M170.614,115.739H89.322c-0.482,0-0.994,0.031-1.537,0.091c-8.706,0.753-15.601,8.102-15.601,17.017v66.625
		v0.029c0,4.006,2.831,7.319,6.565,8.133c0.361,0.09,0.723,0.15,1.054,0.182c0.21,0,0.512,0.029,0.753,0.029h90.057v-9.965H85.291
		c-1.597,0-2.856-1.281-2.856-2.854v-59.3h88.179V115.739"/>
	<path fill="#DFE1E3" d="M170.614,135.726H82.435v59.3c0,1.572,1.259,2.854,2.856,2.854h85.323V173.52H97.101v-16.135h35.714h37.8
		V135.726"/>
	<polyline fill="#BFC2C3" points="170.614,157.385 132.814,157.385 132.814,173.52 97.101,173.52 97.101,157.385 97.101,173.52 
		170.614,173.52 170.614,157.385 	"/>
	<polyline fill="#2994BE" points="132.814,157.385 97.101,157.385 97.101,173.52 132.814,173.52 132.814,157.385 	"/>
	<path fill="#F3F4F5" d="M320.966,129.612l1.381-1.381l-1.382-1.385c-0.249-0.246-0.249-0.649,0-0.898
		c0.247-0.247,0.648-0.249,0.896,0l1.385,1.384l1.383-1.38c0.246-0.247,0.647-0.247,0.896,0c0.246,0.247,0.246,0.649,0,0.897
		l-1.381,1.381l1.385,1.384c0.247,0.25,0.247,0.647-0.002,0.897c-0.246,0.246-0.65,0.246-0.896,0l-1.385-1.383l-1.379,1.379
		c-0.25,0.248-0.65,0.248-0.9,0C320.72,130.262,320.72,129.859,320.966,129.612z"/>
</g>
</svg>
