<?xml version="1.0" encoding="utf-8"?>
<!-- Generator: Adobe Illustrator 17.0.2, SVG Export Plug-In . SVG Version: 6.00 Build 0)  -->
<!DOCTYPE svg PUBLIC "-//W3C//DTD SVG 1.1//EN" "http://www.w3.org/Graphics/SVG/1.1/DTD/svg11.dtd" [
	<!ENTITY ns_extend "http://ns.adobe.com/Extensibility/1.0/">
	<!ENTITY ns_ai "http://ns.adobe.com/AdobeIllustrator/10.0/">
	<!ENTITY ns_graphs "http://ns.adobe.com/Graphs/1.0/">
	<!ENTITY ns_vars "http://ns.adobe.com/Variables/1.0/">
	<!ENTITY ns_imrep "http://ns.adobe.com/ImageReplacement/1.0/">
	<!ENTITY ns_sfw "http://ns.adobe.com/SaveForWeb/1.0/">
	<!ENTITY ns_custom "http://ns.adobe.com/GenericCustomNamespace/1.0/">
	<!ENTITY ns_adobe_xpath "http://ns.adobe.com/XPath/1.0/">
]>
<svg version="1.1" id="Layer_1" xmlns:x="&ns_extend;" xmlns:i="&ns_ai;" xmlns:graph="&ns_graphs;"
	 xmlns="http://www.w3.org/2000/svg" xmlns:xlink="http://www.w3.org/1999/xlink" x="0px" y="0px" width="257.576px"
	 height="260.606px" viewBox="0 0 257.576 260.606" enable-background="new 0 0 257.576 260.606" xml:space="preserve">
<metadata>
	<sfw  xmlns="&ns_sfw;">
		<slices></slices>
		<sliceSourceBounds  y="-402.457" x="315.914" width="211.813" height="238.639" bottomLeftOrigin="true"></sliceSourceBounds>
	</sfw>
</metadata>
<g>
	<path fill="#1676BB" d="M44.309,122.507v-0.024L27.138,91.65c-1.935-3.483-0.676-7.908,2.829-9.843l70.06-38.597
		c3.506-1.935,8.005-0.677,10.036,2.757l16.784,28.706L44.309,122.507"/>
	<path fill="#1566A3" d="M26.231,88.147L26.231,88.147c-0.001,1.189,0.291,2.394,0.907,3.502l3.861,6.934l0.006,0.003l-3.868-6.937
		C26.522,90.541,26.23,89.337,26.231,88.147"/>
	<path fill="#1676BB" d="M126.847,74.673l16.79-28.702c2.015-3.444,6.522-4.686,10.019-2.761l70.076,38.603
		c3.494,1.925,4.768,6.354,2.827,9.839L209.39,122.51L126.847,74.673"/>
	<path fill="#1676BB" d="M209.531,124.178v74.023c0,3.992-2.878,8.805-6.384,10.688l-19.686,10.546l-7.304,3.895l-42.927,22.975
		c-0.82,0.434-1.741,0.771-2.757,1.015c-1.136,0.266-2.394,0.411-3.627,0.411c-1.258,0-2.491-0.145-3.651-0.411
		c-1.017-0.243-1.936-0.581-2.757-1.015l-42.999-23.024l-7.302-3.893l-19.589-10.499c-3.531-1.884-6.409-6.696-6.409-10.688v-74.023
		c0-0.558,0.048-1.139,0.169-1.694c0.653-3.581,3.192-7.375,6.24-8.995l69.89-37.413c1.765-0.943,4.087-1.403,6.409-1.403
		c2.321,0,4.643,0.46,6.384,1.403l69.916,37.413C206.653,115.372,209.531,120.186,209.531,124.178"/>
	<path fill="#2FA2CD" d="M54.102,122.507c0,0.146,0,0.29,0.025,0.411c-0.025,0.121-0.025,0.267-0.025,0.411V122.507"/>
	<path fill="#D1D3D4" d="M209.374,122.501c0.001,0.008,0.003,0.016,0.004,0.024c0.006-0.007,0.009-0.012,0.009-0.016
		L209.374,122.501 M170.923,52.716v0.006l52.809,29.091c1.542,0.849,2.651,2.186,3.243,3.714c-0.591-1.528-1.7-2.867-3.247-3.72
		L170.923,52.716"/>
	<path fill="#14629D" d="M170.923,52.722v23.771c0,5.41-4.404,9.815-9.815,9.815h-8.756l50.795,27.181
		c3.026,1.625,5.583,5.433,6.227,9.012l0.013,0.007c0,0,0-0.001,0-0.001l13.301-23.917l3.87-6.941
		c1.081-1.947,1.165-4.187,0.417-6.123c-0.592-1.528-1.701-2.865-3.243-3.714L170.923,52.722"/>
	<path fill="#14629D" d="M181.553,136.436L181.553,136.436 M152.352,86.308h-13.081c-0.063,0.118-0.131,0.244-0.203,0.378
		l52.689,28.207l2.225,1.182c2.972,1.572,5.389,3.578,5.585,6.837c0.023-0.119,0.023-0.26,0.023-0.403v0.822
		c0-0.141,0-0.284-0.023-0.403c-0.197,3.262-2.613,5.267-5.585,6.859l-12.429,6.651c0.027-0.013,27.267-13.279,27.825-13.912
		c-0.001-0.008-0.003-0.016-0.004-0.024c-0.644-3.579-3.202-7.387-6.227-9.012L152.352,86.308"/>
	<path fill="#E9E8E9" d="M199.566,122.918c-0.192,3.267-2.636,5.274-5.61,6.867l-61.498,32.915c-1.548,0.822-3.58,1.233-5.61,1.233
		c-2.056,0-4.087-0.41-5.635-1.233l-61.498-32.915c-2.975-1.593-5.393-3.6-5.586-6.867c0.193-3.263,2.612-5.272,5.586-6.845
		l61.498-32.913c1.548-0.847,3.579-1.258,5.635-1.258c2.03,0,4.062,0.411,5.61,1.258l61.498,32.913
		C196.93,117.647,199.374,119.655,199.566,122.918"/>
	<path fill="#2FA2CD" d="M199.59,122.507v0.822c0-0.144,0-0.291-0.024-0.411C199.59,122.798,199.59,122.654,199.59,122.507"/>
	<path fill="#14629D" d="M95.288,193.848v17.025l26.456,14.196c1.329,0.702,3.217,1.065,5.103,1.065v-18.017h-0.023
		c-3.072,0-6.143-0.63-8.538-1.91L95.288,193.848 M78.939,160.984V176.8l42.806,22.974c0.411,0.219,0.919,0.411,1.451,0.556v-16.663
		c-1.791-0.29-3.482-0.819-4.91-1.57L78.939,160.984 M44.162,123.528c-0.016,0.218-0.023,0.435-0.023,0.649v74.023
		c0,3.992,2.878,8.805,6.409,10.688l19.589,10.499l7.302,3.893l42.999,23.024c0.822,0.434,1.741,0.771,2.757,1.015
		c1.161,0.266,2.393,0.411,3.651,0.411l0,0c-1.258,0-2.491-0.145-3.651-0.411V233.1c-1.791-0.315-3.482-0.824-4.91-1.598
		l-40.846-21.911v13.689l-7.302-3.893v-13.714L44.14,191.721v-8.271l43.845,23.507v-17.025L44.14,166.403v-8.271l27.496,14.751
		v-15.816L44.14,142.315v-8.272l77.605,41.596c1.329,0.726,3.217,1.088,5.103,1.088v-12.794l0,0c-1.113,0-2.218-0.12-3.244-0.361
		l3.232,4.531l-61.549-33.185l-21.123-11.371c0-0.006,0.001-0.012,0.001-0.018L44.162,123.528"/>
	<path fill="#1676BB" d="M126.847,74.673v7.23c-2.056,0-4.087,0.411-5.635,1.258l-59.273,31.731l-2.225,1.182
		c-2.975,1.573-5.393,3.582-5.586,6.845c0.193,3.267,2.612,5.274,5.586,6.867l12.43,6.651l-1.475,1.378l-26.505-14.268
		c0.024-0.338,0.072-0.702,0.145-1.04v-0.024L31.008,98.591l-3.87-6.941c-1.935-3.483-0.676-7.908,2.829-9.843l70.06-38.597
		c3.506-1.935,8.005-0.677,10.036,2.757L126.847,74.673"/>
	<path fill="#CACACB" d="M139.063,86.696c-1.078,2.004-3.178,5.882-7.331,13.545c-1.406,3.191-3.66,3.535-4.564,3.535
		c-0.089,0-0.199,0-0.32-0.02v60.178c2.03,0,4.062-0.41,5.61-1.233l61.498-32.915c2.975-1.593,5.418-3.6,5.61-6.867
		c-0.192-3.263-2.636-5.272-5.61-6.845L139.063,86.696"/>
	<path fill="#EBEBEC" d="M199.59,122.507v0.822c0-0.144,0-0.29-0.024-0.411C199.59,122.798,199.59,122.654,199.59,122.507z"/>
	<path fill="#1566A3" d="M130.474,200.33v-16.663c1.791-0.29,3.482-0.819,4.91-1.57l40.773-21.887v15.841l-44.232,23.724
		C131.514,199.993,131.007,200.185,130.474,200.33 M209.531,134.043l-77.605,41.62c-1.329,0.701-3.191,1.064-5.078,1.064l0,0v31.392
		c3.097,0,6.142-0.63,8.537-1.91l23.554-12.65v17.003l-27.013,14.509c-1.329,0.702-3.216,1.065-5.078,1.065l0,0v21.595l0,0
		c1.233,0,2.491-0.145,3.627-0.411V233.1c1.791-0.315,3.482-0.824,4.91-1.598l40.773-21.86v13.688l7.304-3.895v-13.712
		l26.069-13.977v-8.296l-43.289,23.192v-17.001l43.289-23.216v-8.294l-26.069,14.002v-15.843l26.069-13.976V134.043"/>
	<path fill="#0E558A" d="M123.196,200.33c-0.533-0.145-1.04-0.337-1.451-0.556L78.939,176.8v-15.816l39.347,21.112
		c1.428,0.751,3.12,1.28,4.91,1.57V200.33 M44.14,134.043v8.272l27.496,14.751v15.816L44.14,158.131v8.271l43.845,23.528v17.025
		L44.14,183.45v8.271l25.998,13.953v13.714l7.302,3.893v-13.689l40.846,21.911c1.428,0.773,3.12,1.282,4.91,1.598v14.219
		c1.161,0.266,2.393,0.411,3.651,0.411v-21.595c-1.886,0-3.773-0.363-5.103-1.065l-26.456-14.196v-17.025l22.997,12.36
		c2.395,1.28,5.466,1.91,8.538,1.91h0.023v-31.392c-1.886,0-3.773-0.362-5.103-1.088L44.14,134.043"/>
	<path fill="#1676BB" d="M110.337,144.978c-1.941-3.53-6.445-7.961-10.008-9.84L24.46,95.136c-3.565-1.881-4.6-0.704-2.303,2.6
		l1.627,2.343l-0.023-0.011l20.378,23.449l82.696,44.587L110.337,144.978"/>
	<path fill="#14629D" d="M21.822,94.239c-0.583,0-0.887,0.275-0.888,0.795c-0.001,0.595,0.394,1.509,1.223,2.701l1.627,2.343
		l-0.023-0.011l20.378,23.449l82.696,44.587l-3.232-4.531l-13.266-18.594c-1.941-3.53-6.445-7.961-10.008-9.84l-38.395-20.244
		L31.006,98.587l-0.006-0.003l-6.539-3.448C23.307,94.528,22.419,94.239,21.822,94.239"/>
	<path fill="#1676BB" d="M143.345,144.978c1.941-3.53,6.444-7.961,10.008-9.84l75.868-40.002c3.566-1.881,4.601-0.704,2.304,2.6
		l-1.628,2.343l0.023-0.011l-20.379,23.449l-82.694,44.587L143.345,144.978z"/>
	<path fill="#1676BB" d="M161.103,11.947H92.904c-3.828,0-6.956,3.128-6.956,6.955v57.593c0,3.818,3.127,6.957,6.956,6.957h23.878
		l8.395,15.537c1.096,2.571,2.888,2.571,3.984,0l8.395-15.537h23.547c3.818,0,6.957-3.138,6.957-6.957V18.902
		C168.06,15.075,164.921,11.947,161.103,11.947"/>
	<path fill="#F4F4F4" d="M161.108,9.091H92.906c-5.411,0-9.815,4.393-9.815,9.815v57.586c0,5.41,4.404,9.815,9.815,9.815h22.17
		c0.995,1.865,3.088,5.742,7.527,13.933c1.27,2.86,3.203,3.432,4.232,3.512c0.125,0.022,0.24,0.022,0.332,0.022
		c0.904,0,3.158-0.343,4.564-3.535c4.439-8.191,6.532-12.057,7.539-13.933h21.837c5.411,0,9.815-4.405,9.815-9.815V18.906
		C170.923,13.484,166.519,9.091,161.108,9.091 M165.204,76.493c0,2.22-1.875,4.095-4.096,4.095h-25.555l-0.618,1.705
		c-0.629,1.166-4.725,8.761-7.768,14.367c-0.103-0.194-0.217-0.4-0.332-0.606c-2.997-5.559-6.864-12.686-7.436-13.785l-0.641-1.681
		H92.906c-2.265,0-4.095-1.831-4.095-4.095V18.906c0-2.265,1.83-4.095,4.095-4.095h68.202c2.254,0,4.096,1.83,4.096,4.095V76.493"/>
	<path fill="#F4F4F4" d="M127.007,39.028l-0.171,0.011c-2.539,0.081-4.576,2.163-4.576,4.724v20.923
		c0,2.563,2.036,4.645,4.576,4.725l0.171,0.012c2.619,0,4.736-2.117,4.736-4.737V43.764
		C131.744,41.144,129.626,39.028,127.007,39.028"/>
	<path fill="#F4F4F4" d="M131.743,29.444c0,2.618-2.121,4.739-4.739,4.739c-2.618,0-4.739-2.121-4.739-4.739
		c0-2.617,2.121-4.739,4.739-4.739C129.622,24.706,131.743,26.827,131.743,29.444"/>
	<path fill="#1566A3" d="M126.836,14.811h-33.93c-2.265,0-4.095,1.83-4.095,4.095v57.586c0,2.264,1.83,4.095,4.095,4.095h25.853
		l0.641,1.681c0.572,1.099,4.439,8.226,7.436,13.785V69.411c-2.539-0.08-4.576-2.161-4.576-4.725V43.764
		c0-2.562,2.036-4.643,4.576-4.724l0,0V34.18c-2.54-0.088-4.571-2.174-4.571-4.736c0-2.561,2.031-4.647,4.571-4.736V14.811"/>
	<path fill="#D0D2D3" d="M126.836,39.039L126.836,39.039c-2.539,0.081-4.576,2.163-4.576,4.724v20.923
		c0,2.563,2.036,4.645,4.576,4.725l0,0V39.039"/>
	<path fill="#D0D2D3" d="M126.836,24.708c-2.54,0.088-4.571,2.175-4.571,4.736c0,2.561,2.031,4.647,4.571,4.736V24.708"/>
</g>
</svg>
