<svg xmlns="http://www.w3.org/2000/svg" xmlns:xlink="http://www.w3.org/1999/xlink" width="390" height="279" viewBox="-20.288 -14.238 390 279" enable-background="new -20.288 -14.238 390 279"><path fill="#1375BB" d="M273.397 129.866v38.556c0 4.868-4.004 8.872-8.871 8.872h-134.776c-4.886 0-8.87-4.004-8.87-8.872v-38.556c0-4.886 3.983-8.871 8.87-8.871l134.776 4.564c.287 0 .587.013.869.062 4.468.422 8.002-.338 8.002 4.245"/><path fill="#0E5D96" d="M273.397 125.375v31.702c0 4.867-4.004 8.866-8.871 8.866h-187.854c-4.884 0-8.871-3.999-8.871-8.866v-49.441c0-4.884 3.987-8.815 8.871-8.815h98.081l1.652 17.682h88.121c.287 0 .587.017.869.056 4.468.422 8.002 4.232 8.002 8.816"/><path fill="#1375BB" d="M265.396 116.502v.056c-.282-.04-.582-.056-.869-.056h-68.61v1.607h66.34700000000001c5.148 0 5.265 1.987 5.418 3.498v7.291c0 4.802-3.154 5.952-9.053 5.952l5.646 1.609c4.71 5.098 9.124 2.377 9.124 7.257v-18.395c-.002-4.582-3.536-8.391-8.003-8.819zM75.804 98.82v.047c.28-.034.58-.047.868-.047h68.609v1.607h-66.344c-4.512 0-5.27 1.983-5.418 3.493v7.291c0 4.804 3.154 5.952 9.05 5.952h-5.896c-4.874 0-8.871 3.987-8.871 8.868v-18.395c-.001-4.58 3.532-8.394 8.002-8.816"/><path fill="#E4E3E3" d="M251.064 224.855c0 2.696-2.205 4.897-4.896 4.897h-158.083c-2.697 0-4.902-2.201-4.902-4.897v-190.835c0-2.69 2.205-4.894 4.902-4.894h158.084c2.69 0 4.896 2.204 4.896 4.894v190.835"/><path fill="#D0D2D3" d="M251.064 224.855c0 2.696-2.205 4.897-4.896 4.897h-158.083c-2.697 0-4.902-2.201-4.902-4.897v-190.835c0-2.69 2.205-4.894 4.902-4.894h158.084c2.69 0 4.896 2.204 4.896 4.894v190.835"/><path fill="#E8E9E9" d="M259.903 192.272c0 2.699-2.204 4.895-4.896 4.895h-158.082c-2.694 0-4.9-2.195-4.9-4.895v-190.83c0-2.695 2.206-4.898 4.9-4.898h158.082c2.692 0 4.896 2.204 4.896 4.898v190.83"/><path fill="#2DA1CD" d="M138.565 46.101h-34.17c-1.687 0-2.957-1.56-2.957-3.641v-30.55c0-2.077 1.27-3.641 2.957-3.641h34.17c1.683 0 2.957 1.563 2.957 3.641v30.55c0 2.081-1.273 3.641-2.957 3.641m-33.341-3.789h32.507v-30.258h-32.507v30.258M172.3 128.432h-66.9c-2.224 0-3.961-2.263-3.961-5.145v-56.959c0-2.887 1.737-5.15 3.961-5.15h66.9c2.229 0 3.97 2.263 3.97 5.15v56.959c0 2.882-1.742 5.145-3.97 5.145m-66.711-3.789h66.528c.139-.172.363-.643.363-1.355v-56.96c0-.722-.225-1.194-.363-1.363h-66.528c-.139.169-.365.641-.365 1.363v56.959c0 .713.226 1.184.365 1.356"/><path fill="#2DA1CD" d="M242.649 111.837h-53.123c-1.982 0-3.537-1.882-3.537-4.289v-42.07c0-2.412 1.555-4.299 3.537-4.299h53.123c1.981 0 3.539 1.888 3.539 4.299v42.07c0 2.406-1.557 4.289-3.539 4.289zm-52.78-3.783h52.441c.045-.107.091-.282.091-.506v-42.07c0-.234-.046-.402-.091-.512h-52.441c-.053.11-.097.278-.097.512v42.07c0 .224.044.399.097.506zM243.537 13.624h-86.093c-1.049 0-1.897-.841-1.897-1.892 0-1.04.848-1.885 1.897-1.885h86.093c1.044 0 1.894.846 1.894 1.885 0 1.051-.85 1.892-1.894 1.892M243.537 24.463h-86.093c-1.049 0-1.897-.848-1.897-1.89 0-1.048.848-1.895 1.897-1.895h86.093c1.044 0 1.894.846 1.894 1.895 0 1.042-.85 1.89-1.894 1.89M243.537 35.304h-86.093c-1.049 0-1.897-.851-1.897-1.902 0-1.044.848-1.892 1.897-1.892h86.093c1.044 0 1.894.848 1.894 1.892 0 1.051-.85 1.902-1.894 1.902M243.537 46.135h-86.093c-1.049 0-1.897-.851-1.897-1.896 0-1.041.848-1.891 1.897-1.891h86.093c1.044 0 1.894.85 1.894 1.891 0 1.046-.85 1.896-1.894 1.896"/><path fill="#2DA1CD" d="M244.178 120.894h-56.981c-.693 0-1.255-.841-1.255-1.893 0-1.039.562-1.885 1.255-1.885h56.981c.69 0 1.253.846 1.253 1.885 0 1.051-.563 1.893-1.253 1.893zM244.178 131.731h-56.981c-.693 0-1.255-.848-1.255-1.889 0-1.049.562-1.895 1.255-1.895h56.981c.69 0 1.253.846 1.253 1.895 0 1.042-.563 1.889-1.253 1.889zM244.178 142.572h-56.981c-.693 0-1.255-.851-1.255-1.9 0-1.045.562-1.892 1.255-1.892h56.981c.69 0 1.253.847 1.253 1.892 0 1.049-.563 1.9-1.253 1.9zM244.178 153.405h-56.981c-.693 0-1.255-.852-1.255-1.897 0-1.041.562-1.891 1.255-1.891h56.981c.69 0 1.253.85 1.253 1.891 0 1.045-.563 1.897-1.253 1.897z"/><path fill="#1375BB" d="M273.397 143.768v96.313c0 4.867-4.004 8.854-8.871 8.854h-187.854c-4.884 0-8.871-3.986-8.871-8.854v-114.099c0-4.547 3.451-8.313 7.877-8.803.314-.052.652-.063.994-.063h76.959c.466 0 2.577 1.614 5.325 3.879 3.415 2.836 7.794 6.667 11.078 9.595 2.815 2.492 4.845 4.315 4.845 4.315h89.648c4.867.001 8.87 3.983 8.87 8.863M39.132 102.333c0 .695-.943 1.263-2.097 1.263h-43.58c-1.153 0-2.096-.568-2.096-1.263l5.742-11.708c0-.692.941-1.26 2.091-1.26h31.388c1.152 0 2.095.567 2.095 1.26l6.457 11.708"/><defs><path id="a" d="M38.879 101.874c.088.234.156.48.202.736.033-.089.051-.182.051-.277l-.253-.459m-45.688-3.275l-1.832 3.734c0 .105.021.208.063.306l.009-.048c-.03-.091-.059-.182-.059-.271l1.819-3.721m37.389-9.233h-15.333v10.257h20.691c.948 0 1.804.487 2.393 1.257l-5.656-10.254c0-.693-.944-1.26-2.095-1.26"/></defs><clipPath id="b"><use xlink:href="#a" overflow="visible"/></clipPath><path clip-path="url(#b)" fill="#1066A5" d="M-8.641 89.366h47.772v13.273h-47.772z"/><path fill="#1375BB" d="M39.148 245.184c0 2.066-1.446 3.75-3.211 3.75h-41.367c-1.765 0-3.211-1.684-3.211-3.75v-141.81c0-2.064 1.446-3.752 3.211-3.752h41.367c1.765 0 3.211 1.688 3.211 3.752v141.81"/><path fill="#E8E9E9" d="M28.247 234.786c0 1.44-1.011 2.616-2.241 2.616h-21.503c-1.229 0-2.24-1.176-2.24-2.616v-121.01c0-1.44 1.011-2.622 2.24-2.622h21.503c1.229 0 2.241 1.182 2.241 2.622v121.01"/><path fill="#1375BB" d="M21.197 128.28c0 3.281-2.661 5.943-5.944 5.943-3.282 0-5.942-2.662-5.942-5.943s2.66-5.942 5.942-5.942c3.283 0 5.944 2.661 5.944 5.942"/><path fill="#2DA1CD" d="M18.226 174.917c0 1.643-1.332 2.972-2.973 2.972-1.642 0-2.972-1.329-2.972-2.972 0-1.639 1.33-2.971 2.972-2.971 1.641 0 2.973 1.332 2.973 2.971M18.226 191.927c0 1.642-1.332 2.973-2.973 2.973-1.642 0-2.972-1.331-2.972-2.973s1.33-2.973 2.972-2.973c1.641 0 2.973 1.331 2.973 2.973M18.226 208.936c0 1.643-1.332 2.973-2.973 2.973-1.642 0-2.972-1.33-2.972-2.973 0-1.641 1.33-2.971 2.972-2.971 1.641.001 2.973 1.331 2.973 2.971M18.226 225.946c0 1.641-1.332 2.971-2.973 2.971-1.642 0-2.972-1.33-2.972-2.971 0-1.643 1.33-2.973 2.972-2.973 1.641 0 2.973 1.33 2.973 2.973"/><path fill="#1375BB" d="M331.562 163.227c1.765 3.522 5.372 5.965 9.58 5.965 5.938 0 10.752-4.814 10.752-10.752 0-5.938-4.814-10.752-10.752-10.752-4.208 0-7.815 2.441-9.58 5.965h-20.855v-72.251c0-2.64 2.148-4.787 4.788-4.787h16.067c1.765 3.522 5.372 5.962 9.58 5.962 5.938 0 10.752-4.813 10.752-10.751s-4.814-10.751-10.752-10.751c-4.208 0-7.815 2.442-9.58 5.964h-16.067c-7.92 0-14.363 6.443-14.363 14.363v72.251h-270.552v9.574h270.551v72.625c0 7.92 6.443 14.363 14.363 14.363h16.067c1.768 3.523 5.372 5.964 9.58 5.964 5.938 0 10.752-4.815 10.752-10.753 0-5.937-4.814-10.75-10.752-10.75-4.21 0-7.815 2.44-9.58 5.963h-16.067c-2.64 0-4.788-2.146-4.788-4.787v-72.625h20.856"/><path fill="#EAEBEC" d="M67.801 163.227h-.014v76.852c0 3.315 1.837 6.203 4.544 7.717-2.7-1.523-4.53-4.417-4.53-7.715v-76.854m.598-58.783c-.112.239-.174.476-.263.715-.224.798-.35 1.628-.35 2.49v46.004h.014v-46.15200000000001c.018-1.078.228-2.108.599-3.057m.567-1.185c-.201.33-.373.677-.506 1.034l.041-.097c.137-.323.292-.635.465-.937m6.831-4.452c-.403.043-.806.114-1.2.213.391-.094.792-.161 1.2-.2v-.013m10.324-69.269c-1.736.757-2.95 2.484-2.95 4.474v64.795h-6.512c-.285 0-.57 0-.855.031v.024l.455-.033.413-.009h6.511v-64.8c0-1.994 1.212-3.722 2.938-4.482m90.156-32.997h-79.35c-2.713 0-4.916 2.202-4.916 4.915v27.67h.013v-27.684c0-2.695 2.206-4.898 4.9-4.898h79.353v-.003"/><path fill="#0D568B" d="M67.801 107.595v.012-.012m0-.031v.016-.016m0-.031v.02-.02m.001-.029v.023-.023m.599-3.064l-.002.004c-.371.949-.582 1.979-.598 3.057.017-1.076.228-2.108.6-3.061m.1-.244l-.041.097-.001.004.042-.101m14.682-3.769h-4.247c-4.512 0-5.27 1.983-5.418 3.493v7.291c0 4.268 2.49 5.65 7.179 5.905h2.486v-16.689m-6.924-1.598l-.455.033v.005l.455-.038"/><path fill="#116CAD" d="M83.183 98.82h-6.511l-.413.009-.455.038v-.029h-.006v-.018c-.408.039-.809.106-1.2.2-.199.05-.396.107-.588.171-.542.19-1.084.414-1.563.669-.256.159-.511.287-.734.446-.225.16-.48.352-.672.511-.445.351-.859.767-1.212 1.213-.159.161-.319.383-.414.575-.16.208-.311.427-.448.653-.173.302-.328.614-.465.937l-.042.101-.035.096-.022.046c-.372.954-.583 1.985-.6 3.061v18.529-.048c0-4.547 3.451-8.313 7.877-8.803.314-.052.652-.063.994-.063h4.025c-4.689-.255-7.179-1.638-7.179-5.905v-7.291c.149-1.51.907-3.493 5.418-3.493h4.247v-1.605"/><path fill="#BFC2C3" d="M92.025 29.126h-.013v.004h-3.925c-.699 0-1.363.146-1.965.409-1.726.76-2.938 2.487-2.938 4.481v83.096h8.842v-87.99"/><path fill="#D5D7D8" d="M172.117 64.966h-66.528c-.139.169-.365.641-.365 1.363v50.788h48.407c.466 0 2.577 1.614 5.325 3.879 1.328 1.103 2.801 2.356 4.3 3.648h8.862c.139-.172.363-.643.363-1.355v-56.961c-.001-.721-.225-1.193-.364-1.362m-34.386-52.912h-32.507v30.258h32.507v-30.258m-33.336 34.047c-1.687 0-2.957-1.56-2.957-3.641v-30.55c0-2.077 1.27-3.641 2.957-3.641h34.17c1.683 0 2.957 1.563 2.957 3.641v30.55c0 2.081-1.273 3.641-2.957 3.641h-34.17m71.882-49.558h-79.352c-2.694 0-4.9 2.204-4.9 4.898v115.67399999999999h9.414v-50.787c0-2.887 1.737-5.15 3.961-5.15h66.9c2.229 0 3.97 2.263 3.97 5.15v56.959c0 2.881-1.741 5.145-3.97 5.145h-4.701c.853.752 1.673 1.479 2.434 2.158 2.815 2.492 4.845 4.315 4.845 4.315h1.399v-88.77h-18.833c-1.049 0-1.897-.851-1.897-1.896 0-1.041.848-1.891 1.897-1.891h18.833v-7.044h-18.833c-1.049 0-1.897-.851-1.897-1.902 0-1.044.848-1.892 1.897-1.892h18.833v-7.047h-18.833c-1.049 0-1.897-.848-1.897-1.89 0-1.048.848-1.895 1.897-1.895h18.833v-7.055h-18.833c-1.049 0-1.897-.841-1.897-1.892 0-1.04.848-1.885 1.897-1.885h18.833v-13.305"/><path fill="#2994BE" d="M105.224 42.312v-30.258h32.507v30.258h-32.507m33.341-34.042h-34.17c-1.687 0-2.957 1.563-2.957 3.641v30.55c0 2.081 1.27 3.641 2.957 3.641h34.17c1.683 0 2.957-1.56 2.957-3.641v-30.551c0-2.077-1.273-3.64-2.957-3.64M172.3 61.178h-66.9c-2.224 0-3.961 2.263-3.961 5.15v50.788h3.786v-50.788c0-.722.226-1.194.365-1.363h66.528c.139.169.363.641.363 1.363v56.959c0 .712-.225 1.183-.363 1.355h-8.862c1.461 1.26 2.948 2.559 4.344 3.789h4.701c2.229 0 3.97-2.263 3.97-5.145v-56.958c-.001-2.887-1.743-5.15-3.971-5.15M176.277 9.847h-18.833c-1.049 0-1.897.846-1.897 1.885 0 1.05.848 1.892 1.897 1.892h18.833v-3.777M176.277 20.679h-18.833c-1.049 0-1.897.846-1.897 1.895 0 1.042.848 1.89 1.897 1.89h18.833v-3.785M176.277 31.51h-18.833c-1.049 0-1.897.848-1.897 1.892 0 1.051.848 1.902 1.897 1.902h18.833v-3.794M176.277 42.348h-18.833c-1.049 0-1.897.85-1.897 1.891 0 1.046.848 1.896 1.897 1.896h18.833v-3.787"/><path fill="#116CAD" d="M176.277 163.227h-108.476v76.854c0 3.298 1.831 6.191 4.53 7.715 1.282.717 2.759 1.125 4.328 1.125h99.619v-85.694m-22.647-46.111h-76.96000000000001c-.342 0-.68.012-.994.063-4.426.49-7.877 4.255-7.877 8.803v27.671h108.477v-18.747h-1.399s-2.029-1.823-4.845-4.315c-.761-.679-1.581-1.406-2.434-2.158-1.396-1.23-2.882-2.529-4.344-3.789-1.499-1.292-2.972-2.545-4.3-3.648-2.747-2.266-4.858-3.88-5.324-3.88M176.277 153.653h-108.49v9.574h108.49v-9.574"/><path fill="#EAEBEC" d="M15.247 89.36h-16.054c-1.149 0-2.108.573-2.108 1.276l-3.894 7.962 3.911-7.973c0-.692.941-1.26 2.091-1.26h16.054v-.005"/><path fill="#0F5E99" d="M15.247 89.366h-16.054c-1.15 0-2.091.567-2.091 1.26l-3.911 7.973-1.819 3.72c0 .09.029.18.059.271.311-1.69 1.605-2.968 3.14-2.968h20.676v-10.256"/><path fill="#116CAD" d="M15.247 99.623h-20.677c-1.535 0-2.829 1.277-3.14 2.968l.005.016v.031c-.031.255-.064.48-.064.733v141.815c0 2.074 1.437 3.734 3.192 3.734h20.683v-11.519h-10.743c-1.229 0-2.24-1.176-2.24-2.616v-121.01c0-1.44 1.011-2.622 2.24-2.622h10.744v-11.53"/><path fill="#D5D7D8" d="M15.247 111.154h-10.744c-1.229 0-2.24 1.182-2.24 2.622v121.01c0 1.44 1.011 2.616 2.24 2.616h10.744v-8.485c-1.639-.004-2.965-1.332-2.965-2.971 0-1.641 1.327-2.97 2.965-2.973v-11.064c-1.639-.004-2.965-1.332-2.965-2.973 0-1.639 1.327-2.968 2.965-2.971v-11.066c-1.639-.004-2.965-1.333-2.965-2.973s1.327-2.97 2.965-2.973v-11.065c-1.639-.003-2.965-1.331-2.965-2.972 0-1.637 1.327-2.968 2.965-2.971v-37.723c-3.279-.004-5.936-2.664-5.936-5.943s2.657-5.939 5.936-5.942v-11.183"/><path fill="#116CAD" d="M15.247 122.338c-3.279.003-5.936 2.663-5.936 5.942s2.657 5.939 5.936 5.943v-11.885"/><path fill="#2994BE" d="M15.247 171.946c-1.639.003-2.965 1.334-2.965 2.971 0 1.641 1.327 2.969 2.965 2.972v-5.943M15.247 188.954c-1.639.003-2.965 1.333-2.965 2.973s1.327 2.969 2.965 2.973v-5.946M15.247 205.966c-1.639.003-2.965 1.332-2.965 2.971 0 1.641 1.327 2.969 2.965 2.973v-5.944M15.247 222.973c-1.639.003-2.965 1.332-2.965 2.973 0 1.639 1.327 2.967 2.965 2.971v-5.944"/></svg>