<?xml version="1.0" encoding="utf-8"?>
<!-- Generator: Adobe Illustrator 16.0.0, SVG Export Plug-In . SVG Version: 6.00 Build 0)  -->
<!DOCTYPE svg PUBLIC "-//W3C//DTD SVG 1.1//EN" "http://www.w3.org/Graphics/SVG/1.1/DTD/svg11.dtd">
<svg version="1.1" id="Layer_1" xmlns="http://www.w3.org/2000/svg" xmlns:xlink="http://www.w3.org/1999/xlink" x="0px" y="0px"
	 width="390px" height="279px" viewBox="-20.288 -14.238 390 279" enable-background="new -20.288 -14.238 390 279"
	 xml:space="preserve">
<g>
	<path fill="#1375BB" d="M273.397,129.866v38.556c0,4.868-4.004,8.872-8.871,8.872H129.75c-4.886,0-8.87-4.004-8.87-8.872v-38.556
		c0-4.886,3.983-8.871,8.87-8.871l134.776,4.564c0.287,0,0.587,0.013,0.869,0.062C269.863,126.043,273.397,125.283,273.397,129.866"
		/>
	<path fill="#0E5D96" d="M273.397,125.375v31.702c0,4.867-4.004,8.866-8.871,8.866H76.672c-4.884,0-8.871-3.999-8.871-8.866v-49.441
		c0-4.884,3.987-8.815,8.871-8.815h98.081l1.652,17.682h88.121c0.287,0,0.587,0.017,0.869,0.056
		C269.863,116.981,273.397,120.791,273.397,125.375"/>
	<path fill="#1375BB" d="M265.396,116.502v0.056c-0.282-0.04-0.582-0.056-0.869-0.056h-68.61v1.607h49.302c0,0,13.263,0,17.045,0
		c5.148,0,5.265,1.987,5.418,3.498v7.291c0,4.802-3.154,5.952-9.053,5.952l5.646,1.609c4.71,5.098,9.124,2.377,9.124,7.257v-18.395
		C273.397,120.739,269.863,116.93,265.396,116.502z"/>
	<path fill="#1375BB" d="M75.804,98.82v0.047c0.28-0.034,0.58-0.047,0.868-0.047h68.609v1.607h-49.3c0,0-13.268,0-17.044,0
		c-4.512,0-5.27,1.983-5.418,3.493v7.291c0,4.804,3.154,5.952,9.05,5.952h-5.896c-4.874,0-8.871,3.987-8.871,8.868v-18.395
		C67.801,103.056,71.334,99.242,75.804,98.82"/>
	<path fill="#E4E3E3" d="M251.064,224.855c0,2.696-2.205,4.897-4.896,4.897H88.085c-2.697,0-4.902-2.201-4.902-4.897V34.02
		c0-2.69,2.205-4.894,4.902-4.894h158.084c2.69,0,4.896,2.204,4.896,4.894V224.855"/>
	<path fill="#D0D2D3" d="M251.064,224.855c0,2.696-2.205,4.897-4.896,4.897H88.085c-2.697,0-4.902-2.201-4.902-4.897V34.02
		c0-2.69,2.205-4.894,4.902-4.894h158.084c2.69,0,4.896,2.204,4.896,4.894V224.855"/>
	<path fill="#E8E9E9" d="M259.903,192.272c0,2.699-2.204,4.895-4.896,4.895H96.925c-2.694,0-4.9-2.195-4.9-4.895V1.442
		c0-2.695,2.206-4.898,4.9-4.898h158.082c2.692,0,4.896,2.204,4.896,4.898V192.272"/>
	<path fill="#2DA1CD" d="M138.565,46.101h-34.17c-1.687,0-2.957-1.56-2.957-3.641V11.91c0-2.077,1.27-3.641,2.957-3.641h34.17
		c1.683,0,2.957,1.563,2.957,3.641v30.55C141.522,44.541,140.249,46.101,138.565,46.101 M105.224,42.312h32.507V12.054h-32.507
		V42.312"/>
	<path fill="#2DA1CD" d="M172.3,128.432h-66.9c-2.224,0-3.961-2.263-3.961-5.145V66.328c0-2.887,1.737-5.15,3.961-5.15h66.9
		c2.229,0,3.97,2.263,3.97,5.15v56.959C176.27,126.169,174.528,128.432,172.3,128.432 M105.589,124.643h66.528
		c0.139-0.172,0.363-0.643,0.363-1.355V66.328c0-0.722-0.225-1.194-0.363-1.363h-66.528c-0.139,0.169-0.365,0.641-0.365,1.363
		v56.959C105.224,124,105.45,124.471,105.589,124.643"/>
	<path fill="#2DA1CD" d="M242.649,111.837h-53.123c-1.982,0-3.537-1.882-3.537-4.289v-42.07c0-2.412,1.555-4.299,3.537-4.299h53.123
		c1.981,0,3.539,1.888,3.539,4.299v42.07C246.188,109.954,244.631,111.837,242.649,111.837z M189.869,108.054h52.441
		c0.045-0.107,0.091-0.282,0.091-0.506v-42.07c0-0.234-0.046-0.402-0.091-0.512h-52.441c-0.053,0.11-0.097,0.278-0.097,0.512v42.07
		C189.772,107.772,189.816,107.947,189.869,108.054z"/>
	<path fill="#2DA1CD" d="M243.537,13.624h-86.093c-1.049,0-1.897-0.841-1.897-1.892c0-1.04,0.848-1.885,1.897-1.885h86.093
		c1.044,0,1.894,0.846,1.894,1.885C245.431,12.783,244.581,13.624,243.537,13.624"/>
	<path fill="#2DA1CD" d="M243.537,24.463h-86.093c-1.049,0-1.897-0.848-1.897-1.89c0-1.048,0.848-1.895,1.897-1.895h86.093
		c1.044,0,1.894,0.846,1.894,1.895C245.431,23.615,244.581,24.463,243.537,24.463"/>
	<path fill="#2DA1CD" d="M243.537,35.304h-86.093c-1.049,0-1.897-0.851-1.897-1.902c0-1.044,0.848-1.892,1.897-1.892h86.093
		c1.044,0,1.894,0.848,1.894,1.892C245.431,34.453,244.581,35.304,243.537,35.304"/>
	<path fill="#2DA1CD" d="M243.537,46.135h-86.093c-1.049,0-1.897-0.851-1.897-1.896c0-1.041,0.848-1.891,1.897-1.891h86.093
		c1.044,0,1.894,0.85,1.894,1.891C245.431,45.285,244.581,46.135,243.537,46.135"/>
	<path fill="#2DA1CD" d="M244.178,120.894h-56.981c-0.693,0-1.255-0.841-1.255-1.893c0-1.039,0.562-1.885,1.255-1.885h56.981
		c0.69,0,1.253,0.846,1.253,1.885C245.431,120.052,244.868,120.894,244.178,120.894z"/>
	<path fill="#2DA1CD" d="M244.178,131.731h-56.981c-0.693,0-1.255-0.848-1.255-1.889c0-1.049,0.562-1.895,1.255-1.895h56.981
		c0.69,0,1.253,0.846,1.253,1.895C245.431,130.884,244.868,131.731,244.178,131.731z"/>
	<path fill="#2DA1CD" d="M244.178,142.572h-56.981c-0.693,0-1.255-0.851-1.255-1.9c0-1.045,0.562-1.892,1.255-1.892h56.981
		c0.69,0,1.253,0.847,1.253,1.892C245.431,141.721,244.868,142.572,244.178,142.572z"/>
	<path fill="#2DA1CD" d="M244.178,153.405h-56.981c-0.693,0-1.255-0.852-1.255-1.897c0-1.041,0.562-1.891,1.255-1.891h56.981
		c0.69,0,1.253,0.85,1.253,1.891C245.431,152.553,244.868,153.405,244.178,153.405z"/>
	<path fill="#1375BB" d="M273.397,143.768v96.313c0,4.867-4.004,8.854-8.871,8.854H76.672c-4.884,0-8.871-3.986-8.871-8.854V125.982
		c0-4.547,3.451-8.313,7.877-8.803c0.314-0.052,0.652-0.063,0.994-0.063h76.959c0.466,0,2.577,1.614,5.325,3.879
		c3.415,2.836,7.794,6.667,11.078,9.595c2.815,2.492,4.845,4.315,4.845,4.315h89.648
		C269.394,134.906,273.397,138.888,273.397,143.768"/>
	<path fill="#1375BB" d="M39.132,102.333c0,0.695-0.943,1.263-2.097,1.263h-43.58c-1.153,0-2.096-0.568-2.096-1.263l5.742-11.708
		c0-0.692,0.941-1.26,2.091-1.26H30.58c1.152,0,2.095,0.567,2.095,1.26L39.132,102.333"/>
	<g>
		<defs>
			<path id="SVGID_1_" d="M38.879,101.874c0.088,0.234,0.156,0.48,0.202,0.736c0.033-0.089,0.051-0.182,0.051-0.277L38.879,101.874
				 M-6.809,98.599l-1.832,3.734c0,0.105,0.021,0.208,0.063,0.306c0.003-0.016,0.005-0.032,0.009-0.048
				c-0.03-0.091-0.059-0.182-0.059-0.271L-6.809,98.599 M30.58,89.366H15.247v10.257h20.691c0.948,0,1.804,0.487,2.393,1.257
				l-5.656-10.254C32.675,89.933,31.731,89.366,30.58,89.366"/>
		</defs>
		<clipPath id="SVGID_2_">
			<use xlink:href="#SVGID_1_"  overflow="visible"/>
		</clipPath>
		<rect x="-8.641" y="89.366" clip-path="url(#SVGID_2_)" fill="#1066A5" width="47.772" height="13.273"/>
	</g>
	<path fill="#1375BB" d="M39.148,245.184c0,2.066-1.446,3.75-3.211,3.75H-5.43c-1.765,0-3.211-1.684-3.211-3.75v-141.81
		c0-2.064,1.446-3.752,3.211-3.752h41.367c1.765,0,3.211,1.688,3.211,3.752V245.184"/>
	<path fill="#E8E9E9" d="M28.247,234.786c0,1.44-1.011,2.616-2.241,2.616H4.503c-1.229,0-2.24-1.176-2.24-2.616v-121.01
		c0-1.44,1.011-2.622,2.24-2.622h21.503c1.229,0,2.241,1.182,2.241,2.622V234.786"/>
	<path fill="#1375BB" d="M21.197,128.28c0,3.281-2.661,5.943-5.944,5.943c-3.282,0-5.942-2.662-5.942-5.943s2.66-5.942,5.942-5.942
		C18.536,122.338,21.197,124.999,21.197,128.28"/>
	<path fill="#2DA1CD" d="M18.226,174.917c0,1.643-1.332,2.972-2.973,2.972c-1.642,0-2.972-1.329-2.972-2.972
		c0-1.639,1.33-2.971,2.972-2.971C16.894,171.946,18.226,173.278,18.226,174.917"/>
	<path fill="#2DA1CD" d="M18.226,191.927c0,1.642-1.332,2.973-2.973,2.973c-1.642,0-2.972-1.331-2.972-2.973s1.33-2.973,2.972-2.973
		C16.894,188.954,18.226,190.285,18.226,191.927"/>
	<path fill="#2DA1CD" d="M18.226,208.936c0,1.643-1.332,2.973-2.973,2.973c-1.642,0-2.972-1.33-2.972-2.973
		c0-1.641,1.33-2.971,2.972-2.971C16.894,205.966,18.226,207.296,18.226,208.936"/>
	<path fill="#2DA1CD" d="M18.226,225.946c0,1.641-1.332,2.971-2.973,2.971c-1.642,0-2.972-1.33-2.972-2.971
		c0-1.643,1.33-2.973,2.972-2.973C16.894,222.973,18.226,224.303,18.226,225.946"/>
	<path fill="#1375BB" d="M331.562,163.227c1.765,3.522,5.372,5.965,9.58,5.965c5.938,0,10.752-4.814,10.752-10.752
		c0-5.938-4.814-10.752-10.752-10.752c-4.208,0-7.815,2.441-9.58,5.965h-20.855V81.402c0-2.64,2.148-4.787,4.788-4.787h16.067
		c1.765,3.522,5.372,5.962,9.58,5.962c5.938,0,10.752-4.813,10.752-10.751c0-5.938-4.814-10.751-10.752-10.751
		c-4.208,0-7.815,2.442-9.58,5.964h-16.067c-7.92,0-14.363,6.443-14.363,14.363v72.251H30.58v9.574h270.551v72.625
		c0,7.92,6.443,14.363,14.363,14.363h16.067c1.768,3.523,5.372,5.964,9.58,5.964c5.938,0,10.752-4.815,10.752-10.753
		c0-5.937-4.814-10.75-10.752-10.75c-4.21,0-7.815,2.44-9.58,5.963h-16.067c-2.64,0-4.788-2.146-4.788-4.787v-72.625H331.562"/>
	<path fill="#EAEBEC" d="M67.801,163.227h-0.014v76.852c0,3.315,1.837,6.203,4.544,7.717c-2.7-1.523-4.53-4.417-4.53-7.715V163.227
		 M68.399,104.444c-0.112,0.239-0.174,0.476-0.263,0.715c-0.224,0.798-0.35,1.628-0.35,2.49v46.004h0.014v-46.018l0,0
		c0-0.009,0-0.019,0-0.028c0-0.004,0-0.008,0-0.012c0-0.005,0-0.01,0-0.015s0-0.011,0-0.016c0-0.004,0-0.007,0-0.011
		c0-0.006,0-0.013,0-0.02c0-0.002,0-0.004,0-0.006c0-0.008,0-0.016,0-0.023c0-0.001,0-0.002,0-0.003
		C67.818,106.423,68.028,105.393,68.399,104.444 M68.966,103.259c-0.201,0.33-0.373,0.677-0.506,1.034
		c0.013-0.033,0.027-0.065,0.041-0.097C68.638,103.873,68.793,103.561,68.966,103.259 M75.797,98.807
		c-0.403,0.043-0.806,0.114-1.2,0.213c0.391-0.094,0.792-0.161,1.2-0.2V98.807 M86.121,29.538c-1.736,0.757-2.95,2.484-2.95,4.474
		v64.795h-6.512c-0.285,0-0.57,0-0.855,0.031v0.024c0.151-0.015,0.302-0.025,0.455-0.033c0.138-0.006,0.277-0.009,0.413-0.009h6.511
		v-64.8l0,0C83.183,32.026,84.395,30.298,86.121,29.538 M176.277-3.459h-79.35c-2.713,0-4.916,2.202-4.916,4.915v27.67h0.013V1.442
		c0-2.695,2.206-4.898,4.9-4.898h79.353V-3.459"/>
	<path fill="#0D568B" d="M67.801,107.595c0,0.004,0,0.008,0,0.012C67.801,107.604,67.801,107.599,67.801,107.595 M67.801,107.564
		c0,0.005,0,0.011,0,0.016C67.801,107.575,67.801,107.57,67.801,107.564 M67.801,107.533c0,0.007,0,0.014,0,0.02
		C67.801,107.547,67.801,107.54,67.801,107.533 M67.802,107.504c0,0.008,0,0.016,0,0.023
		C67.802,107.519,67.802,107.511,67.802,107.504 M68.401,104.44c0,0.001-0.001,0.003-0.002,0.004
		c-0.371,0.949-0.582,1.979-0.598,3.057C67.818,106.425,68.029,105.393,68.401,104.44 M68.501,104.196
		c-0.014,0.032-0.028,0.064-0.041,0.097c0,0.001-0.001,0.002-0.001,0.004C68.472,104.263,68.486,104.229,68.501,104.196
		 M83.183,100.427c-1.771,0-3.305,0-4.247,0c-4.512,0-5.27,1.983-5.418,3.493v7.291c0,4.268,2.49,5.65,7.179,5.905h2.486V100.427
		 M76.259,98.829c-0.153,0.007-0.304,0.018-0.455,0.033v0.005C75.952,98.849,76.104,98.837,76.259,98.829"/>
	<path fill="#116CAD" d="M83.183,98.82h-6.511c-0.136,0-0.275,0.003-0.413,0.009c-0.154,0.007-0.307,0.02-0.455,0.038v-0.005v-0.024
		c-0.002,0-0.004,0-0.006,0v-0.018c-0.408,0.039-0.809,0.106-1.2,0.2c-0.199,0.05-0.396,0.107-0.588,0.171
		c-0.542,0.19-1.084,0.414-1.563,0.669c-0.256,0.159-0.511,0.287-0.734,0.446c-0.225,0.16-0.48,0.352-0.672,0.511
		c-0.445,0.351-0.859,0.767-1.212,1.213c-0.159,0.161-0.319,0.383-0.414,0.575c-0.16,0.208-0.311,0.427-0.448,0.653
		c-0.173,0.302-0.328,0.614-0.465,0.937c-0.015,0.033-0.029,0.067-0.042,0.101c-0.012,0.032-0.023,0.064-0.035,0.096
		c-0.008,0.016-0.015,0.031-0.022,0.046c-0.372,0.954-0.583,1.985-0.6,3.061c0,0.001,0,0.002,0,0.003c0,0.007,0,0.016,0,0.023
		c0,0.002,0,0.004,0,0.006c0,0.007,0,0.013,0,0.02c0,0.004,0,0.007,0,0.011c0,0.005,0,0.011,0,0.016c0,0.005,0,0.01,0,0.015
		c0,0.004,0,0.008,0,0.012c0,0.009,0,0.019,0,0.028l0,0v18.395l0,0v-0.048c0-4.547,3.451-8.313,7.877-8.803
		c0.314-0.052,0.652-0.063,0.994-0.063h4.025c-4.689-0.255-7.179-1.638-7.179-5.905v-7.291c0.149-1.51,0.907-3.493,5.418-3.493
		c0.942,0,2.476,0,4.247,0V98.82"/>
	<path fill="#BFC2C3" d="M92.025,29.126h-0.013v0.004h-3.925c-0.699,0-1.363,0.146-1.965,0.409c-1.726,0.76-2.938,2.487-2.938,4.481
		l0,0v83.096h8.842V29.126"/>
	<path fill="#D5D7D8" d="M172.117,64.966h-66.528c-0.139,0.169-0.365,0.641-0.365,1.363v50.788h48.407
		c0.466,0,2.577,1.614,5.325,3.879c1.328,1.103,2.801,2.356,4.3,3.648h8.862c0.139-0.172,0.363-0.643,0.363-1.355V66.328
		C172.48,65.607,172.256,65.135,172.117,64.966 M137.731,12.054h-32.507v30.258h32.507V12.054 M104.395,46.101
		c-1.687,0-2.957-1.56-2.957-3.641V11.91c0-2.077,1.27-3.641,2.957-3.641h34.17c1.683,0,2.957,1.563,2.957,3.641v30.55
		c0,2.081-1.273,3.641-2.957,3.641H104.395 M176.277-3.457H96.925c-2.694,0-4.9,2.204-4.9,4.898v27.684v87.99h9.414V66.328
		c0-2.887,1.737-5.15,3.961-5.15h66.9c2.229,0,3.97,2.263,3.97,5.15v56.959c0,2.881-1.741,5.145-3.97,5.145h-4.701
		c0.853,0.752,1.673,1.479,2.434,2.158c2.815,2.492,4.845,4.315,4.845,4.315h1.399V46.135h-18.833c-1.049,0-1.897-0.851-1.897-1.896
		c0-1.041,0.848-1.891,1.897-1.891h18.833v-7.044h-18.833c-1.049,0-1.897-0.851-1.897-1.902c0-1.044,0.848-1.892,1.897-1.892h18.833
		v-7.047h-18.833c-1.049,0-1.897-0.848-1.897-1.89c0-1.048,0.848-1.895,1.897-1.895h18.833v-7.055h-18.833
		c-1.049,0-1.897-0.841-1.897-1.892c0-1.04,0.848-1.885,1.897-1.885h18.833V-3.459"/>
	<path fill="#2994BE" d="M105.224,42.312V12.054h32.507v30.258H105.224 M138.565,8.27h-34.17c-1.687,0-2.957,1.563-2.957,3.641
		v30.55c0,2.081,1.27,3.641,2.957,3.641h34.17c1.683,0,2.957-1.56,2.957-3.641V11.91C141.522,9.833,140.249,8.27,138.565,8.27"/>
	<path fill="#2994BE" d="M172.3,61.178h-66.9c-2.224,0-3.961,2.263-3.961,5.15v50.788h3.786V66.328c0-0.722,0.226-1.194,0.365-1.363
		h66.528c0.139,0.169,0.363,0.641,0.363,1.363v56.959c0,0.712-0.225,1.183-0.363,1.355h-8.862c1.461,1.26,2.948,2.559,4.344,3.789
		h4.701c2.229,0,3.97-2.263,3.97-5.145V66.328C176.27,63.441,174.528,61.178,172.3,61.178"/>
	<path fill="#2994BE" d="M176.277,9.847h-18.833c-1.049,0-1.897,0.846-1.897,1.885c0,1.05,0.848,1.892,1.897,1.892h18.833V9.847"/>
	<path fill="#2994BE" d="M176.277,20.679h-18.833c-1.049,0-1.897,0.846-1.897,1.895c0,1.042,0.848,1.89,1.897,1.89h18.833V20.679"/>
	<path fill="#2994BE" d="M176.277,31.51h-18.833c-1.049,0-1.897,0.848-1.897,1.892c0,1.051,0.848,1.902,1.897,1.902h18.833V31.51"/>
	<path fill="#2994BE" d="M176.277,42.348h-18.833c-1.049,0-1.897,0.85-1.897,1.891c0,1.046,0.848,1.896,1.897,1.896h18.833V42.348"
		/>
	<path fill="#116CAD" d="M176.277,163.227H67.801v76.854c0,3.298,1.831,6.191,4.53,7.715c1.282,0.717,2.759,1.125,4.328,1.125
		h99.619V163.227 M153.631,117.116h-48.407h-3.786h-9.414h-8.842h-2.486h-4.025c-0.342,0-0.68,0.012-0.994,0.063
		c-4.426,0.49-7.877,4.255-7.877,8.803v0.048v27.623h108.477v-18.747h-1.399c0,0-2.029-1.823-4.845-4.315
		c-0.761-0.679-1.581-1.406-2.434-2.158c-1.396-1.23-2.882-2.529-4.344-3.789c-1.499-1.292-2.972-2.545-4.3-3.648
		C156.208,118.73,154.097,117.116,153.631,117.116"/>
	<polyline fill="#116CAD" points="176.277,153.653 67.801,153.653 67.787,153.653 67.787,163.227 67.801,163.227 176.277,163.227 
		176.277,153.653 	"/>
	<path fill="#EAEBEC" d="M15.247,89.36H-0.807c-1.149,0-2.108,0.573-2.108,1.276l-3.894,7.962l3.911-7.973
		c0-0.692,0.941-1.26,2.091-1.26h16.054V89.36"/>
	<path fill="#0F5E99" d="M15.247,89.366H-0.807c-1.15,0-2.091,0.567-2.091,1.26l-3.911,7.973l-1.819,3.72
		c0,0.09,0.029,0.18,0.059,0.271c0.311-1.69,1.605-2.968,3.14-2.968h20.676V89.366"/>
	<path fill="#116CAD" d="M15.247,99.623H-5.43c-1.535,0-2.829,1.277-3.14,2.968c0.001,0.005,0.003,0.01,0.005,0.016v0.031
		c-0.031,0.255-0.064,0.48-0.064,0.733v141.815c0,2.074,1.437,3.734,3.192,3.734h20.683v-11.519H4.503
		c-1.229,0-2.24-1.176-2.24-2.616v-121.01c0-1.44,1.011-2.622,2.24-2.622h10.744V99.623"/>
	<path fill="#D5D7D8" d="M15.247,111.154H4.503c-1.229,0-2.24,1.182-2.24,2.622v121.01c0,1.44,1.011,2.616,2.24,2.616h10.744v-8.485
		c-1.639-0.004-2.965-1.332-2.965-2.971c0-1.641,1.327-2.97,2.965-2.973v-11.064c-1.639-0.004-2.965-1.332-2.965-2.973
		c0-1.639,1.327-2.968,2.965-2.971v-11.066c-1.639-0.004-2.965-1.333-2.965-2.973s1.327-2.97,2.965-2.973v-11.065
		c-1.639-0.003-2.965-1.331-2.965-2.972c0-1.637,1.327-2.968,2.965-2.971v-37.723c-3.279-0.004-5.936-2.664-5.936-5.943
		s2.657-5.939,5.936-5.942V111.154"/>
	<path fill="#116CAD" d="M15.247,122.338c-3.279,0.003-5.936,2.663-5.936,5.942s2.657,5.939,5.936,5.943V122.338"/>
	<path fill="#2994BE" d="M15.247,171.946c-1.639,0.003-2.965,1.334-2.965,2.971c0,1.641,1.327,2.969,2.965,2.972V171.946"/>
	<path fill="#2994BE" d="M15.247,188.954c-1.639,0.003-2.965,1.333-2.965,2.973s1.327,2.969,2.965,2.973V188.954"/>
	<path fill="#2994BE" d="M15.247,205.966c-1.639,0.003-2.965,1.332-2.965,2.971c0,1.641,1.327,2.969,2.965,2.973V205.966"/>
	<path fill="#2994BE" d="M15.247,222.973c-1.639,0.003-2.965,1.332-2.965,2.973c0,1.639,1.327,2.967,2.965,2.971V222.973"/>
</g>
</svg>
