<?xml version="1.0" encoding="utf-8"?>
<!-- Generator: Adobe Illustrator 17.0.2, SVG Export Plug-In . SVG Version: 6.00 Build 0)  -->
<!DOCTYPE svg PUBLIC "-//W3C//DTD SVG 1.1//EN" "http://www.w3.org/Graphics/SVG/1.1/DTD/svg11.dtd" [
	<!ENTITY ns_extend "http://ns.adobe.com/Extensibility/1.0/">
	<!ENTITY ns_ai "http://ns.adobe.com/AdobeIllustrator/10.0/">
	<!ENTITY ns_graphs "http://ns.adobe.com/Graphs/1.0/">
	<!ENTITY ns_vars "http://ns.adobe.com/Variables/1.0/">
	<!ENTITY ns_imrep "http://ns.adobe.com/ImageReplacement/1.0/">
	<!ENTITY ns_sfw "http://ns.adobe.com/SaveForWeb/1.0/">
	<!ENTITY ns_custom "http://ns.adobe.com/GenericCustomNamespace/1.0/">
	<!ENTITY ns_adobe_xpath "http://ns.adobe.com/XPath/1.0/">
]>
<svg version="1.1" id="Layer_1" xmlns:x="&ns_extend;" xmlns:i="&ns_ai;" xmlns:graph="&ns_graphs;"
	 xmlns="http://www.w3.org/2000/svg" xmlns:xlink="http://www.w3.org/1999/xlink" x="0px" y="0px" width="321.211px"
	 height="260.606px" viewBox="0 0 321.211 260.606" enable-background="new 0 0 321.211 260.606" xml:space="preserve">
<metadata>
	<sfw  xmlns="&ns_sfw;">
		<slices></slices>
		<sliceSourceBounds  y="-398.88" x="269.809" width="301.533" height="228.946" bottomLeftOrigin="true"></sliceSourceBounds>
	</sfw>
</metadata>
<g>
	<path fill="#1676BB" d="M26.222,218.255l-1.346-0.988l1.187-1.595C26.027,216.523,26.08,217.391,26.222,218.255"/>
	<path fill="#1676BB" d="M295.663,217.211l-15.471,11.416l-3.398-4.599l-8.901-12.074v-0.017l-3.983-5.381v-0.016l-3.753-5.063
		l-27.487-37.259l-12.408-16.797v-0.017l-9.998-13.54l-1.383-1.858l-0.565-0.761v-0.02l-4.797-6.495l-16.267-22.054l-12.142-16.46
		h-0.017l-3.54-4.779v-0.017l-3.558-4.833h-0.017l-6.425-8.724l-0.603-0.798v-0.017l-0.654-0.886l-0.018,0.018l-3.345,4.532
		l-1.434,1.963l-3.08,4.143l-3.593,4.885l-3.558,4.814l-33.009,44.708l-11.947,16.18l-4.797,6.512l-35.451,48.001l-3.736,5.062
		l-4.053,5.505c-0.513-1.894-1.467-3.683-2.849-5.237c-2.55-2.87-6.195-4.516-10.036-4.516c-1.487,0-2.955,0.248-4.337,0.744
		l4.868-6.585l4.018-5.449l39.629-53.702l4.796-6.515h0.019l11.929-16.175l30.55-41.382l3.805-5.167l4.035-5.452l16.78-22.746
		l4.815-6.513l0.654,0.886l4.549,6.16l1.364,1.859v0.017l14.459,19.559l4.09,5.538l3.858,5.24l20.284,27.488l5.91,8.001v0.017
		l4.796,6.497l11.948,16.175l23.877,32.374l19.877,26.922l3.857,5.22l4.215,5.72L295.663,217.211"/>
	<path fill="#2FA2CD" d="M295.663,45.261l-10.78,14.603l-4.229,5.734l-3.86,5.221l-44.585,60.407l-11.948,16.18v0.017l-4.796,6.495
		l-25.594,34.675l-3.875,5.256l-4.143,5.594v0.021l-20.902,28.318l-0.195,0.264l-0.459,0.62l-0.461-0.638h-0.019l-4.335-5.876
		l-2.266-3.081l-2.442-3.309l-12.054-16.319l-4.143-5.609v-0.021l-3.875-5.236l-30.391-41.17l-11.929-16.18h-0.019l-4.796-6.495
		L43.957,71.048h-0.018l-3.823-5.202h-0.018l-4.23-5.752c0.477,0.054,0.938,0.071,1.417,0.071c3.752,0,7.363-1.363,10.177-3.86
		c2.158-1.892,3.646-4.264,4.46-6.813l3.999,5.433l3.753,5.081l35.841,48.549l4.797,6.497l11.947,16.175l32.479,44.004l3.522,4.778
		l3.558,4.83h0.017l3.665,4.959l4.797,6.494l0.654-0.867v-0.018l7.806-10.568l3.558-4.812l3.54-4.796l27.664-37.489l4.797-6.495
		v-0.02l11.946-16.175l19.665-26.637l20.851-28.266h0.018l0.921-1.26l2.743-3.733l2.55-3.434l1.325-1.788v-0.017l8.461-11.47
		l3.398-4.602L295.663,45.261"/>
	<path fill="#D1D3D4" d="M175.094,86.217L175.094,86.217c-2.409,1.222-4.956,2.124-7.577,2.744c-0.001,0-0.003,0.001-0.004,0.001
		l31.2,42.272l4.802-6.506l-5.009-6.791L175.094,86.217"/>
	<polyline fill="#14629D" points="198.507,117.937 203.515,124.727 203.517,124.725 198.507,117.937 	"/>
	<path fill="#D1D3D4" d="M220.261,147.422l-4.796,6.495l-0.005,0.007l55.133,74.698l6.206-4.587l-0.005-0.006l-8.901-12.074v-0.014
		l-0.573-0.776l-3.41-4.607v-0.014l-0.382-0.517l-3.371-4.549l-26.507-35.931l-1.621-2.196L220.261,147.422 M208.315,131.241
		l-4.798,6.501l0.001,0.001l0.001-0.001l4.797-6.495V131.241"/>
	<path fill="#14629D" d="M267.893,211.94v0.014l8.901,12.074l0.005,0.006l0.014-0.01L267.893,211.94 M263.91,206.544v0.014
		l3.41,4.607L263.91,206.544 M233.649,165.547l26.507,35.931l3.371,4.549L233.649,165.547 M220.261,147.409v0.013l11.767,15.93
		L220.261,147.409"/>
	<polyline fill="#288AAE" points="208.321,131.233 208.315,131.241 208.315,131.246 203.518,137.741 203.517,137.742 
		215.46,153.924 215.465,153.917 220.261,147.422 220.261,147.409 208.321,131.233 	"/>
	<polyline fill="#D1D3D4" points="270.593,33.843 215.465,108.537 215.465,108.537 215.465,108.554 220.261,115.051 239.926,88.414 
		260.777,60.147 260.791,60.147 261.156,59.653 261.715,58.888 264.459,55.155 267.008,51.721 267.54,51.004 268.334,49.929 
		268.334,49.916 276.794,38.446 276.803,38.434 270.593,33.843 	"/>
	<polyline fill="#14629D" points="215.465,108.537 203.517,124.725 208.315,131.225 220.261,115.051 215.465,108.554 
		215.465,108.537 215.465,108.537 	"/>
	<path fill="#288AAE" d="M260.791,60.147h-0.014l-20.851,28.266l-19.665,26.637l-11.946,16.175l0.006,0.008L260.791,60.147
		 M267.54,51.004l-0.532,0.717l-2.55,3.434l-2.743,3.733l-0.559,0.765L267.54,51.004 M276.803,38.434l-0.009,0.012l-8.461,11.47
		v0.012l8.479-11.488L276.803,38.434"/>
	<path fill="#D1D3D4" d="M198.713,131.234l-30.406,41.198c0.002,0.001,0.004,0.001,0.007,0.002c2.618,0.637,5.132,1.575,7.521,2.797
		h0.011l27.671-37.488L198.713,131.234"/>
	<polyline fill="#AFB1B4" points="203.515,124.727 198.713,131.234 203.517,137.742 208.315,131.241 208.315,131.226 
		203.518,124.731 203.515,124.727 	"/>
	<polyline fill="#0C5286" points="203.517,124.725 203.515,124.727 203.518,124.731 208.315,131.226 208.315,131.241 
		208.315,131.226 208.315,131.225 203.517,124.725 	"/>
	<polyline fill="#1E7494" points="208.315,131.225 208.315,131.226 208.315,131.241 208.321,131.233 208.315,131.225 	"/>
	<path fill="#FFFFFF" d="M53.195,30.71c-7.788-8.796-21.205-9.61-30-1.84c-4.708,4.161-7.133,9.967-7.169,15.771
		c0,0.567,0.019,1.115,0.072,1.665v0.017c0.3,4.496,2.053,8.904,5.257,12.532c2.318,2.62,5.151,4.531,8.212,5.717
		c3.345,1.309,6.992,1.734,10.531,1.275h0.018c4.035-0.551,7.946-2.249,11.221-5.151c1.912-1.682,3.452-3.645,4.583-5.771
		C60.08,47.295,59.267,37.597,53.195,30.71 M47.461,56.305c-2.814,2.497-6.425,3.86-10.177,3.86c-0.479,0-0.94-0.017-1.417-0.071
		c-3.877-0.355-7.522-2.179-10.124-5.117c-2.726-3.078-4.088-7.043-3.823-11.15c0.088-1.432,0.371-2.814,0.85-4.142v-0.017
		c0.833-2.461,2.318-4.654,4.318-6.424c2.815-2.478,6.426-3.859,10.177-3.859c4.407,0,8.62,1.894,11.54,5.205
		c3.717,4.195,4.726,9.894,3.116,14.885v0.018C51.107,52.041,49.62,54.412,47.461,56.305"/>
	<path fill="#2FA2CD" d="M57.567,26.836c-5.132-5.806-12.531-9.151-20.301-9.151c-6.62,0-12.974,2.406-17.93,6.796
		c-5.433,4.797-8.655,11.417-9.097,18.639c-0.46,7.221,1.947,14.178,6.744,19.611c4.601,5.203,11.008,8.425,17.877,9.026
		c0.796,0.088,1.611,0.125,2.425,0.125c2.264,0,4.496-0.284,6.655-0.834h0.018c4.142-1.06,8-3.097,11.257-5.964
		c1.734-1.539,3.221-3.237,4.461-5.078l0.017-0.019C66.47,50.004,65.921,36.304,57.567,26.836 M35.867,60.094
		c-3.877-0.355-7.522-2.179-10.124-5.117c-2.726-3.078-4.088-7.043-3.823-11.15c0.088-1.432,0.371-2.814,0.85-4.142v-0.017
		c0.833-2.461,2.318-4.654,4.318-6.424c2.815-2.478,6.426-3.859,10.177-3.859c4.407,0,8.62,1.894,11.54,5.205
		c3.717,4.195,4.726,9.894,3.116,14.885v0.018c-0.814,2.55-2.302,4.921-4.46,6.813c-2.814,2.497-6.425,3.86-10.177,3.86
		C36.805,60.165,36.344,60.147,35.867,60.094"/>
	<path fill="#FFFFFF" d="M179.016,226.808c-11.707,10.35-29.583,9.247-39.929-2.46c-10.345-11.7-9.247-29.578,2.458-39.926
		c11.704-10.348,29.584-9.241,39.93,2.457C191.818,198.583,190.719,216.461,179.016,226.808"/>
	<path fill="#2FA2CD" d="M189.872,188.592c-1.115-1.962-2.459-3.842-4.018-5.594c-2.849-3.22-6.248-5.84-10-7.769h-0.02
		c-2.389-1.221-4.902-2.16-7.521-2.797c-2.391-0.585-4.867-0.901-7.363-0.937c-0.23-0.02-0.442-0.02-0.672-0.02
		c-5.451,0-10.779,1.311-15.541,3.754c-2.531,1.292-4.902,2.9-7.062,4.812c-2.814,2.48-5.168,5.362-6.973,8.533
		c-1.523,2.601-2.673,5.414-3.451,8.354c-0.549,2.123-0.904,4.336-1.045,6.584c-0.548,9.099,2.46,17.876,8.496,24.711
		c6.478,7.325,15.788,11.537,25.576,11.537h0.018c0.212,0,0.442,0,0.654-0.017c8.105-0.141,15.858-3.168,21.948-8.55
		C195.251,220.291,197.801,202.363,189.872,188.592 M175.147,222.416c-3.948,3.488-8.958,5.471-14.196,5.628h-0.672
		c-0.141,0-0.302,0-0.442-0.018h-0.019c-2.619-0.036-5.167-0.55-7.575-1.468c-1.858-0.728-3.593-1.683-5.204-2.851h-0.018
		l-0.017-0.017c-1.275-0.94-2.46-2.02-3.523-3.224c-1.982-2.231-3.451-4.776-4.407-7.522v-0.017
		c-0.956-2.761-1.38-5.698-1.186-8.692c0.106-1.644,0.372-3.257,0.832-4.796c1.15-4.088,3.451-7.77,6.708-10.636
		c1.911-1.701,4.07-3.027,6.389-3.968h0.017c2.655-1.095,5.524-1.662,8.444-1.662h0.106c0.196,0,0.371,0,0.566,0.018
		c2.709,0.071,5.329,0.639,7.788,1.645h0.018c3.167,1.294,6.036,3.294,8.337,5.914c2.282,2.586,3.874,5.572,4.76,8.689v0.021
		C184.155,207.512,181.834,216.523,175.147,222.416"/>
	<path fill="#FFFFFF" d="M298.32,60.181c-9.259,8.186-23.396,7.313-31.578-1.943c-8.182-9.255-7.314-23.394,1.942-31.578
		c9.259-8.185,23.396-7.309,31.581,1.944C308.446,37.859,307.577,51.999,298.32,60.181z"/>
	<path fill="#2FA2CD" d="M304.655,24.728c-5.364-6.053-13.062-9.522-21.153-9.522c-6.885,0-13.522,2.513-18.688,7.062
		c-5.648,4.992-9.01,11.895-9.471,19.416c-0.229,3.753,0.267,7.418,1.452,10.868c0.919,2.707,2.265,5.257,3.982,7.594h0.018v0.017
		c0.497,0.672,1.009,1.328,1.575,1.946c3.842,4.337,8.884,7.363,14.425,8.708c2.178,0.549,4.424,0.833,6.727,0.833
		c6.885,0,13.521-2.515,18.672-7.08C313.859,54.271,314.957,36.392,304.655,24.728z M294.442,55.791
		c-2.674,2.374-6.037,3.79-9.559,4.073c-0.461,0.052-0.903,0.07-1.361,0.07c-4.745,0-9.258-2.019-12.392-5.575
		c-1.185-1.345-2.123-2.832-2.797-4.425v-0.017c-1.025-2.337-1.485-4.886-1.309-7.505c0.106-1.894,0.548-3.716,1.256-5.415v-0.019
		c0.957-2.246,2.408-4.264,4.284-5.929c3.027-2.671,6.902-4.14,10.936-4.14c4.726,0,9.241,2.034,12.393,5.574
		C301.912,39.296,301.273,49.775,294.442,55.791z"/>
	<path fill="#FFFFFF" d="M296.758,232.936c-8.846,7.819-22.357,6.985-30.173-1.86c-7.818-8.842-6.987-22.351,1.857-30.17
		c8.844-7.82,22.354-6.984,30.174,1.858C306.431,211.606,305.601,225.118,296.758,232.936z"/>
	<path fill="#1676BB" d="M303.009,198.895c-5.17-5.841-12.602-9.204-20.409-9.204c-2.265,0-4.478,0.283-6.637,0.831
		c-4.195,1.044-8.106,3.097-11.398,6c-1.682,1.485-3.149,3.15-4.408,4.956c-1.661,2.426-2.92,5.097-3.734,7.946
		c-0.531,1.876-0.867,3.824-0.991,5.824c-0.44,7.255,1.965,14.247,6.778,19.7c5.169,5.841,12.603,9.204,20.408,9.204
		c6.638,0,13.046-2.426,18.019-6.834C311.893,227.373,312.938,210.131,303.009,198.895z M292.883,228.557
		c-2.83,2.497-6.478,3.878-10.266,3.878c-4.142,0-8.087-1.628-10.991-4.568c-0.229-0.194-0.443-0.441-0.656-0.671
		c-2.742-3.098-4.122-7.098-3.857-11.224c0.089-1.395,0.353-2.724,0.779-4.018v-0.017c0.848-2.55,2.369-4.833,4.425-6.655
		c2.849-2.496,6.495-3.895,10.282-3.895c0.479,0,0.955,0.021,1.436,0.073c3.911,0.351,7.572,2.213,10.193,5.183
		C299.912,213.052,299.29,222.876,292.883,228.557z"/>
	<path fill="#FFFFFF" d="M178.615,76.867c-11.707,10.346-29.583,9.243-39.928-2.462c-10.347-11.701-9.248-29.58,2.456-39.927
		c11.706-10.349,29.582-9.241,39.929,2.459C191.416,48.641,190.318,66.519,178.615,76.867"/>
	<path fill="#1676BB" d="M159.499,78.094c-2.442-0.037-4.832-0.46-7.08-1.275c-3.557-1.238-6.779-3.398-9.346-6.284
		c-1.964-2.23-3.433-4.761-4.372-7.486l-4.035,5.452l0.035,0.07c0.248,0.494,0.531,0.991,0.814,1.47l0.053,0.105
		c0.3,0.479,0.584,0.938,0.903,1.399c0.335,0.496,0.689,0.992,1.062,1.469c0.105,0.142,0.23,0.301,0.336,0.443
		c0.265,0.317,0.531,0.637,0.814,0.955c2.885,3.274,6.371,5.699,10.142,7.292c0.566,0.249,1.15,0.477,1.735,0.672l0.071,0.019
		c0.283,0.107,0.566,0.195,0.85,0.284c0.584,0.195,1.186,0.354,1.787,0.496c0.124,0.035,0.248,0.052,0.371,0.07
		c0.195,0.052,0.372,0.088,0.567,0.123c0.92,0.195,1.841,0.337,2.762,0.426c1.096,0.124,2.212,0.159,3.309,0.142v-4.779
		L159.499,78.094 M143.074,70.536c-1.964-2.23-3.433-4.761-4.372-7.486l-4.035,5.452l0.035,0.07c0.248,0.494,0.531,0.991,0.814,1.47
		l0.053,0.105c0.3,0.479,0.584,0.938,0.903,1.399c0.335,0.496,0.689,0.992,1.062,1.469c0.105,0.142,0.23,0.301,0.336,0.443
		c0.265,0.317,0.531,0.637,0.814,0.955c2.885,3.274,6.371,5.699,10.142,7.292l3.593-4.885
		C148.863,75.581,145.641,73.422,143.074,70.536 M143.074,70.536c-1.964-2.23-3.433-4.761-4.372-7.486l-4.035,5.452l0.035,0.07
		c0.248,0.494,0.531,0.991,0.814,1.47l0.053,0.105c0.3,0.479,0.584,0.938,0.903,1.399c0.335,0.496,0.689,0.992,1.062,1.469
		c0.105,0.142,0.23,0.301,0.336,0.443c0.265,0.317,0.531,0.637,0.814,0.955c2.885,3.274,6.371,5.699,10.142,7.292l3.593-4.885
		C148.863,75.581,145.641,73.422,143.074,70.536 M143.074,70.536c-1.964-2.23-3.433-4.761-4.372-7.486l-4.035,5.452l0.035,0.07
		c0.248,0.494,0.531,0.991,0.814,1.47l0.053,0.105c0.3,0.479,0.584,0.938,0.903,1.399c0.335,0.496,0.689,0.992,1.062,1.469
		c0.105,0.142,0.23,0.301,0.336,0.443c0.265,0.317,0.531,0.637,0.814,0.955c2.885,3.274,6.371,5.699,10.142,7.292l3.593-4.885
		C148.863,75.581,145.641,73.422,143.074,70.536 M143.074,70.536c-1.964-2.23-3.433-4.761-4.372-7.486l-4.035,5.452l0.035,0.07
		c0.248,0.494,0.531,0.991,0.814,1.47l0.053,0.105c0.3,0.479,0.584,0.938,0.903,1.399c0.335,0.496,0.689,0.992,1.062,1.469
		c0.105,0.142,0.23,0.301,0.336,0.443c0.265,0.317,0.531,0.637,0.814,0.955c2.885,3.274,6.371,5.699,10.142,7.292l3.593-4.885
		C148.863,75.581,145.641,73.422,143.074,70.536 M143.074,70.536c-1.964-2.23-3.433-4.761-4.372-7.486l-4.035,5.452l0.035,0.07
		c0.248,0.494,0.531,0.991,0.814,1.47l0.053,0.105c0.3,0.479,0.584,0.938,0.903,1.399c0.335,0.496,0.689,0.992,1.062,1.469
		c0.105,0.142,0.23,0.301,0.336,0.443c0.265,0.317,0.531,0.637,0.814,0.955c2.885,3.274,6.371,5.699,10.142,7.292l3.593-4.885
		C148.863,75.581,145.641,73.422,143.074,70.536 M185.464,33.065c-6.247-7.044-15.116-11.22-24.514-11.504
		c-0.23-0.019-0.442-0.019-0.672-0.019c-0.141-0.017-0.266-0.017-0.407-0.017c-8.336,0-16.354,3.044-22.603,8.567
		c-6.832,6.036-10.903,14.373-11.451,23.485c-0.266,4.125,0.229,8.196,1.398,12.038c0.85,2.831,2.071,5.54,3.646,8.053
		c1.008,1.628,2.158,3.169,3.451,4.621c3.079,3.486,6.814,6.283,10.956,8.229c4.514,2.143,9.504,3.294,14.621,3.294h0.389
		c0.23,0,0.442,0,0.672-0.018c2.23-0.07,4.425-0.354,6.566-0.833c2.621-0.619,5.168-1.522,7.576-2.744h0.017
		c2.638-1.31,5.116-2.992,7.383-4.972c2.743-2.425,5.009-5.188,6.779-8.197C196.596,60.658,195.501,44.429,185.464,33.065
		 M181.323,62.27c-1.169,3.823-3.382,7.381-6.583,10.212c-2.003,1.788-4.302,3.152-6.745,4.105h-0.017
		c-2.23,0.886-4.585,1.381-7.027,1.506c-0.212,0-0.442,0.017-0.672,0.017h-0.389c-0.125,0-0.266,0-0.391-0.017
		c-2.442-0.037-4.832-0.46-7.08-1.275c-3.557-1.238-6.779-3.398-9.346-6.284c-1.964-2.23-3.433-4.761-4.372-7.486
		c-0.973-2.78-1.398-5.735-1.204-8.762c0.072-1.079,0.212-2.141,0.425-3.186c0.955-4.726,3.433-8.991,7.098-12.248
		c1.238-1.097,2.585-2.036,4.018-2.834l0.017-0.017h0.019c0.779-0.406,1.575-0.796,2.389-1.132h0.019
		c2.637-1.063,5.487-1.628,8.389-1.628c0.142,0,0.266,0,0.407,0.017c0.23,0,0.442,0.018,0.672,0.035
		c6.036,0.267,11.717,2.992,15.735,7.523C182.049,46.873,183.536,55.048,181.323,62.27 M143.074,70.536
		c-1.964-2.23-3.433-4.761-4.372-7.486l-4.035,5.452l0.035,0.07c0.248,0.494,0.531,0.991,0.814,1.47l0.053,0.105
		c0.3,0.479,0.584,0.938,0.903,1.399c0.335,0.496,0.689,0.992,1.062,1.469c0.105,0.142,0.23,0.301,0.336,0.443
		c0.265,0.317,0.531,0.637,0.814,0.955c2.885,3.274,6.371,5.699,10.142,7.292l3.593-4.885
		C148.863,75.581,145.641,73.422,143.074,70.536 M143.074,70.536c-1.964-2.23-3.433-4.761-4.372-7.486l-4.035,5.452l0.035,0.07
		c0.248,0.494,0.531,0.991,0.814,1.47l0.053,0.105c0.3,0.479,0.584,0.938,0.903,1.399c0.335,0.496,0.689,0.992,1.062,1.469
		c0.105,0.142,0.23,0.301,0.336,0.443c0.265,0.317,0.531,0.637,0.814,0.955c2.885,3.274,6.371,5.699,10.142,7.292l3.593-4.885
		C148.863,75.581,145.641,73.422,143.074,70.536 M143.074,70.536c-1.964-2.23-3.433-4.761-4.372-7.486l-4.035,5.452l0.035,0.07
		c0.248,0.494,0.531,0.991,0.814,1.47l0.053,0.105c0.3,0.479,0.584,0.938,0.903,1.399c0.335,0.496,0.689,0.992,1.062,1.469
		c0.105,0.142,0.23,0.301,0.336,0.443c0.265,0.317,0.531,0.637,0.814,0.955c2.885,3.274,6.371,5.699,10.142,7.292l3.593-4.885
		C148.863,75.581,145.641,73.422,143.074,70.536 M143.074,70.536c-1.964-2.23-3.433-4.761-4.372-7.486l-4.035,5.452l0.035,0.07
		c0.248,0.494,0.531,0.991,0.814,1.47l0.053,0.105c0.3,0.479,0.584,0.938,0.903,1.399c0.335,0.496,0.689,0.992,1.062,1.469
		c0.105,0.142,0.23,0.301,0.336,0.443c0.265,0.317,0.531,0.637,0.814,0.955c2.885,3.274,6.371,5.699,10.142,7.292l3.593-4.885
		C148.863,75.581,145.641,73.422,143.074,70.536 M159.499,78.094c-2.442-0.037-4.832-0.46-7.08-1.275
		c-3.557-1.238-6.779-3.398-9.346-6.284c-1.964-2.23-3.433-4.761-4.372-7.486l-4.035,5.452l0.035,0.07
		c0.248,0.494,0.531,0.991,0.814,1.47l0.053,0.105c0.3,0.479,0.584,0.938,0.903,1.399c0.335,0.496,0.689,0.992,1.062,1.469
		c0.105,0.142,0.23,0.301,0.336,0.443c0.265,0.317,0.531,0.637,0.814,0.955c2.885,3.274,6.371,5.699,10.142,7.292
		c0.566,0.249,1.15,0.477,1.735,0.672l0.071,0.019c0.283,0.107,0.566,0.195,0.85,0.284c0.584,0.195,1.186,0.354,1.787,0.496
		c0.124,0.035,0.248,0.052,0.371,0.07c0.195,0.052,0.372,0.088,0.567,0.123c0.92,0.195,1.841,0.337,2.762,0.426
		c1.096,0.124,2.212,0.159,3.309,0.142v-4.779L159.499,78.094"/>
	<polygon fill="#1676BB" points="256.09,163.593 232.667,164.219 187.245,102.676 209.547,100.53 	"/>
	<path fill="#FFFFFF" d="M56.328,206.981c-0.69-1.274-1.521-2.477-2.53-3.607c-3.681-4.162-8.743-6.357-13.877-6.481
		c-4.584-0.14-9.239,1.362-12.992,4.569l-0.017,0.017l-0.247,0.214c-2.196,1.945-3.841,4.265-4.922,6.795l-0.017,0.017
		c-1.734,4.091-2.018,8.69-0.778,12.958c0.76,2.654,2.107,5.167,4.053,7.363c7.025,7.946,19.168,8.69,27.133,1.663
		C58.947,224.47,60.47,214.664,56.328,206.981 M48.257,226.098c-2.442,2.177-5.593,3.361-8.851,3.361
		c-2.707,0-5.345-0.832-7.539-2.354c-0.921-0.581-1.753-1.328-2.478-2.159c-1.734-1.946-2.78-4.281-3.168-6.691
		c-0.142-0.864-0.195-1.732-0.16-2.583v-0.018c0.105-3.557,1.629-7.045,4.495-9.574c1.327-1.171,2.851-2.056,4.496-2.604
		c1.382-0.496,2.85-0.744,4.337-0.744c3.841,0,7.486,1.645,10.036,4.516c1.381,1.555,2.336,3.344,2.849,5.237v0.019
		C53.602,217.284,52.204,222.611,48.257,226.098"/>
	<path fill="#1676BB" d="M60.08,201.939l-0.017-0.021c-0.567-0.847-1.187-1.645-1.876-2.423c-3.735-4.228-8.779-7.045-14.248-8.053
		c-1.487-0.284-3.009-0.427-4.549-0.427c-1.752,0-3.487,0.196-5.167,0.567c-4.213,0.867-8.143,2.832-11.417,5.717
		c-10.354,9.17-11.327,25.046-2.177,35.399c4.743,5.381,11.594,8.461,18.779,8.461c6.125,0,12.019-2.229,16.604-6.281
		C65.585,226.415,67.144,212.204,60.08,201.939 M48.257,226.098c-2.442,2.177-5.593,3.361-8.851,3.361
		c-2.707,0-5.345-0.832-7.539-2.354c-0.921-0.581-1.753-1.328-2.478-2.159c-1.734-1.946-2.78-4.281-3.168-6.691
		c-0.142-0.864-0.195-1.732-0.16-2.583v-0.018c0.105-3.557,1.629-7.045,4.495-9.574c1.327-1.171,2.851-2.056,4.496-2.604
		c1.382-0.496,2.85-0.744,4.337-0.744c3.841,0,7.486,1.645,10.036,4.516c1.381,1.555,2.336,3.344,2.849,5.237v0.019
		C53.602,217.284,52.204,222.611,48.257,226.098"/>
	<path fill="#2FA2CD" d="M175.386,197.539c-1.11,0.49-2.304,0.822-3.556,0.974c1.28-0.767,2.261-1.98,2.721-3.424
		c-1.196,0.712-2.517,1.225-3.929,1.5c-1.125-1.202-2.734-1.954-4.515-1.954c-3.417,0-6.185,2.772-6.185,6.189
		c0,0.485,0.052,0.958,0.159,1.407c-5.143-0.256-9.699-2.718-12.752-6.465c-0.533,0.919-0.837,1.98-0.837,3.115
		c0,2.142,1.092,4.037,2.752,5.146c-1.014-0.031-1.969-0.312-2.804-0.773v0.076c0,2.999,2.133,5.501,4.964,6.069
		c-0.519,0.145-1.065,0.219-1.63,0.219c-0.4,0-0.789-0.039-1.164-0.112c0.787,2.459,3.071,4.248,5.778,4.293
		c-2.117,1.662-4.786,2.651-7.683,2.651c-0.499,0-0.994-0.029-1.476-0.085c2.738,1.752,5.989,2.776,9.482,2.776
		c11.381,0,17.603-9.426,17.603-17.6c0-0.269-0.005-0.539-0.016-0.803C173.509,199.87,174.557,198.777,175.386,197.539"/>
	<path fill="#1676BB" d="M152.611,50.571h3.111v-3.024c0-1.334,0.035-3.39,1.002-4.665c1.022-1.348,2.422-2.264,4.831-2.264
		c3.926,0,5.581,0.56,5.581,0.56l-0.778,4.609c0,0-1.297-0.375-2.508-0.375s-2.294,0.434-2.294,1.644v3.516h4.965l-0.348,4.503
		h-4.618v15.647h-5.833V55.074h-3.111V50.571"/>
	<path fill="#1566A3" d="M83.568,137.741L83.568,137.741l-39.629,53.702c5.469,1.008,10.513,3.824,14.248,8.053
		c0.69,0.778,1.31,1.576,1.876,2.423l0,0l35.451-48.001L83.568,137.741 M130.862,73.669L130.862,73.669l-30.55,41.382l11.947,16.175
		l33.009-44.708c-4.142-1.946-7.876-4.743-10.956-8.229C133.02,76.837,131.87,75.297,130.862,73.669"/>
	<path fill="#B6B8BA" d="M78.771,131.246L78.771,131.246l-44.549,60.337c1.681-0.371,3.415-0.567,5.167-0.567
		c1.541,0,3.062,0.143,4.549,0.427l0,0l39.629-53.702L78.771,131.246 M127.215,65.616L127.215,65.616l-31.701,42.938l4.797,6.497
		l30.55-41.382l0,0C129.287,71.156,128.065,68.447,127.215,65.616"/>
	<path fill="#2A8FB5" d="M59.674,60.005c-1.239,1.841-2.726,3.54-4.461,5.078c-3.256,2.867-7.115,4.904-11.257,5.964h-0.018l0,0
		h0.018l39.612,53.683l4.796,6.495h0.019l11.929,16.18l30.391,41.17l0,0c1.805-3.171,4.159-6.054,6.973-8.533
		c2.16-1.912,4.531-3.521,7.062-4.812l-32.479-44.004l-11.947-16.175l-4.797-6.497L59.674,60.005"/>
	<path fill="#B6B8BA" d="M100.312,147.406L100.312,147.406l-4.797,6.512l31.737,43.012l0,0l0,0c0.778-2.94,1.929-5.753,3.451-8.354
		L100.312,147.406 M43.957,71.048h-0.018c-2.159,0.55-4.39,0.834-6.655,0.834c-0.814,0-1.629-0.037-2.425-0.125l43.912,59.489
		l4.797-6.515L43.957,71.048"/>
	<polyline fill="#0E558A" points="88.383,131.226 88.383,131.226 88.364,131.226 83.568,137.741 95.515,153.917 100.312,147.406 
		88.383,131.226 	"/>
	<polyline fill="#9B9D9F" points="83.568,124.731 83.568,124.731 78.771,131.246 83.568,137.741 88.364,131.226 88.383,131.226 
		88.364,131.226 83.568,124.731 	"/>
	<path fill="#2A8FB5" d="M22.77,39.667L22.77,39.667c0.833-2.461,2.318-4.654,4.318-6.424c2.815-2.478,6.426-3.859,10.177-3.859
		c4.407,0,8.62,1.894,11.54,5.205c2.577,2.909,3.853,6.54,3.856,10.158c0.001,1.6-0.246,3.197-0.74,4.727v0.018l0,0
		c-0.814,2.55-2.302,4.921-4.46,6.813c-2.814,2.497-6.425,3.86-10.177,3.86c-0.479,0-0.94-0.017-1.417-0.071
		c-3.877-0.355-7.522-2.179-10.124-5.117c-2.502-2.825-3.856-6.399-3.855-10.143c0-0.335,0.011-0.67,0.033-1.007
		c0.088-1.432,0.371-2.814,0.85-4.142V39.667L22.77,39.667 M37.266,17.685c-6.62,0-12.974,2.406-17.93,6.796
		c-5.433,4.797-8.655,11.417-9.097,18.639c-0.037,0.578-0.055,1.155-0.056,1.729c-0.004,6.596,2.386,12.884,6.8,17.882
		c4.601,5.203,11.008,8.425,17.877,9.026l0,0c0.796,0.088,1.611,0.125,2.425,0.125c2.264,0,4.496-0.284,6.655-0.834l0,0l0,0h0.018
		c4.142-1.06,8-3.097,11.257-5.964c1.734-1.539,3.221-3.237,4.461-5.078l0,0l0.017-0.019c3.091-4.552,4.659-9.878,4.657-15.223
		c-0.002-6.375-2.237-12.777-6.781-17.927C52.435,21.03,45.036,17.685,37.266,17.685"/>
	<path fill="#D9DBDC" d="M160.384,183.176h-0.106c-2.92,0-5.789,0.567-8.444,1.662h-0.017c-2.319,0.941-4.478,2.267-6.389,3.968
		c-3.257,2.866-5.559,6.548-6.708,10.636c-0.46,1.539-0.726,3.151-0.832,4.796c-0.194,2.993,0.23,5.931,1.186,8.692v0.017
		c0.956,2.746,2.424,5.292,4.407,7.522c1.063,1.204,2.248,2.283,3.523,3.224l0.017,0.017h0.018c1.61,1.168,3.346,2.123,5.204,2.851
		c2.408,0.918,4.956,1.432,7.575,1.468h0.019c0.141,0.018,0.301,0.018,0.442,0.018h0.672l0,0v-9.961
		c-1.864,0.677-3.947,1.059-6.238,1.059c-3.493,0-6.745-1.024-9.482-2.776c0.482,0.056,0.978,0.085,1.476,0.085
		c2.897,0,5.566-0.989,7.683-2.651c-2.708-0.045-4.992-1.834-5.778-4.293c0.375,0.073,0.764,0.112,1.164,0.112
		c0.564,0,1.111-0.073,1.63-0.219c-2.832-0.567-4.964-3.069-4.964-6.069v-0.076c0.835,0.461,1.79,0.741,2.804,0.773
		c-1.66-1.109-2.752-3.005-2.752-5.146c0-1.135,0.304-2.196,0.837-3.115c3.053,3.747,7.609,6.209,12.752,6.465
		c-0.106-0.449-0.159-0.922-0.159-1.407c0-1.263,0.378-2.438,1.028-3.418v-14.212l0,0
		C160.755,183.176,160.58,183.176,160.384,183.176"/>
	<path fill="#2A8FB5" d="M160.278,171.476c-5.451,0-10.779,1.311-15.541,3.754l0,0c-2.531,1.292-4.902,2.9-7.062,4.812
		c-2.814,2.48-5.168,5.362-6.973,8.533l0,0l0,0c-1.523,2.601-2.673,5.414-3.451,8.354l0,0c-0.549,2.123-0.904,4.336-1.045,6.584
		c-0.043,0.711-0.064,1.42-0.064,2.126c0.004,8.332,2.995,16.284,8.559,22.585c6.478,7.325,15.788,11.537,25.576,11.537h0.018
		c0.212,0,0.442,0,0.654-0.017v-11.7l0,0h-0.672c-0.141,0-0.302,0-0.442-0.018h-0.019c-2.619-0.036-5.167-0.55-7.575-1.468
		c-1.858-0.728-3.593-1.683-5.204-2.851h-0.018l-0.017-0.017c-1.275-0.94-2.46-2.02-3.523-3.224
		c-1.982-2.231-3.451-4.776-4.407-7.522v-0.017c-0.956-2.761-1.38-5.698-1.186-8.692c0.106-1.644,0.372-3.257,0.832-4.796
		c1.15-4.088,3.451-7.77,6.708-10.636c1.911-1.701,4.07-3.027,6.389-3.968h0.017c2.655-1.095,5.524-1.662,8.444-1.662h0.106
		c0.196,0,0.371,0,0.566,0.018l0,0v-11.698l0,0C160.721,171.476,160.508,171.476,160.278,171.476"/>
	<path fill="#D9DBDC" d="M159.871,33.243c-2.902,0-5.752,0.566-8.389,1.628h-0.019c-0.813,0.336-1.609,0.726-2.389,1.132h-0.019
		l-0.017,0.017c-1.434,0.798-2.78,1.737-4.018,2.834c-3.664,3.257-6.142,7.522-7.098,12.248c-0.213,1.044-0.353,2.106-0.425,3.186
		c-0.195,3.027,0.23,5.982,1.204,8.762l0,0c0.939,2.725,2.407,5.256,4.372,7.486c2.567,2.886,5.789,5.045,9.346,6.284
		c2.248,0.814,4.637,1.238,7.08,1.275l0,0c0.125,0.017,0.265,0.017,0.391,0.017h0.389c0.23,0,0.46-0.017,0.672-0.017l0,0v-7.373
		h-5.228V55.074h-3.111v-4.503h3.111v-3.024c0-1.334,0.035-3.39,1.002-4.665c0.933-1.231,2.182-2.102,4.226-2.244v-7.343l0,0
		c-0.23-0.017-0.442-0.035-0.672-0.035C160.137,33.243,160.013,33.243,159.871,33.243"/>
	<path fill="#1566A3" d="M159.871,21.526c-8.336,0-16.354,3.044-22.603,8.567c-6.832,6.036-10.903,14.373-11.451,23.485
		c-0.047,0.725-0.07,1.449-0.07,2.169c-0.001,3.38,0.505,6.702,1.468,9.868l0,0l0,0l0,0c0.85,2.831,2.071,5.54,3.646,8.053l0,0l0,0
		c1.008,1.628,2.158,3.169,3.451,4.621c3.079,3.486,6.814,6.283,10.956,8.229l0,0c4.514,2.143,9.504,3.294,14.621,3.294h0.389
		c0.23,0,0.442,0,0.672-0.018V78.094l0,0c-0.212,0-0.442,0.017-0.672,0.017h-0.389c-0.125,0-0.266,0-0.391-0.017l0,0
		c-2.442-0.037-4.832-0.46-7.08-1.275c-3.557-1.238-6.779-3.398-9.346-6.284c-1.964-2.23-3.433-4.761-4.372-7.486l0,0
		c-0.973-2.78-1.398-5.735-1.204-8.762c0.072-1.079,0.212-2.141,0.425-3.186c0.955-4.726,3.433-8.991,7.098-12.248
		c1.238-1.097,2.585-2.036,4.018-2.834l0.017-0.017h0.019c0.779-0.406,1.575-0.796,2.389-1.132h0.019
		c2.637-1.063,5.487-1.628,8.389-1.628c0.142,0,0.266,0,0.407,0.017c0.23,0,0.442,0.018,0.672,0.035l0,0V21.561l0,0
		c-0.23-0.019-0.442-0.019-0.672-0.019C160.137,21.526,160.013,21.526,159.871,21.526"/>
	<path fill="#1566A3" d="M26.062,215.655L26.062,215.655c0.105-3.557,1.629-7.045,4.495-9.574c1.327-1.171,2.851-2.056,4.496-2.604
		c1.382-0.496,2.85-0.744,4.337-0.744c3.841,0,7.486,1.645,10.036,4.516c1.381,1.555,2.336,3.344,2.849,5.237v0.019
		c0.327,1.176,0.488,2.385,0.488,3.592c-0.002,3.697-1.529,7.372-4.505,10.001c-2.442,2.177-5.593,3.361-8.851,3.361
		c-2.707,0-5.345-0.832-7.539-2.354c-0.921-0.581-1.753-1.328-2.478-2.159c-1.734-1.946-2.78-4.281-3.168-6.691
		c-0.113-0.689-0.17-1.38-0.17-2.063c0-0.174,0.003-0.348,0.011-0.52V215.655L26.062,215.655 M39.39,191.016
		c-1.752,0-3.487,0.196-5.167,0.567l0,0c-4.213,0.867-8.143,2.832-11.417,5.717c-5.592,4.952-8.447,11.86-8.45,18.798
		c-0.002,5.909,2.065,11.839,6.273,16.601c4.743,5.381,11.594,8.461,18.779,8.461c6.125,0,12.019-2.229,16.604-6.281
		c5.591-4.942,8.449-11.845,8.452-18.777c0.002-4.938-1.444-9.892-4.383-14.162l-0.017-0.021c-0.567-0.847-1.187-1.645-1.876-2.423
		c-3.735-4.228-8.779-7.045-14.248-8.053l0,0l0,0C42.452,191.159,40.93,191.016,39.39,191.016"/>
	<path fill="#2A8FB5" d="M147.33,195.766c-0.533,0.919-0.837,1.98-0.837,3.115c0,2.142,1.092,4.037,2.752,5.146
		c-1.014-0.031-1.969-0.312-2.804-0.773v0.076c0,2.999,2.133,5.501,4.964,6.069c-0.519,0.145-1.065,0.219-1.63,0.219
		c-0.4,0-0.789-0.039-1.164-0.112c0.787,2.459,3.071,4.248,5.778,4.293c-2.117,1.662-4.786,2.651-7.683,2.651
		c-0.499,0-0.994-0.029-1.476-0.085c2.738,1.752,5.989,2.776,9.482,2.776c2.291,0,4.374-0.382,6.238-1.059v-20.677
		c-0.65,0.979-1.028,2.154-1.028,3.418c0,0.485,0.052,0.958,0.159,1.407C154.939,201.975,150.383,199.513,147.33,195.766"/>
	<path fill="#1566A3" d="M160.951,40.638c-2.044,0.142-3.293,1.013-4.226,2.244c-0.967,1.275-1.002,3.331-1.002,4.665v3.024h-3.111
		v4.503h3.111v15.647h5.228V40.638"/>
</g>
</svg>
